G04*
G04 #@! TF.GenerationSoftware,Altium Limited,Altium Designer,24.9.1 (31)*
G04*
G04 Layer_Color=32768*
%FSLAX44Y44*%
%MOMM*%
G71*
G04*
G04 #@! TF.SameCoordinates,7AD2B3B8-D285-4593-8982-C88D0E3F9F4F*
G04*
G04*
G04 #@! TF.FilePolarity,Positive*
G04*
G01*
G75*
%ADD11C,0.1000*%
%ADD163C,0.0500*%
D11*
X145162Y267445D02*
X155162D01*
X150162Y262445D02*
Y272445D01*
X172077Y194886D02*
X189857D01*
X172077Y174566D02*
Y194886D01*
Y174566D02*
X189857D01*
Y194886D01*
X171767Y200076D02*
X181767D01*
X176767Y195076D02*
Y205076D01*
X180167Y200076D02*
X190167D01*
X185167Y195076D02*
Y205076D01*
X154645Y306804D02*
Y310304D01*
X152895Y308554D02*
X156395D01*
X161327Y306804D02*
Y310304D01*
X159577Y308554D02*
X163077D01*
X286270Y244249D02*
Y247750D01*
X284520Y246000D02*
X288020D01*
X85895Y247185D02*
X88370Y249660D01*
X85895D02*
X88370Y247185D01*
X69700Y74620D02*
X79700D01*
X74700Y69620D02*
Y79620D01*
X130497Y300731D02*
X140497D01*
X135497Y295731D02*
Y305731D01*
X139145Y300731D02*
X149145D01*
X144145Y295731D02*
Y305731D01*
X32236Y102365D02*
X42236D01*
X37236Y97365D02*
Y107365D01*
X15361Y102350D02*
X25361D01*
X20361Y97350D02*
Y107350D01*
X11836Y69345D02*
X47396D01*
X11836D02*
Y99825D01*
X47396D01*
Y69345D02*
Y99825D01*
X42072Y34911D02*
Y44911D01*
X37072Y39911D02*
X47072D01*
X25480Y35859D02*
X35480D01*
X30480Y30859D02*
Y40859D01*
X57855Y158125D02*
X61355D01*
X59605Y156376D02*
Y159875D01*
X136827Y229785D02*
Y233286D01*
X135077Y231535D02*
X138577D01*
X59950Y52550D02*
X69950D01*
X64950Y47550D02*
Y57550D01*
X72450Y53481D02*
X82450D01*
X77450Y48481D02*
Y58481D01*
X82700Y53307D02*
X86200D01*
X84450Y51557D02*
Y55057D01*
X104274Y151500D02*
Y169280D01*
X83954D02*
X104274D01*
X83954Y151500D02*
Y169280D01*
Y151500D02*
X104274D01*
X109354Y159590D02*
Y169590D01*
X104354Y164590D02*
X114354D01*
X109354Y151190D02*
Y161190D01*
X104354Y156190D02*
X114354D01*
X99714Y144650D02*
Y148150D01*
X97964Y146400D02*
X101464D01*
X149262Y200740D02*
Y210740D01*
X144262Y205740D02*
X154262D01*
X117000Y308460D02*
Y311960D01*
X115250Y310210D02*
X118750D01*
X117000Y302300D02*
Y305800D01*
X115250Y304050D02*
X118750D01*
X117000Y295684D02*
Y299184D01*
X115250Y297434D02*
X118750D01*
X117000Y289080D02*
Y292580D01*
X115250Y290830D02*
X118750D01*
X198640Y258111D02*
Y261611D01*
X196890Y259861D02*
X200390D01*
X198640Y264557D02*
Y268057D01*
X196890Y266307D02*
X200390D01*
X198640Y271111D02*
Y274611D01*
X196890Y272861D02*
X200390D01*
X168430Y299800D02*
X171930D01*
X170180Y298050D02*
Y301550D01*
X259245Y163856D02*
X269245D01*
X264245Y158856D02*
Y168856D01*
X262410Y176570D02*
X265910D01*
X264160Y174820D02*
Y178320D01*
X7860Y210266D02*
X17860D01*
X12860Y205266D02*
Y215266D01*
X36910Y230205D02*
X46910D01*
X41910Y225205D02*
Y235205D01*
X40160Y218015D02*
X43660D01*
X41910Y216266D02*
Y219765D01*
X78874Y100618D02*
Y126018D01*
X109354D01*
Y100618D02*
Y126018D01*
X78874Y100618D02*
X109354D01*
X86764Y146400D02*
X90265D01*
X88514Y144650D02*
Y148150D01*
X260350Y38180D02*
Y48180D01*
X255350Y43180D02*
X265350D01*
X215710Y172320D02*
Y182320D01*
X210710Y177320D02*
X220710D01*
X185400Y342980D02*
Y352980D01*
X180400Y347980D02*
X190400D01*
X12860Y150625D02*
Y160625D01*
X7860Y155625D02*
X17860D01*
X117000Y265638D02*
Y275638D01*
X112000Y270638D02*
X122000D01*
X152049Y230645D02*
X162049D01*
X157049Y225645D02*
Y235645D01*
X210710Y203200D02*
X220710D01*
X215710Y198200D02*
Y208200D01*
X268050Y346710D02*
X278050D01*
X273050Y341710D02*
Y351710D01*
X91903Y241265D02*
X111660Y221508D01*
X91903Y241265D02*
X108068Y257429D01*
X127824Y237673D01*
X111660Y221508D02*
X127824Y237673D01*
X106328Y235933D02*
X113399Y243004D01*
X106328D02*
X113399Y235933D01*
X257000Y266000D02*
X257000Y246000D01*
X247000Y256000D02*
X267000Y256000D01*
X135709Y205868D02*
X139208D01*
X137458Y204118D02*
Y207618D01*
X138680Y175008D02*
Y185008D01*
X133680Y180008D02*
X143680D01*
X231100Y339430D02*
Y349430D01*
X226100Y344430D02*
X236100D01*
X196042Y339430D02*
Y349430D01*
X191042Y344430D02*
X201042D01*
X118412Y224154D02*
X125484Y231225D01*
X118412D02*
X125484Y224154D01*
X95078Y247075D02*
X102149Y254146D01*
X95078D02*
X102149Y247075D01*
X105331Y264963D02*
Y274963D01*
X100331Y269963D02*
X110331D01*
X181130Y283195D02*
X184630D01*
X182880Y281445D02*
Y284945D01*
X292360Y179150D02*
Y189150D01*
X287360Y184150D02*
X297360D01*
X294640Y267999D02*
Y277999D01*
X289640Y272999D02*
X299640D01*
X287020Y267999D02*
Y277999D01*
X282020Y272999D02*
X292020D01*
X279400Y267999D02*
Y277999D01*
X274400Y272999D02*
X284400D01*
X225684Y271257D02*
X235684D01*
X230684Y266257D02*
Y276257D01*
X225684Y263637D02*
X235684D01*
X230684Y258637D02*
Y268637D01*
X284520Y234000D02*
X288020D01*
X286270Y232250D02*
Y235750D01*
X230684Y248750D02*
Y252250D01*
X228934Y250499D02*
X232434D01*
X197600Y177320D02*
X201100D01*
X199350Y175570D02*
Y179070D01*
X174275Y339730D02*
Y349730D01*
X169275Y344730D02*
X179275D01*
X146912Y218420D02*
X156912D01*
X151912Y213420D02*
Y223420D01*
X157412Y218420D02*
X167412D01*
X162412Y213420D02*
Y223420D01*
X205700Y342980D02*
Y352980D01*
X200700Y347980D02*
X210700D01*
X177880Y276195D02*
X187880D01*
X182880Y271195D02*
Y281195D01*
X274550Y131055D02*
Y141055D01*
X269550Y136055D02*
X279550D01*
X247650Y131055D02*
Y141055D01*
X242650Y136055D02*
X252650D01*
X217605Y115061D02*
X227605D01*
X222605Y110061D02*
Y120061D01*
X95532Y98270D02*
X105532D01*
X100532Y93270D02*
Y103270D01*
X41910Y157540D02*
Y167540D01*
X36910Y162540D02*
X46910D01*
X41910Y174084D02*
Y177584D01*
X40160Y175834D02*
X43660D01*
X44450Y244771D02*
Y248271D01*
X42700Y246521D02*
X46200D01*
X53816Y244771D02*
Y248271D01*
X52066Y246521D02*
X55566D01*
X215860Y339430D02*
Y349430D01*
X210860Y344430D02*
X220860D01*
X221690Y347080D02*
X225190D01*
X223440Y345330D02*
Y348830D01*
X52070Y156376D02*
Y159875D01*
X50320Y158125D02*
X53820D01*
D163*
X124762Y242045D02*
X175562D01*
X124762D02*
Y292845D01*
X175562D01*
Y242045D02*
Y292845D01*
X151645Y314054D02*
X157645D01*
X151645Y303054D02*
X157645D01*
Y314054D01*
X151645Y303054D02*
Y314054D01*
X158327D02*
X164327D01*
X158327Y303054D02*
X164327D01*
Y314054D01*
X158327Y303054D02*
Y314054D01*
X280770Y242999D02*
X291770D01*
X280770Y249000D02*
X291770D01*
Y242999D02*
Y249000D01*
X280770Y242999D02*
Y249000D01*
X88900Y254433D02*
X93143Y250190D01*
X81122Y246654D02*
X85365Y242412D01*
X93143Y250190D01*
X81122Y246654D02*
X88900Y254433D01*
X10645Y255945D02*
X90955D01*
Y353655D01*
X10645D02*
X90955D01*
X10645Y255945D02*
Y353655D01*
X22731Y40647D02*
Y55887D01*
X37971D01*
Y40647D02*
Y55887D01*
X22731Y40647D02*
X37971D01*
X56605Y152626D02*
Y163626D01*
X62605Y152626D02*
Y163626D01*
X56605Y152626D02*
X62605D01*
X56605Y163626D02*
X62605D01*
X133827Y226035D02*
X139827D01*
X133827Y237036D02*
X139827D01*
X133827Y226035D02*
Y237036D01*
X139827Y226035D02*
Y237036D01*
X81450Y47807D02*
Y58807D01*
X87450Y47807D02*
Y58807D01*
X81450Y47807D02*
X87450D01*
X81450Y58807D02*
X87450D01*
X94214Y149400D02*
X105214D01*
X94214Y143400D02*
X105214D01*
X94214D02*
Y149400D01*
X105214Y143400D02*
Y149400D01*
X111500Y313210D02*
X122500D01*
X111500Y307210D02*
X122500D01*
X111500D02*
Y313210D01*
X122500Y307210D02*
Y313210D01*
X111500Y307050D02*
X122500D01*
X111500Y301050D02*
X122500D01*
X111500D02*
Y307050D01*
X122500Y301050D02*
Y307050D01*
X111500Y300434D02*
X122500D01*
X111500Y294434D02*
X122500D01*
X111500D02*
Y300434D01*
X122500Y294434D02*
Y300434D01*
X111500Y293830D02*
X122500D01*
X111500Y287830D02*
X122500D01*
X111500D02*
Y293830D01*
X122500Y287830D02*
Y293830D01*
X193140Y262861D02*
X204140D01*
X193140Y256861D02*
X204140D01*
X193140D02*
Y262861D01*
X204140Y256861D02*
Y262861D01*
X193140Y269307D02*
X204140D01*
X193140Y263307D02*
X204140D01*
X193140D02*
Y269307D01*
X204140Y263307D02*
Y269307D01*
X193140Y275861D02*
X204140D01*
X193140Y269861D02*
X204140D01*
X193140D02*
Y275861D01*
X204140Y269861D02*
Y275861D01*
X167180Y294300D02*
Y305300D01*
X173180Y294300D02*
Y305300D01*
X167180Y294300D02*
X173180D01*
X167180Y305300D02*
X173180D01*
X261160Y171070D02*
Y182070D01*
X267160Y171070D02*
Y182070D01*
X261160Y171070D02*
X267160D01*
X261160Y182070D02*
X267160D01*
X44910Y212516D02*
Y223515D01*
X38910Y212516D02*
Y223515D01*
X44910D01*
X38910Y212516D02*
X44910D01*
X83014Y143400D02*
Y149400D01*
X94015Y143400D02*
Y149400D01*
X83014D02*
X94015D01*
X83014Y143400D02*
X94015D01*
X275590Y97790D02*
Y121920D01*
Y97790D02*
X294640D01*
Y8890D02*
Y97790D01*
X226060Y8890D02*
X294640D01*
X245110Y97790D02*
Y121920D01*
X275590D01*
X226060Y8890D02*
Y97790D01*
X245110D01*
X193715Y117354D02*
X233715D01*
X193715D02*
Y148854D01*
X233715D01*
Y117354D02*
Y148854D01*
X192747Y228981D02*
Y259141D01*
X177587Y228981D02*
Y259141D01*
Y228981D02*
X192747D01*
X177587Y259141D02*
X192747D01*
X251380Y123190D02*
Y140970D01*
X269160D01*
X251380Y123190D02*
X269160D01*
Y140970D01*
X131959Y202868D02*
Y208868D01*
X142958Y202868D02*
Y208868D01*
X131959D02*
X142958D01*
X131959Y202868D02*
X142958D01*
X188380Y280195D02*
Y286195D01*
X177380Y280195D02*
Y286195D01*
Y280195D02*
X188380D01*
X177380Y286195D02*
X188380D01*
X280770Y231000D02*
Y237000D01*
X291770Y231000D02*
Y237000D01*
X280770D02*
X291770D01*
X280770Y231000D02*
X291770D01*
X227684Y256000D02*
X233684D01*
X227684Y245000D02*
X233684D01*
Y256000D01*
X227684Y245000D02*
Y256000D01*
X204850Y174320D02*
Y180320D01*
X193850Y174320D02*
Y180320D01*
Y174320D02*
X204850D01*
X193850Y180320D02*
X204850D01*
X38910Y181334D02*
X44910D01*
X38910Y170334D02*
X44910D01*
Y181334D01*
X38910Y170334D02*
Y181334D01*
X41450Y252021D02*
X47450Y252020D01*
X41450Y241021D02*
X47450D01*
Y252020D01*
X41450Y252021D02*
X41450Y241021D01*
X50816Y241021D02*
X56816D01*
X50816Y252021D02*
X56816D01*
X50816Y241021D02*
Y252021D01*
X56816Y241021D02*
Y252021D01*
X217940Y344080D02*
Y350080D01*
X228940Y344080D02*
Y350080D01*
X217940D02*
X228940D01*
X217940Y344080D02*
X228940D01*
X49070Y163626D02*
X55070D01*
X49070Y152626D02*
X55070D01*
Y163626D01*
X49070Y152626D02*
Y163626D01*
M02*
