G04*
G04 #@! TF.GenerationSoftware,Altium Limited,Altium Designer,24.9.1 (31)*
G04*
G04 Layer_Color=8388736*
%FSLAX44Y44*%
%MOMM*%
G71*
G04*
G04 #@! TF.SameCoordinates,7AD2B3B8-D285-4593-8982-C88D0E3F9F4F*
G04*
G04*
G04 #@! TF.FilePolarity,Positive*
G04*
G01*
G75*
%ADD10C,0.2000*%
D10*
X175117Y196926D02*
Y203226D01*
X178417D01*
Y196926D02*
Y203226D01*
X175117Y196926D02*
X178417D01*
X183517D02*
Y203226D01*
X186817D01*
Y196926D02*
Y203226D01*
X183517Y196926D02*
X186817D01*
X61700Y64120D02*
X87700D01*
Y85120D01*
X61700D02*
X87700D01*
X61700Y64120D02*
Y85120D01*
X132997Y295731D02*
X137997D01*
Y305731D01*
X132997D02*
X137997D01*
X132997Y295731D02*
Y305731D01*
X141645Y295731D02*
X146645D01*
Y305731D01*
X141645D02*
X146645D01*
X141645Y295731D02*
Y305731D01*
X34086Y100715D02*
Y104015D01*
Y100715D02*
X40386D01*
Y104015D01*
X34086D02*
X40386D01*
X17211Y100700D02*
Y104000D01*
Y100700D02*
X23511D01*
Y104000D01*
X17211D02*
X23511D01*
X44572Y34911D02*
Y44911D01*
X39572Y34911D02*
X44572D01*
X39572D02*
Y44911D01*
X44572D01*
X25480Y38359D02*
X35480D01*
Y33359D02*
Y38359D01*
X25480Y33359D02*
X35480D01*
X25480D02*
Y38359D01*
X62450Y57550D02*
X67450D01*
X62450Y47550D02*
Y57550D01*
Y47550D02*
X67450D01*
Y57550D01*
X79100Y50331D02*
Y56631D01*
X75800Y50331D02*
X79100D01*
X75800D02*
Y56631D01*
X79100D01*
X106204Y166240D02*
X112504D01*
Y162940D02*
Y166240D01*
X106204Y162940D02*
X112504D01*
X106204D02*
Y166240D01*
Y157840D02*
X112504D01*
Y154540D02*
Y157840D01*
X106204Y154540D02*
X112504D01*
X106204D02*
Y157840D01*
X146112Y204090D02*
X152412D01*
X146112D02*
Y207390D01*
X152412D01*
Y204090D02*
Y207390D01*
X262595Y160706D02*
Y167006D01*
X265895D01*
Y160706D02*
Y167006D01*
X262595Y160706D02*
X265895D01*
X-2140Y190266D02*
Y230266D01*
Y190266D02*
X27860D01*
X-2140Y230266D02*
X27860D01*
Y190266D02*
Y230266D01*
X43560Y227055D02*
Y233356D01*
X40260Y227055D02*
X43560D01*
X40260D02*
Y233356D01*
X43560D01*
X210760Y174770D02*
Y179870D01*
Y174770D02*
X220660D01*
Y179870D01*
X210760D02*
X220660D01*
X55880Y203200D02*
X88900D01*
Y185420D02*
Y203200D01*
X55880Y185420D02*
Y203200D01*
Y185420D02*
X88900D01*
X190900Y344480D02*
Y351480D01*
X179900D02*
X190900D01*
X179900Y344480D02*
Y351480D01*
Y344480D02*
X190900D01*
X27860Y135625D02*
Y175625D01*
X-2140D02*
X27860D01*
X-2140Y135625D02*
X27860D01*
X-2140D02*
Y175625D01*
X121000Y262638D02*
Y278638D01*
X113000Y262638D02*
X121000D01*
X113000D02*
Y278638D01*
X121000D01*
X146299Y237145D02*
X167799D01*
Y224145D02*
Y237145D01*
X146299Y224145D02*
X167799D01*
X146299D02*
Y237145D01*
X201210Y196700D02*
X230210D01*
Y209700D01*
X201210D02*
X230210D01*
X201210Y196700D02*
Y209700D01*
X256050Y355710D02*
X290050D01*
Y337710D02*
Y355710D01*
X256050Y337710D02*
X290050D01*
X256050D02*
Y355710D01*
X125180Y170508D02*
X152180D01*
Y189508D01*
X125180D02*
X152180D01*
X125180Y170508D02*
Y189508D01*
X229450Y347580D02*
X232750D01*
X229450Y341280D02*
Y347580D01*
Y341280D02*
X232750D01*
Y347580D01*
X194392D02*
X197692D01*
X194392Y341280D02*
Y347580D01*
Y341280D02*
X197692D01*
Y347580D01*
X118554Y226629D02*
X120887Y224295D01*
X125342Y228750D01*
X123009Y231083D02*
X125342Y228750D01*
X118554Y226629D02*
X123009Y231083D01*
X99674Y254004D02*
X102008Y251671D01*
X95219Y249550D02*
X99674Y254004D01*
X95219Y249550D02*
X97553Y247216D01*
X102008Y251671D01*
X102831Y264963D02*
Y274963D01*
X107831D01*
Y264963D02*
Y274963D01*
X102831Y264963D02*
X107831D01*
X277360Y164150D02*
Y204150D01*
Y164150D02*
X307360D01*
X277360Y204150D02*
X307360D01*
Y164150D02*
Y204150D01*
X297140Y267999D02*
Y277999D01*
X292140Y267999D02*
X297140D01*
X292140D02*
Y277999D01*
X297140D01*
X289520Y267999D02*
Y277999D01*
X284520Y267999D02*
X289520D01*
X284520D02*
Y277999D01*
X289520D01*
X281900Y267999D02*
Y277999D01*
X276900Y267999D02*
X281900D01*
X276900D02*
Y277999D01*
X281900D01*
X225684Y268757D02*
X235684D01*
X225684D02*
Y273757D01*
X235684D01*
Y268757D02*
Y273757D01*
X225684Y261137D02*
X235684D01*
X225684D02*
Y266137D01*
X235684D01*
Y261137D02*
Y266137D01*
X172625Y347880D02*
X175925D01*
X172625Y341580D02*
Y347880D01*
Y341580D02*
X175925D01*
Y347880D01*
X148762Y216770D02*
Y220070D01*
Y216770D02*
X155062D01*
Y220070D01*
X148762D02*
X155062D01*
X165562Y216770D02*
Y220070D01*
X159262D02*
X165562D01*
X159262Y216770D02*
Y220070D01*
Y216770D02*
X165562D01*
X211200Y344480D02*
Y351480D01*
X200200D02*
X211200D01*
X200200Y344480D02*
Y351480D01*
Y344480D02*
X211200D01*
X177880Y278695D02*
X187880D01*
Y273695D02*
Y278695D01*
X177880Y273695D02*
X187880D01*
X177880D02*
Y278695D01*
X272050Y131055D02*
Y141055D01*
X277050D01*
Y131055D02*
Y141055D01*
X272050Y131055D02*
X277050D01*
X250150D02*
Y141055D01*
X245150Y131055D02*
X250150D01*
X245150D02*
Y141055D01*
X250150D01*
X225755Y113411D02*
Y116711D01*
X219455D02*
X225755D01*
X219455Y113411D02*
Y116711D01*
Y113411D02*
X225755D01*
X103682Y96620D02*
Y99920D01*
X97382D02*
X103682D01*
X97382Y96620D02*
Y99920D01*
Y96620D02*
X103682D01*
X40260Y159390D02*
X43560D01*
Y165690D01*
X40260D02*
X43560D01*
X40260Y159390D02*
Y165690D01*
X214210Y347580D02*
X217510D01*
X214210Y341280D02*
Y347580D01*
Y341280D02*
X217510D01*
Y347580D01*
M02*
