G04*
G04 #@! TF.GenerationSoftware,Altium Limited,Altium Designer,24.9.1 (31)*
G04*
G04 Layer_Physical_Order=1*
G04 Layer_Color=255*
%FSLAX44Y44*%
%MOMM*%
G71*
G04*
G04 #@! TF.SameCoordinates,7AD2B3B8-D285-4593-8982-C88D0E3F9F4F*
G04*
G04*
G04 #@! TF.FilePolarity,Positive*
G04*
G01*
G75*
%ADD20C,0.2170*%
%ADD21R,0.6600X0.2200*%
%ADD22R,0.6600X0.3200*%
%ADD23R,0.3000X0.2800*%
%ADD24R,0.2500X0.3500*%
%ADD25R,0.3500X0.2500*%
G04:AMPARAMS|DCode=26|XSize=0.25mm|YSize=0.35mm|CornerRadius=0mm|HoleSize=0mm|Usage=FLASHONLY|Rotation=315.000|XOffset=0mm|YOffset=0mm|HoleType=Round|Shape=Rectangle|*
%AMROTATEDRECTD26*
4,1,4,-0.2121,-0.0354,0.0354,0.2121,0.2121,0.0354,-0.0354,-0.2121,-0.2121,-0.0354,0.0*
%
%ADD26ROTATEDRECTD26*%

%ADD27R,0.4725X0.4682*%
%ADD28R,0.2800X0.3000*%
%ADD29R,0.4750X0.2500*%
%ADD30R,0.2500X0.4750*%
%ADD31C,0.2080*%
%ADD32R,0.4682X0.4725*%
%ADD33R,0.2200X0.6600*%
%ADD34R,0.3200X0.6600*%
%ADD35R,0.7000X0.5000*%
%ADD36C,1.0000*%
%ADD37R,0.5500X0.3500*%
%ADD38R,0.7000X1.6000*%
G04:AMPARAMS|DCode=39|XSize=1.94mm|YSize=0.76mm|CornerRadius=0.19mm|HoleSize=0mm|Usage=FLASHONLY|Rotation=90.000|XOffset=0mm|YOffset=0mm|HoleType=Round|Shape=RoundedRectangle|*
%AMROUNDEDRECTD39*
21,1,1.9400,0.3800,0,0,90.0*
21,1,1.5600,0.7600,0,0,90.0*
1,1,0.3800,0.1900,0.7800*
1,1,0.3800,0.1900,-0.7800*
1,1,0.3800,-0.1900,-0.7800*
1,1,0.3800,-0.1900,0.7800*
%
%ADD39ROUNDEDRECTD39*%
%ADD40R,1.0200X1.0600*%
%ADD41R,0.6957X0.6825*%
%ADD42R,0.3500X0.6500*%
%ADD43R,1.1062X1.2549*%
%ADD44R,0.7500X1.4000*%
G04:AMPARAMS|DCode=45|XSize=1.5242mm|YSize=0.578mm|CornerRadius=0.289mm|HoleSize=0mm|Usage=FLASHONLY|Rotation=90.000|XOffset=0mm|YOffset=0mm|HoleType=Round|Shape=RoundedRectangle|*
%AMROUNDEDRECTD45*
21,1,1.5242,0.0000,0,0,90.0*
21,1,0.9463,0.5780,0,0,90.0*
1,1,0.5780,0.0000,0.4731*
1,1,0.5780,0.0000,-0.4731*
1,1,0.5780,0.0000,-0.4731*
1,1,0.5780,0.0000,0.4731*
%
%ADD45ROUNDEDRECTD45*%
%ADD46R,0.5780X1.5242*%
%ADD47R,0.8000X1.6000*%
G04:AMPARAMS|DCode=48|XSize=0.9mm|YSize=0.8mm|CornerRadius=0mm|HoleSize=0mm|Usage=FLASHONLY|Rotation=135.000|XOffset=0mm|YOffset=0mm|HoleType=Round|Shape=Rectangle|*
%AMROTATEDRECTD48*
4,1,4,0.6010,-0.0354,0.0354,-0.6010,-0.6010,0.0354,-0.0354,0.6010,0.6010,-0.0354,0.0*
%
%ADD48ROTATEDRECTD48*%

%ADD49R,0.9200X0.9000*%
%ADD50R,0.4000X0.2000*%
%ADD51C,0.2900*%
G04:AMPARAMS|DCode=52|XSize=0.28mm|YSize=0.3mm|CornerRadius=0mm|HoleSize=0mm|Usage=FLASHONLY|Rotation=45.000|XOffset=0mm|YOffset=0mm|HoleType=Round|Shape=Rectangle|*
%AMROTATEDRECTD52*
4,1,4,0.0071,-0.2051,-0.2051,0.0071,-0.0071,0.2051,0.2051,-0.0071,0.0071,-0.2051,0.0*
%
%ADD52ROTATEDRECTD52*%

%ADD60R,0.3500X0.3500*%
%ADD67C,0.6975*%
%ADD74R,0.2000X0.2000*%
%ADD76C,1.0395*%
%ADD81R,0.5500X0.5500*%
%ADD84R,1.1500X1.1500*%
%ADD85C,1.1500*%
G04:AMPARAMS|DCode=86|XSize=1mm|YSize=1.6mm|CornerRadius=0.5mm|HoleSize=0mm|Usage=FLASHONLY|Rotation=180.000|XOffset=0mm|YOffset=0mm|HoleType=Round|Shape=RoundedRectangle|*
%AMROUNDEDRECTD86*
21,1,1.0000,0.6000,0,0,180.0*
21,1,0.0000,1.6000,0,0,180.0*
1,1,1.0000,0.0000,0.3000*
1,1,1.0000,0.0000,0.3000*
1,1,1.0000,0.0000,-0.3000*
1,1,1.0000,0.0000,-0.3000*
%
%ADD86ROUNDEDRECTD86*%
G04:AMPARAMS|DCode=87|XSize=1.2mm|YSize=0.6mm|CornerRadius=0.3mm|HoleSize=0mm|Usage=FLASHONLY|Rotation=180.000|XOffset=0mm|YOffset=0mm|HoleType=Round|Shape=RoundedRectangle|*
%AMROUNDEDRECTD87*
21,1,1.2000,0.0000,0,0,180.0*
21,1,0.6000,0.6000,0,0,180.0*
1,1,0.6000,-0.3000,0.0000*
1,1,0.6000,0.3000,0.0000*
1,1,0.6000,0.3000,0.0000*
1,1,0.6000,-0.3000,0.0000*
%
%ADD87ROUNDEDRECTD87*%
G04:AMPARAMS|DCode=88|XSize=0.6mm|YSize=1.6mm|CornerRadius=0.3mm|HoleSize=0mm|Usage=FLASHONLY|Rotation=180.000|XOffset=0mm|YOffset=0mm|HoleType=Round|Shape=RoundedRectangle|*
%AMROUNDEDRECTD88*
21,1,0.6000,1.0000,0,0,180.0*
21,1,0.0000,1.6000,0,0,180.0*
1,1,0.6000,0.0000,0.5000*
1,1,0.6000,0.0000,0.5000*
1,1,0.6000,0.0000,-0.5000*
1,1,0.6000,0.0000,-0.5000*
%
%ADD88ROUNDEDRECTD88*%
%ADD91C,0.8000*%
%ADD92C,0.7870*%
%ADD93R,1.1000X1.4000*%
%ADD94R,1.1000X0.7000*%
%ADD95R,1.0320X0.6220*%
%ADD96R,1.0320X0.5000*%
%ADD97C,0.1731*%
%ADD98C,1.0670*%
%ADD99C,2.4510*%
%ADD100C,0.2500*%
%ADD101C,0.4500*%
G36*
X159367Y312804D02*
X162577D01*
Y309304D01*
X159367D01*
Y309293D01*
X156730D01*
Y309304D01*
X153395D01*
Y312804D01*
X156730D01*
Y316446D01*
X159367D01*
Y312804D01*
D02*
G37*
G36*
X146508Y294368D02*
X133135D01*
Y299050D01*
X146508D01*
Y294368D01*
D02*
G37*
G36*
X247000Y272999D02*
X243000D01*
X243000Y279000D01*
X247000D01*
X247000Y272999D01*
D02*
G37*
G36*
X297002Y274680D02*
X271000Y274680D01*
Y265000D01*
X267000D01*
Y279362D01*
X297002D01*
Y274680D01*
D02*
G37*
G36*
X237047Y271000D02*
X247000D01*
Y269000D01*
X247000Y265000D01*
X243000D01*
X242943Y265057D01*
X237047D01*
Y261275D01*
X232365D01*
Y273619D01*
X237047D01*
Y271000D01*
D02*
G37*
G36*
X17360Y228765D02*
X17360D01*
X17360Y227970D01*
X16751Y226500D01*
X15626Y225374D01*
X14156Y224765D01*
X13360Y224765D01*
X10360D01*
Y221266D01*
X3860D01*
Y232766D01*
X17360D01*
X17360Y228765D01*
D02*
G37*
G36*
X301360Y195150D02*
X294860D01*
Y198650D01*
X291860D01*
X291064Y198650D01*
X289594Y199259D01*
X288469Y200384D01*
X287860Y201854D01*
X287860Y202650D01*
X287860Y206650D01*
X301360D01*
Y195150D01*
D02*
G37*
G36*
X178267Y192826D02*
X180067D01*
Y189626D01*
X173467D01*
Y192826D01*
X175267D01*
Y198826D01*
X178267D01*
Y192826D01*
D02*
G37*
G36*
X186667Y196026D02*
X186649Y196008D01*
Y191826D01*
X188467D01*
Y189626D01*
X181867D01*
Y191826D01*
X183667D01*
Y198826D01*
X186667D01*
Y196026D01*
D02*
G37*
G36*
X10360Y195765D02*
X13360Y195765D01*
X14156Y195765D01*
X15626Y195156D01*
X16751Y194031D01*
X17360Y192561D01*
X17360Y191765D01*
X17360Y191765D01*
X17360Y187766D01*
X3860D01*
Y199265D01*
X10360D01*
Y195765D01*
D02*
G37*
G36*
X209100Y180732D02*
X214355D01*
Y173908D01*
X200100D01*
Y180732D01*
X203178D01*
Y201719D01*
X209100D01*
Y180732D01*
D02*
G37*
G36*
X17360Y174125D02*
X17360D01*
X17360Y173330D01*
X16751Y171860D01*
X15626Y170734D01*
X14156Y170125D01*
X13360Y170126D01*
X10360D01*
Y166625D01*
X3860D01*
Y178125D01*
X17360D01*
X17360Y174125D01*
D02*
G37*
G36*
X301360Y161650D02*
X287860D01*
X287860Y165650D01*
D01*
Y165650D01*
Y165650D01*
X287860Y166446D01*
X288469Y167916D01*
X289594Y169041D01*
X291064Y169650D01*
X291860Y169650D01*
X294860Y169650D01*
Y173150D01*
X301360D01*
Y161650D01*
D02*
G37*
G36*
X105304Y166090D02*
X108104D01*
Y163090D01*
X105104D01*
X103304Y161290D01*
X99015D01*
Y167890D01*
X103504D01*
X105304Y166090D01*
D02*
G37*
G36*
X57156Y162376D02*
X60855D01*
Y158876D01*
X50820D01*
Y162376D01*
X54519D01*
Y166028D01*
X57156D01*
Y162376D01*
D02*
G37*
G36*
X108104Y154690D02*
X103964D01*
Y145150D01*
X100464D01*
Y152890D01*
X99014D01*
X99014Y159490D01*
X108104D01*
Y154690D01*
D02*
G37*
G36*
X10360Y141125D02*
X13360Y141125D01*
X14156Y141125D01*
X15626Y140517D01*
X16751Y139391D01*
X17360Y137921D01*
X17360Y137126D01*
X17360Y137126D01*
X17360Y133125D01*
X3860D01*
Y144626D01*
X10360D01*
Y141125D01*
D02*
G37*
G36*
X229925Y121154D02*
X229904Y121175D01*
X226655D01*
Y113561D01*
X223855D01*
Y121150D01*
X219605Y121154D01*
Y127374D01*
X229925D01*
Y121154D01*
D02*
G37*
G36*
X106114Y106568D02*
X104582Y106568D01*
Y96770D01*
X101782D01*
Y106568D01*
X100614Y106568D01*
X100614Y110068D01*
X106114D01*
Y106568D01*
D02*
G37*
G36*
X35986Y91340D02*
X33186D01*
Y103865D01*
X35986D01*
Y91340D01*
D02*
G37*
G36*
X20361Y90835D02*
X15611D01*
Y103850D01*
X20361D01*
Y90835D01*
D02*
G37*
G36*
X79700Y54731D02*
Y54231D01*
X62588D01*
Y58912D01*
Y69120D01*
X67312D01*
Y58912D01*
X75950D01*
X75950Y69120D01*
X79700D01*
Y54731D01*
D02*
G37*
G36*
X217170Y81807D02*
X217170Y2645D01*
X199495D01*
Y52070D01*
X199092Y53042D01*
X198120Y53445D01*
X106680D01*
X105708Y53042D01*
X105305Y52070D01*
Y2645D01*
X90614D01*
Y81807D01*
X217170Y81807D01*
D02*
G37*
D20*
X169412Y248195D02*
D03*
X165912D02*
D03*
X162412D02*
D03*
X158912D02*
D03*
X155412D02*
D03*
X151912D02*
D03*
X148412D02*
D03*
X144912D02*
D03*
X141412D02*
D03*
X137912D02*
D03*
X134412D02*
D03*
X130912D02*
D03*
X169412Y251695D02*
D03*
X165912D02*
D03*
X162412D02*
D03*
X158912D02*
D03*
X155412D02*
D03*
X151912D02*
D03*
X148412D02*
D03*
X144912D02*
D03*
X141412D02*
D03*
X137912D02*
D03*
X134412D02*
D03*
X130912D02*
D03*
X169412Y255195D02*
D03*
X165912D02*
D03*
X162412D02*
D03*
X158912D02*
D03*
X155412D02*
D03*
X151912D02*
D03*
X148412D02*
D03*
X144912D02*
D03*
X141412D02*
D03*
X137912D02*
D03*
X134412D02*
D03*
X130912D02*
D03*
X169412Y258695D02*
D03*
X165912D02*
D03*
X162412D02*
D03*
X158912D02*
D03*
X155412D02*
D03*
X151912D02*
D03*
X148412D02*
D03*
X144912D02*
D03*
X141412D02*
D03*
X137912D02*
D03*
X134412D02*
D03*
X130912D02*
D03*
X169412Y262195D02*
D03*
X165912D02*
D03*
X162412D02*
D03*
X158912D02*
D03*
X155412D02*
D03*
X151912D02*
D03*
X148412D02*
D03*
X144912D02*
D03*
X141412D02*
D03*
X137912D02*
D03*
X134412D02*
D03*
X130912D02*
D03*
X169412Y265695D02*
D03*
X165912D02*
D03*
X162412D02*
D03*
X158912D02*
D03*
X141412D02*
D03*
X137912D02*
D03*
X134412D02*
D03*
X130912D02*
D03*
X169412Y269195D02*
D03*
X165912D02*
D03*
X162412D02*
D03*
X158912D02*
D03*
X141412D02*
D03*
X137912D02*
D03*
X134412D02*
D03*
X130912D02*
D03*
X169412Y272695D02*
D03*
X165912D02*
D03*
X162412D02*
D03*
X158912D02*
D03*
X141412D02*
D03*
X137912D02*
D03*
X134412D02*
D03*
X130912D02*
D03*
X169412Y276195D02*
D03*
X165912D02*
D03*
X162412D02*
D03*
X158912D02*
D03*
X155412D02*
D03*
X151912D02*
D03*
X148412D02*
D03*
X144912D02*
D03*
X141412D02*
D03*
X137912D02*
D03*
X134412D02*
D03*
X130912D02*
D03*
X169412Y279695D02*
D03*
X165912D02*
D03*
X162412D02*
D03*
X158912D02*
D03*
X155412D02*
D03*
X151912D02*
D03*
X148412D02*
D03*
X144912D02*
D03*
X141412D02*
D03*
X137912D02*
D03*
X134412D02*
D03*
X130912D02*
D03*
X169412Y283195D02*
D03*
X165912D02*
D03*
X158912D02*
D03*
X155412D02*
D03*
X151912D02*
D03*
X148412D02*
D03*
X144912D02*
D03*
X141412D02*
D03*
X137912D02*
D03*
X134412D02*
D03*
X130912D02*
D03*
X169412Y286695D02*
D03*
X165912D02*
D03*
X162412D02*
D03*
X158912D02*
D03*
X155412D02*
D03*
X151912D02*
D03*
X148412D02*
D03*
X144912D02*
D03*
X141412D02*
D03*
X137912D02*
D03*
X134412D02*
D03*
X130912D02*
D03*
D21*
X185167Y190726D02*
D03*
Y186726D02*
D03*
Y182726D02*
D03*
Y178726D02*
D03*
X176767D02*
D03*
Y182726D02*
D03*
Y186726D02*
D03*
D22*
Y191226D02*
D03*
D23*
Y197426D02*
D03*
Y202726D02*
D03*
X185167Y197426D02*
D03*
Y202726D02*
D03*
X77450Y56131D02*
D03*
Y50831D02*
D03*
X264245Y161206D02*
D03*
Y166506D02*
D03*
X41910Y232855D02*
D03*
Y227556D02*
D03*
X231100Y341780D02*
D03*
Y347080D02*
D03*
X196042Y341780D02*
D03*
Y347080D02*
D03*
X174275Y342080D02*
D03*
Y347380D02*
D03*
X41910Y165190D02*
D03*
Y159890D02*
D03*
X215860Y341780D02*
D03*
Y347080D02*
D03*
D24*
X154645Y311054D02*
D03*
Y306054D02*
D03*
X161327Y311054D02*
D03*
Y306054D02*
D03*
X59605Y155625D02*
D03*
Y160625D02*
D03*
X136827Y229035D02*
D03*
Y234035D02*
D03*
X84450Y50807D02*
D03*
Y55807D02*
D03*
X170180Y297300D02*
D03*
Y302300D02*
D03*
X264160Y174070D02*
D03*
Y179070D02*
D03*
X41910Y220515D02*
D03*
Y215515D02*
D03*
X230684Y252999D02*
D03*
Y247999D02*
D03*
X41910Y178334D02*
D03*
Y173334D02*
D03*
X44450Y249021D02*
D03*
Y244021D02*
D03*
X53816D02*
D03*
Y249021D02*
D03*
X52070Y160625D02*
D03*
Y155625D02*
D03*
D25*
X288770Y246000D02*
D03*
X283770D02*
D03*
X114500Y304050D02*
D03*
Y290830D02*
D03*
Y297434D02*
D03*
Y310210D02*
D03*
X97214Y146400D02*
D03*
X102214D02*
D03*
X119500Y310210D02*
D03*
Y304050D02*
D03*
Y297434D02*
D03*
Y290830D02*
D03*
X196140Y259861D02*
D03*
X201140D02*
D03*
X196140Y266307D02*
D03*
X201140D02*
D03*
X196140Y272861D02*
D03*
X201140D02*
D03*
X86014Y146400D02*
D03*
X91014D02*
D03*
X134958Y205868D02*
D03*
X139958D02*
D03*
X185380Y283195D02*
D03*
X180380D02*
D03*
X283770Y234000D02*
D03*
X288770D02*
D03*
X201850Y177320D02*
D03*
X196850D02*
D03*
X220940Y347080D02*
D03*
X225940D02*
D03*
D26*
X88900Y250190D02*
D03*
X85365Y246654D02*
D03*
D27*
X135497Y304752D02*
D03*
Y296709D02*
D03*
X144145Y304752D02*
D03*
Y296709D02*
D03*
X42072Y43933D02*
D03*
Y35890D02*
D03*
X64950Y48528D02*
D03*
Y56571D02*
D03*
X105331Y265941D02*
D03*
Y273984D02*
D03*
X294640Y277021D02*
D03*
Y268978D02*
D03*
X287020Y277021D02*
D03*
Y268978D02*
D03*
X279400Y277021D02*
D03*
Y268978D02*
D03*
X274550Y132033D02*
D03*
Y140076D02*
D03*
X247650D02*
D03*
Y132033D02*
D03*
D28*
X39886Y102365D02*
D03*
X34586D02*
D03*
X23011Y102350D02*
D03*
X17711D02*
D03*
X106704Y164590D02*
D03*
X112004D02*
D03*
X106704Y156190D02*
D03*
X112004D02*
D03*
X151912Y205740D02*
D03*
X146612D02*
D03*
X154562Y218420D02*
D03*
X149262D02*
D03*
X159762D02*
D03*
X165062D02*
D03*
X219955Y115061D02*
D03*
X225255D02*
D03*
X97882Y98270D02*
D03*
X103182D02*
D03*
D29*
X41246Y77085D02*
D03*
Y82085D02*
D03*
Y87085D02*
D03*
Y92085D02*
D03*
X17986D02*
D03*
Y87085D02*
D03*
Y82085D02*
D03*
Y77085D02*
D03*
D30*
X34616Y93715D02*
D03*
X29616D02*
D03*
X24616D02*
D03*
Y75455D02*
D03*
X29616D02*
D03*
X34616D02*
D03*
D31*
X26351Y44267D02*
D03*
Y48267D02*
D03*
Y52267D02*
D03*
X30352Y44267D02*
D03*
Y52267D02*
D03*
X34351Y44267D02*
D03*
Y48267D02*
D03*
Y52267D02*
D03*
D32*
X26458Y35859D02*
D03*
X34501D02*
D03*
X234706Y271257D02*
D03*
X226663D02*
D03*
X234706Y263637D02*
D03*
X226663D02*
D03*
X178859Y276195D02*
D03*
X186901D02*
D03*
D33*
X100114Y156190D02*
D03*
X96114D02*
D03*
X92114D02*
D03*
X88115D02*
D03*
Y164590D02*
D03*
X92114D02*
D03*
X96114D02*
D03*
D34*
X100615D02*
D03*
D35*
X143085Y196489D02*
D03*
X132086D02*
D03*
D36*
X185420Y300550D02*
D03*
D37*
X103364Y108318D02*
D03*
Y118318D02*
D03*
X84864D02*
D03*
Y108318D02*
D03*
D38*
X94114Y113318D02*
D03*
D39*
X265430Y106680D02*
D03*
X255270D02*
D03*
D40*
X185167Y236781D02*
D03*
Y251341D02*
D03*
D41*
X220544Y177320D02*
D03*
X210876D02*
D03*
D42*
X181150Y347980D02*
D03*
X189650D02*
D03*
X201450D02*
D03*
X209950D02*
D03*
D43*
X117000Y278894D02*
D03*
Y262381D02*
D03*
D44*
X149799Y230645D02*
D03*
X164299D02*
D03*
D45*
X215710Y212302D02*
D03*
X225210Y194098D02*
D03*
D46*
X206210D02*
D03*
D47*
X256050Y346710D02*
D03*
X290050D02*
D03*
D48*
X118703Y238408D02*
D03*
X108803Y248307D02*
D03*
X101025Y240529D02*
D03*
X110924Y230630D02*
D03*
D49*
X266900Y288000D02*
D03*
X266900Y224000D02*
D03*
X247100Y224000D02*
D03*
Y288000D02*
D03*
D50*
X245000Y234000D02*
D03*
Y237999D02*
D03*
Y241999D02*
D03*
Y246000D02*
D03*
Y250000D02*
D03*
Y254000D02*
D03*
Y257999D02*
D03*
Y261999D02*
D03*
Y266000D02*
D03*
X245000Y270000D02*
D03*
X245000Y274000D02*
D03*
X245000Y277999D02*
D03*
X269000D02*
D03*
Y274000D02*
D03*
Y270000D02*
D03*
Y266000D02*
D03*
Y261999D02*
D03*
Y257999D02*
D03*
Y254000D02*
D03*
Y250000D02*
D03*
Y246000D02*
D03*
Y241999D02*
D03*
Y237999D02*
D03*
Y234000D02*
D03*
D51*
X255270Y127080D02*
D03*
Y132080D02*
D03*
Y137080D02*
D03*
X260270Y127080D02*
D03*
Y132080D02*
D03*
Y137080D02*
D03*
X265270Y127080D02*
D03*
Y132080D02*
D03*
Y137080D02*
D03*
D52*
X123822Y229563D02*
D03*
X120074Y225815D02*
D03*
X96740Y248737D02*
D03*
X100487Y252484D02*
D03*
D60*
X64950Y67370D02*
D03*
X71450D02*
D03*
X77950D02*
D03*
X84450D02*
D03*
Y81870D02*
D03*
X77950D02*
D03*
X71450D02*
D03*
X64950D02*
D03*
D67*
X8376Y192437D02*
D03*
Y228094D02*
D03*
Y173454D02*
D03*
Y137797D02*
D03*
X296844Y166322D02*
D03*
Y201978D02*
D03*
D74*
X202665Y141944D02*
D03*
X224765D02*
D03*
D76*
X111245Y63565D02*
D03*
X196095D02*
D03*
D81*
X125430Y183758D02*
D03*
X151930D02*
D03*
X125430Y176258D02*
D03*
X151930D02*
D03*
D84*
X63600Y194120D02*
D03*
D85*
X81180Y194500D02*
D03*
D86*
X98470Y19290D02*
D03*
X208870D02*
D03*
D87*
X193870Y62790D02*
D03*
X113470D02*
D03*
D88*
X110470Y67790D02*
D03*
X196870D02*
D03*
D91*
X13360Y191765D02*
D03*
Y228766D02*
D03*
Y174125D02*
D03*
Y137126D02*
D03*
X291860Y165650D02*
D03*
Y202650D02*
D03*
D92*
X44450Y292100D02*
D03*
X57150D02*
D03*
X44450Y304800D02*
D03*
X57150Y317500D02*
D03*
X44450D02*
D03*
X57150Y304800D02*
D03*
D93*
X28360Y210266D02*
D03*
Y155625D02*
D03*
X276860Y184150D02*
D03*
D94*
X26860Y196266D02*
D03*
Y224265D02*
D03*
Y169625D02*
D03*
Y141625D02*
D03*
X278360Y170150D02*
D03*
Y198150D02*
D03*
D95*
X202665Y124264D02*
D03*
X224765D02*
D03*
D96*
X202665Y133104D02*
D03*
X224765D02*
D03*
D97*
X161415Y233529D02*
X164299Y230645D01*
X158912Y239296D02*
X161415Y236794D01*
Y233529D02*
Y236794D01*
X158912Y239296D02*
Y248195D01*
X149799Y230645D02*
X152684Y233529D01*
X155412Y239514D02*
Y248195D01*
X152684Y233529D02*
Y236785D01*
X155412Y239514D01*
X122409Y273485D02*
X123199Y272695D01*
X117000Y278151D02*
X121665Y273485D01*
X117000Y278151D02*
Y278894D01*
X121665Y273485D02*
X122409D01*
X123199Y272695D02*
X130912D01*
X123814Y269195D02*
X130912D01*
X117000Y262381D02*
Y263125D01*
X121665Y267790D01*
X122409D01*
X123814Y269195D01*
X118477Y238939D02*
Y243067D01*
X130828Y255111D02*
X130912Y255195D01*
X118477Y243067D02*
X130521Y255111D01*
X118477Y238939D02*
X118630Y238785D01*
X130521Y255111D02*
X130828D01*
X110483Y240064D02*
X129030Y258611D01*
X130828D01*
X101795Y240064D02*
X110483D01*
X118703Y234682D02*
X123822Y229563D01*
X118703Y234682D02*
Y238408D01*
X96740Y248737D02*
X101025Y244451D01*
Y240529D02*
Y244451D01*
X130828Y258611D02*
X130912Y258695D01*
D98*
X50800Y279400D02*
D03*
X40640Y330200D02*
D03*
X60960D02*
D03*
D99*
X25400Y279400D02*
D03*
X76200D02*
D03*
X25400Y311150D02*
D03*
X76200D02*
D03*
D100*
X144912Y262195D02*
D03*
X192110Y186726D02*
D03*
X179789Y167659D02*
D03*
Y171659D02*
D03*
X82998Y244034D02*
D03*
X90616Y173640D02*
D03*
X97102Y173601D02*
D03*
X84347Y156108D02*
D03*
X91014Y136776D02*
D03*
X97214D02*
D03*
X224765Y137735D02*
D03*
Y146050D02*
D03*
X262300Y257999D02*
D03*
Y250000D02*
D03*
Y254000D02*
D03*
X41246Y145003D02*
D03*
Y123587D02*
D03*
Y96090D02*
D03*
X84450Y77893D02*
D03*
X77825Y77830D02*
D03*
X45782Y224265D02*
D03*
X91440Y252780D02*
D03*
X256666Y170289D02*
D03*
X45720Y169625D02*
D03*
X262300Y246000D02*
D03*
X265270Y140944D02*
D03*
X260270D02*
D03*
X52070Y146050D02*
D03*
X59605Y147650D02*
D03*
X257960Y134536D02*
D03*
X34616Y81870D02*
D03*
X29616D02*
D03*
X23989Y87085D02*
D03*
X206139Y205527D02*
D03*
X255270Y140944D02*
D03*
D101*
X164742Y168678D02*
D03*
X165017Y146559D02*
D03*
X142817Y146639D02*
D03*
Y168759D02*
D03*
X154400D02*
D03*
Y146559D02*
D03*
X164742Y157659D02*
D03*
X142817D02*
D03*
X153917D02*
D03*
X55837Y166028D02*
D03*
M02*
