G04*
G04 #@! TF.GenerationSoftware,Altium Limited,Altium Designer,24.9.1 (31)*
G04*
G04 Layer_Color=16711935*
%FSLAX44Y44*%
%MOMM*%
G71*
G04*
G04 #@! TF.SameCoordinates,7AD2B3B8-D285-4593-8982-C88D0E3F9F4F*
G04*
G04*
G04 #@! TF.FilePolarity,Positive*
G04*
G01*
G75*
%ADD10C,0.2000*%
%ADD11C,0.1000*%
%ADD12C,0.1500*%
%ADD134C,0.1270*%
%ADD162C,0.6096*%
G36*
X260017Y43166D02*
X260100Y43152D01*
X260114D01*
X260156Y43138D01*
X260211D01*
X260253Y43124D01*
X260267D01*
X260281Y43111D01*
X260336Y43083D01*
Y43069D01*
Y43055D01*
X260350Y43000D01*
Y35858D01*
Y35844D01*
Y35816D01*
X260336Y35774D01*
Y35719D01*
X260294Y35594D01*
X260225Y35497D01*
X260197Y35483D01*
X260128Y35441D01*
X260031Y35400D01*
X259920Y35386D01*
X259185D01*
X259074Y35400D01*
X258963Y35428D01*
X258949D01*
X258935Y35441D01*
X258866Y35455D01*
X258783Y35497D01*
X258700Y35552D01*
X258686Y35566D01*
X258630Y35608D01*
X258575Y35663D01*
X258519Y35747D01*
X258505Y35760D01*
X258478Y35816D01*
X258436Y35913D01*
X258395Y36024D01*
X256162Y41641D01*
X256134D01*
X253832Y36038D01*
Y36024D01*
X253818Y36010D01*
X253790Y35927D01*
X253735Y35830D01*
X253679Y35733D01*
X253665Y35705D01*
X253624Y35663D01*
X253568Y35594D01*
X253513Y35538D01*
X253499Y35525D01*
X253444Y35497D01*
X253388Y35455D01*
X253305Y35428D01*
X253277Y35414D01*
X253222Y35400D01*
X253138Y35386D01*
X252306D01*
X252251Y35400D01*
X252195Y35414D01*
X252181D01*
X252140Y35441D01*
X252098Y35469D01*
X252057Y35511D01*
X252043Y35525D01*
X252029Y35552D01*
X251987Y35594D01*
X251960Y35649D01*
X251946Y35663D01*
X251932Y35705D01*
X251918Y35774D01*
Y35858D01*
Y43000D01*
Y43027D01*
X251946Y43083D01*
X251973Y43097D01*
X252001Y43111D01*
X252043Y43124D01*
X252057D01*
X252084Y43138D01*
X252126D01*
X252195Y43152D01*
X252209D01*
X252265Y43166D01*
X252348Y43180D01*
X252528D01*
X252611Y43166D01*
X252695Y43152D01*
X252708D01*
X252750Y43138D01*
X252806D01*
X252847Y43124D01*
X252861D01*
X252875Y43111D01*
X252930Y43083D01*
Y43069D01*
Y43055D01*
X252944Y43000D01*
Y36232D01*
X252958D01*
X255704Y43027D01*
X255718Y43055D01*
X255760Y43097D01*
X255787Y43111D01*
X255815Y43124D01*
X255857Y43138D01*
X255870D01*
X255898Y43152D01*
X255940D01*
X255995Y43166D01*
X256051D01*
X256120Y43180D01*
X256356D01*
X256425Y43166D01*
X256439D01*
X256481Y43152D01*
X256578Y43138D01*
X256592D01*
X256605Y43124D01*
X256675Y43097D01*
Y43083D01*
X256689Y43069D01*
X256703Y43027D01*
X259324Y36232D01*
Y43000D01*
Y43027D01*
X259351Y43083D01*
X259379Y43097D01*
X259407Y43111D01*
X259449Y43124D01*
X259462D01*
X259490Y43138D01*
X259532D01*
X259601Y43152D01*
X259615D01*
X259670Y43166D01*
X259754Y43180D01*
X259934D01*
X260017Y43166D01*
D02*
G37*
G36*
X249671Y43124D02*
X249685Y43111D01*
X249741Y43055D01*
Y43041D01*
X249755Y43014D01*
X249782Y42930D01*
Y42916D01*
Y42875D01*
X249796Y42819D01*
Y42736D01*
Y42722D01*
Y42667D01*
Y42611D01*
X249782Y42556D01*
Y42542D01*
X249768Y42500D01*
X249741Y42417D01*
Y42403D01*
X249727Y42389D01*
X249671Y42334D01*
X249657D01*
X249643Y42320D01*
X249588Y42306D01*
X247966D01*
Y36412D01*
X249463Y37300D01*
X249477Y37314D01*
X249533Y37341D01*
X249588Y37369D01*
X249643Y37383D01*
X249713D01*
X249755Y37355D01*
Y37341D01*
X249782Y37327D01*
X249796Y37286D01*
X249810Y37231D01*
Y37217D01*
Y37161D01*
X249824Y37092D01*
Y36995D01*
Y36981D01*
Y36939D01*
Y36828D01*
Y36814D01*
X249810Y36787D01*
Y36745D01*
X249796Y36704D01*
Y36690D01*
X249782Y36676D01*
X249755Y36620D01*
X249741Y36606D01*
X249727Y36593D01*
X249657Y36551D01*
X247882Y35414D01*
X247868Y35400D01*
X247827Y35386D01*
X247813D01*
X247799Y35372D01*
X247730Y35358D01*
X247716D01*
X247688Y35344D01*
X247591D01*
X247549Y35331D01*
X247272D01*
X247189Y35344D01*
X247175D01*
X247133Y35358D01*
X247078Y35372D01*
X247036Y35386D01*
X247022D01*
X247008Y35400D01*
X246981Y35414D01*
X246967Y35441D01*
X246953Y35455D01*
X246939Y35511D01*
Y42306D01*
X245511D01*
X245455Y42334D01*
X245441D01*
X245428Y42348D01*
X245386Y42417D01*
Y42431D01*
X245372Y42459D01*
X245358Y42500D01*
X245344Y42556D01*
Y42570D01*
X245331Y42597D01*
X245317Y42667D01*
Y42736D01*
Y42750D01*
Y42806D01*
X245331Y42861D01*
X245344Y42930D01*
Y42944D01*
X245358Y42972D01*
X245386Y43055D01*
X245400Y43083D01*
X245455Y43124D01*
X245483D01*
X245539Y43138D01*
X249616D01*
X249671Y43124D01*
D02*
G37*
D10*
X94980Y292615D02*
G03*
X94980Y292615I-1000J0D01*
G01*
X174967Y193726D02*
X186967D01*
X174967Y175726D02*
Y193726D01*
Y175726D02*
X186967D01*
Y193726D01*
X103114Y154390D02*
Y166390D01*
X85114D02*
X103114D01*
X85114Y154390D02*
Y166390D01*
Y154390D02*
X103114D01*
X232140Y188810D02*
X244140D01*
Y176810D02*
Y188810D01*
X232140Y176810D02*
X244140D01*
X232140D02*
Y188810D01*
X249519Y122910D02*
X261519D01*
Y110910D02*
Y122910D01*
X249519Y110910D02*
X261519D01*
X249519D02*
Y122910D01*
D11*
X126662Y243945D02*
Y290945D01*
X161912Y243945D02*
X173662Y255695D01*
X126662Y243945D02*
X173662D01*
X126662Y290945D02*
X173662D01*
Y243945D02*
Y290945D01*
X152895Y311804D02*
X156395D01*
X152895Y305304D02*
X156395D01*
Y311804D01*
X152895Y305304D02*
Y311804D01*
X159577D02*
X163077D01*
X159577Y305304D02*
X163077D01*
Y311804D01*
X159577Y305304D02*
Y311804D01*
X283020Y244249D02*
X289520D01*
X283020Y247750D02*
X289520D01*
Y244249D02*
Y247750D01*
X283020Y244249D02*
Y247750D01*
X88193Y251958D02*
X90668Y249483D01*
X83597Y247362D02*
X86072Y244887D01*
X90668Y249483D01*
X83597Y247362D02*
X88193Y251958D01*
X14616Y72085D02*
X44616D01*
X14616D02*
Y97085D01*
X44616D01*
Y72085D02*
Y97085D01*
X24351Y42267D02*
Y54267D01*
X36351D01*
Y42267D02*
Y54267D01*
X24351Y42267D02*
X36351D01*
X24351Y45387D02*
X27471Y42267D01*
X57855Y154875D02*
Y161376D01*
X61355Y154875D02*
Y161376D01*
X57855Y154875D02*
X61355D01*
X57855Y161376D02*
X61355D01*
X135077Y228286D02*
X138577D01*
X135077Y234785D02*
X138577D01*
X135077Y228286D02*
Y234785D01*
X138577Y228286D02*
Y234785D01*
X82700Y50057D02*
Y56557D01*
X86200Y50057D02*
Y56557D01*
X82700Y50057D02*
X86200D01*
X82700Y56557D02*
X86200D01*
X96464Y148150D02*
X102964D01*
X96464Y144650D02*
X102964D01*
X96464D02*
Y148150D01*
X102964Y144650D02*
Y148150D01*
X113750Y311960D02*
X120250D01*
X113750Y308460D02*
X120250D01*
X113750D02*
Y311960D01*
X120250Y308460D02*
Y311960D01*
X113750Y305800D02*
X120250D01*
X113750Y302300D02*
X120250D01*
X113750D02*
Y305800D01*
X120250Y302300D02*
Y305800D01*
X113750Y299184D02*
X120250D01*
X113750Y295684D02*
X120250D01*
X113750D02*
Y299184D01*
X120250Y295684D02*
Y299184D01*
X113750Y292580D02*
X120250D01*
X113750Y289080D02*
X120250D01*
X113750D02*
Y292580D01*
X120250Y289080D02*
Y292580D01*
X195390Y261611D02*
X201890D01*
X195390Y258111D02*
X201890D01*
X195390D02*
Y261611D01*
X201890Y258111D02*
Y261611D01*
X195390Y268057D02*
X201890D01*
X195390Y264557D02*
X201890D01*
X195390D02*
Y268057D01*
X201890Y264557D02*
Y268057D01*
X195390Y274611D02*
X201890D01*
X195390Y271111D02*
X201890D01*
X195390D02*
Y274611D01*
X201890Y271111D02*
Y274611D01*
X168430Y296550D02*
Y303050D01*
X171930Y296550D02*
Y303050D01*
X168430Y296550D02*
X171930D01*
X168430Y303050D02*
X171930D01*
X262410Y173320D02*
Y179820D01*
X265910Y173320D02*
Y179820D01*
X262410Y173320D02*
X265910D01*
X262410Y179820D02*
X265910D01*
X43660Y214765D02*
Y221266D01*
X40160Y214765D02*
Y221266D01*
X43660D01*
X40160Y214765D02*
X43660D01*
X84114Y103318D02*
Y123318D01*
X104114D01*
Y103318D02*
Y123318D01*
X84114Y103318D02*
X104114D01*
X89960Y45550D02*
X95460D01*
X89960Y56050D02*
X95460D01*
Y45550D02*
Y56050D01*
X89960Y45550D02*
Y56050D01*
X105947Y139809D02*
Y145309D01*
X116447Y139809D02*
Y145309D01*
X105947Y139809D02*
X116447D01*
X105947Y145309D02*
X116447D01*
X85264Y144650D02*
Y148150D01*
X91764Y144650D02*
Y148150D01*
X85264D02*
X91764D01*
X85264Y144650D02*
X91764D01*
X148667Y192569D02*
Y214569D01*
X163167Y192569D02*
Y214569D01*
X148667D02*
X163167D01*
X148667Y192569D02*
X163167D01*
X108449Y252197D02*
X122592Y238054D01*
X97136Y240883D02*
X108449Y252197D01*
X97136Y240883D02*
X111278Y226741D01*
X122592Y238054D01*
X72200Y44070D02*
X80200D01*
X72200D02*
Y60070D01*
X80200D01*
Y44070D02*
Y60070D01*
X263790Y139280D02*
X267470Y135600D01*
X253070Y139280D02*
X267470D01*
X253070Y124880D02*
Y139280D01*
Y124880D02*
X267470D01*
Y139280D01*
X223016Y297718D02*
X227176Y301878D01*
X223016D02*
X239396D01*
Y283998D02*
Y301878D01*
X223016Y283998D02*
X239396D01*
X223016D02*
Y301878D01*
X134208Y204118D02*
Y207618D01*
X140709Y204118D02*
Y207618D01*
X134208D02*
X140709D01*
X134208Y204118D02*
X140709D01*
X141167Y115579D02*
X146667D01*
X141167Y126079D02*
X146667D01*
Y115579D02*
Y126079D01*
X141167Y115579D02*
Y126079D01*
X172217Y182098D02*
X175717D01*
X172217Y188598D02*
X175717D01*
Y182098D02*
Y188598D01*
X172217Y182098D02*
Y188598D01*
X186130Y281445D02*
Y284945D01*
X179630Y281445D02*
Y284945D01*
Y281445D02*
X186130D01*
X179630Y284945D02*
X186130D01*
X283020Y232250D02*
Y235750D01*
X289520Y232250D02*
Y235750D01*
X283020D02*
X289520D01*
X283020Y232250D02*
X289520D01*
X228934Y253750D02*
X232434D01*
X228934Y247250D02*
X232434D01*
Y253750D01*
X228934Y247250D02*
Y253750D01*
X202600Y175570D02*
Y179070D01*
X196100Y175570D02*
Y179070D01*
Y175570D02*
X202600D01*
X196100Y179070D02*
X202600D01*
X75979Y108517D02*
X79479D01*
X75979Y102017D02*
X79479D01*
X75979D02*
Y108517D01*
X79479Y102017D02*
Y108517D01*
X69802Y108578D02*
X73302D01*
X69802Y102078D02*
X73302D01*
X69802D02*
Y108578D01*
X73302Y102078D02*
Y108578D01*
X64415Y80951D02*
X67915D01*
X64415Y87451D02*
X67915D01*
Y80951D02*
Y87451D01*
X64415Y80951D02*
Y87451D01*
X221192Y305590D02*
Y309090D01*
X227692Y305590D02*
Y309090D01*
X221192Y305590D02*
X227692D01*
X221192Y309090D02*
X227692D01*
X40160Y179084D02*
X43660D01*
X40160Y172584D02*
X43660D01*
Y179084D01*
X40160Y172584D02*
Y179084D01*
X42700Y249771D02*
X46200D01*
X42700Y243271D02*
X46200D01*
Y249771D01*
X42700Y243271D02*
Y249771D01*
X52066Y243271D02*
X55566D01*
X52066Y249771D02*
X55566D01*
X52066Y243271D02*
Y249771D01*
X55566Y243271D02*
Y249771D01*
X220190Y345330D02*
Y348830D01*
X226690Y345330D02*
Y348830D01*
X220190D02*
X226690D01*
X220190Y345330D02*
X226690D01*
X50320Y161376D02*
X53820D01*
X50320Y154875D02*
X53820D01*
Y161376D01*
X50320Y154875D02*
Y161376D01*
D12*
X234925Y124424D02*
G03*
X234925Y124424I-700J0D01*
G01*
D134*
X13526Y258445D02*
X88075D01*
X13526D02*
Y351155D01*
X88075D01*
Y258445D02*
Y351155D01*
X139586Y194489D02*
Y196489D01*
Y198489D01*
X135585D02*
X139586Y196489D01*
X135585Y194489D02*
X139586Y196489D01*
X135585Y194489D02*
Y198489D01*
X131586Y192489D02*
X143586D01*
X131586Y200489D02*
X143586D01*
X131586Y192489D02*
Y200489D01*
X143586Y192489D02*
Y200489D01*
X133917Y177659D02*
X173917D01*
X133917Y137659D02*
Y177659D01*
Y137659D02*
X173917D01*
Y177659D01*
X273050Y95250D02*
Y119380D01*
Y95250D02*
X292100D01*
Y11430D02*
Y95250D01*
X228600Y11430D02*
X292100D01*
X247650Y119380D02*
X273050D01*
X228600Y11430D02*
Y95250D01*
X247650D02*
Y119380D01*
X228600Y95250D02*
X247650D01*
X231215Y119854D02*
Y146354D01*
X196215D02*
X231215D01*
X196215Y119854D02*
Y146354D01*
Y119854D02*
X231215D01*
X190167Y235061D02*
Y253061D01*
X180167Y235061D02*
Y253061D01*
X190167D01*
X180167Y235061D02*
X190167D01*
D162*
X169417Y171359D02*
G03*
X169417Y171359I-1000J0D01*
G01*
M02*
