G04*
G04 #@! TF.GenerationSoftware,Altium Limited,Altium Designer,24.9.1 (31)*
G04*
G04 Layer_Color=128*
%FSLAX44Y44*%
%MOMM*%
G71*
G04*
G04 #@! TF.SameCoordinates,7AD2B3B8-D285-4593-8982-C88D0E3F9F4F*
G04*
G04*
G04 #@! TF.FilePolarity,Positive*
G04*
G01*
G75*
%ADD134C,0.1270*%
D134*
X90115Y173640D02*
X91116D01*
X90616Y173140D02*
Y174140D01*
X96602Y173601D02*
X97602D01*
X97102Y173101D02*
Y174101D01*
X83847Y156108D02*
X84847D01*
X84347Y155608D02*
Y156608D01*
X90514Y136776D02*
X91514D01*
X91014Y136276D02*
Y137276D01*
X96714Y136776D02*
X97714D01*
X97214Y136276D02*
Y137276D01*
X224265Y137735D02*
X225265D01*
X224765Y137235D02*
Y138235D01*
X224265Y146050D02*
X225265D01*
X224765Y145550D02*
Y146550D01*
X40746Y145003D02*
X41746D01*
X41246Y144503D02*
Y145503D01*
X40746Y123587D02*
X41746D01*
X41246Y123087D02*
Y124087D01*
X40746Y96090D02*
X41746D01*
X41246Y95590D02*
Y96590D01*
X83950Y77893D02*
X84950D01*
X84450Y77393D02*
Y78393D01*
X77325Y77830D02*
X78325D01*
X77825Y77330D02*
Y78330D01*
X90940Y252780D02*
X91940D01*
X91440Y252280D02*
Y253280D01*
X261800Y246000D02*
X262800D01*
X262300Y245499D02*
Y246500D01*
X51570Y146050D02*
X52570D01*
X52070Y145550D02*
Y146550D01*
X59105Y147650D02*
X60105D01*
X59605Y147150D02*
Y148150D01*
X34116Y81870D02*
X35116D01*
X34616Y81370D02*
Y82370D01*
X29116Y81870D02*
X30116D01*
X29616Y81370D02*
Y82370D01*
X23489Y87085D02*
X24489D01*
X23989Y86585D02*
Y87585D01*
X205639Y205527D02*
X206639D01*
X206139Y205027D02*
Y206027D01*
M02*
