G04*
G04 #@! TF.GenerationSoftware,Altium Limited,Altium Designer,24.9.1 (31)*
G04*
G04 Layer_Color=32896*
%FSLAX44Y44*%
%MOMM*%
G71*
G04*
G04 #@! TF.SameCoordinates,7AD2B3B8-D285-4593-8982-C88D0E3F9F4F*
G04*
G04*
G04 #@! TF.FilePolarity,Positive*
G04*
G01*
G75*
%ADD11C,0.1000*%
%ADD163C,0.0500*%
%ADD165C,0.0025*%
D11*
X157729Y243089D02*
X167729D01*
X162729Y238089D02*
Y248089D01*
X149048Y243362D02*
X159048D01*
X154048Y238362D02*
Y248362D01*
X180924Y247044D02*
Y257044D01*
X175924Y252044D02*
X185924D01*
X160912Y260350D02*
X170912D01*
X165912Y255350D02*
Y265350D01*
X129412Y266713D02*
X139412D01*
X134412Y261713D02*
Y271713D01*
X143575Y271195D02*
Y281195D01*
X138575Y276195D02*
X148575D01*
X35640Y125730D02*
X45640D01*
X40640Y120730D02*
Y130730D01*
X239009Y122910D02*
Y132910D01*
X234009Y127910D02*
X244009D01*
X169562Y262195D02*
X179562D01*
X174562Y257195D02*
Y267195D01*
X270661Y149489D02*
X280661D01*
X275661Y144489D02*
Y154489D01*
X251111Y149489D02*
X261111D01*
X256111Y144489D02*
Y154489D01*
X261041Y147739D02*
X271041D01*
X266041Y142739D02*
Y152739D01*
X218992Y193810D02*
X228992D01*
X223992Y188810D02*
Y198810D01*
X218984Y173849D02*
X228984D01*
X223984Y168849D02*
Y178849D01*
X229250Y190430D02*
X247030D01*
Y175190D02*
Y190430D01*
X229250Y175190D02*
X247030D01*
X229250D02*
Y190430D01*
X280999Y118110D02*
X290999D01*
X285999Y113110D02*
Y123110D01*
X268299Y118110D02*
X278299D01*
X273299Y113110D02*
Y123110D01*
X234009Y107610D02*
X244009D01*
X239009Y102610D02*
Y112610D01*
X246629Y124530D02*
X264409D01*
Y109290D02*
Y124530D01*
X246629Y109290D02*
X264409D01*
X246629D02*
Y124530D01*
X92710Y48050D02*
Y53550D01*
X89960Y50800D02*
X95460D01*
X108447Y142559D02*
X113947D01*
X111197Y139809D02*
Y145309D01*
X150917Y203569D02*
X160917D01*
X155917Y198569D02*
Y208569D01*
X71981Y88929D02*
X81981D01*
X76981Y83929D02*
Y93929D01*
X197487Y150559D02*
X207487D01*
X202487Y145559D02*
Y155559D01*
X236348Y259099D02*
Y269099D01*
X231348Y264099D02*
X241348D01*
X110967Y87710D02*
Y97710D01*
X105967Y92710D02*
X115967D01*
X153670Y29290D02*
Y39290D01*
X148670Y34290D02*
X158670D01*
X149048Y255195D02*
X159048D01*
X154048Y250195D02*
Y260195D01*
X134412Y242384D02*
Y252384D01*
X129412Y247384D02*
X139412D01*
X168986Y275767D02*
Y285767D01*
X163986Y280767D02*
X173986D01*
X169767Y198569D02*
Y208569D01*
X164767Y203569D02*
X174767D01*
X106197Y162834D02*
X116197D01*
X111197Y157834D02*
Y167834D01*
X157767Y222429D02*
X167767D01*
X162767Y217429D02*
Y227429D01*
X141017Y198569D02*
Y208569D01*
X136017Y203569D02*
X146017D01*
X118197Y198569D02*
Y208569D01*
X113197Y203569D02*
X123197D01*
X130317Y198569D02*
Y208569D01*
X125317Y203569D02*
X135317D01*
X57692Y81929D02*
Y91929D01*
X52692Y86929D02*
X62692D01*
X106197Y152239D02*
X116197D01*
X111197Y147239D02*
Y157239D01*
X164742Y112019D02*
Y122019D01*
X159742Y117019D02*
X169742D01*
X106480Y119797D02*
X116479D01*
X111480Y114797D02*
Y124797D01*
X173697Y97969D02*
X183697D01*
X178697Y92969D02*
Y102969D01*
X106428Y133234D02*
X116428D01*
X111428Y128234D02*
Y138234D01*
X153917Y111829D02*
Y121829D01*
X148917Y116829D02*
X158917D01*
X133867Y111829D02*
Y121829D01*
X128867Y116829D02*
X138867D01*
X190487Y112019D02*
Y122019D01*
X185487Y117019D02*
X195487D01*
X25400Y119714D02*
Y129714D01*
X20400Y124714D02*
X30400D01*
X143917Y118079D02*
Y123579D01*
X141167Y120829D02*
X146667D01*
X173967Y183598D02*
Y187098D01*
X172217Y185348D02*
X175717D01*
X218858Y259099D02*
Y269099D01*
X213858Y264099D02*
X223858D01*
X243740Y259099D02*
Y269099D01*
X238740Y264099D02*
X248740D01*
X255920Y173810D02*
Y183810D01*
X250920Y178810D02*
X260920D01*
X138774Y286833D02*
X148774D01*
X143774Y281833D02*
Y291833D01*
X268620Y173810D02*
Y183810D01*
X263620Y178810D02*
X273620D01*
X226508Y259099D02*
Y269099D01*
X221508Y264099D02*
X231508D01*
X77729Y103517D02*
Y107017D01*
X75979Y105267D02*
X79479D01*
X71552Y103578D02*
Y107078D01*
X69802Y105328D02*
X73302D01*
X66165Y82451D02*
Y85951D01*
X64415Y84201D02*
X67915D01*
X179522Y112019D02*
Y122019D01*
X174522Y117019D02*
X184522D01*
X197487Y133019D02*
X207487D01*
X202487Y128019D02*
Y138019D01*
X222497Y139309D02*
Y149309D01*
X217497Y144309D02*
X227497D01*
X197487Y166559D02*
X207487D01*
X202487Y161559D02*
Y171559D01*
X205897Y296864D02*
X215897D01*
X210897Y291864D02*
Y301864D01*
X205777Y303470D02*
X215777D01*
X210777Y298470D02*
Y308470D01*
X205777Y290226D02*
X215777D01*
X210777Y285226D02*
Y295226D01*
X205777Y281818D02*
X215777D01*
X210777Y276818D02*
Y286818D01*
X222692Y307340D02*
X226192D01*
X224442Y305590D02*
Y309090D01*
D163*
X87210Y40300D02*
X98210D01*
X87210Y61300D02*
X98210D01*
Y40300D02*
Y61300D01*
X87210Y40300D02*
Y61300D01*
X103697Y138559D02*
Y146559D01*
X118697Y138559D02*
Y146559D01*
X103697Y138559D02*
X118697D01*
X103697Y146559D02*
X118697D01*
X136317Y183759D02*
X171517D01*
X136317Y180159D02*
Y183759D01*
X131417Y180159D02*
X136317D01*
X131417Y175259D02*
Y180159D01*
X127817Y175259D02*
X131417D01*
X127817Y140059D02*
Y175259D01*
Y140059D02*
X131417D01*
Y135159D02*
Y140059D01*
Y135159D02*
X136317D01*
Y131559D02*
Y135159D01*
Y131559D02*
X171517D01*
Y135159D01*
X176417D01*
Y140059D01*
X180017D01*
Y175259D01*
X176417D02*
X180017D01*
X176417D02*
Y180159D01*
X171517D02*
X176417D01*
X171517D02*
Y183759D01*
X147417Y190069D02*
Y217069D01*
X164417Y190069D02*
Y217069D01*
X147417D02*
X164417D01*
X147417Y190069D02*
X164417D01*
X69800Y39670D02*
X82600D01*
X69800D02*
Y64470D01*
X82600D01*
Y39670D02*
Y64470D01*
X221046Y282778D02*
X241366D01*
X221046D02*
Y303098D01*
X241366Y282778D02*
Y303098D01*
X221046D02*
X241366D01*
X139917Y113329D02*
X147917D01*
X139917Y128329D02*
X147917D01*
Y113329D02*
Y128329D01*
X139917Y113329D02*
Y128329D01*
X170967Y179848D02*
X176967D01*
X170967Y190848D02*
X176967D01*
Y179848D02*
Y190848D01*
X170967Y179848D02*
Y190848D01*
X74729Y110767D02*
X80729D01*
X74729Y99767D02*
X80729D01*
X74729D02*
Y110767D01*
X80729Y99767D02*
Y110767D01*
X68552Y110828D02*
X74552D01*
X68552Y99828D02*
X74552D01*
X68552D02*
Y110828D01*
X74552Y99828D02*
Y110828D01*
X63165Y78701D02*
X69165D01*
X63165Y89701D02*
X69165D01*
Y78701D02*
Y89701D01*
X63165Y78701D02*
Y89701D01*
X218942Y304340D02*
Y310340D01*
X229942Y304340D02*
Y310340D01*
X218942Y304340D02*
X229942D01*
X218942Y310340D02*
X229942D01*
D165*
X47214Y176398D02*
X47219Y176403D01*
M02*
