G04*
G04 #@! TF.GenerationSoftware,Altium Limited,Altium Designer,24.9.1 (31)*
G04*
G04 Layer_Color=32768*
%FSLAX44Y44*%
%MOMM*%
G71*
G04*
G04 #@! TF.SameCoordinates,7AD2B3B8-D285-4593-8982-C88D0E3F9F4F*
G04*
G04*
G04 #@! TF.FilePolarity,Positive*
G04*
G01*
G75*
%ADD14C,0.2540*%
%ADD160C,0.3810*%
%ADD161C,0.0254*%
D14*
X890385Y-16592D02*
X893471D01*
X891928D01*
Y-7333D01*
X890385Y-8876D01*
X898101Y-16592D02*
Y-15049D01*
X899644D01*
Y-16592D01*
X898101D01*
X905817Y-8876D02*
X907360Y-7333D01*
X910446D01*
X911989Y-8876D01*
Y-10419D01*
X910446Y-11962D01*
X911989Y-13505D01*
Y-15049D01*
X910446Y-16592D01*
X907360D01*
X905817Y-15049D01*
Y-13505D01*
X907360Y-11962D01*
X905817Y-10419D01*
Y-8876D01*
X907360Y-11962D02*
X910446D01*
X919705Y-16592D02*
Y-7333D01*
X915076Y-11962D01*
X921248D01*
X930507Y-7333D02*
X924335D01*
Y-11962D01*
X927421Y-10419D01*
X928964D01*
X930507Y-11962D01*
Y-15049D01*
X928964Y-16592D01*
X925878D01*
X924335Y-15049D01*
X933594Y-16592D02*
Y-10419D01*
X935137D01*
X936680Y-11962D01*
Y-16592D01*
Y-11962D01*
X938223Y-10419D01*
X939766Y-11962D01*
Y-16592D01*
X942853D02*
Y-10419D01*
X944396D01*
X945939Y-11962D01*
Y-16592D01*
Y-11962D01*
X947482Y-10419D01*
X949025Y-11962D01*
Y-16592D01*
X483161Y-7333D02*
X489334D01*
X486247D01*
Y-16592D01*
X493963D02*
X497050D01*
X498593Y-15049D01*
Y-11962D01*
X497050Y-10419D01*
X493963D01*
X492420Y-11962D01*
Y-15049D01*
X493963Y-16592D01*
X503222Y-8876D02*
Y-10419D01*
X501679D01*
X504766D01*
X503222D01*
Y-15049D01*
X504766Y-16592D01*
X510938Y-10419D02*
X514025D01*
X515568Y-11962D01*
Y-16592D01*
X510938D01*
X509395Y-15049D01*
X510938Y-13505D01*
X515568D01*
X518654Y-16592D02*
X521740D01*
X520197D01*
Y-7333D01*
X518654D01*
X535629D02*
Y-16592D01*
X540258D01*
X541802Y-15049D01*
Y-13505D01*
Y-11962D01*
X540258Y-10419D01*
X535629D01*
X546431Y-16592D02*
X549518D01*
X551061Y-15049D01*
Y-11962D01*
X549518Y-10419D01*
X546431D01*
X544888Y-11962D01*
Y-15049D01*
X546431Y-16592D01*
X555690Y-10419D02*
X558777D01*
X560320Y-11962D01*
Y-16592D01*
X555690D01*
X554147Y-15049D01*
X555690Y-13505D01*
X560320D01*
X563406Y-10419D02*
Y-16592D01*
Y-13505D01*
X564949Y-11962D01*
X566492Y-10419D01*
X568036D01*
X578838Y-7333D02*
Y-16592D01*
X574208D01*
X572665Y-15049D01*
Y-11962D01*
X574208Y-10419D01*
X578838D01*
X592726Y-8876D02*
Y-10419D01*
X591183D01*
X594269D01*
X592726D01*
Y-15049D01*
X594269Y-16592D01*
X598899Y-7333D02*
Y-16592D01*
Y-11962D01*
X600442Y-10419D01*
X603529D01*
X605072Y-11962D01*
Y-16592D01*
X608158D02*
X611244D01*
X609701D01*
Y-10419D01*
X608158D01*
X622047D02*
X617417D01*
X615874Y-11962D01*
Y-15049D01*
X617417Y-16592D01*
X622047D01*
X625133D02*
Y-7333D01*
Y-13505D02*
X629762Y-10419D01*
X625133Y-13505D02*
X629762Y-16592D01*
X634392D02*
Y-10419D01*
X639021D01*
X640565Y-11962D01*
Y-16592D01*
X648281D02*
X645194D01*
X643651Y-15049D01*
Y-11962D01*
X645194Y-10419D01*
X648281D01*
X649824Y-11962D01*
Y-13505D01*
X643651D01*
X652910Y-16592D02*
X657540D01*
X659083Y-15049D01*
X657540Y-13505D01*
X654453D01*
X652910Y-11962D01*
X654453Y-10419D01*
X659083D01*
X662169Y-16592D02*
X666799D01*
X668342Y-15049D01*
X666799Y-13505D01*
X663712D01*
X662169Y-11962D01*
X663712Y-10419D01*
X668342D01*
X671428D02*
X672971D01*
Y-11962D01*
X671428D01*
Y-10419D01*
Y-15049D02*
X672971D01*
Y-16592D01*
X671428D01*
Y-15049D01*
X1082651Y400196D02*
Y390937D01*
X1087281D01*
X1088824Y392480D01*
Y394024D01*
X1087281Y395567D01*
X1082651D01*
X1087281D01*
X1088824Y397110D01*
Y398653D01*
X1087281Y400196D01*
X1082651D01*
X1093454Y390937D02*
X1096540D01*
X1098083Y392480D01*
Y395567D01*
X1096540Y397110D01*
X1093454D01*
X1091910Y395567D01*
Y392480D01*
X1093454Y390937D01*
X1102713Y397110D02*
X1105799D01*
X1107342Y395567D01*
Y390937D01*
X1102713D01*
X1101169Y392480D01*
X1102713Y394024D01*
X1107342D01*
X1110428Y397110D02*
Y390937D01*
Y394024D01*
X1111972Y395567D01*
X1113515Y397110D01*
X1115058D01*
X1125860Y400196D02*
Y390937D01*
X1121231D01*
X1119687Y392480D01*
Y395567D01*
X1121231Y397110D01*
X1125860D01*
X1138205Y400196D02*
Y390937D01*
X1144378D01*
X1149008Y397110D02*
X1152094D01*
X1153637Y395567D01*
Y390937D01*
X1149008D01*
X1147465Y392480D01*
X1149008Y394024D01*
X1153637D01*
X1156724Y397110D02*
Y392480D01*
X1158267Y390937D01*
X1162896D01*
Y389394D01*
X1161353Y387851D01*
X1159810D01*
X1162896Y390937D02*
Y397110D01*
X1170612Y390937D02*
X1167526D01*
X1165983Y392480D01*
Y395567D01*
X1167526Y397110D01*
X1170612D01*
X1172155Y395567D01*
Y394024D01*
X1165983D01*
X1175242Y397110D02*
Y390937D01*
Y394024D01*
X1176785Y395567D01*
X1178328Y397110D01*
X1179871D01*
X1199932Y398653D02*
X1198389Y400196D01*
X1195303D01*
X1193760Y398653D01*
Y397110D01*
X1195303Y395567D01*
X1198389D01*
X1199932Y394024D01*
Y392480D01*
X1198389Y390937D01*
X1195303D01*
X1193760Y392480D01*
X1204562Y398653D02*
Y397110D01*
X1203019D01*
X1206105D01*
X1204562D01*
Y392480D01*
X1206105Y390937D01*
X1212278Y397110D02*
X1215364D01*
X1216907Y395567D01*
Y390937D01*
X1212278D01*
X1210735Y392480D01*
X1212278Y394024D01*
X1216907D01*
X1226166Y397110D02*
X1221537D01*
X1219994Y395567D01*
Y392480D01*
X1221537Y390937D01*
X1226166D01*
X1229253D02*
Y400196D01*
Y394024D02*
X1233882Y397110D01*
X1229253Y394024D02*
X1233882Y390937D01*
X992691Y361605D02*
X994234Y363148D01*
X997320D01*
X998864Y361605D01*
Y360062D01*
X997320Y358519D01*
X995777D01*
X997320D01*
X998864Y356976D01*
Y355432D01*
X997320Y353889D01*
X994234D01*
X992691Y355432D01*
X1001950Y353889D02*
Y355432D01*
X1003493D01*
Y353889D01*
X1001950D01*
X1015838Y363148D02*
X1009666D01*
Y358519D01*
X1012752Y360062D01*
X1014295D01*
X1015838Y358519D01*
Y355432D01*
X1014295Y353889D01*
X1011209D01*
X1009666Y355432D01*
X997320Y298317D02*
Y307576D01*
X992691Y302946D01*
X998864D01*
X1001950Y298317D02*
Y299860D01*
X1003493D01*
Y298317D01*
X1001950D01*
X1009666Y306033D02*
X1011209Y307576D01*
X1014295D01*
X1015838Y306033D01*
Y304490D01*
X1014295Y302946D01*
X1012752D01*
X1014295D01*
X1015838Y301403D01*
Y299860D01*
X1014295Y298317D01*
X1011209D01*
X1009666Y299860D01*
X997320Y261269D02*
Y270528D01*
X992691Y265898D01*
X998864D01*
X1001950Y261269D02*
Y262812D01*
X1003493D01*
Y261269D01*
X1001950D01*
X1015838Y270528D02*
X1009666D01*
Y265898D01*
X1012752Y267442D01*
X1014295D01*
X1015838Y265898D01*
Y262812D01*
X1014295Y261269D01*
X1011209D01*
X1009666Y262812D01*
X997320Y224221D02*
Y233480D01*
X992691Y228850D01*
X998864D01*
X1001950Y224221D02*
Y225764D01*
X1003493D01*
Y224221D01*
X1001950D01*
X1014295D02*
Y233480D01*
X1009666Y228850D01*
X1015838D01*
X997320Y187173D02*
Y196432D01*
X992691Y191802D01*
X998864D01*
X1001950Y187173D02*
Y188716D01*
X1003493D01*
Y187173D01*
X1001950D01*
X1009666D02*
X1012752D01*
X1011209D01*
Y196432D01*
X1009666Y194889D01*
X997320Y150125D02*
Y159384D01*
X992691Y154754D01*
X998864D01*
X1001950Y150125D02*
Y151668D01*
X1003493D01*
Y150125D01*
X1001950D01*
X1009666D02*
X1012752D01*
X1011209D01*
Y159384D01*
X1009666Y157840D01*
X997320Y113077D02*
Y122336D01*
X992691Y117706D01*
X998864D01*
X1001950Y113077D02*
Y114620D01*
X1003493D01*
Y113077D01*
X1001950D01*
X1015838Y122336D02*
X1009666D01*
Y117706D01*
X1012752Y119249D01*
X1014295D01*
X1015838Y117706D01*
Y114620D01*
X1014295Y113077D01*
X1011209D01*
X1009666Y114620D01*
X997320Y76028D02*
Y85288D01*
X992691Y80658D01*
X998864D01*
X1001950Y76028D02*
Y77572D01*
X1003493D01*
Y76028D01*
X1001950D01*
X1009666Y83744D02*
X1011209Y85288D01*
X1014295D01*
X1015838Y83744D01*
Y82201D01*
X1014295Y80658D01*
X1012752D01*
X1014295D01*
X1015838Y79115D01*
Y77572D01*
X1014295Y76028D01*
X1011209D01*
X1009666Y77572D01*
X992691Y28172D02*
X994234Y29715D01*
X997320D01*
X998864Y28172D01*
Y26629D01*
X997320Y25086D01*
X995777D01*
X997320D01*
X998864Y23543D01*
Y21999D01*
X997320Y20456D01*
X994234D01*
X992691Y21999D01*
X1001950Y20456D02*
Y21999D01*
X1003493D01*
Y20456D01*
X1001950D01*
X1015838Y29715D02*
X1009666D01*
Y25086D01*
X1012752Y26629D01*
X1014295D01*
X1015838Y25086D01*
Y21999D01*
X1014295Y20456D01*
X1011209D01*
X1009666Y21999D01*
X998864Y398653D02*
X997320Y400196D01*
X994234D01*
X992691Y398653D01*
Y392480D01*
X994234Y390937D01*
X997320D01*
X998864Y392480D01*
X1003493Y390937D02*
X1006579D01*
X1008122Y392480D01*
Y395567D01*
X1006579Y397110D01*
X1003493D01*
X1001950Y395567D01*
Y392480D01*
X1003493Y390937D01*
X1011209D02*
Y397110D01*
X1015838D01*
X1017382Y395567D01*
Y390937D01*
X1020468D02*
X1025097D01*
X1026641Y392480D01*
X1025097Y394024D01*
X1022011D01*
X1020468Y395567D01*
X1022011Y397110D01*
X1026641D01*
X1031270Y398653D02*
Y397110D01*
X1029727D01*
X1032813D01*
X1031270D01*
Y392480D01*
X1032813Y390937D01*
X1038986Y397110D02*
X1042072D01*
X1043615Y395567D01*
Y390937D01*
X1038986D01*
X1037443Y392480D01*
X1038986Y394024D01*
X1043615D01*
X1046702Y390937D02*
Y397110D01*
X1051331D01*
X1052875Y395567D01*
Y390937D01*
X1057504Y398653D02*
Y397110D01*
X1055961D01*
X1059047D01*
X1057504D01*
Y392480D01*
X1059047Y390937D01*
X890385Y361605D02*
X891928Y363148D01*
X895014D01*
X896558Y361605D01*
Y355432D01*
X895014Y353889D01*
X891928D01*
X890385Y355432D01*
Y361605D01*
X899644Y353889D02*
Y355432D01*
X901187D01*
Y353889D01*
X899644D01*
X907360Y361605D02*
X908903Y363148D01*
X911989D01*
X913532Y361605D01*
Y355432D01*
X911989Y353889D01*
X908903D01*
X907360Y355432D01*
Y361605D01*
X916619Y353889D02*
X919705D01*
X918162D01*
Y363148D01*
X916619Y361605D01*
X924335D02*
X925878Y363148D01*
X928964D01*
X930507Y361605D01*
Y355432D01*
X928964Y353889D01*
X925878D01*
X924335Y355432D01*
Y361605D01*
X933594Y353889D02*
Y360062D01*
X935137D01*
X936680Y358519D01*
Y353889D01*
Y358519D01*
X938223Y360062D01*
X939766Y358519D01*
Y353889D01*
X942853D02*
Y360062D01*
X944396D01*
X945939Y358519D01*
Y353889D01*
Y358519D01*
X947482Y360062D01*
X949025Y358519D01*
Y353889D01*
X890385Y343081D02*
X891928Y344624D01*
X895014D01*
X896558Y343081D01*
Y336908D01*
X895014Y335365D01*
X891928D01*
X890385Y336908D01*
Y343081D01*
X899644Y335365D02*
Y336908D01*
X901187D01*
Y335365D01*
X899644D01*
X907360Y343081D02*
X908903Y344624D01*
X911989D01*
X913532Y343081D01*
Y336908D01*
X911989Y335365D01*
X908903D01*
X907360Y336908D01*
Y343081D01*
X922792Y335365D02*
X916619D01*
X922792Y341538D01*
Y343081D01*
X921248Y344624D01*
X918162D01*
X916619Y343081D01*
X925878D02*
X927421Y344624D01*
X930507D01*
X932051Y343081D01*
Y336908D01*
X930507Y335365D01*
X927421D01*
X925878Y336908D01*
Y343081D01*
X935137Y335365D02*
Y341538D01*
X936680D01*
X938223Y339995D01*
Y335365D01*
Y339995D01*
X939766Y341538D01*
X941310Y339995D01*
Y335365D01*
X944396D02*
Y341538D01*
X945939D01*
X947482Y339995D01*
Y335365D01*
Y339995D01*
X949025Y341538D01*
X950569Y339995D01*
Y335365D01*
X890385Y324557D02*
X891928Y326100D01*
X895014D01*
X896558Y324557D01*
Y318384D01*
X895014Y316841D01*
X891928D01*
X890385Y318384D01*
Y324557D01*
X899644Y316841D02*
Y318384D01*
X901187D01*
Y316841D01*
X899644D01*
X907360Y324557D02*
X908903Y326100D01*
X911989D01*
X913532Y324557D01*
Y318384D01*
X911989Y316841D01*
X908903D01*
X907360Y318384D01*
Y324557D01*
X916619D02*
X918162Y326100D01*
X921248D01*
X922792Y324557D01*
Y323014D01*
X921248Y321471D01*
X919705D01*
X921248D01*
X922792Y319927D01*
Y318384D01*
X921248Y316841D01*
X918162D01*
X916619Y318384D01*
X932051Y326100D02*
X928964Y324557D01*
X925878Y321471D01*
Y318384D01*
X927421Y316841D01*
X930507D01*
X932051Y318384D01*
Y319927D01*
X930507Y321471D01*
X925878D01*
X935137Y316841D02*
Y323014D01*
X936680D01*
X938223Y321471D01*
Y316841D01*
Y321471D01*
X939766Y323014D01*
X941310Y321471D01*
Y316841D01*
X944396D02*
Y323014D01*
X945939D01*
X947482Y321471D01*
Y316841D01*
Y321471D01*
X949025Y323014D01*
X950569Y321471D01*
Y316841D01*
X890385Y306033D02*
X891928Y307576D01*
X895014D01*
X896558Y306033D01*
Y299860D01*
X895014Y298317D01*
X891928D01*
X890385Y299860D01*
Y306033D01*
X899644Y298317D02*
Y299860D01*
X901187D01*
Y298317D01*
X899644D01*
X907360D02*
X910446D01*
X908903D01*
Y307576D01*
X907360Y306033D01*
X915076Y298317D02*
X918162D01*
X916619D01*
Y307576D01*
X915076Y306033D01*
X928964Y298317D02*
X922792D01*
X928964Y304490D01*
Y306033D01*
X927421Y307576D01*
X924335D01*
X922792Y306033D01*
X932051Y298317D02*
Y304490D01*
X933594D01*
X935137Y302946D01*
Y298317D01*
Y302946D01*
X936680Y304490D01*
X938223Y302946D01*
Y298317D01*
X941310D02*
Y304490D01*
X942853D01*
X944396Y302946D01*
Y298317D01*
Y302946D01*
X945939Y304490D01*
X947482Y302946D01*
Y298317D01*
X890385Y287509D02*
X891928Y289052D01*
X895014D01*
X896558Y287509D01*
Y281336D01*
X895014Y279793D01*
X891928D01*
X890385Y281336D01*
Y287509D01*
X899644Y279793D02*
Y281336D01*
X901187D01*
Y279793D01*
X899644D01*
X907360Y287509D02*
X908903Y289052D01*
X911989D01*
X913532Y287509D01*
Y281336D01*
X911989Y279793D01*
X908903D01*
X907360Y281336D01*
Y287509D01*
X916619Y279793D02*
X919705D01*
X918162D01*
Y289052D01*
X916619Y287509D01*
X930507Y289052D02*
X924335D01*
Y284422D01*
X927421Y285966D01*
X928964D01*
X930507Y284422D01*
Y281336D01*
X928964Y279793D01*
X925878D01*
X924335Y281336D01*
X933594Y279793D02*
Y285966D01*
X935137D01*
X936680Y284422D01*
Y279793D01*
Y284422D01*
X938223Y285966D01*
X939766Y284422D01*
Y279793D01*
X942853D02*
Y285966D01*
X944396D01*
X945939Y284422D01*
Y279793D01*
Y284422D01*
X947482Y285966D01*
X949025Y284422D01*
Y279793D01*
X890385Y268985D02*
X891928Y270528D01*
X895014D01*
X896558Y268985D01*
Y262812D01*
X895014Y261269D01*
X891928D01*
X890385Y262812D01*
Y268985D01*
X899644Y261269D02*
Y262812D01*
X901187D01*
Y261269D01*
X899644D01*
X913532Y270528D02*
X907360D01*
Y265898D01*
X910446Y267442D01*
X911989D01*
X913532Y265898D01*
Y262812D01*
X911989Y261269D01*
X908903D01*
X907360Y262812D01*
X922792Y270528D02*
X916619D01*
Y265898D01*
X919705Y267442D01*
X921248D01*
X922792Y265898D01*
Y262812D01*
X921248Y261269D01*
X918162D01*
X916619Y262812D01*
X925878Y268985D02*
X927421Y270528D01*
X930507D01*
X932051Y268985D01*
Y262812D01*
X930507Y261269D01*
X927421D01*
X925878Y262812D01*
Y268985D01*
X935137Y261269D02*
Y267442D01*
X936680D01*
X938223Y265898D01*
Y261269D01*
Y265898D01*
X939766Y267442D01*
X941310Y265898D01*
Y261269D01*
X944396D02*
Y267442D01*
X945939D01*
X947482Y265898D01*
Y261269D01*
Y265898D01*
X949025Y267442D01*
X950569Y265898D01*
Y261269D01*
X890385Y250461D02*
X891928Y252004D01*
X895014D01*
X896558Y250461D01*
Y244288D01*
X895014Y242745D01*
X891928D01*
X890385Y244288D01*
Y250461D01*
X899644Y242745D02*
Y244288D01*
X901187D01*
Y242745D01*
X899644D01*
X907360Y250461D02*
X908903Y252004D01*
X911989D01*
X913532Y250461D01*
Y244288D01*
X911989Y242745D01*
X908903D01*
X907360Y244288D01*
Y250461D01*
X916619Y242745D02*
X919705D01*
X918162D01*
Y252004D01*
X916619Y250461D01*
X930507Y252004D02*
X924335D01*
Y247374D01*
X927421Y248918D01*
X928964D01*
X930507Y247374D01*
Y244288D01*
X928964Y242745D01*
X925878D01*
X924335Y244288D01*
X933594Y242745D02*
Y248918D01*
X935137D01*
X936680Y247374D01*
Y242745D01*
Y247374D01*
X938223Y248918D01*
X939766Y247374D01*
Y242745D01*
X942853D02*
Y248918D01*
X944396D01*
X945939Y247374D01*
Y242745D01*
Y247374D01*
X947482Y248918D01*
X949025Y247374D01*
Y242745D01*
X890385Y231937D02*
X891928Y233480D01*
X895014D01*
X896558Y231937D01*
Y225764D01*
X895014Y224221D01*
X891928D01*
X890385Y225764D01*
Y231937D01*
X899644Y224221D02*
Y225764D01*
X901187D01*
Y224221D01*
X899644D01*
X907360D02*
X910446D01*
X908903D01*
Y233480D01*
X907360Y231937D01*
X915076Y224221D02*
X918162D01*
X916619D01*
Y233480D01*
X915076Y231937D01*
X922792Y233480D02*
X928964D01*
Y231937D01*
X922792Y225764D01*
Y224221D01*
X932051D02*
Y230394D01*
X933594D01*
X935137Y228850D01*
Y224221D01*
Y228850D01*
X936680Y230394D01*
X938223Y228850D01*
Y224221D01*
X941310D02*
Y230394D01*
X942853D01*
X944396Y228850D01*
Y224221D01*
Y228850D01*
X945939Y230394D01*
X947482Y228850D01*
Y224221D01*
X890385Y213413D02*
X891928Y214956D01*
X895014D01*
X896558Y213413D01*
Y207240D01*
X895014Y205697D01*
X891928D01*
X890385Y207240D01*
Y213413D01*
X899644Y205697D02*
Y207240D01*
X901187D01*
Y205697D01*
X899644D01*
X907360Y213413D02*
X908903Y214956D01*
X911989D01*
X913532Y213413D01*
Y207240D01*
X911989Y205697D01*
X908903D01*
X907360Y207240D01*
Y213413D01*
X916619Y205697D02*
X919705D01*
X918162D01*
Y214956D01*
X916619Y213413D01*
X930507Y214956D02*
X924335D01*
Y210326D01*
X927421Y211870D01*
X928964D01*
X930507Y210326D01*
Y207240D01*
X928964Y205697D01*
X925878D01*
X924335Y207240D01*
X933594Y205697D02*
Y211870D01*
X935137D01*
X936680Y210326D01*
Y205697D01*
Y210326D01*
X938223Y211870D01*
X939766Y210326D01*
Y205697D01*
X942853D02*
Y211870D01*
X944396D01*
X945939Y210326D01*
Y205697D01*
Y210326D01*
X947482Y211870D01*
X949025Y210326D01*
Y205697D01*
X890385Y194889D02*
X891928Y196432D01*
X895014D01*
X896558Y194889D01*
Y188716D01*
X895014Y187173D01*
X891928D01*
X890385Y188716D01*
Y194889D01*
X899644Y187173D02*
Y188716D01*
X901187D01*
Y187173D01*
X899644D01*
X907360Y194889D02*
X908903Y196432D01*
X911989D01*
X913532Y194889D01*
Y188716D01*
X911989Y187173D01*
X908903D01*
X907360Y188716D01*
Y194889D01*
X916619Y196432D02*
X922792D01*
Y194889D01*
X916619Y188716D01*
Y187173D01*
X925878D02*
X928964D01*
X927421D01*
Y196432D01*
X925878Y194889D01*
X933594Y187173D02*
Y193345D01*
X935137D01*
X936680Y191802D01*
Y187173D01*
Y191802D01*
X938223Y193345D01*
X939766Y191802D01*
Y187173D01*
X942853D02*
Y193345D01*
X944396D01*
X945939Y191802D01*
Y187173D01*
Y191802D01*
X947482Y193345D01*
X949025Y191802D01*
Y187173D01*
X890385Y176365D02*
X891928Y177908D01*
X895014D01*
X896558Y176365D01*
Y170192D01*
X895014Y168649D01*
X891928D01*
X890385Y170192D01*
Y176365D01*
X899644Y168649D02*
Y170192D01*
X901187D01*
Y168649D01*
X899644D01*
X907360Y176365D02*
X908903Y177908D01*
X911989D01*
X913532Y176365D01*
Y170192D01*
X911989Y168649D01*
X908903D01*
X907360Y170192D01*
Y176365D01*
X916619D02*
X918162Y177908D01*
X921248D01*
X922792Y176365D01*
Y174821D01*
X921248Y173278D01*
X919705D01*
X921248D01*
X922792Y171735D01*
Y170192D01*
X921248Y168649D01*
X918162D01*
X916619Y170192D01*
X932051Y177908D02*
X925878D01*
Y173278D01*
X928964Y174821D01*
X930507D01*
X932051Y173278D01*
Y170192D01*
X930507Y168649D01*
X927421D01*
X925878Y170192D01*
X935137Y168649D02*
Y174821D01*
X936680D01*
X938223Y173278D01*
Y168649D01*
Y173278D01*
X939766Y174821D01*
X941310Y173278D01*
Y168649D01*
X944396D02*
Y174821D01*
X945939D01*
X947482Y173278D01*
Y168649D01*
Y173278D01*
X949025Y174821D01*
X950569Y173278D01*
Y168649D01*
X890385Y157840D02*
X891928Y159384D01*
X895014D01*
X896558Y157840D01*
Y151668D01*
X895014Y150125D01*
X891928D01*
X890385Y151668D01*
Y157840D01*
X899644Y150125D02*
Y151668D01*
X901187D01*
Y150125D01*
X899644D01*
X907360Y157840D02*
X908903Y159384D01*
X911989D01*
X913532Y157840D01*
Y151668D01*
X911989Y150125D01*
X908903D01*
X907360Y151668D01*
Y157840D01*
X916619Y159384D02*
X922792D01*
Y157840D01*
X916619Y151668D01*
Y150125D01*
X925878D02*
X928964D01*
X927421D01*
Y159384D01*
X925878Y157840D01*
X933594Y150125D02*
Y156297D01*
X935137D01*
X936680Y154754D01*
Y150125D01*
Y154754D01*
X938223Y156297D01*
X939766Y154754D01*
Y150125D01*
X942853D02*
Y156297D01*
X944396D01*
X945939Y154754D01*
Y150125D01*
Y154754D01*
X947482Y156297D01*
X949025Y154754D01*
Y150125D01*
X890385Y139317D02*
X891928Y140860D01*
X895014D01*
X896558Y139317D01*
Y133144D01*
X895014Y131601D01*
X891928D01*
X890385Y133144D01*
Y139317D01*
X899644Y131601D02*
Y133144D01*
X901187D01*
Y131601D01*
X899644D01*
X907360Y139317D02*
X908903Y140860D01*
X911989D01*
X913532Y139317D01*
Y133144D01*
X911989Y131601D01*
X908903D01*
X907360Y133144D01*
Y139317D01*
X916619D02*
X918162Y140860D01*
X921248D01*
X922792Y139317D01*
Y137773D01*
X921248Y136230D01*
X919705D01*
X921248D01*
X922792Y134687D01*
Y133144D01*
X921248Y131601D01*
X918162D01*
X916619Y133144D01*
X932051Y140860D02*
X925878D01*
Y136230D01*
X928964Y137773D01*
X930507D01*
X932051Y136230D01*
Y133144D01*
X930507Y131601D01*
X927421D01*
X925878Y133144D01*
X935137Y131601D02*
Y137773D01*
X936680D01*
X938223Y136230D01*
Y131601D01*
Y136230D01*
X939766Y137773D01*
X941310Y136230D01*
Y131601D01*
X944396D02*
Y137773D01*
X945939D01*
X947482Y136230D01*
Y131601D01*
Y136230D01*
X949025Y137773D01*
X950569Y136230D01*
Y131601D01*
X890385Y120792D02*
X891928Y122336D01*
X895014D01*
X896558Y120792D01*
Y114620D01*
X895014Y113077D01*
X891928D01*
X890385Y114620D01*
Y120792D01*
X899644Y113077D02*
Y114620D01*
X901187D01*
Y113077D01*
X899644D01*
X913532Y122336D02*
X907360D01*
Y117706D01*
X910446Y119249D01*
X911989D01*
X913532Y117706D01*
Y114620D01*
X911989Y113077D01*
X908903D01*
X907360Y114620D01*
X922792Y122336D02*
X916619D01*
Y117706D01*
X919705Y119249D01*
X921248D01*
X922792Y117706D01*
Y114620D01*
X921248Y113077D01*
X918162D01*
X916619Y114620D01*
X925878Y120792D02*
X927421Y122336D01*
X930507D01*
X932051Y120792D01*
Y114620D01*
X930507Y113077D01*
X927421D01*
X925878Y114620D01*
Y120792D01*
X935137Y113077D02*
Y119249D01*
X936680D01*
X938223Y117706D01*
Y113077D01*
Y117706D01*
X939766Y119249D01*
X941310Y117706D01*
Y113077D01*
X944396D02*
Y119249D01*
X945939D01*
X947482Y117706D01*
Y113077D01*
Y117706D01*
X949025Y119249D01*
X950569Y117706D01*
Y113077D01*
X890385Y102268D02*
X891928Y103812D01*
X895014D01*
X896558Y102268D01*
Y96096D01*
X895014Y94552D01*
X891928D01*
X890385Y96096D01*
Y102268D01*
X899644Y94552D02*
Y96096D01*
X901187D01*
Y94552D01*
X899644D01*
X907360Y102268D02*
X908903Y103812D01*
X911989D01*
X913532Y102268D01*
Y96096D01*
X911989Y94552D01*
X908903D01*
X907360Y96096D01*
Y102268D01*
X916619Y94552D02*
X919705D01*
X918162D01*
Y103812D01*
X916619Y102268D01*
X930507Y103812D02*
X924335D01*
Y99182D01*
X927421Y100725D01*
X928964D01*
X930507Y99182D01*
Y96096D01*
X928964Y94552D01*
X925878D01*
X924335Y96096D01*
X933594Y94552D02*
Y100725D01*
X935137D01*
X936680Y99182D01*
Y94552D01*
Y99182D01*
X938223Y100725D01*
X939766Y99182D01*
Y94552D01*
X942853D02*
Y100725D01*
X944396D01*
X945939Y99182D01*
Y94552D01*
Y99182D01*
X947482Y100725D01*
X949025Y99182D01*
Y94552D01*
X890385Y83744D02*
X891928Y85288D01*
X895014D01*
X896558Y83744D01*
Y77572D01*
X895014Y76028D01*
X891928D01*
X890385Y77572D01*
Y83744D01*
X899644Y76028D02*
Y77572D01*
X901187D01*
Y76028D01*
X899644D01*
X907360D02*
X910446D01*
X908903D01*
Y85288D01*
X907360Y83744D01*
X915076Y76028D02*
X918162D01*
X916619D01*
Y85288D01*
X915076Y83744D01*
X928964Y76028D02*
X922792D01*
X928964Y82201D01*
Y83744D01*
X927421Y85288D01*
X924335D01*
X922792Y83744D01*
X932051Y76028D02*
Y82201D01*
X933594D01*
X935137Y80658D01*
Y76028D01*
Y80658D01*
X936680Y82201D01*
X938223Y80658D01*
Y76028D01*
X941310D02*
Y82201D01*
X942853D01*
X944396Y80658D01*
Y76028D01*
Y80658D01*
X945939Y82201D01*
X947482Y80658D01*
Y76028D01*
X890385Y65220D02*
X891928Y66764D01*
X895014D01*
X896558Y65220D01*
Y59048D01*
X895014Y57505D01*
X891928D01*
X890385Y59048D01*
Y65220D01*
X899644Y57505D02*
Y59048D01*
X901187D01*
Y57505D01*
X899644D01*
X907360Y65220D02*
X908903Y66764D01*
X911989D01*
X913532Y65220D01*
Y59048D01*
X911989Y57505D01*
X908903D01*
X907360Y59048D01*
Y65220D01*
X916619D02*
X918162Y66764D01*
X921248D01*
X922792Y65220D01*
Y63677D01*
X921248Y62134D01*
X919705D01*
X921248D01*
X922792Y60591D01*
Y59048D01*
X921248Y57505D01*
X918162D01*
X916619Y59048D01*
X932051Y66764D02*
X928964Y65220D01*
X925878Y62134D01*
Y59048D01*
X927421Y57505D01*
X930507D01*
X932051Y59048D01*
Y60591D01*
X930507Y62134D01*
X925878D01*
X935137Y57505D02*
Y63677D01*
X936680D01*
X938223Y62134D01*
Y57505D01*
Y62134D01*
X939766Y63677D01*
X941310Y62134D01*
Y57505D01*
X944396D02*
Y63677D01*
X945939D01*
X947482Y62134D01*
Y57505D01*
Y62134D01*
X949025Y63677D01*
X950569Y62134D01*
Y57505D01*
X890385Y46696D02*
X891928Y48239D01*
X895014D01*
X896558Y46696D01*
Y40524D01*
X895014Y38980D01*
X891928D01*
X890385Y40524D01*
Y46696D01*
X899644Y38980D02*
Y40524D01*
X901187D01*
Y38980D01*
X899644D01*
X907360Y46696D02*
X908903Y48239D01*
X911989D01*
X913532Y46696D01*
Y40524D01*
X911989Y38980D01*
X908903D01*
X907360Y40524D01*
Y46696D01*
X922792Y38980D02*
X916619D01*
X922792Y45153D01*
Y46696D01*
X921248Y48239D01*
X918162D01*
X916619Y46696D01*
X925878D02*
X927421Y48239D01*
X930507D01*
X932051Y46696D01*
Y40524D01*
X930507Y38980D01*
X927421D01*
X925878Y40524D01*
Y46696D01*
X935137Y38980D02*
Y45153D01*
X936680D01*
X938223Y43610D01*
Y38980D01*
Y43610D01*
X939766Y45153D01*
X941310Y43610D01*
Y38980D01*
X944396D02*
Y45153D01*
X945939D01*
X947482Y43610D01*
Y38980D01*
Y43610D01*
X949025Y45153D01*
X950569Y43610D01*
Y38980D01*
X890385Y28172D02*
X891928Y29715D01*
X895014D01*
X896558Y28172D01*
Y21999D01*
X895014Y20456D01*
X891928D01*
X890385Y21999D01*
Y28172D01*
X899644Y20456D02*
Y21999D01*
X901187D01*
Y20456D01*
X899644D01*
X907360Y28172D02*
X908903Y29715D01*
X911989D01*
X913532Y28172D01*
Y21999D01*
X911989Y20456D01*
X908903D01*
X907360Y21999D01*
Y28172D01*
X916619Y20456D02*
X919705D01*
X918162D01*
Y29715D01*
X916619Y28172D01*
X924335D02*
X925878Y29715D01*
X928964D01*
X930507Y28172D01*
Y21999D01*
X928964Y20456D01*
X925878D01*
X924335Y21999D01*
Y28172D01*
X933594Y20456D02*
Y26629D01*
X935137D01*
X936680Y25086D01*
Y20456D01*
Y25086D01*
X938223Y26629D01*
X939766Y25086D01*
Y20456D01*
X942853D02*
Y26629D01*
X944396D01*
X945939Y25086D01*
Y20456D01*
Y25086D01*
X947482Y26629D01*
X949025Y25086D01*
Y20456D01*
X890385Y400196D02*
X896558D01*
X893471D01*
Y390937D01*
X899644Y400196D02*
Y390937D01*
Y395567D01*
X901187Y397110D01*
X904274D01*
X905817Y395567D01*
Y390937D01*
X908903D02*
X911989D01*
X910446D01*
Y397110D01*
X908903D01*
X922792D02*
X918162D01*
X916619Y395567D01*
Y392480D01*
X918162Y390937D01*
X922792D01*
X925878D02*
Y400196D01*
Y394024D02*
X930507Y397110D01*
X925878Y394024D02*
X930507Y390937D01*
X935137D02*
Y397110D01*
X939766D01*
X941310Y395567D01*
Y390937D01*
X949025D02*
X945939D01*
X944396Y392480D01*
Y395567D01*
X945939Y397110D01*
X949025D01*
X950569Y395567D01*
Y394024D01*
X944396D01*
X953655Y390937D02*
X958285D01*
X959828Y392480D01*
X958285Y394024D01*
X955198D01*
X953655Y395567D01*
X955198Y397110D01*
X959828D01*
X962914Y390937D02*
X967544D01*
X969087Y392480D01*
X967544Y394024D01*
X964457D01*
X962914Y395567D01*
X964457Y397110D01*
X969087D01*
X761845Y361605D02*
X760302Y363148D01*
X757216D01*
X755672Y361605D01*
Y360062D01*
X757216Y358519D01*
X760302D01*
X761845Y356976D01*
Y355432D01*
X760302Y353889D01*
X757216D01*
X755672Y355432D01*
X766475Y353889D02*
X769561D01*
X771104Y355432D01*
Y358519D01*
X769561Y360062D01*
X766475D01*
X764931Y358519D01*
Y355432D01*
X766475Y353889D01*
X774191D02*
X777277D01*
X775734D01*
Y363148D01*
X774191D01*
X788079D02*
Y353889D01*
X783449D01*
X781906Y355432D01*
Y358519D01*
X783449Y360062D01*
X788079D01*
X795795Y353889D02*
X792709D01*
X791165Y355432D01*
Y358519D01*
X792709Y360062D01*
X795795D01*
X797338Y358519D01*
Y356976D01*
X791165D01*
X800424Y360062D02*
Y353889D01*
Y356976D01*
X801968Y358519D01*
X803511Y360062D01*
X805054D01*
X818942Y353889D02*
Y363148D01*
X823572D01*
X825115Y361605D01*
Y358519D01*
X823572Y356976D01*
X818942D01*
X822029D02*
X825115Y353889D01*
X832831D02*
X829745D01*
X828202Y355432D01*
Y358519D01*
X829745Y360062D01*
X832831D01*
X834374Y358519D01*
Y356976D01*
X828202D01*
X837461Y353889D02*
X842090D01*
X843633Y355432D01*
X842090Y356976D01*
X839004D01*
X837461Y358519D01*
X839004Y360062D01*
X843633D01*
X846720Y353889D02*
X849806D01*
X848263D01*
Y360062D01*
X846720D01*
X854436Y353889D02*
X859065D01*
X860608Y355432D01*
X859065Y356976D01*
X855979D01*
X854436Y358519D01*
X855979Y360062D01*
X860608D01*
X865238Y361605D02*
Y360062D01*
X863695D01*
X866781D01*
X865238D01*
Y355432D01*
X866781Y353889D01*
X755672Y335365D02*
Y344624D01*
X760302D01*
X761845Y343081D01*
Y339995D01*
X760302Y338451D01*
X755672D01*
X764931Y344624D02*
Y335365D01*
X769561D01*
X771104Y336908D01*
Y338451D01*
Y339995D01*
X769561Y341538D01*
X764931D01*
X780363Y343081D02*
X778820Y344624D01*
X775734D01*
X774191Y343081D01*
Y341538D01*
X775734Y339995D01*
X778820D01*
X780363Y338451D01*
Y336908D01*
X778820Y335365D01*
X775734D01*
X774191Y336908D01*
X783449Y335365D02*
Y341538D01*
X788079D01*
X789622Y339995D01*
Y335365D01*
X755672Y298317D02*
Y307576D01*
X760302D01*
X761845Y306033D01*
Y302946D01*
X760302Y301403D01*
X755672D01*
X764931Y298317D02*
Y307576D01*
X769561D01*
X771104Y306033D01*
Y302946D01*
X769561Y301403D01*
X764931D01*
X774191Y302946D02*
X780363D01*
X783449Y306033D02*
X784993Y307576D01*
X788079D01*
X789622Y306033D01*
Y299860D01*
X788079Y298317D01*
X784993D01*
X783449Y299860D01*
Y306033D01*
X792709Y298317D02*
X795795D01*
X794252D01*
Y307576D01*
X792709Y306033D01*
X806597Y307576D02*
X800424D01*
Y302946D01*
X803511Y304490D01*
X805054D01*
X806597Y302946D01*
Y299860D01*
X805054Y298317D01*
X801968D01*
X800424Y299860D01*
X761845Y287509D02*
X760302Y289052D01*
X757216D01*
X755672Y287509D01*
Y281336D01*
X757216Y279793D01*
X760302D01*
X761845Y281336D01*
X771104Y289052D02*
X764931D01*
Y284422D01*
X768018D01*
X764931D01*
Y279793D01*
X774191Y284422D02*
X780363D01*
X783449Y287509D02*
X784993Y289052D01*
X788079D01*
X789622Y287509D01*
Y281336D01*
X788079Y279793D01*
X784993D01*
X783449Y281336D01*
Y287509D01*
X792709D02*
X794252Y289052D01*
X797338D01*
X798881Y287509D01*
Y281336D01*
X797338Y279793D01*
X794252D01*
X792709Y281336D01*
Y287509D01*
X806597Y279793D02*
Y289052D01*
X801968Y284422D01*
X808140D01*
X761845Y268985D02*
X760302Y270528D01*
X757216D01*
X755672Y268985D01*
Y262812D01*
X757216Y261269D01*
X760302D01*
X761845Y262812D01*
X766475Y261269D02*
X769561D01*
X771104Y262812D01*
Y265898D01*
X769561Y267442D01*
X766475D01*
X764931Y265898D01*
Y262812D01*
X766475Y261269D01*
X774191Y267442D02*
Y261269D01*
Y264355D01*
X775734Y265898D01*
X777277Y267442D01*
X778820D01*
X788079Y261269D02*
X784993D01*
X783449Y262812D01*
Y265898D01*
X784993Y267442D01*
X788079D01*
X789622Y265898D01*
Y264355D01*
X783449D01*
X792709Y265898D02*
X798881D01*
X801968Y268985D02*
X803511Y270528D01*
X806597D01*
X808140Y268985D01*
Y262812D01*
X806597Y261269D01*
X803511D01*
X801968Y262812D01*
Y268985D01*
X811227D02*
X812770Y270528D01*
X815856D01*
X817399Y268985D01*
Y262812D01*
X815856Y261269D01*
X812770D01*
X811227Y262812D01*
Y268985D01*
X820486Y262812D02*
X822029Y261269D01*
X825115D01*
X826658Y262812D01*
Y268985D01*
X825115Y270528D01*
X822029D01*
X820486Y268985D01*
Y267442D01*
X822029Y265898D01*
X826658D01*
X761845Y250461D02*
X760302Y252004D01*
X757216D01*
X755672Y250461D01*
Y244288D01*
X757216Y242745D01*
X760302D01*
X761845Y244288D01*
X771104Y252004D02*
X764931D01*
Y247374D01*
X768018D01*
X764931D01*
Y242745D01*
X774191Y247374D02*
X780363D01*
X783449Y250461D02*
X784993Y252004D01*
X788079D01*
X789622Y250461D01*
Y244288D01*
X788079Y242745D01*
X784993D01*
X783449Y244288D01*
Y250461D01*
X792709D02*
X794252Y252004D01*
X797338D01*
X798881Y250461D01*
Y244288D01*
X797338Y242745D01*
X794252D01*
X792709Y244288D01*
Y250461D01*
X806597Y242745D02*
Y252004D01*
X801968Y247374D01*
X808140D01*
X755672Y224221D02*
Y233480D01*
X760302D01*
X761845Y231937D01*
Y228850D01*
X760302Y227307D01*
X755672D01*
X764931Y224221D02*
Y233480D01*
X769561D01*
X771104Y231937D01*
Y228850D01*
X769561Y227307D01*
X764931D01*
X774191Y228850D02*
X780363D01*
X783449Y231937D02*
X784993Y233480D01*
X788079D01*
X789622Y231937D01*
Y225764D01*
X788079Y224221D01*
X784993D01*
X783449Y225764D01*
Y231937D01*
X792709Y224221D02*
X795795D01*
X794252D01*
Y233480D01*
X792709Y231937D01*
X806597Y233480D02*
X803511Y231937D01*
X800424Y228850D01*
Y225764D01*
X801968Y224221D01*
X805054D01*
X806597Y225764D01*
Y227307D01*
X805054Y228850D01*
X800424D01*
X761845Y213413D02*
X760302Y214956D01*
X757216D01*
X755672Y213413D01*
Y207240D01*
X757216Y205697D01*
X760302D01*
X761845Y207240D01*
X771104Y214956D02*
X764931D01*
Y210326D01*
X768018D01*
X764931D01*
Y205697D01*
X774191Y210326D02*
X780363D01*
X783449Y213413D02*
X784993Y214956D01*
X788079D01*
X789622Y213413D01*
Y207240D01*
X788079Y205697D01*
X784993D01*
X783449Y207240D01*
Y213413D01*
X792709D02*
X794252Y214956D01*
X797338D01*
X798881Y213413D01*
Y207240D01*
X797338Y205697D01*
X794252D01*
X792709Y207240D01*
Y213413D01*
X806597Y205697D02*
Y214956D01*
X801968Y210326D01*
X808140D01*
X755672Y187173D02*
Y196432D01*
X760302D01*
X761845Y194889D01*
Y191802D01*
X760302Y190259D01*
X755672D01*
X764931Y187173D02*
Y196432D01*
X769561D01*
X771104Y194889D01*
Y191802D01*
X769561Y190259D01*
X764931D01*
X774191Y191802D02*
X780363D01*
X783449Y194889D02*
X784993Y196432D01*
X788079D01*
X789622Y194889D01*
Y188716D01*
X788079Y187173D01*
X784993D01*
X783449Y188716D01*
Y194889D01*
X792709D02*
X794252Y196432D01*
X797338D01*
X798881Y194889D01*
Y188716D01*
X797338Y187173D01*
X794252D01*
X792709Y188716D01*
Y194889D01*
X808140Y196432D02*
X805054Y194889D01*
X801968Y191802D01*
Y188716D01*
X803511Y187173D01*
X806597D01*
X808140Y188716D01*
Y190259D01*
X806597Y191802D01*
X801968D01*
X761845Y176365D02*
X760302Y177908D01*
X757216D01*
X755672Y176365D01*
Y170192D01*
X757216Y168649D01*
X760302D01*
X761845Y170192D01*
X771104Y177908D02*
X764931D01*
Y173278D01*
X768018D01*
X764931D01*
Y168649D01*
X774191Y173278D02*
X780363D01*
X783449Y176365D02*
X784993Y177908D01*
X788079D01*
X789622Y176365D01*
Y170192D01*
X788079Y168649D01*
X784993D01*
X783449Y170192D01*
Y176365D01*
X792709D02*
X794252Y177908D01*
X797338D01*
X798881Y176365D01*
Y170192D01*
X797338Y168649D01*
X794252D01*
X792709Y170192D01*
Y176365D01*
X806597Y168649D02*
Y177908D01*
X801968Y173278D01*
X808140D01*
X755672Y150125D02*
Y159384D01*
X760302D01*
X761845Y157840D01*
Y154754D01*
X760302Y153211D01*
X755672D01*
X764931Y150125D02*
Y159384D01*
X769561D01*
X771104Y157840D01*
Y154754D01*
X769561Y153211D01*
X764931D01*
X774191Y154754D02*
X780363D01*
X783449Y157840D02*
X784993Y159384D01*
X788079D01*
X789622Y157840D01*
Y151668D01*
X788079Y150125D01*
X784993D01*
X783449Y151668D01*
Y157840D01*
X792709D02*
X794252Y159384D01*
X797338D01*
X798881Y157840D01*
Y151668D01*
X797338Y150125D01*
X794252D01*
X792709Y151668D01*
Y157840D01*
X808140Y159384D02*
X805054Y157840D01*
X801968Y154754D01*
Y151668D01*
X803511Y150125D01*
X806597D01*
X808140Y151668D01*
Y153211D01*
X806597Y154754D01*
X801968D01*
X761845Y139317D02*
X760302Y140860D01*
X757216D01*
X755672Y139317D01*
Y133144D01*
X757216Y131601D01*
X760302D01*
X761845Y133144D01*
X771104Y140860D02*
X764931D01*
Y136230D01*
X768018D01*
X764931D01*
Y131601D01*
X774191Y136230D02*
X780363D01*
X783449Y139317D02*
X784993Y140860D01*
X788079D01*
X789622Y139317D01*
Y133144D01*
X788079Y131601D01*
X784993D01*
X783449Y133144D01*
Y139317D01*
X792709D02*
X794252Y140860D01*
X797338D01*
X798881Y139317D01*
Y133144D01*
X797338Y131601D01*
X794252D01*
X792709Y133144D01*
Y139317D01*
X806597Y131601D02*
Y140860D01*
X801968Y136230D01*
X808140D01*
X761845Y120792D02*
X760302Y122336D01*
X757216D01*
X755672Y120792D01*
Y114620D01*
X757216Y113077D01*
X760302D01*
X761845Y114620D01*
X766475Y113077D02*
X769561D01*
X771104Y114620D01*
Y117706D01*
X769561Y119249D01*
X766475D01*
X764931Y117706D01*
Y114620D01*
X766475Y113077D01*
X774191Y119249D02*
Y113077D01*
Y116163D01*
X775734Y117706D01*
X777277Y119249D01*
X778820D01*
X788079Y113077D02*
X784993D01*
X783449Y114620D01*
Y117706D01*
X784993Y119249D01*
X788079D01*
X789622Y117706D01*
Y116163D01*
X783449D01*
X792709Y117706D02*
X798881D01*
X801968Y120792D02*
X803511Y122336D01*
X806597D01*
X808140Y120792D01*
Y114620D01*
X806597Y113077D01*
X803511D01*
X801968Y114620D01*
Y120792D01*
X811227D02*
X812770Y122336D01*
X815856D01*
X817399Y120792D01*
Y114620D01*
X815856Y113077D01*
X812770D01*
X811227Y114620D01*
Y120792D01*
X820486Y114620D02*
X822029Y113077D01*
X825115D01*
X826658Y114620D01*
Y120792D01*
X825115Y122336D01*
X822029D01*
X820486Y120792D01*
Y119249D01*
X822029Y117706D01*
X826658D01*
X761845Y102268D02*
X760302Y103812D01*
X757216D01*
X755672Y102268D01*
Y96096D01*
X757216Y94552D01*
X760302D01*
X761845Y96096D01*
X771104Y103812D02*
X764931D01*
Y99182D01*
X768018D01*
X764931D01*
Y94552D01*
X774191Y99182D02*
X780363D01*
X783449Y102268D02*
X784993Y103812D01*
X788079D01*
X789622Y102268D01*
Y96096D01*
X788079Y94552D01*
X784993D01*
X783449Y96096D01*
Y102268D01*
X792709D02*
X794252Y103812D01*
X797338D01*
X798881Y102268D01*
Y96096D01*
X797338Y94552D01*
X794252D01*
X792709Y96096D01*
Y102268D01*
X806597Y94552D02*
Y103812D01*
X801968Y99182D01*
X808140D01*
X755672Y76028D02*
Y85288D01*
X760302D01*
X761845Y83744D01*
Y80658D01*
X760302Y79115D01*
X755672D01*
X764931Y76028D02*
Y85288D01*
X769561D01*
X771104Y83744D01*
Y80658D01*
X769561Y79115D01*
X764931D01*
X774191Y80658D02*
X780363D01*
X783449Y83744D02*
X784993Y85288D01*
X788079D01*
X789622Y83744D01*
Y77572D01*
X788079Y76028D01*
X784993D01*
X783449Y77572D01*
Y83744D01*
X792709Y76028D02*
X795795D01*
X794252D01*
Y85288D01*
X792709Y83744D01*
X806597Y85288D02*
X800424D01*
Y80658D01*
X803511Y82201D01*
X805054D01*
X806597Y80658D01*
Y77572D01*
X805054Y76028D01*
X801968D01*
X800424Y77572D01*
X755672Y38980D02*
Y48239D01*
X760302D01*
X761845Y46696D01*
Y43610D01*
X760302Y42067D01*
X755672D01*
X764931Y48239D02*
Y38980D01*
X769561D01*
X771104Y40524D01*
Y42067D01*
Y43610D01*
X769561Y45153D01*
X764931D01*
X780363Y46696D02*
X778820Y48239D01*
X775734D01*
X774191Y46696D01*
Y45153D01*
X775734Y43610D01*
X778820D01*
X780363Y42067D01*
Y40524D01*
X778820Y38980D01*
X775734D01*
X774191Y40524D01*
X783449Y38980D02*
Y45153D01*
X788079D01*
X789622Y43610D01*
Y38980D01*
X761845Y28172D02*
X760302Y29715D01*
X757216D01*
X755672Y28172D01*
Y26629D01*
X757216Y25086D01*
X760302D01*
X761845Y23543D01*
Y21999D01*
X760302Y20456D01*
X757216D01*
X755672Y21999D01*
X766475Y20456D02*
X769561D01*
X771104Y21999D01*
Y25086D01*
X769561Y26629D01*
X766475D01*
X764931Y25086D01*
Y21999D01*
X766475Y20456D01*
X774191D02*
X777277D01*
X775734D01*
Y29715D01*
X774191D01*
X788079D02*
Y20456D01*
X783449D01*
X781906Y21999D01*
Y25086D01*
X783449Y26629D01*
X788079D01*
X795795Y20456D02*
X792709D01*
X791165Y21999D01*
Y25086D01*
X792709Y26629D01*
X795795D01*
X797338Y25086D01*
Y23543D01*
X791165D01*
X800424Y26629D02*
Y20456D01*
Y23543D01*
X801968Y25086D01*
X803511Y26629D01*
X805054D01*
X818942Y20456D02*
Y29715D01*
X823572D01*
X825115Y28172D01*
Y25086D01*
X823572Y23543D01*
X818942D01*
X822029D02*
X825115Y20456D01*
X832831D02*
X829745D01*
X828202Y21999D01*
Y25086D01*
X829745Y26629D01*
X832831D01*
X834374Y25086D01*
Y23543D01*
X828202D01*
X837461Y20456D02*
X842090D01*
X843633Y21999D01*
X842090Y23543D01*
X839004D01*
X837461Y25086D01*
X839004Y26629D01*
X843633D01*
X846720Y20456D02*
X849806D01*
X848263D01*
Y26629D01*
X846720D01*
X854436Y20456D02*
X859065D01*
X860608Y21999D01*
X859065Y23543D01*
X855979D01*
X854436Y25086D01*
X855979Y26629D01*
X860608D01*
X865238Y28172D02*
Y26629D01*
X863695D01*
X866781D01*
X865238D01*
Y21999D01*
X866781Y20456D01*
X755672Y390937D02*
Y400196D01*
X758759Y397110D01*
X761845Y400196D01*
Y390937D01*
X766475Y397110D02*
X769561D01*
X771104Y395567D01*
Y390937D01*
X766475D01*
X764931Y392480D01*
X766475Y394024D01*
X771104D01*
X775734Y398653D02*
Y397110D01*
X774191D01*
X777277D01*
X775734D01*
Y392480D01*
X777277Y390937D01*
X786536D02*
X783449D01*
X781906Y392480D01*
Y395567D01*
X783449Y397110D01*
X786536D01*
X788079Y395567D01*
Y394024D01*
X781906D01*
X791165Y397110D02*
Y390937D01*
Y394024D01*
X792709Y395567D01*
X794252Y397110D01*
X795795D01*
X800424Y390937D02*
X803511D01*
X801968D01*
Y397110D01*
X800424D01*
X809684D02*
X812770D01*
X814313Y395567D01*
Y390937D01*
X809684D01*
X808140Y392480D01*
X809684Y394024D01*
X814313D01*
X817399Y390937D02*
X820486D01*
X818942D01*
Y400196D01*
X817399D01*
X548431Y381672D02*
X554604D01*
X551517D01*
Y372413D01*
X559233D02*
X562319D01*
X563863Y373956D01*
Y377043D01*
X562319Y378586D01*
X559233D01*
X557690Y377043D01*
Y373956D01*
X559233Y372413D01*
X566949Y369327D02*
Y378586D01*
X571578D01*
X573122Y377043D01*
Y373956D01*
X571578Y372413D01*
X566949D01*
X590097Y381672D02*
X587010D01*
X585467Y380129D01*
Y373956D01*
X587010Y372413D01*
X590097D01*
X591640Y373956D01*
Y380129D01*
X590097Y381672D01*
X594726Y378586D02*
X597812Y372413D01*
X600899Y378586D01*
X608615Y372413D02*
X605528D01*
X603985Y373956D01*
Y377043D01*
X605528Y378586D01*
X608615D01*
X610158Y377043D01*
Y375499D01*
X603985D01*
X613244Y378586D02*
Y372413D01*
Y375499D01*
X614787Y377043D01*
X616330Y378586D01*
X617874D01*
X622503Y372413D02*
X625589D01*
X624046D01*
Y381672D01*
X622503D01*
X631762Y378586D02*
X634849D01*
X636392Y377043D01*
Y372413D01*
X631762D01*
X630219Y373956D01*
X631762Y375499D01*
X636392D01*
X639478Y378586D02*
Y373956D01*
X641021Y372413D01*
X645651D01*
Y370870D01*
X644108Y369327D01*
X642564D01*
X645651Y372413D02*
Y378586D01*
X548431Y363148D02*
X554604D01*
X551517D01*
Y353889D01*
X559233D02*
X562319D01*
X563863Y355432D01*
Y358519D01*
X562319Y360062D01*
X559233D01*
X557690Y358519D01*
Y355432D01*
X559233Y353889D01*
X566949Y350803D02*
Y360062D01*
X571578D01*
X573122Y358519D01*
Y355432D01*
X571578Y353889D01*
X566949D01*
X591640Y361605D02*
X590097Y363148D01*
X587010D01*
X585467Y361605D01*
Y360062D01*
X587010Y358519D01*
X590097D01*
X591640Y356976D01*
Y355432D01*
X590097Y353889D01*
X587010D01*
X585467Y355432D01*
X596269Y353889D02*
X599356D01*
X600899Y355432D01*
Y358519D01*
X599356Y360062D01*
X596269D01*
X594726Y358519D01*
Y355432D01*
X596269Y353889D01*
X603985D02*
X607071D01*
X605528D01*
Y363148D01*
X603985D01*
X617874D02*
Y353889D01*
X613244D01*
X611701Y355432D01*
Y358519D01*
X613244Y360062D01*
X617874D01*
X625589Y353889D02*
X622503D01*
X620960Y355432D01*
Y358519D01*
X622503Y360062D01*
X625589D01*
X627133Y358519D01*
Y356976D01*
X620960D01*
X630219Y360062D02*
Y353889D01*
Y356976D01*
X631762Y358519D01*
X633305Y360062D01*
X634849D01*
X548431Y344624D02*
X554604D01*
X551517D01*
Y335365D01*
X559233D02*
X562319D01*
X563863Y336908D01*
Y339995D01*
X562319Y341538D01*
X559233D01*
X557690Y339995D01*
Y336908D01*
X559233Y335365D01*
X566949Y332279D02*
Y341538D01*
X571578D01*
X573122Y339995D01*
Y336908D01*
X571578Y335365D01*
X566949D01*
X591640Y343081D02*
X590097Y344624D01*
X587010D01*
X585467Y343081D01*
Y341538D01*
X587010Y339995D01*
X590097D01*
X591640Y338451D01*
Y336908D01*
X590097Y335365D01*
X587010D01*
X585467Y336908D01*
X594726Y341538D02*
Y336908D01*
X596269Y335365D01*
X600899D01*
Y341538D01*
X603985D02*
Y335365D01*
Y338451D01*
X605528Y339995D01*
X607071Y341538D01*
X608615D01*
X614787Y335365D02*
Y343081D01*
Y339995D01*
X613244D01*
X616330D01*
X614787D01*
Y343081D01*
X616330Y344624D01*
X622503Y341538D02*
X625589D01*
X627133Y339995D01*
Y335365D01*
X622503D01*
X620960Y336908D01*
X622503Y338451D01*
X627133D01*
X636392Y341538D02*
X631762D01*
X630219Y339995D01*
Y336908D01*
X631762Y335365D01*
X636392D01*
X644108D02*
X641021D01*
X639478Y336908D01*
Y339995D01*
X641021Y341538D01*
X644108D01*
X645651Y339995D01*
Y338451D01*
X639478D01*
X664169Y344624D02*
X657996D01*
Y339995D01*
X661082D01*
X657996D01*
Y335365D01*
X667255D02*
X670341D01*
X668798D01*
Y341538D01*
X667255D01*
X674971Y335365D02*
Y341538D01*
X679601D01*
X681144Y339995D01*
Y335365D01*
X684230D02*
X687316D01*
X685773D01*
Y341538D01*
X684230D01*
X691946Y335365D02*
X696575D01*
X698119Y336908D01*
X696575Y338451D01*
X693489D01*
X691946Y339995D01*
X693489Y341538D01*
X698119D01*
X701205Y344624D02*
Y335365D01*
Y339995D01*
X702748Y341538D01*
X705835D01*
X707378Y339995D01*
Y335365D01*
X548431Y326100D02*
X554604D01*
X551517D01*
Y316841D01*
X559233D02*
X562319D01*
X563863Y318384D01*
Y321471D01*
X562319Y323014D01*
X559233D01*
X557690Y321471D01*
Y318384D01*
X559233Y316841D01*
X566949Y313755D02*
Y323014D01*
X571578D01*
X573122Y321471D01*
Y318384D01*
X571578Y316841D01*
X566949D01*
X585467Y326100D02*
Y316841D01*
X591640D01*
X596269Y323014D02*
X599356D01*
X600899Y321471D01*
Y316841D01*
X596269D01*
X594726Y318384D01*
X596269Y319927D01*
X600899D01*
X603985Y323014D02*
Y318384D01*
X605528Y316841D01*
X610158D01*
Y315298D01*
X608615Y313755D01*
X607071D01*
X610158Y316841D02*
Y323014D01*
X617874Y316841D02*
X614787D01*
X613244Y318384D01*
Y321471D01*
X614787Y323014D01*
X617874D01*
X619417Y321471D01*
Y319927D01*
X613244D01*
X622503Y323014D02*
Y316841D01*
Y319927D01*
X624046Y321471D01*
X625589Y323014D01*
X627133D01*
X548431Y307576D02*
Y298317D01*
X553060D01*
X554604Y299860D01*
Y306033D01*
X553060Y307576D01*
X548431D01*
X557690Y298317D02*
X560776D01*
X559233D01*
Y304490D01*
X557690D01*
X570035Y298317D02*
X566949D01*
X565406Y299860D01*
Y302946D01*
X566949Y304490D01*
X570035D01*
X571578Y302946D01*
Y301403D01*
X565406D01*
X574665Y298317D02*
X577751D01*
X576208D01*
Y307576D01*
X574665D01*
X587010Y298317D02*
X583924D01*
X582381Y299860D01*
Y302946D01*
X583924Y304490D01*
X587010D01*
X588553Y302946D01*
Y301403D01*
X582381D01*
X597812Y304490D02*
X593183D01*
X591640Y302946D01*
Y299860D01*
X593183Y298317D01*
X597812D01*
X602442Y306033D02*
Y304490D01*
X600899D01*
X603985D01*
X602442D01*
Y299860D01*
X603985Y298317D01*
X608615Y304490D02*
Y298317D01*
Y301403D01*
X610158Y302946D01*
X611701Y304490D01*
X613244D01*
X617874Y298317D02*
X620960D01*
X619417D01*
Y304490D01*
X617874D01*
X631762D02*
X627133D01*
X625589Y302946D01*
Y299860D01*
X627133Y298317D01*
X631762D01*
X650280D02*
X644108D01*
X650280Y304490D01*
Y306033D01*
X648737Y307576D01*
X645651D01*
X644108Y306033D01*
X548431Y289052D02*
Y279793D01*
X554604D01*
X559233Y285966D02*
X562319D01*
X563863Y284422D01*
Y279793D01*
X559233D01*
X557690Y281336D01*
X559233Y282879D01*
X563863D01*
X566949Y285966D02*
Y281336D01*
X568492Y279793D01*
X573122D01*
Y278250D01*
X571578Y276707D01*
X570035D01*
X573122Y279793D02*
Y285966D01*
X580838Y279793D02*
X577751D01*
X576208Y281336D01*
Y284422D01*
X577751Y285966D01*
X580838D01*
X582381Y284422D01*
Y282879D01*
X576208D01*
X585467Y285966D02*
Y279793D01*
Y282879D01*
X587010Y284422D01*
X588553Y285966D01*
X590097D01*
X603985Y287509D02*
X605528Y289052D01*
X608615D01*
X610158Y287509D01*
Y285966D01*
X608615Y284422D01*
X607071D01*
X608615D01*
X610158Y282879D01*
Y281336D01*
X608615Y279793D01*
X605528D01*
X603985Y281336D01*
X548431Y270528D02*
Y261269D01*
X553060D01*
X554604Y262812D01*
Y268985D01*
X553060Y270528D01*
X548431D01*
X557690Y261269D02*
X560776D01*
X559233D01*
Y267442D01*
X557690D01*
X570035Y261269D02*
X566949D01*
X565406Y262812D01*
Y265898D01*
X566949Y267442D01*
X570035D01*
X571578Y265898D01*
Y264355D01*
X565406D01*
X574665Y261269D02*
X577751D01*
X576208D01*
Y270528D01*
X574665D01*
X587010Y261269D02*
X583924D01*
X582381Y262812D01*
Y265898D01*
X583924Y267442D01*
X587010D01*
X588553Y265898D01*
Y264355D01*
X582381D01*
X597812Y267442D02*
X593183D01*
X591640Y265898D01*
Y262812D01*
X593183Y261269D01*
X597812D01*
X602442Y268985D02*
Y267442D01*
X600899D01*
X603985D01*
X602442D01*
Y262812D01*
X603985Y261269D01*
X608615Y267442D02*
Y261269D01*
Y264355D01*
X610158Y265898D01*
X611701Y267442D01*
X613244D01*
X617874Y261269D02*
X620960D01*
X619417D01*
Y267442D01*
X617874D01*
X631762D02*
X627133D01*
X625589Y265898D01*
Y262812D01*
X627133Y261269D01*
X631762D01*
X644108Y268985D02*
X645651Y270528D01*
X648737D01*
X650280Y268985D01*
Y267442D01*
X648737Y265898D01*
X650280Y264355D01*
Y262812D01*
X648737Y261269D01*
X645651D01*
X644108Y262812D01*
Y264355D01*
X645651Y265898D01*
X644108Y267442D01*
Y268985D01*
X645651Y265898D02*
X648737D01*
X548431Y252004D02*
Y242745D01*
X554604D01*
X559233Y248918D02*
X562319D01*
X563863Y247374D01*
Y242745D01*
X559233D01*
X557690Y244288D01*
X559233Y245831D01*
X563863D01*
X566949Y248918D02*
Y244288D01*
X568492Y242745D01*
X573122D01*
Y241202D01*
X571578Y239659D01*
X570035D01*
X573122Y242745D02*
Y248918D01*
X580838Y242745D02*
X577751D01*
X576208Y244288D01*
Y247374D01*
X577751Y248918D01*
X580838D01*
X582381Y247374D01*
Y245831D01*
X576208D01*
X585467Y248918D02*
Y242745D01*
Y245831D01*
X587010Y247374D01*
X588553Y248918D01*
X590097D01*
X603985Y242745D02*
X607071D01*
X605528D01*
Y252004D01*
X603985Y250461D01*
X548431Y233480D02*
Y224221D01*
X553060D01*
X554604Y225764D01*
Y231937D01*
X553060Y233480D01*
X548431D01*
X557690Y224221D02*
X560776D01*
X559233D01*
Y230394D01*
X557690D01*
X570035Y224221D02*
X566949D01*
X565406Y225764D01*
Y228850D01*
X566949Y230394D01*
X570035D01*
X571578Y228850D01*
Y227307D01*
X565406D01*
X574665Y224221D02*
X577751D01*
X576208D01*
Y233480D01*
X574665D01*
X587010Y224221D02*
X583924D01*
X582381Y225764D01*
Y228850D01*
X583924Y230394D01*
X587010D01*
X588553Y228850D01*
Y227307D01*
X582381D01*
X597812Y230394D02*
X593183D01*
X591640Y228850D01*
Y225764D01*
X593183Y224221D01*
X597812D01*
X602442Y231937D02*
Y230394D01*
X600899D01*
X603985D01*
X602442D01*
Y225764D01*
X603985Y224221D01*
X608615Y230394D02*
Y224221D01*
Y227307D01*
X610158Y228850D01*
X611701Y230394D01*
X613244D01*
X617874Y224221D02*
X620960D01*
X619417D01*
Y230394D01*
X617874D01*
X631762D02*
X627133D01*
X625589Y228850D01*
Y225764D01*
X627133Y224221D01*
X631762D01*
X648737D02*
Y233480D01*
X644108Y228850D01*
X650280D01*
X548431Y214956D02*
Y205697D01*
X554604D01*
X559233Y211870D02*
X562319D01*
X563863Y210326D01*
Y205697D01*
X559233D01*
X557690Y207240D01*
X559233Y208783D01*
X563863D01*
X566949Y211870D02*
Y207240D01*
X568492Y205697D01*
X573122D01*
Y204154D01*
X571578Y202610D01*
X570035D01*
X573122Y205697D02*
Y211870D01*
X580838Y205697D02*
X577751D01*
X576208Y207240D01*
Y210326D01*
X577751Y211870D01*
X580838D01*
X582381Y210326D01*
Y208783D01*
X576208D01*
X585467Y211870D02*
Y205697D01*
Y208783D01*
X587010Y210326D01*
X588553Y211870D01*
X590097D01*
X610158Y205697D02*
X603985D01*
X610158Y211870D01*
Y213413D01*
X608615Y214956D01*
X605528D01*
X603985Y213413D01*
X548431Y196432D02*
Y187173D01*
X553060D01*
X554604Y188716D01*
Y194889D01*
X553060Y196432D01*
X548431D01*
X557690Y187173D02*
X560776D01*
X559233D01*
Y193345D01*
X557690D01*
X570035Y187173D02*
X566949D01*
X565406Y188716D01*
Y191802D01*
X566949Y193345D01*
X570035D01*
X571578Y191802D01*
Y190259D01*
X565406D01*
X574665Y187173D02*
X577751D01*
X576208D01*
Y196432D01*
X574665D01*
X587010Y187173D02*
X583924D01*
X582381Y188716D01*
Y191802D01*
X583924Y193345D01*
X587010D01*
X588553Y191802D01*
Y190259D01*
X582381D01*
X597812Y193345D02*
X593183D01*
X591640Y191802D01*
Y188716D01*
X593183Y187173D01*
X597812D01*
X602442Y194889D02*
Y193345D01*
X600899D01*
X603985D01*
X602442D01*
Y188716D01*
X603985Y187173D01*
X608615Y193345D02*
Y187173D01*
Y190259D01*
X610158Y191802D01*
X611701Y193345D01*
X613244D01*
X617874Y187173D02*
X620960D01*
X619417D01*
Y193345D01*
X617874D01*
X631762D02*
X627133D01*
X625589Y191802D01*
Y188716D01*
X627133Y187173D01*
X631762D01*
X644108D02*
X647194D01*
X645651D01*
Y196432D01*
X644108Y194889D01*
X548431Y177908D02*
Y168649D01*
X554604D01*
X559233Y174821D02*
X562319D01*
X563863Y173278D01*
Y168649D01*
X559233D01*
X557690Y170192D01*
X559233Y171735D01*
X563863D01*
X566949Y174821D02*
Y170192D01*
X568492Y168649D01*
X573122D01*
Y167106D01*
X571578Y165562D01*
X570035D01*
X573122Y168649D02*
Y174821D01*
X580838Y168649D02*
X577751D01*
X576208Y170192D01*
Y173278D01*
X577751Y174821D01*
X580838D01*
X582381Y173278D01*
Y171735D01*
X576208D01*
X585467Y174821D02*
Y168649D01*
Y171735D01*
X587010Y173278D01*
X588553Y174821D01*
X590097D01*
X610158Y177908D02*
X603985D01*
Y173278D01*
X607071Y174821D01*
X608615D01*
X610158Y173278D01*
Y170192D01*
X608615Y168649D01*
X605528D01*
X603985Y170192D01*
X548431Y159384D02*
Y150125D01*
X553060D01*
X554604Y151668D01*
Y157840D01*
X553060Y159384D01*
X548431D01*
X557690Y150125D02*
X560776D01*
X559233D01*
Y156297D01*
X557690D01*
X570035Y150125D02*
X566949D01*
X565406Y151668D01*
Y154754D01*
X566949Y156297D01*
X570035D01*
X571578Y154754D01*
Y153211D01*
X565406D01*
X574665Y150125D02*
X577751D01*
X576208D01*
Y159384D01*
X574665D01*
X587010Y150125D02*
X583924D01*
X582381Y151668D01*
Y154754D01*
X583924Y156297D01*
X587010D01*
X588553Y154754D01*
Y153211D01*
X582381D01*
X597812Y156297D02*
X593183D01*
X591640Y154754D01*
Y151668D01*
X593183Y150125D01*
X597812D01*
X602442Y157840D02*
Y156297D01*
X600899D01*
X603985D01*
X602442D01*
Y151668D01*
X603985Y150125D01*
X608615Y156297D02*
Y150125D01*
Y153211D01*
X610158Y154754D01*
X611701Y156297D01*
X613244D01*
X617874Y150125D02*
X620960D01*
X619417D01*
Y156297D01*
X617874D01*
X631762D02*
X627133D01*
X625589Y154754D01*
Y151668D01*
X627133Y150125D01*
X631762D01*
X650280Y159384D02*
X644108D01*
Y154754D01*
X647194Y156297D01*
X648737D01*
X650280Y154754D01*
Y151668D01*
X648737Y150125D01*
X645651D01*
X644108Y151668D01*
X548431Y140860D02*
Y131601D01*
X554604D01*
X559233Y137773D02*
X562319D01*
X563863Y136230D01*
Y131601D01*
X559233D01*
X557690Y133144D01*
X559233Y134687D01*
X563863D01*
X566949Y137773D02*
Y133144D01*
X568492Y131601D01*
X573122D01*
Y130057D01*
X571578Y128514D01*
X570035D01*
X573122Y131601D02*
Y137773D01*
X580838Y131601D02*
X577751D01*
X576208Y133144D01*
Y136230D01*
X577751Y137773D01*
X580838D01*
X582381Y136230D01*
Y134687D01*
X576208D01*
X585467Y137773D02*
Y131601D01*
Y134687D01*
X587010Y136230D01*
X588553Y137773D01*
X590097D01*
X610158Y140860D02*
X607071Y139317D01*
X603985Y136230D01*
Y133144D01*
X605528Y131601D01*
X608615D01*
X610158Y133144D01*
Y134687D01*
X608615Y136230D01*
X603985D01*
X548431Y122336D02*
Y113077D01*
X553060D01*
X554604Y114620D01*
Y120792D01*
X553060Y122336D01*
X548431D01*
X557690Y113077D02*
X560776D01*
X559233D01*
Y119249D01*
X557690D01*
X570035Y113077D02*
X566949D01*
X565406Y114620D01*
Y117706D01*
X566949Y119249D01*
X570035D01*
X571578Y117706D01*
Y116163D01*
X565406D01*
X574665Y113077D02*
X577751D01*
X576208D01*
Y122336D01*
X574665D01*
X587010Y113077D02*
X583924D01*
X582381Y114620D01*
Y117706D01*
X583924Y119249D01*
X587010D01*
X588553Y117706D01*
Y116163D01*
X582381D01*
X597812Y119249D02*
X593183D01*
X591640Y117706D01*
Y114620D01*
X593183Y113077D01*
X597812D01*
X602442Y120792D02*
Y119249D01*
X600899D01*
X603985D01*
X602442D01*
Y114620D01*
X603985Y113077D01*
X608615Y119249D02*
Y113077D01*
Y116163D01*
X610158Y117706D01*
X611701Y119249D01*
X613244D01*
X617874Y113077D02*
X620960D01*
X619417D01*
Y119249D01*
X617874D01*
X631762D02*
X627133D01*
X625589Y117706D01*
Y114620D01*
X627133Y113077D01*
X631762D01*
X644108Y114620D02*
X645651Y113077D01*
X648737D01*
X650280Y114620D01*
Y120792D01*
X648737Y122336D01*
X645651D01*
X644108Y120792D01*
Y119249D01*
X645651Y117706D01*
X650280D01*
X548431Y103812D02*
Y94552D01*
X554604D01*
X559233Y100725D02*
X562319D01*
X563863Y99182D01*
Y94552D01*
X559233D01*
X557690Y96096D01*
X559233Y97639D01*
X563863D01*
X566949Y100725D02*
Y96096D01*
X568492Y94552D01*
X573122D01*
Y93009D01*
X571578Y91466D01*
X570035D01*
X573122Y94552D02*
Y100725D01*
X580838Y94552D02*
X577751D01*
X576208Y96096D01*
Y99182D01*
X577751Y100725D01*
X580838D01*
X582381Y99182D01*
Y97639D01*
X576208D01*
X585467Y100725D02*
Y94552D01*
Y97639D01*
X587010Y99182D01*
X588553Y100725D01*
X590097D01*
X608615Y94552D02*
Y103812D01*
X603985Y99182D01*
X610158D01*
X548431Y85288D02*
Y76028D01*
X553060D01*
X554604Y77572D01*
Y83744D01*
X553060Y85288D01*
X548431D01*
X557690Y76028D02*
X560776D01*
X559233D01*
Y82201D01*
X557690D01*
X570035Y76028D02*
X566949D01*
X565406Y77572D01*
Y80658D01*
X566949Y82201D01*
X570035D01*
X571578Y80658D01*
Y79115D01*
X565406D01*
X574665Y76028D02*
X577751D01*
X576208D01*
Y85288D01*
X574665D01*
X587010Y76028D02*
X583924D01*
X582381Y77572D01*
Y80658D01*
X583924Y82201D01*
X587010D01*
X588553Y80658D01*
Y79115D01*
X582381D01*
X597812Y82201D02*
X593183D01*
X591640Y80658D01*
Y77572D01*
X593183Y76028D01*
X597812D01*
X602442Y83744D02*
Y82201D01*
X600899D01*
X603985D01*
X602442D01*
Y77572D01*
X603985Y76028D01*
X608615Y82201D02*
Y76028D01*
Y79115D01*
X610158Y80658D01*
X611701Y82201D01*
X613244D01*
X617874Y76028D02*
X620960D01*
X619417D01*
Y82201D01*
X617874D01*
X631762D02*
X627133D01*
X625589Y80658D01*
Y77572D01*
X627133Y76028D01*
X631762D01*
X644108Y83744D02*
X645651Y85288D01*
X648737D01*
X650280Y83744D01*
Y82201D01*
X648737Y80658D01*
X647194D01*
X648737D01*
X650280Y79115D01*
Y77572D01*
X648737Y76028D01*
X645651D01*
X644108Y77572D01*
X548431Y66764D02*
Y57505D01*
X553060D01*
X554604Y59048D01*
Y60591D01*
X553060Y62134D01*
X548431D01*
X553060D01*
X554604Y63677D01*
Y65220D01*
X553060Y66764D01*
X548431D01*
X559233Y57505D02*
X562319D01*
X563863Y59048D01*
Y62134D01*
X562319Y63677D01*
X559233D01*
X557690Y62134D01*
Y59048D01*
X559233Y57505D01*
X568492Y65220D02*
Y63677D01*
X566949D01*
X570035D01*
X568492D01*
Y59048D01*
X570035Y57505D01*
X576208Y65220D02*
Y63677D01*
X574665D01*
X577751D01*
X576208D01*
Y59048D01*
X577751Y57505D01*
X583924D02*
X587010D01*
X588553Y59048D01*
Y62134D01*
X587010Y63677D01*
X583924D01*
X582381Y62134D01*
Y59048D01*
X583924Y57505D01*
X591640D02*
Y63677D01*
X593183D01*
X594726Y62134D01*
Y57505D01*
Y62134D01*
X596269Y63677D01*
X597812Y62134D01*
Y57505D01*
X610158Y66764D02*
Y57505D01*
X616330D01*
X620960Y63677D02*
X624046D01*
X625589Y62134D01*
Y57505D01*
X620960D01*
X619417Y59048D01*
X620960Y60591D01*
X625589D01*
X628676Y63677D02*
Y59048D01*
X630219Y57505D01*
X634849D01*
Y55961D01*
X633305Y54418D01*
X631762D01*
X634849Y57505D02*
Y63677D01*
X642564Y57505D02*
X639478D01*
X637935Y59048D01*
Y62134D01*
X639478Y63677D01*
X642564D01*
X644108Y62134D01*
Y60591D01*
X637935D01*
X647194Y63677D02*
Y57505D01*
Y60591D01*
X648737Y62134D01*
X650280Y63677D01*
X651823D01*
X548431Y48239D02*
Y38980D01*
X553060D01*
X554604Y40524D01*
Y42067D01*
X553060Y43610D01*
X548431D01*
X553060D01*
X554604Y45153D01*
Y46696D01*
X553060Y48239D01*
X548431D01*
X559233Y38980D02*
X562319D01*
X563863Y40524D01*
Y43610D01*
X562319Y45153D01*
X559233D01*
X557690Y43610D01*
Y40524D01*
X559233Y38980D01*
X568492Y46696D02*
Y45153D01*
X566949D01*
X570035D01*
X568492D01*
Y40524D01*
X570035Y38980D01*
X576208Y46696D02*
Y45153D01*
X574665D01*
X577751D01*
X576208D01*
Y40524D01*
X577751Y38980D01*
X583924D02*
X587010D01*
X588553Y40524D01*
Y43610D01*
X587010Y45153D01*
X583924D01*
X582381Y43610D01*
Y40524D01*
X583924Y38980D01*
X591640D02*
Y45153D01*
X593183D01*
X594726Y43610D01*
Y38980D01*
Y43610D01*
X596269Y45153D01*
X597812Y43610D01*
Y38980D01*
X616330Y46696D02*
X614787Y48239D01*
X611701D01*
X610158Y46696D01*
Y45153D01*
X611701Y43610D01*
X614787D01*
X616330Y42067D01*
Y40524D01*
X614787Y38980D01*
X611701D01*
X610158Y40524D01*
X619417Y45153D02*
Y40524D01*
X620960Y38980D01*
X625589D01*
Y45153D01*
X628676D02*
Y38980D01*
Y42067D01*
X630219Y43610D01*
X631762Y45153D01*
X633305D01*
X639478Y38980D02*
Y46696D01*
Y43610D01*
X637935D01*
X641021D01*
X639478D01*
Y46696D01*
X641021Y48239D01*
X647194Y45153D02*
X650280D01*
X651823Y43610D01*
Y38980D01*
X647194D01*
X645651Y40524D01*
X647194Y42067D01*
X651823D01*
X661082Y45153D02*
X656453D01*
X654910Y43610D01*
Y40524D01*
X656453Y38980D01*
X661082D01*
X668798D02*
X665712D01*
X664169Y40524D01*
Y43610D01*
X665712Y45153D01*
X668798D01*
X670341Y43610D01*
Y42067D01*
X664169D01*
X688859Y48239D02*
X682687D01*
Y43610D01*
X685773D01*
X682687D01*
Y38980D01*
X691946D02*
X695032D01*
X693489D01*
Y45153D01*
X691946D01*
X699662Y38980D02*
Y45153D01*
X704291D01*
X705834Y43610D01*
Y38980D01*
X708921D02*
X712007D01*
X710464D01*
Y45153D01*
X708921D01*
X716637Y38980D02*
X721266D01*
X722809Y40524D01*
X721266Y42067D01*
X718180D01*
X716637Y43610D01*
X718180Y45153D01*
X722809D01*
X725896Y48239D02*
Y38980D01*
Y43610D01*
X727439Y45153D01*
X730525D01*
X732068Y43610D01*
Y38980D01*
X548431Y29715D02*
Y20456D01*
X553060D01*
X554604Y21999D01*
Y23543D01*
X553060Y25086D01*
X548431D01*
X553060D01*
X554604Y26629D01*
Y28172D01*
X553060Y29715D01*
X548431D01*
X559233Y20456D02*
X562319D01*
X563863Y21999D01*
Y25086D01*
X562319Y26629D01*
X559233D01*
X557690Y25086D01*
Y21999D01*
X559233Y20456D01*
X568492Y28172D02*
Y26629D01*
X566949D01*
X570035D01*
X568492D01*
Y21999D01*
X570035Y20456D01*
X576208Y28172D02*
Y26629D01*
X574665D01*
X577751D01*
X576208D01*
Y21999D01*
X577751Y20456D01*
X583924D02*
X587010D01*
X588553Y21999D01*
Y25086D01*
X587010Y26629D01*
X583924D01*
X582381Y25086D01*
Y21999D01*
X583924Y20456D01*
X591640D02*
Y26629D01*
X593183D01*
X594726Y25086D01*
Y20456D01*
Y25086D01*
X596269Y26629D01*
X597812Y25086D01*
Y20456D01*
X616330Y28172D02*
X614787Y29715D01*
X611701D01*
X610158Y28172D01*
Y26629D01*
X611701Y25086D01*
X614787D01*
X616330Y23543D01*
Y21999D01*
X614787Y20456D01*
X611701D01*
X610158Y21999D01*
X620960Y20456D02*
X624046D01*
X625589Y21999D01*
Y25086D01*
X624046Y26629D01*
X620960D01*
X619417Y25086D01*
Y21999D01*
X620960Y20456D01*
X628676D02*
X631762D01*
X630219D01*
Y29715D01*
X628676D01*
X642564D02*
Y20456D01*
X637935D01*
X636392Y21999D01*
Y25086D01*
X637935Y26629D01*
X642564D01*
X650280Y20456D02*
X647194D01*
X645651Y21999D01*
Y25086D01*
X647194Y26629D01*
X650280D01*
X651823Y25086D01*
Y23543D01*
X645651D01*
X654910Y26629D02*
Y20456D01*
Y23543D01*
X656453Y25086D01*
X657996Y26629D01*
X659539D01*
X548431Y11191D02*
Y1932D01*
X553060D01*
X554604Y3476D01*
Y5019D01*
X553060Y6562D01*
X548431D01*
X553060D01*
X554604Y8105D01*
Y9648D01*
X553060Y11191D01*
X548431D01*
X559233Y1932D02*
X562319D01*
X563863Y3476D01*
Y6562D01*
X562319Y8105D01*
X559233D01*
X557690Y6562D01*
Y3476D01*
X559233Y1932D01*
X568492Y9648D02*
Y8105D01*
X566949D01*
X570035D01*
X568492D01*
Y3476D01*
X570035Y1932D01*
X576208Y9648D02*
Y8105D01*
X574665D01*
X577751D01*
X576208D01*
Y3476D01*
X577751Y1932D01*
X583924D02*
X587010D01*
X588553Y3476D01*
Y6562D01*
X587010Y8105D01*
X583924D01*
X582381Y6562D01*
Y3476D01*
X583924Y1932D01*
X591640D02*
Y8105D01*
X593183D01*
X594726Y6562D01*
Y1932D01*
Y6562D01*
X596269Y8105D01*
X597812Y6562D01*
Y1932D01*
X614787Y11191D02*
X611701D01*
X610158Y9648D01*
Y3476D01*
X611701Y1932D01*
X614787D01*
X616330Y3476D01*
Y9648D01*
X614787Y11191D01*
X619417Y8105D02*
X622503Y1932D01*
X625589Y8105D01*
X633305Y1932D02*
X630219D01*
X628676Y3476D01*
Y6562D01*
X630219Y8105D01*
X633305D01*
X634849Y6562D01*
Y5019D01*
X628676D01*
X637935Y8105D02*
Y1932D01*
Y5019D01*
X639478Y6562D01*
X641021Y8105D01*
X642564D01*
X647194Y1932D02*
X650280D01*
X648737D01*
Y11191D01*
X647194D01*
X656453Y8105D02*
X659539D01*
X661082Y6562D01*
Y1932D01*
X656453D01*
X654910Y3476D01*
X656453Y5019D01*
X661082D01*
X664169Y8105D02*
Y3476D01*
X665712Y1932D01*
X670341D01*
Y389D01*
X668798Y-1154D01*
X667255D01*
X670341Y1932D02*
Y8105D01*
X548431Y390937D02*
Y400196D01*
X554604Y390937D01*
Y400196D01*
X559233Y397110D02*
X562319D01*
X563863Y395567D01*
Y390937D01*
X559233D01*
X557690Y392480D01*
X559233Y394024D01*
X563863D01*
X566949Y390937D02*
Y397110D01*
X568492D01*
X570035Y395567D01*
Y390937D01*
Y395567D01*
X571578Y397110D01*
X573122Y395567D01*
Y390937D01*
X580838D02*
X577751D01*
X576208Y392480D01*
Y395567D01*
X577751Y397110D01*
X580838D01*
X582381Y395567D01*
Y394024D01*
X576208D01*
X483161Y316841D02*
X486247D01*
X484704D01*
Y326100D01*
X483161Y324557D01*
X489334Y279793D02*
X483161D01*
X489334Y285966D01*
Y287509D01*
X487791Y289052D01*
X484704D01*
X483161Y287509D01*
Y250461D02*
X484704Y252004D01*
X487791D01*
X489334Y250461D01*
Y248918D01*
X487791Y247374D01*
X486247D01*
X487791D01*
X489334Y245831D01*
Y244288D01*
X487791Y242745D01*
X484704D01*
X483161Y244288D01*
X487791Y205697D02*
Y214956D01*
X483161Y210326D01*
X489334D01*
Y177908D02*
X483161D01*
Y173278D01*
X486247Y174821D01*
X487791D01*
X489334Y173278D01*
Y170192D01*
X487791Y168649D01*
X484704D01*
X483161Y170192D01*
X489334Y140860D02*
X486247Y139317D01*
X483161Y136230D01*
Y133144D01*
X484704Y131601D01*
X487791D01*
X489334Y133144D01*
Y134687D01*
X487791Y136230D01*
X483161D01*
Y103812D02*
X489334D01*
Y102268D01*
X483161Y96096D01*
Y94552D01*
Y65220D02*
X484704Y66764D01*
X487791D01*
X489334Y65220D01*
Y63677D01*
X487791Y62134D01*
X489334Y60591D01*
Y59048D01*
X487791Y57505D01*
X484704D01*
X483161Y59048D01*
Y60591D01*
X484704Y62134D01*
X483161Y63677D01*
Y65220D01*
X484704Y62134D02*
X487791D01*
X483161Y400196D02*
Y390937D01*
X489334D01*
X493963Y397110D02*
X497050D01*
X498593Y395567D01*
Y390937D01*
X493963D01*
X492420Y392480D01*
X493963Y394024D01*
X498593D01*
X501679Y397110D02*
Y392480D01*
X503222Y390937D01*
X507852D01*
Y389394D01*
X506309Y387851D01*
X504766D01*
X507852Y390937D02*
Y397110D01*
X515568Y390937D02*
X512481D01*
X510938Y392480D01*
Y395567D01*
X512481Y397110D01*
X515568D01*
X517111Y395567D01*
Y394024D01*
X510938D01*
X520197Y397110D02*
Y390937D01*
Y394024D01*
X521740Y395567D01*
X523284Y397110D01*
X524827D01*
X503155Y459250D02*
X483161D01*
Y444255D01*
X493158D01*
X483161D01*
Y429260D01*
X518150Y449254D02*
X528147D01*
X533145Y444255D01*
Y429260D01*
X518150D01*
X513151Y434258D01*
X518150Y439257D01*
X533145D01*
X543142Y459250D02*
Y429260D01*
X558137D01*
X563135Y434258D01*
Y439257D01*
Y444255D01*
X558137Y449254D01*
X543142D01*
X603122Y429260D02*
Y459250D01*
X623116Y429260D01*
Y459250D01*
X638111Y429260D02*
X648108D01*
X653106Y434258D01*
Y444255D01*
X648108Y449254D01*
X638111D01*
X633112Y444255D01*
Y434258D01*
X638111Y429260D01*
X668101Y454252D02*
Y449254D01*
X663103D01*
X673100D01*
X668101D01*
Y434258D01*
X673100Y429260D01*
X703090D02*
X693093D01*
X688095Y434258D01*
Y444255D01*
X693093Y449254D01*
X703090D01*
X708088Y444255D01*
Y439257D01*
X688095D01*
X718085Y429260D02*
X733080D01*
X738079Y434258D01*
X733080Y439257D01*
X723083D01*
X718085Y444255D01*
X723083Y449254D01*
X738079D01*
D160*
X1245684Y-2699D02*
Y404830D01*
X1070849Y367782D02*
X1245684D01*
X1070849Y349258D02*
X1245684D01*
X1070849Y330734D02*
X1245684D01*
X1070849Y312210D02*
X1245684D01*
X1070849Y293686D02*
X1245684D01*
X1070849Y275162D02*
X1245684D01*
X1070849Y256638D02*
X1245684D01*
X1070849Y238114D02*
X1245684D01*
X1070849Y219590D02*
X1245684D01*
X1070849Y201066D02*
X1245684D01*
X1070849Y182542D02*
X1245684D01*
X1070849Y164018D02*
X1245684D01*
X1070849Y145494D02*
X1245684D01*
X1070849Y126970D02*
X1245684D01*
X1070849Y108446D02*
X1245684D01*
X1070849Y89922D02*
X1245684D01*
X1070849Y71398D02*
X1245684D01*
X1070849Y52874D02*
X1245684D01*
X1070849Y34349D02*
X1245684D01*
X1070849Y15825D02*
X1245684D01*
X1070849Y-2699D02*
X1245684D01*
X1070849D02*
Y404830D01*
X980889Y367782D02*
X1070849D01*
X980889Y349258D02*
X1070849D01*
X980889Y330734D02*
X1070849D01*
X980889Y312210D02*
X1070849D01*
X980889Y293686D02*
X1070849D01*
X980889Y275162D02*
X1070849D01*
X980889Y256638D02*
X1070849D01*
X980889Y238114D02*
X1070849D01*
X980889Y219590D02*
X1070849D01*
X980889Y201066D02*
X1070849D01*
X980889Y182542D02*
X1070849D01*
X980889Y164018D02*
X1070849D01*
X980889Y145494D02*
X1070849D01*
X980889Y126970D02*
X1070849D01*
X980889Y108446D02*
X1070849D01*
X980889Y89922D02*
X1070849D01*
X980889Y71398D02*
X1070849D01*
X980889Y52874D02*
X1070849D01*
X980889Y34349D02*
X1070849D01*
X980889Y15825D02*
X1070849D01*
X980889Y-2699D02*
X1070849D01*
X980889D02*
Y404830D01*
X878583Y367782D02*
X980889D01*
X878583Y349258D02*
X980889D01*
X878583Y330734D02*
X980889D01*
X878583Y312210D02*
X980889D01*
X878583Y293686D02*
X980889D01*
X878583Y275162D02*
X980889D01*
X878583Y256638D02*
X980889D01*
X878583Y238114D02*
X980889D01*
X878583Y219590D02*
X980889D01*
X878583Y201066D02*
X980889D01*
X878583Y182542D02*
X980889D01*
X878583Y164018D02*
X980889D01*
X878583Y145494D02*
X980889D01*
X878583Y126970D02*
X980889D01*
X878583Y108446D02*
X980889D01*
X878583Y89922D02*
X980889D01*
X878583Y71398D02*
X980889D01*
X878583Y52874D02*
X980889D01*
X878583Y34349D02*
X980889D01*
X878583Y15825D02*
X980889D01*
X878583Y-2699D02*
X980889D01*
X878583D02*
Y404830D01*
X743870Y367782D02*
X878583D01*
X743870Y349258D02*
X878583D01*
X743870Y330734D02*
X878583D01*
X743870Y312210D02*
X878583D01*
X743870Y293686D02*
X878583D01*
X743870Y275162D02*
X878583D01*
X743870Y256638D02*
X878583D01*
X743870Y238114D02*
X878583D01*
X743870Y219590D02*
X878583D01*
X743870Y201066D02*
X878583D01*
X743870Y182542D02*
X878583D01*
X743870Y164018D02*
X878583D01*
X743870Y145494D02*
X878583D01*
X743870Y126970D02*
X878583D01*
X743870Y108446D02*
X878583D01*
X743870Y89922D02*
X878583D01*
X743870Y71398D02*
X878583D01*
X743870Y52874D02*
X878583D01*
X743870Y34349D02*
X878583D01*
X743870Y15825D02*
X878583D01*
X743870Y-2699D02*
X878583D01*
X743870D02*
Y404830D01*
X536629Y367782D02*
X743870D01*
X536629Y349258D02*
X743870D01*
X536629Y330734D02*
X743870D01*
X536629Y312210D02*
X743870D01*
X536629Y293686D02*
X743870D01*
X536629Y275162D02*
X743870D01*
X536629Y256638D02*
X743870D01*
X536629Y238114D02*
X743870D01*
X536629Y219590D02*
X743870D01*
X536629Y201066D02*
X743870D01*
X536629Y182542D02*
X743870D01*
X536629Y164018D02*
X743870D01*
X536629Y145494D02*
X743870D01*
X536629Y126970D02*
X743870D01*
X536629Y108446D02*
X743870D01*
X536629Y89922D02*
X743870D01*
X536629Y71398D02*
X743870D01*
X536629Y52874D02*
X743870D01*
X536629Y34349D02*
X743870D01*
X536629Y15825D02*
X743870D01*
X536629Y-2699D02*
X743870D01*
X536629D02*
Y404830D01*
X471359Y367782D02*
X536629D01*
X471359Y349258D02*
X536629D01*
X471359Y330734D02*
X536629D01*
X471359Y312210D02*
X536629D01*
X471359Y293686D02*
X536629D01*
X471359Y275162D02*
X536629D01*
X471359Y256638D02*
X536629D01*
X471359Y238114D02*
X536629D01*
X471359Y219590D02*
X536629D01*
X471359Y201066D02*
X536629D01*
X471359Y182542D02*
X536629D01*
X471359Y164018D02*
X536629D01*
X471359Y145494D02*
X536629D01*
X471359Y126970D02*
X536629D01*
X471359Y108446D02*
X536629D01*
X471359Y89922D02*
X536629D01*
X471359Y71398D02*
X536629D01*
X471359Y52874D02*
X536629D01*
X471359Y34349D02*
X536629D01*
X471359Y15825D02*
X536629D01*
X471359Y-2699D02*
X536629D01*
X471359D02*
Y404830D01*
X1245684D01*
X471359Y386306D02*
X1245684D01*
D161*
X1070849Y378188D02*
X1078968Y386306D01*
X1070849Y368926D02*
X1088230Y386306D01*
X1078968Y367782D02*
X1097492Y386306D01*
X1088230Y367782D02*
X1106754Y386306D01*
X1097492Y367782D02*
X1116016Y386306D01*
X1106754Y367782D02*
X1125278Y386306D01*
X1116016Y367782D02*
X1134540Y386306D01*
X1125278Y367782D02*
X1143802Y386306D01*
X1134540Y367782D02*
X1153064Y386306D01*
X1143802Y367782D02*
X1162326Y386306D01*
X1153064Y367782D02*
X1171588Y386306D01*
X1162326Y367782D02*
X1180850Y386306D01*
X1171588Y367782D02*
X1190112Y386306D01*
X1180850Y367782D02*
X1199374Y386306D01*
X1190112Y367782D02*
X1208636Y386306D01*
X1199374Y367782D02*
X1217898Y386306D01*
X1208636Y367782D02*
X1227160Y386306D01*
X1217898Y367782D02*
X1236422Y386306D01*
X1227160Y367782D02*
X1245684Y386306D01*
X1236422Y367782D02*
X1245684Y377044D01*
X1070849Y359664D02*
X1078968Y367782D01*
X1070849Y350402D02*
X1088230Y367782D01*
X1078968Y349258D02*
X1097492Y367782D01*
X1088230Y349258D02*
X1106754Y367782D01*
X1097492Y349258D02*
X1116016Y367782D01*
X1106754Y349258D02*
X1125278Y367782D01*
X1116016Y349258D02*
X1134540Y367782D01*
X1125278Y349258D02*
X1143802Y367782D01*
X1134540Y349258D02*
X1153064Y367782D01*
X1143802Y349258D02*
X1162326Y367782D01*
X1153064Y349258D02*
X1171588Y367782D01*
X1162326Y349258D02*
X1180850Y367782D01*
X1171588Y349258D02*
X1190112Y367782D01*
X1180850Y349258D02*
X1199374Y367782D01*
X1190112Y349258D02*
X1208636Y367782D01*
X1199374Y349258D02*
X1217898Y367782D01*
X1208636Y349258D02*
X1227160Y367782D01*
X1217898Y349258D02*
X1236422Y367782D01*
X1227160Y349258D02*
X1245684Y367782D01*
X1236422Y349258D02*
X1245684Y358520D01*
X1070849Y341140D02*
X1078968Y349258D01*
X1070849Y331878D02*
X1088230Y349258D01*
X1078968Y330734D02*
X1097492Y349258D01*
X1088230Y330734D02*
X1106754Y349258D01*
X1097492Y330734D02*
X1116016Y349258D01*
X1106754Y330734D02*
X1125278Y349258D01*
X1116016Y330734D02*
X1134540Y349258D01*
X1125278Y330734D02*
X1143802Y349258D01*
X1134540Y330734D02*
X1153064Y349258D01*
X1143802Y330734D02*
X1162326Y349258D01*
X1153064Y330734D02*
X1171588Y349258D01*
X1162326Y330734D02*
X1180850Y349258D01*
X1171588Y330734D02*
X1190112Y349258D01*
X1180850Y330734D02*
X1199374Y349258D01*
X1190112Y330734D02*
X1208636Y349258D01*
X1199374Y330734D02*
X1217898Y349258D01*
X1208636Y330734D02*
X1227160Y349258D01*
X1217898Y330734D02*
X1236422Y349258D01*
X1227160Y330734D02*
X1245684Y349258D01*
X1236422Y330734D02*
X1245684Y339996D01*
X1070849Y322616D02*
X1078968Y330734D01*
X1070849Y313354D02*
X1088230Y330734D01*
X1078968Y312210D02*
X1097492Y330734D01*
X1088230Y312210D02*
X1106754Y330734D01*
X1097492Y312210D02*
X1116016Y330734D01*
X1106754Y312210D02*
X1125278Y330734D01*
X1116016Y312210D02*
X1134540Y330734D01*
X1125278Y312210D02*
X1143802Y330734D01*
X1134540Y312210D02*
X1153064Y330734D01*
X1143802Y312210D02*
X1162326Y330734D01*
X1153064Y312210D02*
X1171588Y330734D01*
X1162326Y312210D02*
X1180850Y330734D01*
X1171588Y312210D02*
X1190112Y330734D01*
X1180850Y312210D02*
X1199374Y330734D01*
X1190112Y312210D02*
X1208636Y330734D01*
X1199374Y312210D02*
X1217898Y330734D01*
X1208636Y312210D02*
X1227160Y330734D01*
X1217898Y312210D02*
X1236422Y330734D01*
X1227160Y312210D02*
X1245684Y330734D01*
X1236422Y312210D02*
X1245684Y321472D01*
X1070849Y304092D02*
X1078968Y312210D01*
X1070849Y294830D02*
X1088230Y312210D01*
X1078968Y293686D02*
X1097492Y312210D01*
X1088230Y293686D02*
X1106754Y312210D01*
X1097492Y293686D02*
X1116016Y312210D01*
X1106754Y293686D02*
X1125278Y312210D01*
X1116016Y293686D02*
X1134540Y312210D01*
X1125278Y293686D02*
X1143802Y312210D01*
X1134540Y293686D02*
X1153064Y312210D01*
X1143802Y293686D02*
X1162326Y312210D01*
X1153064Y293686D02*
X1171588Y312210D01*
X1162326Y293686D02*
X1180850Y312210D01*
X1171588Y293686D02*
X1190112Y312210D01*
X1180850Y293686D02*
X1199374Y312210D01*
X1190112Y293686D02*
X1208636Y312210D01*
X1199374Y293686D02*
X1217898Y312210D01*
X1208636Y293686D02*
X1227160Y312210D01*
X1217898Y293686D02*
X1236422Y312210D01*
X1227160Y293686D02*
X1245684Y312210D01*
X1236422Y293686D02*
X1245684Y302948D01*
X1070849Y285568D02*
X1078968Y293686D01*
X1070849Y276306D02*
X1088230Y293686D01*
X1078968Y275162D02*
X1097492Y293686D01*
X1088230Y275162D02*
X1106754Y293686D01*
X1097492Y275162D02*
X1116016Y293686D01*
X1106754Y275162D02*
X1125278Y293686D01*
X1116016Y275162D02*
X1134540Y293686D01*
X1125278Y275162D02*
X1143802Y293686D01*
X1134540Y275162D02*
X1153064Y293686D01*
X1143802Y275162D02*
X1162326Y293686D01*
X1153064Y275162D02*
X1171588Y293686D01*
X1162326Y275162D02*
X1180850Y293686D01*
X1171588Y275162D02*
X1190112Y293686D01*
X1180850Y275162D02*
X1199374Y293686D01*
X1190112Y275162D02*
X1208636Y293686D01*
X1199374Y275162D02*
X1217898Y293686D01*
X1208636Y275162D02*
X1227160Y293686D01*
X1217898Y275162D02*
X1236422Y293686D01*
X1227160Y275162D02*
X1245684Y293686D01*
X1236422Y275162D02*
X1245684Y284424D01*
X1070849Y267044D02*
X1078968Y275162D01*
X1070849Y257782D02*
X1088230Y275162D01*
X1078968Y256638D02*
X1097492Y275162D01*
X1088230Y256638D02*
X1106754Y275162D01*
X1097492Y256638D02*
X1116016Y275162D01*
X1106754Y256638D02*
X1125278Y275162D01*
X1116016Y256638D02*
X1134540Y275162D01*
X1125278Y256638D02*
X1143802Y275162D01*
X1134540Y256638D02*
X1153064Y275162D01*
X1143802Y256638D02*
X1162326Y275162D01*
X1153064Y256638D02*
X1171588Y275162D01*
X1162326Y256638D02*
X1180850Y275162D01*
X1171588Y256638D02*
X1190112Y275162D01*
X1180850Y256638D02*
X1199374Y275162D01*
X1190112Y256638D02*
X1208636Y275162D01*
X1199374Y256638D02*
X1217898Y275162D01*
X1208636Y256638D02*
X1227160Y275162D01*
X1217898Y256638D02*
X1236422Y275162D01*
X1227160Y256638D02*
X1245684Y275162D01*
X1236422Y256638D02*
X1245684Y265900D01*
X1070849Y248519D02*
X1078968Y256638D01*
X1070849Y239258D02*
X1088230Y256638D01*
X1078968Y238114D02*
X1097492Y256638D01*
X1088230Y238114D02*
X1106754Y256638D01*
X1097492Y238114D02*
X1116016Y256638D01*
X1106754Y238114D02*
X1125278Y256638D01*
X1116016Y238114D02*
X1134540Y256638D01*
X1125278Y238114D02*
X1143802Y256638D01*
X1134540Y238114D02*
X1153064Y256638D01*
X1143802Y238114D02*
X1162326Y256638D01*
X1153064Y238114D02*
X1171588Y256638D01*
X1162326Y238114D02*
X1180850Y256638D01*
X1171588Y238114D02*
X1190112Y256638D01*
X1180850Y238114D02*
X1199374Y256638D01*
X1190112Y238114D02*
X1208636Y256638D01*
X1199374Y238114D02*
X1217898Y256638D01*
X1208636Y238114D02*
X1227160Y256638D01*
X1217898Y238114D02*
X1236422Y256638D01*
X1227160Y238114D02*
X1245684Y256638D01*
X1236422Y238114D02*
X1245684Y247376D01*
X1070849Y229995D02*
X1078968Y238114D01*
X1070849Y220734D02*
X1088230Y238114D01*
X1078968Y219590D02*
X1097492Y238114D01*
X1088230Y219590D02*
X1106754Y238114D01*
X1097492Y219590D02*
X1116016Y238114D01*
X1106754Y219590D02*
X1125278Y238114D01*
X1116016Y219590D02*
X1134540Y238114D01*
X1125278Y219590D02*
X1143802Y238114D01*
X1134540Y219590D02*
X1153064Y238114D01*
X1143802Y219590D02*
X1162326Y238114D01*
X1153064Y219590D02*
X1171588Y238114D01*
X1162326Y219590D02*
X1180850Y238114D01*
X1171588Y219590D02*
X1190112Y238114D01*
X1180850Y219590D02*
X1199374Y238114D01*
X1190112Y219590D02*
X1208636Y238114D01*
X1199374Y219590D02*
X1217898Y238114D01*
X1208636Y219590D02*
X1227160Y238114D01*
X1217898Y219590D02*
X1236422Y238114D01*
X1227160Y219590D02*
X1245684Y238114D01*
X1236422Y219590D02*
X1245684Y228852D01*
X1070849Y211472D02*
X1078968Y219590D01*
X1070849Y202209D02*
X1088230Y219590D01*
X1078968Y201066D02*
X1097492Y219590D01*
X1088230Y201066D02*
X1106754Y219590D01*
X1097492Y201066D02*
X1116016Y219590D01*
X1106754Y201066D02*
X1125278Y219590D01*
X1116016Y201066D02*
X1134540Y219590D01*
X1125278Y201066D02*
X1143802Y219590D01*
X1134540Y201066D02*
X1153064Y219590D01*
X1143802Y201066D02*
X1162326Y219590D01*
X1153064Y201066D02*
X1171588Y219590D01*
X1162326Y201066D02*
X1180850Y219590D01*
X1171588Y201066D02*
X1190112Y219590D01*
X1180850Y201066D02*
X1199374Y219590D01*
X1190112Y201066D02*
X1208636Y219590D01*
X1199374Y201066D02*
X1217898Y219590D01*
X1208636Y201066D02*
X1227160Y219590D01*
X1217898Y201066D02*
X1236422Y219590D01*
X1227160Y201066D02*
X1245684Y219590D01*
X1236422Y201066D02*
X1245684Y210328D01*
X1070849Y192947D02*
X1078968Y201066D01*
X1070849Y183685D02*
X1088230Y201066D01*
X1078968Y182542D02*
X1097492Y201066D01*
X1088230Y182542D02*
X1106754Y201066D01*
X1097492Y182542D02*
X1116016Y201066D01*
X1106754Y182542D02*
X1125278Y201066D01*
X1116016Y182542D02*
X1134540Y201066D01*
X1125278Y182542D02*
X1143802Y201066D01*
X1134540Y182542D02*
X1153064Y201066D01*
X1143802Y182542D02*
X1162326Y201066D01*
X1153064Y182542D02*
X1171588Y201066D01*
X1162326Y182542D02*
X1180850Y201066D01*
X1171588Y182542D02*
X1190112Y201066D01*
X1180850Y182542D02*
X1199374Y201066D01*
X1190112Y182542D02*
X1208636Y201066D01*
X1199374Y182542D02*
X1217898Y201066D01*
X1208636Y182542D02*
X1227160Y201066D01*
X1217898Y182542D02*
X1236422Y201066D01*
X1227160Y182542D02*
X1245684Y201066D01*
X1236422Y182542D02*
X1245684Y191804D01*
X1070849Y174423D02*
X1078968Y182542D01*
X1070849Y165161D02*
X1088230Y182542D01*
X1078968Y164018D02*
X1097492Y182542D01*
X1088230Y164018D02*
X1106754Y182542D01*
X1097492Y164018D02*
X1116016Y182542D01*
X1106754Y164018D02*
X1125278Y182542D01*
X1116016Y164018D02*
X1134540Y182542D01*
X1125278Y164018D02*
X1143802Y182542D01*
X1134540Y164018D02*
X1153064Y182542D01*
X1143802Y164018D02*
X1162326Y182542D01*
X1153064Y164018D02*
X1171588Y182542D01*
X1162326Y164018D02*
X1180850Y182542D01*
X1171588Y164018D02*
X1190112Y182542D01*
X1180850Y164018D02*
X1199374Y182542D01*
X1190112Y164018D02*
X1208636Y182542D01*
X1199374Y164018D02*
X1217898Y182542D01*
X1208636Y164018D02*
X1227160Y182542D01*
X1217898Y164018D02*
X1236422Y182542D01*
X1227160Y164018D02*
X1245684Y182542D01*
X1236422Y164018D02*
X1245684Y173280D01*
X1070849Y155899D02*
X1078968Y164018D01*
X1070849Y146637D02*
X1088230Y164018D01*
X1078968Y145494D02*
X1097492Y164018D01*
X1088230Y145494D02*
X1106754Y164018D01*
X1097492Y145494D02*
X1116016Y164018D01*
X1106754Y145494D02*
X1125278Y164018D01*
X1116016Y145494D02*
X1134540Y164018D01*
X1125278Y145494D02*
X1143802Y164018D01*
X1134540Y145494D02*
X1153064Y164018D01*
X1143802Y145494D02*
X1162326Y164018D01*
X1153064Y145494D02*
X1171588Y164018D01*
X1162326Y145494D02*
X1180850Y164018D01*
X1171588Y145494D02*
X1190112Y164018D01*
X1180850Y145494D02*
X1199374Y164018D01*
X1190112Y145494D02*
X1208636Y164018D01*
X1199374Y145494D02*
X1217898Y164018D01*
X1208636Y145494D02*
X1227160Y164018D01*
X1217898Y145494D02*
X1236422Y164018D01*
X1227160Y145494D02*
X1245684Y164018D01*
X1236422Y145494D02*
X1245684Y154756D01*
X1070849Y137375D02*
X1078968Y145494D01*
X1070849Y128113D02*
X1088230Y145494D01*
X1078968Y126970D02*
X1097492Y145494D01*
X1088230Y126970D02*
X1106754Y145494D01*
X1097492Y126970D02*
X1116016Y145494D01*
X1106754Y126970D02*
X1125278Y145494D01*
X1116016Y126970D02*
X1134540Y145494D01*
X1125278Y126970D02*
X1143802Y145494D01*
X1134540Y126970D02*
X1153064Y145494D01*
X1143802Y126970D02*
X1162326Y145494D01*
X1153064Y126970D02*
X1171588Y145494D01*
X1162326Y126970D02*
X1180850Y145494D01*
X1171588Y126970D02*
X1190112Y145494D01*
X1180850Y126970D02*
X1199374Y145494D01*
X1190112Y126970D02*
X1208636Y145494D01*
X1199374Y126970D02*
X1217898Y145494D01*
X1208636Y126970D02*
X1227160Y145494D01*
X1217898Y126970D02*
X1236422Y145494D01*
X1227160Y126970D02*
X1245684Y145494D01*
X1236422Y126970D02*
X1245684Y136232D01*
X1070849Y118851D02*
X1078968Y126970D01*
X1070849Y109589D02*
X1088230Y126970D01*
X1078968Y108446D02*
X1097492Y126970D01*
X1088230Y108446D02*
X1106754Y126970D01*
X1097492Y108446D02*
X1116016Y126970D01*
X1106754Y108446D02*
X1125278Y126970D01*
X1116016Y108446D02*
X1134540Y126970D01*
X1125278Y108446D02*
X1143802Y126970D01*
X1134540Y108446D02*
X1153064Y126970D01*
X1143802Y108446D02*
X1162326Y126970D01*
X1153064Y108446D02*
X1171588Y126970D01*
X1162326Y108446D02*
X1180850Y126970D01*
X1171588Y108446D02*
X1190112Y126970D01*
X1180850Y108446D02*
X1199374Y126970D01*
X1190112Y108446D02*
X1208636Y126970D01*
X1199374Y108446D02*
X1217898Y126970D01*
X1208636Y108446D02*
X1227160Y126970D01*
X1217898Y108446D02*
X1236422Y126970D01*
X1227160Y108446D02*
X1245684Y126970D01*
X1236422Y108446D02*
X1245684Y117708D01*
X1070849Y100327D02*
X1078968Y108446D01*
X1070849Y91065D02*
X1088230Y108446D01*
X1078968Y89922D02*
X1097492Y108446D01*
X1088230Y89922D02*
X1106754Y108446D01*
X1097492Y89922D02*
X1116016Y108446D01*
X1106754Y89922D02*
X1125278Y108446D01*
X1116016Y89922D02*
X1134540Y108446D01*
X1125278Y89922D02*
X1143802Y108446D01*
X1134540Y89922D02*
X1153064Y108446D01*
X1143802Y89922D02*
X1162326Y108446D01*
X1153064Y89922D02*
X1171588Y108446D01*
X1162326Y89922D02*
X1180850Y108446D01*
X1171588Y89922D02*
X1190112Y108446D01*
X1180850Y89922D02*
X1199374Y108446D01*
X1190112Y89922D02*
X1208636Y108446D01*
X1199374Y89922D02*
X1217898Y108446D01*
X1208636Y89922D02*
X1227160Y108446D01*
X1217898Y89922D02*
X1236422Y108446D01*
X1227160Y89922D02*
X1245684Y108446D01*
X1236422Y89922D02*
X1245684Y99184D01*
X1070849Y81803D02*
X1078968Y89922D01*
X1070849Y72541D02*
X1088230Y89922D01*
X1078968Y71398D02*
X1097492Y89922D01*
X1088230Y71398D02*
X1106754Y89922D01*
X1097492Y71398D02*
X1116016Y89922D01*
X1106754Y71398D02*
X1125278Y89922D01*
X1116016Y71398D02*
X1134540Y89922D01*
X1125278Y71398D02*
X1143802Y89922D01*
X1134540Y71398D02*
X1153064Y89922D01*
X1143802Y71398D02*
X1162326Y89922D01*
X1153064Y71398D02*
X1171588Y89922D01*
X1162326Y71398D02*
X1180850Y89922D01*
X1171588Y71398D02*
X1190112Y89922D01*
X1180850Y71398D02*
X1199374Y89922D01*
X1190112Y71398D02*
X1208636Y89922D01*
X1199374Y71398D02*
X1217898Y89922D01*
X1208636Y71398D02*
X1227160Y89922D01*
X1217898Y71398D02*
X1236422Y89922D01*
X1227160Y71398D02*
X1245684Y89922D01*
X1236422Y71398D02*
X1245684Y80660D01*
X1070849Y63279D02*
X1078968Y71398D01*
X1070849Y54017D02*
X1088230Y71398D01*
X1078968Y52874D02*
X1097492Y71398D01*
X1088230Y52874D02*
X1106754Y71398D01*
X1097492Y52874D02*
X1116016Y71398D01*
X1106754Y52874D02*
X1125278Y71398D01*
X1116016Y52874D02*
X1134540Y71398D01*
X1125278Y52874D02*
X1143802Y71398D01*
X1134540Y52874D02*
X1153064Y71398D01*
X1143802Y52874D02*
X1162326Y71398D01*
X1153064Y52874D02*
X1171588Y71398D01*
X1162326Y52874D02*
X1180850Y71398D01*
X1171588Y52874D02*
X1190112Y71398D01*
X1180850Y52874D02*
X1199374Y71398D01*
X1190112Y52874D02*
X1208636Y71398D01*
X1199374Y52874D02*
X1217898Y71398D01*
X1208636Y52874D02*
X1227160Y71398D01*
X1217898Y52874D02*
X1236422Y71398D01*
X1227160Y52874D02*
X1245684Y71398D01*
X1236422Y52874D02*
X1245684Y62136D01*
X1070849Y44755D02*
X1078968Y52874D01*
X1070849Y35493D02*
X1088230Y52874D01*
X1078968Y34349D02*
X1097492Y52874D01*
X1088230Y34349D02*
X1106754Y52874D01*
X1097492Y34349D02*
X1116016Y52874D01*
X1106754Y34349D02*
X1125278Y52874D01*
X1116016Y34349D02*
X1134540Y52874D01*
X1125278Y34349D02*
X1143802Y52874D01*
X1134540Y34349D02*
X1153064Y52874D01*
X1143802Y34349D02*
X1162326Y52874D01*
X1153064Y34349D02*
X1171588Y52874D01*
X1162326Y34349D02*
X1180850Y52874D01*
X1171588Y34349D02*
X1190112Y52874D01*
X1180850Y34349D02*
X1199374Y52874D01*
X1190112Y34349D02*
X1208636Y52874D01*
X1199374Y34349D02*
X1217898Y52874D01*
X1208636Y34349D02*
X1227160Y52874D01*
X1217898Y34349D02*
X1236422Y52874D01*
X1227160Y34349D02*
X1245684Y52874D01*
X1236422Y34349D02*
X1245684Y43611D01*
X1070849Y26231D02*
X1078968Y34349D01*
X1070849Y16969D02*
X1088230Y34349D01*
X1078968Y15825D02*
X1097492Y34349D01*
X1088230Y15825D02*
X1106754Y34349D01*
X1097492Y15825D02*
X1116016Y34349D01*
X1106754Y15825D02*
X1125278Y34349D01*
X1116016Y15825D02*
X1134540Y34349D01*
X1125278Y15825D02*
X1143802Y34349D01*
X1134540Y15825D02*
X1153064Y34349D01*
X1143802Y15825D02*
X1162326Y34349D01*
X1153064Y15825D02*
X1171588Y34349D01*
X1162326Y15825D02*
X1180850Y34349D01*
X1171588Y15825D02*
X1190112Y34349D01*
X1180850Y15825D02*
X1199374Y34349D01*
X1190112Y15825D02*
X1208636Y34349D01*
X1199374Y15825D02*
X1217898Y34349D01*
X1208636Y15825D02*
X1227160Y34349D01*
X1217898Y15825D02*
X1236422Y34349D01*
X1227160Y15825D02*
X1245684Y34349D01*
X1236422Y15825D02*
X1245684Y25087D01*
X1070849Y7707D02*
X1078968Y15825D01*
X1070849Y-1555D02*
X1088230Y15825D01*
X1078968Y-2699D02*
X1097492Y15825D01*
X1088230Y-2699D02*
X1106754Y15825D01*
X1097492Y-2699D02*
X1116016Y15825D01*
X1106754Y-2699D02*
X1125278Y15825D01*
X1116016Y-2699D02*
X1134540Y15825D01*
X1125278Y-2699D02*
X1143802Y15825D01*
X1134540Y-2699D02*
X1153064Y15825D01*
X1143802Y-2699D02*
X1162326Y15825D01*
X1153064Y-2699D02*
X1171588Y15825D01*
X1162326Y-2699D02*
X1180850Y15825D01*
X1171588Y-2699D02*
X1190112Y15825D01*
X1180850Y-2699D02*
X1199374Y15825D01*
X1190112Y-2699D02*
X1208636Y15825D01*
X1199374Y-2699D02*
X1217898Y15825D01*
X1208636Y-2699D02*
X1227160Y15825D01*
X1217898Y-2699D02*
X1236422Y15825D01*
X1227160Y-2699D02*
X1245684Y15825D01*
X1236422Y-2699D02*
X1245684Y6563D01*
M02*
