G04*
G04 #@! TF.GenerationSoftware,Altium Limited,Altium Designer,24.9.1 (31)*
G04*
G04 Layer_Color=128*
%FSLAX44Y44*%
%MOMM*%
G71*
G04*
G04 #@! TF.SameCoordinates,7AD2B3B8-D285-4593-8982-C88D0E3F9F4F*
G04*
G04*
G04 #@! TF.FilePolarity,Positive*
G04*
G01*
G75*
%ADD134C,0.1270*%
D134*
X45465Y279400D02*
X56135D01*
X50800Y274065D02*
Y284735D01*
X35305Y330200D02*
X45975D01*
X40640Y324865D02*
Y335535D01*
X55625Y330200D02*
X66295D01*
X60960Y324865D02*
Y335535D01*
X13145Y279400D02*
X37655D01*
X25400Y267145D02*
Y291655D01*
X63945Y279400D02*
X88455D01*
X76200Y267145D02*
Y291655D01*
X13145Y311150D02*
X37655D01*
X25400Y298895D02*
Y323405D01*
X63945Y311150D02*
X88455D01*
X76200Y298895D02*
Y323405D01*
X60350Y194120D02*
X66850D01*
X63600Y190870D02*
Y197370D01*
X77930Y194500D02*
X84430D01*
X81180Y191250D02*
Y197750D01*
X92470Y19290D02*
X104470D01*
X98470Y13290D02*
Y25290D01*
X202870Y19290D02*
X214870D01*
X208870Y13290D02*
Y25290D01*
X190870Y62790D02*
X196870D01*
X193870Y59790D02*
Y65790D01*
X110470Y62790D02*
X116470D01*
X113470Y59790D02*
Y65790D01*
X102470Y67790D02*
X118470D01*
X110470Y59790D02*
Y75790D01*
X188870Y67790D02*
X204870D01*
X196870Y59790D02*
Y75790D01*
X191609Y186726D02*
X192610D01*
X192110Y186226D02*
Y187226D01*
X179289Y167659D02*
X180289D01*
X179789Y167159D02*
Y168159D01*
X179289Y171659D02*
X180289D01*
X179789Y171159D02*
Y172159D01*
X163742Y168678D02*
X165742D01*
X164742Y167678D02*
Y169678D01*
X164017Y146559D02*
X166017D01*
X165017Y145559D02*
Y147559D01*
X141817Y146639D02*
X143817D01*
X142817Y145639D02*
Y147640D01*
X141817Y168759D02*
X143817D01*
X142817Y167759D02*
Y169759D01*
X153400Y168759D02*
X155400D01*
X154400Y167759D02*
Y169759D01*
X153400Y146559D02*
X155400D01*
X154400Y145559D02*
Y147559D01*
X163742Y157659D02*
X165742D01*
X164742Y156659D02*
Y158659D01*
X141817Y157659D02*
X143817D01*
X142817Y156659D02*
Y158659D01*
X152917Y157659D02*
X154917D01*
X153917Y156659D02*
Y158659D01*
X54837Y166028D02*
X56837D01*
X55837Y165028D02*
Y167027D01*
X10610Y191765D02*
X16110D01*
X13360Y189016D02*
Y194515D01*
X10610Y228766D02*
X16110D01*
X13360Y226015D02*
Y231515D01*
X10610Y174125D02*
X16110D01*
X13360Y171376D02*
Y176875D01*
X10610Y137126D02*
X16110D01*
X13360Y134375D02*
Y139875D01*
X289110Y165650D02*
X294610D01*
X291860Y162900D02*
Y168400D01*
X289110Y202650D02*
X294610D01*
X291860Y199900D02*
Y205400D01*
M02*
