G04*
G04 #@! TF.GenerationSoftware,Altium Limited,Altium Designer,24.9.1 (31)*
G04*
G04 Layer_Color=255*
%FSLAX44Y44*%
%MOMM*%
G71*
G04*
G04 #@! TF.SameCoordinates,7AD2B3B8-D285-4593-8982-C88D0E3F9F4F*
G04*
G04*
G04 #@! TF.FilePolarity,Positive*
G04*
G01*
G75*
%ADD19R,0.4500X0.4500*%
%ADD23R,0.3000X0.2800*%
%ADD24R,0.2500X0.3500*%
%ADD25R,0.3500X0.2500*%
%ADD27R,0.4725X0.4682*%
%ADD28R,0.2800X0.3000*%
%ADD32R,0.4682X0.4725*%
%ADD36C,1.0000*%
%ADD76C,1.0395*%
%ADD84R,1.1500X1.1500*%
%ADD85C,1.1500*%
G04:AMPARAMS|DCode=86|XSize=1mm|YSize=1.6mm|CornerRadius=0.5mm|HoleSize=0mm|Usage=FLASHONLY|Rotation=180.000|XOffset=0mm|YOffset=0mm|HoleType=Round|Shape=RoundedRectangle|*
%AMROUNDEDRECTD86*
21,1,1.0000,0.6000,0,0,180.0*
21,1,0.0000,1.6000,0,0,180.0*
1,1,1.0000,0.0000,0.3000*
1,1,1.0000,0.0000,0.3000*
1,1,1.0000,0.0000,-0.3000*
1,1,1.0000,0.0000,-0.3000*
%
%ADD86ROUNDEDRECTD86*%
G04:AMPARAMS|DCode=87|XSize=1.2mm|YSize=0.6mm|CornerRadius=0.3mm|HoleSize=0mm|Usage=FLASHONLY|Rotation=180.000|XOffset=0mm|YOffset=0mm|HoleType=Round|Shape=RoundedRectangle|*
%AMROUNDEDRECTD87*
21,1,1.2000,0.0000,0,0,180.0*
21,1,0.6000,0.6000,0,0,180.0*
1,1,0.6000,-0.3000,0.0000*
1,1,0.6000,0.3000,0.0000*
1,1,0.6000,0.3000,0.0000*
1,1,0.6000,-0.3000,0.0000*
%
%ADD87ROUNDEDRECTD87*%
G04:AMPARAMS|DCode=88|XSize=0.6mm|YSize=1.6mm|CornerRadius=0.3mm|HoleSize=0mm|Usage=FLASHONLY|Rotation=180.000|XOffset=0mm|YOffset=0mm|HoleType=Round|Shape=RoundedRectangle|*
%AMROUNDEDRECTD88*
21,1,0.6000,1.0000,0,0,180.0*
21,1,0.0000,1.6000,0,0,180.0*
1,1,0.6000,0.0000,0.5000*
1,1,0.6000,0.0000,0.5000*
1,1,0.6000,0.0000,-0.5000*
1,1,0.6000,0.0000,-0.5000*
%
%ADD88ROUNDEDRECTD88*%
%ADD98C,1.0670*%
%ADD99C,2.4510*%
%ADD112R,0.4500X0.4500*%
%ADD113R,0.5500X0.5500*%
%ADD114R,0.7000X0.7000*%
%ADD115C,0.1658*%
%ADD116R,0.4000X1.0800*%
%ADD117R,0.3500X0.2400*%
%ADD118R,0.6500X0.6500*%
G04:AMPARAMS|DCode=119|XSize=0.71mm|YSize=0.22mm|CornerRadius=0.0275mm|HoleSize=0mm|Usage=FLASHONLY|Rotation=0.000|XOffset=0mm|YOffset=0mm|HoleType=Round|Shape=RoundedRectangle|*
%AMROUNDEDRECTD119*
21,1,0.7100,0.1650,0,0,0.0*
21,1,0.6550,0.2200,0,0,0.0*
1,1,0.0550,0.3275,-0.0825*
1,1,0.0550,-0.3275,-0.0825*
1,1,0.0550,-0.3275,0.0825*
1,1,0.0550,0.3275,0.0825*
%
%ADD119ROUNDEDRECTD119*%
G04:AMPARAMS|DCode=120|XSize=0.71mm|YSize=0.22mm|CornerRadius=0.0275mm|HoleSize=0mm|Usage=FLASHONLY|Rotation=90.000|XOffset=0mm|YOffset=0mm|HoleType=Round|Shape=RoundedRectangle|*
%AMROUNDEDRECTD120*
21,1,0.7100,0.1650,0,0,90.0*
21,1,0.6550,0.2200,0,0,90.0*
1,1,0.0550,0.0825,0.3275*
1,1,0.0550,0.0825,-0.3275*
1,1,0.0550,-0.0825,-0.3275*
1,1,0.0550,-0.0825,0.3275*
%
%ADD120ROUNDEDRECTD120*%
%ADD121R,2.9000X2.9000*%
%ADD122R,1.4000X1.0000*%
%ADD123R,1.3700X0.9300*%
%ADD124C,0.2210*%
%ADD125R,0.8000X1.8000*%
%ADD126R,0.6725X0.7154*%
%ADD127R,0.4500X0.3000*%
%ADD128R,0.3000X0.8500*%
%ADD129R,0.3000X0.9500*%
G04:AMPARAMS|DCode=130|XSize=0.76mm|YSize=1.94mm|CornerRadius=0.19mm|HoleSize=0mm|Usage=FLASHONLY|Rotation=0.000|XOffset=0mm|YOffset=0mm|HoleType=Round|Shape=RoundedRectangle|*
%AMROUNDEDRECTD130*
21,1,0.7600,1.5600,0,0,0.0*
21,1,0.3800,1.9400,0,0,0.0*
1,1,0.3800,0.1900,-0.7800*
1,1,0.3800,-0.1900,-0.7800*
1,1,0.3800,-0.1900,0.7800*
1,1,0.3800,0.1900,0.7800*
%
%ADD130ROUNDEDRECTD130*%
%ADD131R,0.9800X0.7800*%
%ADD132C,0.2160*%
%ADD133R,0.7000X0.7000*%
D19*
X53882Y45070D02*
D03*
X61502D02*
D03*
X143917Y116829D02*
D03*
Y124829D02*
D03*
D23*
X218858Y261449D02*
D03*
Y266749D02*
D03*
X243740Y266749D02*
D03*
Y261449D02*
D03*
D24*
X173967Y182848D02*
D03*
Y187848D02*
D03*
X77729Y107767D02*
D03*
Y102767D02*
D03*
X71552Y107828D02*
D03*
Y102828D02*
D03*
X66165Y81701D02*
D03*
Y86701D02*
D03*
D25*
X221942Y307340D02*
D03*
X226942D02*
D03*
D27*
X162729Y239068D02*
D03*
Y247111D02*
D03*
X154048Y239341D02*
D03*
Y247384D02*
D03*
X165912Y264372D02*
D03*
Y256329D02*
D03*
X134412Y270734D02*
D03*
Y262691D02*
D03*
X174562Y266217D02*
D03*
Y258174D02*
D03*
X275661Y153511D02*
D03*
Y145468D02*
D03*
X256111Y153511D02*
D03*
Y145468D02*
D03*
X223984Y169828D02*
D03*
Y177871D02*
D03*
X239009Y103588D02*
D03*
Y111631D02*
D03*
X134412Y251405D02*
D03*
Y243362D02*
D03*
X168986Y276746D02*
D03*
Y284789D02*
D03*
X25400Y120693D02*
D03*
Y128736D02*
D03*
D28*
X208127Y303470D02*
D03*
X213426D02*
D03*
X208127Y290226D02*
D03*
X213426D02*
D03*
D32*
X184946Y252044D02*
D03*
X176903D02*
D03*
X139553Y276195D02*
D03*
X147597D02*
D03*
X158069Y255195D02*
D03*
X150026D02*
D03*
X147796Y286833D02*
D03*
X139753D02*
D03*
X214918Y296864D02*
D03*
X206876D02*
D03*
D36*
X90119Y126542D02*
D03*
X209487Y117019D02*
D03*
Y102322D02*
D03*
X153920Y94210D02*
D03*
X101095Y206769D02*
D03*
X186690Y196850D02*
D03*
D76*
X196095Y63565D02*
D03*
X111245D02*
D03*
D84*
X63600Y194120D02*
D03*
D85*
X81180Y194500D02*
D03*
D86*
X98470Y19290D02*
D03*
X208870D02*
D03*
D87*
X193870Y62790D02*
D03*
X113470D02*
D03*
D88*
X110470Y67790D02*
D03*
X196870D02*
D03*
D98*
X50800Y279400D02*
D03*
X40640Y330200D02*
D03*
X60960D02*
D03*
D99*
X25400Y279400D02*
D03*
X76200D02*
D03*
X25400Y311150D02*
D03*
X76200D02*
D03*
D112*
X30480Y87239D02*
D03*
Y79619D02*
D03*
X107197Y142559D02*
D03*
X115197D02*
D03*
D113*
X36890Y138980D02*
D03*
Y112480D02*
D03*
X44390Y138980D02*
D03*
Y112480D02*
D03*
D114*
X239009Y120910D02*
D03*
Y134910D02*
D03*
X223992Y200810D02*
D03*
Y186810D02*
D03*
X285999Y111110D02*
D03*
Y125110D02*
D03*
X273299Y111110D02*
D03*
Y125110D02*
D03*
X169767Y196569D02*
D03*
Y210569D02*
D03*
X141017Y196569D02*
D03*
Y210569D02*
D03*
X118197D02*
D03*
Y196569D02*
D03*
X130317Y210569D02*
D03*
Y196569D02*
D03*
X57692Y93929D02*
D03*
Y79929D02*
D03*
X164742Y124019D02*
D03*
Y110019D02*
D03*
X153917Y123829D02*
D03*
Y109829D02*
D03*
X133867Y123829D02*
D03*
Y109829D02*
D03*
X190487Y124019D02*
D03*
Y110019D02*
D03*
X255920Y185810D02*
D03*
Y171810D02*
D03*
X268620Y185810D02*
D03*
Y171810D02*
D03*
X179522Y124019D02*
D03*
Y110019D02*
D03*
X222497Y151309D02*
D03*
Y137309D02*
D03*
D115*
X264291Y145990D02*
D03*
X267791D02*
D03*
X264291Y149489D02*
D03*
X267791D02*
D03*
D116*
X238140Y182810D02*
D03*
X255519Y116910D02*
D03*
D117*
X232890Y186810D02*
D03*
Y182810D02*
D03*
Y178810D02*
D03*
X243390D02*
D03*
Y182810D02*
D03*
Y186810D02*
D03*
X250269Y120910D02*
D03*
Y116910D02*
D03*
Y112910D02*
D03*
X260769D02*
D03*
Y116910D02*
D03*
Y120910D02*
D03*
D118*
X92710Y45800D02*
D03*
Y55800D02*
D03*
D119*
X173967Y171659D02*
D03*
Y143659D02*
D03*
Y167659D02*
D03*
Y163659D02*
D03*
Y159659D02*
D03*
Y155659D02*
D03*
Y151659D02*
D03*
Y147659D02*
D03*
X133867Y143659D02*
D03*
Y147659D02*
D03*
Y151659D02*
D03*
Y155659D02*
D03*
Y159659D02*
D03*
Y163659D02*
D03*
Y167659D02*
D03*
Y171659D02*
D03*
D120*
X167917Y177709D02*
D03*
Y137609D02*
D03*
X163917Y177709D02*
D03*
Y137609D02*
D03*
X159917Y177709D02*
D03*
Y137609D02*
D03*
X155917Y177709D02*
D03*
Y137609D02*
D03*
X151917D02*
D03*
X147917D02*
D03*
X143917D02*
D03*
X139917D02*
D03*
X151917Y177709D02*
D03*
X147917D02*
D03*
X143917D02*
D03*
X139917D02*
D03*
D121*
X153917Y157659D02*
D03*
D122*
X76447Y153540D02*
D03*
Y171320D02*
D03*
D123*
X155917Y211419D02*
D03*
Y195719D02*
D03*
D124*
X80981Y94929D02*
D03*
X76981D02*
D03*
X72981D02*
D03*
X80981Y90929D02*
D03*
X76981D02*
D03*
X72981D02*
D03*
X80981Y86929D02*
D03*
X76981D02*
D03*
X72981D02*
D03*
X80981Y82929D02*
D03*
X76981D02*
D03*
X72981D02*
D03*
D125*
X194487Y150559D02*
D03*
X210487D02*
D03*
D126*
X236348Y268885D02*
D03*
Y259313D02*
D03*
X226508Y268885D02*
D03*
Y259313D02*
D03*
D127*
X104217Y97710D02*
D03*
Y92710D02*
D03*
Y87710D02*
D03*
X117717D02*
D03*
Y92710D02*
D03*
Y97710D02*
D03*
D128*
X182420Y60540D02*
D03*
X177420D02*
D03*
X172420D02*
D03*
X167420D02*
D03*
X162420D02*
D03*
X157420D02*
D03*
X152420D02*
D03*
X147420D02*
D03*
X142420D02*
D03*
X137420D02*
D03*
X132420D02*
D03*
X127420D02*
D03*
D129*
X124920Y74040D02*
D03*
X129920D02*
D03*
X134920D02*
D03*
X139920D02*
D03*
X144920D02*
D03*
X149920D02*
D03*
X154920D02*
D03*
X159920D02*
D03*
X164920D02*
D03*
X169920D02*
D03*
X174920D02*
D03*
X179920D02*
D03*
D130*
X236795Y234950D02*
D03*
X226635D02*
D03*
D131*
X76200Y59070D02*
D03*
Y45070D02*
D03*
D132*
X237206Y286938D02*
D03*
Y290938D02*
D03*
Y294938D02*
D03*
Y298938D02*
D03*
X233206Y286938D02*
D03*
Y290938D02*
D03*
Y294938D02*
D03*
Y298938D02*
D03*
X229206Y286938D02*
D03*
Y290938D02*
D03*
Y294938D02*
D03*
Y298938D02*
D03*
X225206Y286938D02*
D03*
Y290938D02*
D03*
Y294938D02*
D03*
Y298938D02*
D03*
D133*
X104197Y162834D02*
D03*
X118197D02*
D03*
X155767Y222429D02*
D03*
X169767D02*
D03*
X104197Y152239D02*
D03*
X118197D02*
D03*
X118479Y119797D02*
D03*
X104479D02*
D03*
X171697Y97969D02*
D03*
X185697D02*
D03*
X118428Y133234D02*
D03*
X104428D02*
D03*
X195487Y133019D02*
D03*
X209487D02*
D03*
X195487Y166559D02*
D03*
X209487D02*
D03*
X203776Y281818D02*
D03*
X217777D02*
D03*
M02*
