G04*
G04 #@! TF.GenerationSoftware,Altium Limited,Altium Designer,24.9.1 (31)*
G04*
G04 Layer_Color=128*
%FSLAX44Y44*%
%MOMM*%
G71*
G04*
G04 #@! TF.SameCoordinates,7AD2B3B8-D285-4593-8982-C88D0E3F9F4F*
G04*
G04*
G04 #@! TF.FilePolarity,Positive*
G04*
G01*
G75*
%ADD134C,0.1270*%
D134*
X139027Y278201D02*
X141027D01*
X140027Y277201D02*
Y279201D01*
X234743Y292983D02*
X235743D01*
X235243Y292484D02*
Y293484D01*
X239654Y288726D02*
X240654D01*
X240154Y288226D02*
Y289226D01*
X239654Y296889D02*
X240654D01*
X240154Y296389D02*
Y297389D01*
X251200Y261999D02*
X252200D01*
X251700Y261500D02*
Y262500D01*
X225987Y304740D02*
X226987D01*
X226488Y304240D02*
Y305240D01*
X228823Y303403D02*
X229823D01*
X229323Y302903D02*
Y303903D01*
X236706Y303458D02*
X237706D01*
X237206Y302959D02*
Y303958D01*
X232706Y303458D02*
X233706D01*
X233206Y302959D02*
Y303958D01*
X233403Y124264D02*
X235403D01*
X234403Y123264D02*
Y125264D01*
X261800Y234000D02*
X262800D01*
X262300Y233500D02*
Y234500D01*
X251034Y250000D02*
X252034D01*
X251534Y249500D02*
Y250499D01*
X251034Y254000D02*
X252034D01*
X251534Y253500D02*
Y254499D01*
X251200Y257999D02*
X252200D01*
X251700Y257500D02*
Y258500D01*
M02*
