G04*
G04 #@! TF.GenerationSoftware,Altium Limited,Altium Designer,24.9.1 (31)*
G04*
G04 Layer_Physical_Order=8*
G04 Layer_Color=16711680*
%FSLAX44Y44*%
%MOMM*%
G71*
G04*
G04 #@! TF.SameCoordinates,7AD2B3B8-D285-4593-8982-C88D0E3F9F4F*
G04*
G04*
G04 #@! TF.FilePolarity,Positive*
G04*
G01*
G75*
%ADD10C,0.2000*%
%ADD12C,0.1500*%
%ADD13C,0.2500*%
%ADD19R,0.4500X0.4500*%
%ADD23R,0.3000X0.2800*%
%ADD24R,0.2500X0.3500*%
%ADD25R,0.3500X0.2500*%
%ADD27R,0.4725X0.4682*%
%ADD28R,0.2800X0.3000*%
%ADD32R,0.4682X0.4725*%
%ADD36C,1.0000*%
%ADD76C,1.0395*%
%ADD84R,1.1500X1.1500*%
%ADD85C,1.1500*%
G04:AMPARAMS|DCode=86|XSize=1mm|YSize=1.6mm|CornerRadius=0.5mm|HoleSize=0mm|Usage=FLASHONLY|Rotation=180.000|XOffset=0mm|YOffset=0mm|HoleType=Round|Shape=RoundedRectangle|*
%AMROUNDEDRECTD86*
21,1,1.0000,0.6000,0,0,180.0*
21,1,0.0000,1.6000,0,0,180.0*
1,1,1.0000,0.0000,0.3000*
1,1,1.0000,0.0000,0.3000*
1,1,1.0000,0.0000,-0.3000*
1,1,1.0000,0.0000,-0.3000*
%
%ADD86ROUNDEDRECTD86*%
G04:AMPARAMS|DCode=87|XSize=1.2mm|YSize=0.6mm|CornerRadius=0.3mm|HoleSize=0mm|Usage=FLASHONLY|Rotation=180.000|XOffset=0mm|YOffset=0mm|HoleType=Round|Shape=RoundedRectangle|*
%AMROUNDEDRECTD87*
21,1,1.2000,0.0000,0,0,180.0*
21,1,0.6000,0.6000,0,0,180.0*
1,1,0.6000,-0.3000,0.0000*
1,1,0.6000,0.3000,0.0000*
1,1,0.6000,0.3000,0.0000*
1,1,0.6000,-0.3000,0.0000*
%
%ADD87ROUNDEDRECTD87*%
G04:AMPARAMS|DCode=88|XSize=0.6mm|YSize=1.6mm|CornerRadius=0.3mm|HoleSize=0mm|Usage=FLASHONLY|Rotation=180.000|XOffset=0mm|YOffset=0mm|HoleType=Round|Shape=RoundedRectangle|*
%AMROUNDEDRECTD88*
21,1,0.6000,1.0000,0,0,180.0*
21,1,0.0000,1.6000,0,0,180.0*
1,1,0.6000,0.0000,0.5000*
1,1,0.6000,0.0000,0.5000*
1,1,0.6000,0.0000,-0.5000*
1,1,0.6000,0.0000,-0.5000*
%
%ADD88ROUNDEDRECTD88*%
%ADD91C,0.8000*%
%ADD98C,1.0670*%
%ADD99C,2.4510*%
%ADD100C,0.2500*%
%ADD101C,0.4500*%
%ADD112R,0.4500X0.4500*%
%ADD113R,0.5500X0.5500*%
%ADD114R,0.7000X0.7000*%
%ADD115C,0.1658*%
%ADD116R,0.4000X1.0800*%
%ADD117R,0.3500X0.2400*%
%ADD118R,0.6500X0.6500*%
G04:AMPARAMS|DCode=119|XSize=0.71mm|YSize=0.22mm|CornerRadius=0.0275mm|HoleSize=0mm|Usage=FLASHONLY|Rotation=0.000|XOffset=0mm|YOffset=0mm|HoleType=Round|Shape=RoundedRectangle|*
%AMROUNDEDRECTD119*
21,1,0.7100,0.1650,0,0,0.0*
21,1,0.6550,0.2200,0,0,0.0*
1,1,0.0550,0.3275,-0.0825*
1,1,0.0550,-0.3275,-0.0825*
1,1,0.0550,-0.3275,0.0825*
1,1,0.0550,0.3275,0.0825*
%
%ADD119ROUNDEDRECTD119*%
G04:AMPARAMS|DCode=120|XSize=0.71mm|YSize=0.22mm|CornerRadius=0.0275mm|HoleSize=0mm|Usage=FLASHONLY|Rotation=90.000|XOffset=0mm|YOffset=0mm|HoleType=Round|Shape=RoundedRectangle|*
%AMROUNDEDRECTD120*
21,1,0.7100,0.1650,0,0,90.0*
21,1,0.6550,0.2200,0,0,90.0*
1,1,0.0550,0.0825,0.3275*
1,1,0.0550,0.0825,-0.3275*
1,1,0.0550,-0.0825,-0.3275*
1,1,0.0550,-0.0825,0.3275*
%
%ADD120ROUNDEDRECTD120*%
%ADD121R,2.9000X2.9000*%
%ADD122R,1.4000X1.0000*%
%ADD123R,1.3700X0.9300*%
%ADD124C,0.2210*%
%ADD125R,0.8000X1.8000*%
%ADD126R,0.6725X0.7154*%
%ADD127R,0.4500X0.3000*%
%ADD128R,0.3000X0.8500*%
%ADD129R,0.3000X0.9500*%
G04:AMPARAMS|DCode=130|XSize=0.76mm|YSize=1.94mm|CornerRadius=0.19mm|HoleSize=0mm|Usage=FLASHONLY|Rotation=0.000|XOffset=0mm|YOffset=0mm|HoleType=Round|Shape=RoundedRectangle|*
%AMROUNDEDRECTD130*
21,1,0.7600,1.5600,0,0,0.0*
21,1,0.3800,1.9400,0,0,0.0*
1,1,0.3800,0.1900,-0.7800*
1,1,0.3800,-0.1900,-0.7800*
1,1,0.3800,-0.1900,0.7800*
1,1,0.3800,0.1900,0.7800*
%
%ADD130ROUNDEDRECTD130*%
%ADD131R,0.9800X0.7800*%
%ADD132C,0.2160*%
%ADD133R,0.7000X0.7000*%
%ADD134C,0.1270*%
%ADD135C,0.1730*%
%ADD136C,0.1870*%
%ADD137C,0.1440*%
%ADD138C,0.1870*%
%ADD139C,0.3000*%
%ADD140C,0.1434*%
%ADD141R,0.2000X0.8000*%
%ADD142R,0.8000X0.2000*%
G36*
X223692Y306090D02*
X217259D01*
Y304970D01*
Y296025D01*
X226293D01*
Y293838D01*
X212027D01*
Y301970D01*
Y304970D01*
Y308590D01*
X223692D01*
Y306090D01*
D02*
G37*
G36*
X230286Y291386D02*
Y290491D01*
X229653Y289858D01*
X221276D01*
Y278318D01*
X214277D01*
Y288726D01*
X212027D01*
Y292018D01*
X229653D01*
X230286Y291386D01*
D02*
G37*
G36*
X179789Y193069D02*
X166267D01*
Y200069D01*
X179789D01*
Y193069D01*
D02*
G37*
G36*
X234640Y185610D02*
X227492D01*
Y180010D01*
X234640D01*
Y175530D01*
X220492D01*
Y190310D01*
X227492Y190310D01*
X233466Y190310D01*
X234640Y190310D01*
X234640Y185610D01*
D02*
G37*
G36*
X272120Y182310D02*
X252420D01*
Y185610D01*
X241640D01*
Y189310D01*
X272120D01*
Y182310D01*
D02*
G37*
G36*
X144936Y199650D02*
Y186945D01*
X153017D01*
Y174240D01*
X150817D01*
Y183751D01*
X144936D01*
Y174240D01*
X139011D01*
X138817Y174434D01*
Y193069D01*
X114697D01*
Y200069D01*
X144517D01*
X144936Y199650D01*
D02*
G37*
G36*
X162767Y191069D02*
X157017D01*
Y174159D01*
X154400D01*
Y191069D01*
X149067D01*
Y200369D01*
X162767D01*
Y191069D01*
D02*
G37*
G36*
X123409Y166362D02*
Y164997D01*
X137403D01*
X137423Y164978D01*
Y158488D01*
X114697D01*
X114658Y158527D01*
X114697Y166334D01*
Y168678D01*
X87492D01*
Y166320D01*
X69447D01*
Y176320D01*
X123409D01*
Y166362D01*
D02*
G37*
G36*
X278024Y143127D02*
X266963D01*
Y147809D01*
X278024D01*
Y143127D01*
D02*
G37*
G36*
X265120D02*
X253749D01*
Y147809D01*
X265120D01*
Y143127D01*
D02*
G37*
G36*
X289499Y119710D02*
X259019D01*
Y128610D01*
X289499D01*
Y119710D01*
D02*
G37*
G36*
X252019D02*
X246439D01*
Y114110D01*
X252019D01*
X252019Y109291D01*
X235509Y109291D01*
Y124410D01*
X252019D01*
Y119710D01*
D02*
G37*
G36*
X141420Y68218D02*
X143920D01*
Y56454D01*
X143756Y56290D01*
X140920D01*
Y66167D01*
X138420D01*
Y78790D01*
X141420D01*
Y68218D01*
D02*
G37*
G36*
X95960Y41170D02*
X59252D01*
Y48970D01*
X95880D01*
X95960Y49050D01*
Y41170D01*
D02*
G37*
G36*
X217170Y2645D02*
X199495D01*
Y52070D01*
X199092Y53042D01*
X198120Y53445D01*
X185467D01*
Y78560D01*
X185697Y78790D01*
X217170D01*
Y2645D01*
D02*
G37*
G36*
X120489Y64703D02*
X120870Y63784D01*
X120870Y62790D01*
Y62790D01*
X120870Y61795D01*
X120489Y60877D01*
Y53445D01*
X106680D01*
X105708Y53042D01*
X105305Y52070D01*
Y2645D01*
X67015D01*
Y40483D01*
X95960D01*
X96446Y40684D01*
X96647Y41170D01*
X96647Y48752D01*
X96647Y48765D01*
X96647Y48765D01*
X96647Y49050D01*
X96647Y49050D01*
X96595Y49176D01*
X96595Y49685D01*
X95960Y49737D01*
X95834Y49685D01*
X95325Y49685D01*
X88825D01*
Y49657D01*
X67015D01*
Y76629D01*
X69176Y78790D01*
X120489D01*
Y64703D01*
D02*
G37*
D10*
X79436Y196244D02*
X88736Y186945D01*
X118581D01*
X131501Y171759D02*
Y174025D01*
X118581Y186945D02*
X131501Y174025D01*
X197846Y124019D02*
X203510Y118355D01*
X208150D01*
X190487Y124019D02*
X197846D01*
X208150Y118355D02*
X209487Y117019D01*
X202160Y101108D02*
X208273D01*
X209487Y102322D01*
X201682Y100630D02*
X202160Y101108D01*
X171697Y97969D02*
Y126939D01*
X190487Y117019D02*
Y124019D01*
X179522Y117019D02*
Y124019D01*
X236786Y234950D02*
Y258874D01*
X226508Y234950D02*
Y259313D01*
X233206Y276603D02*
Y286938D01*
X229206Y276160D02*
Y286938D01*
X233206Y276603D02*
X236348Y273461D01*
X226508D02*
X229206Y276160D01*
X226508Y268885D02*
Y273461D01*
X236348Y259313D02*
X236786Y258874D01*
X236348Y268885D02*
Y273461D01*
X176897Y137609D02*
X190487Y124019D01*
X167917Y137609D02*
X176897D01*
X171697Y90349D02*
Y97969D01*
X160017Y133585D02*
Y137509D01*
X164017Y134708D02*
Y137509D01*
X159917Y137609D02*
X160017Y137509D01*
X163917Y137609D02*
X164017Y137509D01*
X171216Y132324D02*
X179522Y124019D01*
X169091Y129544D02*
X171697Y126939D01*
X131501Y171759D02*
X133767D01*
X164057Y129544D02*
X169091D01*
X166400Y132324D02*
X171216D01*
X164017Y134708D02*
X166400Y132324D01*
X160017Y133585D02*
X164057Y129544D01*
D12*
X44390Y112480D02*
X111957D01*
X125227Y99210D01*
X139417D01*
X147917Y107710D01*
Y137609D01*
X36890Y112480D02*
X44390D01*
X33634D02*
X36890D01*
X25400Y120693D02*
X25422D01*
X33634Y112480D01*
D13*
X133867Y123829D02*
X139917Y129879D01*
Y137609D01*
X118479Y119797D02*
X133867Y135184D01*
Y143659D01*
X151917Y125829D02*
X153917Y123829D01*
X151917Y125829D02*
Y137609D01*
X155917Y132660D02*
Y137609D01*
Y132660D02*
X156999Y131577D01*
Y131444D02*
Y131577D01*
X90170Y125730D02*
X90854Y126414D01*
X111609D01*
X118428Y133234D01*
X164742Y117019D02*
Y124019D01*
X162742Y126019D02*
X164742Y124019D01*
X162424Y126019D02*
X162742D01*
X156999Y131444D02*
X162424Y126019D01*
X111428Y133234D02*
X118428D01*
X119927Y134732D01*
Y139099D01*
X143917Y124829D02*
Y137609D01*
X153917Y116829D02*
Y123829D01*
X119927Y139099D02*
X128487Y147659D01*
X115197Y142559D02*
X118197Y145559D01*
X128487Y147659D02*
X133867D01*
X118197Y145559D02*
Y152239D01*
X118777Y151659D02*
X133867D01*
X118197Y152239D02*
X118777Y151659D01*
D19*
X53882Y45070D02*
D03*
X61502D02*
D03*
X143917Y116829D02*
D03*
Y124829D02*
D03*
D23*
X218858Y261449D02*
D03*
Y266749D02*
D03*
X243740Y266749D02*
D03*
Y261449D02*
D03*
D24*
X173967Y182848D02*
D03*
Y187848D02*
D03*
X77729Y107767D02*
D03*
Y102767D02*
D03*
X71552Y107828D02*
D03*
Y102828D02*
D03*
X66165Y81701D02*
D03*
Y86701D02*
D03*
D25*
X221942Y307340D02*
D03*
X226942D02*
D03*
D27*
X162729Y239068D02*
D03*
Y247111D02*
D03*
X154048Y239341D02*
D03*
Y247384D02*
D03*
X165912Y264372D02*
D03*
Y256329D02*
D03*
X134412Y270734D02*
D03*
Y262691D02*
D03*
X174562Y266217D02*
D03*
Y258174D02*
D03*
X275661Y153511D02*
D03*
Y145468D02*
D03*
X256111Y153511D02*
D03*
Y145468D02*
D03*
X223984Y169828D02*
D03*
Y177871D02*
D03*
X239009Y103588D02*
D03*
Y111631D02*
D03*
X134412Y251405D02*
D03*
Y243362D02*
D03*
X168986Y276746D02*
D03*
Y284789D02*
D03*
X25400Y120693D02*
D03*
Y128736D02*
D03*
D28*
X208127Y303470D02*
D03*
X213426D02*
D03*
X208127Y290226D02*
D03*
X213426D02*
D03*
D32*
X184946Y252044D02*
D03*
X176903D02*
D03*
X139553Y276195D02*
D03*
X147597D02*
D03*
X158069Y255195D02*
D03*
X150026D02*
D03*
X147796Y286833D02*
D03*
X139753D02*
D03*
X214918Y296864D02*
D03*
X206876D02*
D03*
D36*
X90119Y126542D02*
D03*
X209487Y117019D02*
D03*
Y102322D02*
D03*
X153920Y94210D02*
D03*
X101095Y206769D02*
D03*
X186690Y196850D02*
D03*
D76*
X196095Y63565D02*
D03*
X111245D02*
D03*
D84*
X63600Y194120D02*
D03*
D85*
X81180Y194500D02*
D03*
D86*
X98470Y19290D02*
D03*
X208870D02*
D03*
D87*
X193870Y62790D02*
D03*
X113470D02*
D03*
D88*
X110470Y67790D02*
D03*
X196870D02*
D03*
D91*
X13360Y191765D02*
D03*
Y228766D02*
D03*
Y174125D02*
D03*
Y137126D02*
D03*
X291860Y165650D02*
D03*
Y202650D02*
D03*
D98*
X50800Y279400D02*
D03*
X40640Y330200D02*
D03*
X60960D02*
D03*
D99*
X25400Y279400D02*
D03*
X76200D02*
D03*
X25400Y311150D02*
D03*
X76200D02*
D03*
D100*
X235243Y292983D02*
D03*
X240154Y288726D02*
D03*
Y296889D02*
D03*
X251700Y261999D02*
D03*
X226488Y304740D02*
D03*
X229323Y303403D02*
D03*
X237206Y303458D02*
D03*
X233206D02*
D03*
X192110Y186726D02*
D03*
X179789Y167659D02*
D03*
Y171659D02*
D03*
X262300Y234000D02*
D03*
X251534Y250000D02*
D03*
Y254000D02*
D03*
X251700Y257999D02*
D03*
D101*
X140027Y278201D02*
D03*
X164742Y168678D02*
D03*
X165017Y146559D02*
D03*
X142817Y146639D02*
D03*
Y168759D02*
D03*
X154400D02*
D03*
Y146559D02*
D03*
X164742Y157659D02*
D03*
X142817D02*
D03*
X153917D02*
D03*
X234403Y124264D02*
D03*
X55837Y166028D02*
D03*
D112*
X30480Y87239D02*
D03*
Y79619D02*
D03*
X107197Y142559D02*
D03*
X115197D02*
D03*
D113*
X36890Y138980D02*
D03*
Y112480D02*
D03*
X44390Y138980D02*
D03*
Y112480D02*
D03*
D114*
X239009Y120910D02*
D03*
Y134910D02*
D03*
X223992Y200810D02*
D03*
Y186810D02*
D03*
X285999Y111110D02*
D03*
Y125110D02*
D03*
X273299Y111110D02*
D03*
Y125110D02*
D03*
X169767Y196569D02*
D03*
Y210569D02*
D03*
X141017Y196569D02*
D03*
Y210569D02*
D03*
X118197D02*
D03*
Y196569D02*
D03*
X130317Y210569D02*
D03*
Y196569D02*
D03*
X57692Y93929D02*
D03*
Y79929D02*
D03*
X164742Y124019D02*
D03*
Y110019D02*
D03*
X153917Y123829D02*
D03*
Y109829D02*
D03*
X133867Y123829D02*
D03*
Y109829D02*
D03*
X190487Y124019D02*
D03*
Y110019D02*
D03*
X255920Y185810D02*
D03*
Y171810D02*
D03*
X268620Y185810D02*
D03*
Y171810D02*
D03*
X179522Y124019D02*
D03*
Y110019D02*
D03*
X222497Y151309D02*
D03*
Y137309D02*
D03*
D115*
X264291Y145990D02*
D03*
X267791D02*
D03*
X264291Y149489D02*
D03*
X267791D02*
D03*
D116*
X238140Y182810D02*
D03*
X255519Y116910D02*
D03*
D117*
X232890Y186810D02*
D03*
Y182810D02*
D03*
Y178810D02*
D03*
X243390D02*
D03*
Y182810D02*
D03*
Y186810D02*
D03*
X250269Y120910D02*
D03*
Y116910D02*
D03*
Y112910D02*
D03*
X260769D02*
D03*
Y116910D02*
D03*
Y120910D02*
D03*
D118*
X92710Y45800D02*
D03*
Y55800D02*
D03*
D119*
X173967Y171659D02*
D03*
Y143659D02*
D03*
Y167659D02*
D03*
Y163659D02*
D03*
Y159659D02*
D03*
Y155659D02*
D03*
Y151659D02*
D03*
Y147659D02*
D03*
X133867Y143659D02*
D03*
Y147659D02*
D03*
Y151659D02*
D03*
Y155659D02*
D03*
Y159659D02*
D03*
Y163659D02*
D03*
Y167659D02*
D03*
Y171659D02*
D03*
D120*
X167917Y177709D02*
D03*
Y137609D02*
D03*
X163917Y177709D02*
D03*
Y137609D02*
D03*
X159917Y177709D02*
D03*
Y137609D02*
D03*
X155917Y177709D02*
D03*
Y137609D02*
D03*
X151917D02*
D03*
X147917D02*
D03*
X143917D02*
D03*
X139917D02*
D03*
X151917Y177709D02*
D03*
X147917D02*
D03*
X143917D02*
D03*
X139917D02*
D03*
D121*
X153917Y157659D02*
D03*
D122*
X76447Y153540D02*
D03*
Y171320D02*
D03*
D123*
X155917Y211419D02*
D03*
Y195719D02*
D03*
D124*
X80981Y94929D02*
D03*
X76981D02*
D03*
X72981D02*
D03*
X80981Y90929D02*
D03*
X76981D02*
D03*
X72981D02*
D03*
X80981Y86929D02*
D03*
X76981D02*
D03*
X72981D02*
D03*
X80981Y82929D02*
D03*
X76981D02*
D03*
X72981D02*
D03*
D125*
X194487Y150559D02*
D03*
X210487D02*
D03*
D126*
X236348Y268885D02*
D03*
Y259313D02*
D03*
X226508Y268885D02*
D03*
Y259313D02*
D03*
D127*
X104217Y97710D02*
D03*
Y92710D02*
D03*
Y87710D02*
D03*
X117717D02*
D03*
Y92710D02*
D03*
Y97710D02*
D03*
D128*
X182420Y60540D02*
D03*
X177420D02*
D03*
X172420D02*
D03*
X167420D02*
D03*
X162420D02*
D03*
X157420D02*
D03*
X152420D02*
D03*
X147420D02*
D03*
X142420D02*
D03*
X137420D02*
D03*
X132420D02*
D03*
X127420D02*
D03*
D129*
X124920Y74040D02*
D03*
X129920D02*
D03*
X134920D02*
D03*
X139920D02*
D03*
X144920D02*
D03*
X149920D02*
D03*
X154920D02*
D03*
X159920D02*
D03*
X164920D02*
D03*
X169920D02*
D03*
X174920D02*
D03*
X179920D02*
D03*
D130*
X236795Y234950D02*
D03*
X226635D02*
D03*
D131*
X76200Y59070D02*
D03*
Y45070D02*
D03*
D132*
X237206Y286938D02*
D03*
Y290938D02*
D03*
Y294938D02*
D03*
Y298938D02*
D03*
X233206Y286938D02*
D03*
Y290938D02*
D03*
Y294938D02*
D03*
Y298938D02*
D03*
X229206Y286938D02*
D03*
Y290938D02*
D03*
Y294938D02*
D03*
Y298938D02*
D03*
X225206Y286938D02*
D03*
Y290938D02*
D03*
Y294938D02*
D03*
Y298938D02*
D03*
D133*
X104197Y162834D02*
D03*
X118197D02*
D03*
X155767Y222429D02*
D03*
X169767D02*
D03*
X104197Y152239D02*
D03*
X118197D02*
D03*
X118479Y119797D02*
D03*
X104479D02*
D03*
X171697Y97969D02*
D03*
X185697D02*
D03*
X118428Y133234D02*
D03*
X104428D02*
D03*
X195487Y133019D02*
D03*
X209487D02*
D03*
X195487Y166559D02*
D03*
X209487D02*
D03*
X203776Y281818D02*
D03*
X217777D02*
D03*
D134*
X235243Y292980D02*
Y292983D01*
X233206Y290942D02*
X235243Y292980D01*
X238999Y288491D02*
X239919D01*
X240154Y288726D01*
X237447Y286938D02*
X238999Y288491D01*
X237206Y286938D02*
X237447D01*
X239162Y296654D02*
X239919D01*
X240154Y296889D01*
X237447Y294938D02*
X239162Y296654D01*
X237206Y294938D02*
X237447D01*
X231160Y293081D02*
X231256D01*
X229303Y294938D02*
X231160Y293081D01*
X229206Y294938D02*
X229303D01*
X233206Y290938D02*
Y290942D01*
X229206Y298938D02*
X229265Y298997D01*
X225206Y303126D02*
X226488Y304407D01*
X225206Y298938D02*
Y303126D01*
X229265Y298997D02*
Y303345D01*
X229323Y303403D01*
X226488Y304407D02*
Y304740D01*
X237206Y298938D02*
Y303458D01*
X233206Y298938D02*
Y303458D01*
X226942Y307340D02*
X231146D01*
D135*
X173967Y167659D02*
X179789D01*
X173967Y171659D02*
X179789D01*
X169560Y251843D02*
X176702D01*
X169412Y251695D02*
X169560Y251843D01*
X176702D02*
X176903Y252044D01*
X148208Y283363D02*
Y286421D01*
X147796Y286833D02*
X148208Y286421D01*
Y283363D02*
X148355Y283215D01*
D136*
X173967Y182848D02*
X188232D01*
X192110Y186726D01*
X169177Y182848D02*
X173967D01*
X167917Y177709D02*
X168082Y177874D01*
Y181753D02*
X169177Y182848D01*
X168082Y177874D02*
Y181753D01*
X264397Y149595D02*
Y152899D01*
X264517Y153020D01*
X264291Y149489D02*
X264397Y149595D01*
X243390Y175310D02*
Y178810D01*
D137*
X158164Y251478D02*
X160972D01*
X160986Y251493D02*
X162210D01*
X160972Y251478D02*
X160986Y251493D01*
X154069Y247384D02*
X158164Y251478D01*
X162210Y251493D02*
X162412Y251695D01*
X154048Y247384D02*
X154069D01*
D138*
X148234Y276833D02*
Y279575D01*
X147597Y276195D02*
X148234Y276833D01*
Y279575D02*
X148355Y279695D01*
D139*
X102434Y201443D02*
X107308Y196569D01*
X118197D01*
X173717Y188098D02*
X173967Y187848D01*
X169521Y190326D02*
X171749Y188098D01*
X173967Y187848D02*
Y187848D01*
X171749Y188098D02*
X173717D01*
X163917Y184722D02*
X169521Y190326D01*
Y196323D02*
X169767Y196569D01*
X163917Y177709D02*
Y184722D01*
X169521Y190326D02*
Y196323D01*
X177242Y196489D02*
X177422Y196670D01*
X186509D01*
X186690Y196850D01*
X102434Y201443D02*
Y205430D01*
X101095Y206769D02*
X102434Y205430D01*
X159092Y99939D02*
Y100345D01*
X153920Y94768D02*
X159092Y99939D01*
X153920Y94210D02*
Y94768D01*
X177202Y196529D02*
X177242Y196489D01*
X195487Y166559D02*
X202487D01*
X195302Y166374D02*
Y166744D01*
X181360Y155659D02*
X190260Y164559D01*
X173967Y155659D02*
X181360D01*
X173967Y143659D02*
X184847D01*
X211412Y151484D02*
X222497D01*
X193487Y164559D02*
X195302Y166374D01*
X190260Y164559D02*
X193487D01*
X184847Y143659D02*
X195487Y133019D01*
X210487Y150559D02*
X211412Y151484D01*
X193387Y151659D02*
X194487Y150559D01*
X173967Y151659D02*
X193387D01*
X155767Y211569D02*
X155917Y211419D01*
X155767Y211569D02*
Y222429D01*
D140*
X72543Y86701D02*
X72771Y86929D01*
X66165Y86701D02*
X72543D01*
X72771Y86929D02*
X72981D01*
D141*
X30464Y83618D02*
D03*
D142*
X57503Y45054D02*
D03*
M02*
