G04*
G04 #@! TF.GenerationSoftware,Altium Limited,Altium Designer,24.9.1 (31)*
G04*
G04 Layer_Color=2752767*
%FSLAX44Y44*%
%MOMM*%
G71*
G04*
G04 #@! TF.SameCoordinates,7AD2B3B8-D285-4593-8982-C88D0E3F9F4F*
G04*
G04*
G04 #@! TF.FilePolarity,Positive*
G04*
G01*
G75*
%ADD14C,0.2540*%
%ADD134C,0.1270*%
%ADD160C,0.3810*%
%ADD166C,0.4064*%
D14*
X-881869Y789586D02*
X-879345D01*
X-881869D02*
Y794632D01*
X-879345D01*
Y797154D01*
X-874300D01*
Y794632D02*
Y797154D01*
Y794632D02*
X-871777D01*
Y789586D02*
Y794632D01*
X-874300Y789586D02*
X-871777D01*
X-874300Y787063D02*
Y789586D01*
X-879345Y787063D02*
X-874300D01*
X-879345D02*
Y789586D01*
X813972Y791603D02*
X820026D01*
X679631D02*
X685685D01*
X35126Y793116D02*
X38152Y787063D01*
X41179Y793116D01*
X50259Y787063D02*
X44206D01*
X50259Y793116D01*
Y794629D01*
X48746Y796142D01*
X45719D01*
X44206Y794629D01*
X59339Y796142D02*
X53285D01*
Y791603D01*
X56312Y793116D01*
X57825D01*
X59339Y791603D01*
Y788576D01*
X57825Y787063D01*
X54799D01*
X53285Y788576D01*
X62365Y796142D02*
Y787063D01*
Y791603D01*
X63878Y793116D01*
X66905D01*
X68418Y791603D01*
Y787063D01*
X71445D02*
X74472D01*
X72958D01*
Y796142D01*
X71445Y794629D01*
X79012D02*
X80525Y796142D01*
X83551D01*
X85065Y794629D01*
Y788576D01*
X83551Y787063D01*
X80525D01*
X79012Y788576D01*
Y794629D01*
X-81056Y787063D02*
Y796142D01*
X-76516D01*
X-75002Y794629D01*
Y791603D01*
X-76516Y790089D01*
X-81056D01*
X-78029D02*
X-75002Y787063D01*
X-70462D02*
X-67436D01*
X-65923Y788576D01*
Y791603D01*
X-67436Y793116D01*
X-70462D01*
X-71976Y791603D01*
Y788576D01*
X-70462Y787063D01*
X-62896Y793116D02*
Y788576D01*
X-61383Y787063D01*
X-56843D01*
Y793116D01*
X-53816Y787063D02*
Y793116D01*
X-49276D01*
X-47763Y791603D01*
Y787063D01*
X-38683Y796142D02*
Y787063D01*
X-43223D01*
X-44737Y788576D01*
Y791603D01*
X-43223Y793116D01*
X-38683D01*
X-31117Y787063D02*
X-34144D01*
X-35657Y788576D01*
Y791603D01*
X-34144Y793116D01*
X-31117D01*
X-29604Y791603D01*
Y790089D01*
X-35657D01*
X-20524Y796142D02*
Y787063D01*
X-25064D01*
X-26577Y788576D01*
Y791603D01*
X-25064Y793116D01*
X-20524D01*
X-173630Y796142D02*
Y790089D01*
X-170603Y787063D01*
X-167577Y790089D01*
Y796142D01*
X-164550Y787063D02*
X-161523D01*
X-163037D01*
Y793116D01*
X-164550D01*
X-155470D02*
X-152444D01*
X-150930Y791603D01*
Y787063D01*
X-155470D01*
X-156984Y788576D01*
X-155470Y790089D01*
X-150930D01*
X-361823Y796142D02*
X-355770D01*
X-358796D01*
Y787063D01*
X-351230D02*
X-348203D01*
X-346690Y788576D01*
Y791603D01*
X-348203Y793116D01*
X-351230D01*
X-352743Y791603D01*
Y788576D01*
X-351230Y787063D01*
X-343663Y784036D02*
Y793116D01*
X-339123D01*
X-337610Y791603D01*
Y788576D01*
X-339123Y787063D01*
X-343663D01*
X-325504Y796142D02*
Y787063D01*
X-319450D01*
X-314911Y793116D02*
X-311884D01*
X-310371Y791603D01*
Y787063D01*
X-314911D01*
X-316424Y788576D01*
X-314911Y790089D01*
X-310371D01*
X-307344Y793116D02*
Y788576D01*
X-305831Y787063D01*
X-301291D01*
Y785549D01*
X-302804Y784036D01*
X-304318D01*
X-301291Y787063D02*
Y793116D01*
X-293724Y787063D02*
X-296751D01*
X-298264Y788576D01*
Y791603D01*
X-296751Y793116D01*
X-293724D01*
X-292211Y791603D01*
Y790089D01*
X-298264D01*
X-289185Y793116D02*
Y787063D01*
Y790089D01*
X-287671Y791603D01*
X-286158Y793116D01*
X-284645D01*
X-271025Y791603D02*
X-264972D01*
X-252866Y796142D02*
Y787063D01*
X-246812D01*
X-242272Y793116D02*
X-239246D01*
X-237733Y791603D01*
Y787063D01*
X-242272D01*
X-243786Y788576D01*
X-242272Y790089D01*
X-237733D01*
X-234706Y793116D02*
Y788576D01*
X-233193Y787063D01*
X-228653D01*
Y785549D01*
X-230166Y784036D01*
X-231679D01*
X-228653Y787063D02*
Y793116D01*
X-221086Y787063D02*
X-224113D01*
X-225626Y788576D01*
Y791603D01*
X-224113Y793116D01*
X-221086D01*
X-219573Y791603D01*
Y790089D01*
X-225626D01*
X-216547Y793116D02*
Y787063D01*
Y790089D01*
X-215033Y791603D01*
X-213520Y793116D01*
X-212007D01*
X-192334Y796142D02*
X-198387D01*
Y791603D01*
X-195360Y793116D01*
X-193847D01*
X-192334Y791603D01*
Y788576D01*
X-193847Y787063D01*
X-196874D01*
X-198387Y788576D01*
X-476188Y787063D02*
Y796142D01*
X-471648D01*
X-470135Y794629D01*
Y791603D01*
X-471648Y790089D01*
X-476188D01*
X-473162D02*
X-470135Y787063D01*
X-465595D02*
X-462569D01*
X-461055Y788576D01*
Y791603D01*
X-462569Y793116D01*
X-465595D01*
X-467109Y791603D01*
Y788576D01*
X-465595Y787063D01*
X-458029Y793116D02*
Y788576D01*
X-456516Y787063D01*
X-451976D01*
Y793116D01*
X-448949Y787063D02*
Y793116D01*
X-444409D01*
X-442896Y791603D01*
Y787063D01*
X-433816Y796142D02*
Y787063D01*
X-438356D01*
X-439869Y788576D01*
Y791603D01*
X-438356Y793116D01*
X-433816D01*
X-556051Y787063D02*
Y796142D01*
X-551511D01*
X-549998Y794629D01*
Y791603D01*
X-551511Y790089D01*
X-556051D01*
X-546971Y796142D02*
X-540918D01*
X-543945D01*
Y787063D01*
X-537891Y796142D02*
Y787063D01*
Y791603D01*
X-531838D01*
Y796142D01*
Y787063D01*
X-713978Y794629D02*
X-712465Y796142D01*
X-709438D01*
X-707925Y794629D01*
Y788576D01*
X-709438Y787063D01*
X-712465D01*
X-713978Y788576D01*
Y794629D01*
X-704898Y787063D02*
Y788576D01*
X-703385D01*
Y787063D01*
X-704898D01*
X-697332D02*
X-694305D01*
X-695818D01*
Y796142D01*
X-697332Y794629D01*
X-689765D02*
X-688252Y796142D01*
X-685226D01*
X-683712Y794629D01*
Y788576D01*
X-685226Y787063D01*
X-688252D01*
X-689765Y788576D01*
Y794629D01*
X-680686D02*
X-679172Y796142D01*
X-676146D01*
X-674632Y794629D01*
Y788576D01*
X-676146Y787063D01*
X-679172D01*
X-680686Y788576D01*
Y794629D01*
X-671606Y787063D02*
Y793116D01*
X-670092D01*
X-668579Y791603D01*
Y787063D01*
Y791603D01*
X-667066Y793116D01*
X-665553Y791603D01*
Y787063D01*
X-662526D02*
Y793116D01*
X-661013D01*
X-659500Y791603D01*
Y787063D01*
Y791603D01*
X-657986Y793116D01*
X-656473Y791603D01*
Y787063D01*
X-641340D02*
X-644367Y790089D01*
Y793116D01*
X-641340Y796142D01*
X-636800Y794629D02*
X-635287Y796142D01*
X-632260D01*
X-630747Y794629D01*
Y793116D01*
X-632260Y791603D01*
X-633773D01*
X-632260D01*
X-630747Y790089D01*
Y788576D01*
X-632260Y787063D01*
X-635287D01*
X-636800Y788576D01*
X-627720Y787063D02*
Y788576D01*
X-626207D01*
Y787063D01*
X-627720D01*
X-620154Y788576D02*
X-618641Y787063D01*
X-615614D01*
X-614101Y788576D01*
Y794629D01*
X-615614Y796142D01*
X-618641D01*
X-620154Y794629D01*
Y793116D01*
X-618641Y791603D01*
X-614101D01*
X-606534Y787063D02*
Y796142D01*
X-611074Y791603D01*
X-605021D01*
X-601994Y787063D02*
Y793116D01*
X-600481D01*
X-598968Y791603D01*
Y787063D01*
Y791603D01*
X-597454Y793116D01*
X-595941Y791603D01*
Y787063D01*
X-592915D02*
X-589888D01*
X-591401D01*
Y793116D01*
X-592915D01*
X-585348Y787063D02*
X-582321D01*
X-583835D01*
Y796142D01*
X-585348D01*
X-577781Y787063D02*
X-574755Y790089D01*
Y793116D01*
X-577781Y796142D01*
X-791701Y764356D02*
X-797754D01*
X-791701Y770409D01*
Y771922D01*
X-793214Y773436D01*
X-796240D01*
X-797754Y771922D01*
X-788674D02*
X-787161Y773436D01*
X-784134D01*
X-782621Y771922D01*
Y765869D01*
X-784134Y764356D01*
X-787161D01*
X-788674Y765869D01*
Y771922D01*
X-770515Y773436D02*
X-764461D01*
X-767488D01*
Y764356D01*
X-759921D02*
X-756895D01*
X-755381Y765869D01*
Y768896D01*
X-756895Y770409D01*
X-759921D01*
X-761435Y768896D01*
Y765869D01*
X-759921Y764356D01*
X-750842Y771922D02*
Y770409D01*
X-752355D01*
X-749328D01*
X-750842D01*
Y765869D01*
X-749328Y764356D01*
X-743275Y770409D02*
X-740249D01*
X-738735Y768896D01*
Y764356D01*
X-743275D01*
X-744789Y765869D01*
X-743275Y767383D01*
X-738735D01*
X-735709Y764356D02*
X-732682D01*
X-734195D01*
Y773436D01*
X-735709D01*
X-791701Y787063D02*
X-797754D01*
X-791701Y793116D01*
Y794629D01*
X-793214Y796142D01*
X-796240D01*
X-797754Y794629D01*
X-788674D02*
X-787161Y796142D01*
X-784134D01*
X-782621Y794629D01*
Y788576D01*
X-784134Y787063D01*
X-787161D01*
X-788674Y788576D01*
Y794629D01*
D134*
X199789Y202352D02*
X202964D01*
X199789D02*
Y208702D01*
X202964D01*
Y211877D01*
X209314D01*
Y208702D02*
Y211877D01*
Y208702D02*
X212489D01*
Y202352D02*
Y208702D01*
X209314Y202352D02*
X212489D01*
X209314Y199177D02*
Y202352D01*
X202964Y199177D02*
X209314D01*
X202964D02*
Y202352D01*
X17639Y83910D02*
X20814D01*
X17639D02*
Y90260D01*
X20814D01*
Y93435D01*
X27164D01*
Y90260D02*
Y93435D01*
Y90260D02*
X30339D01*
Y83910D02*
Y90260D01*
X27164Y83910D02*
X30339D01*
X27164Y80735D02*
Y83910D01*
X20814Y80735D02*
X27164D01*
X20814D02*
Y83910D01*
X23266Y78695D02*
X26441D01*
X23266D02*
Y85045D01*
X26441D01*
Y88220D01*
X32791D01*
Y85045D02*
Y88220D01*
Y85045D02*
X35966D01*
Y78695D02*
Y85045D01*
X32791Y78695D02*
X35966D01*
X32791Y75520D02*
Y78695D01*
X26441Y75520D02*
X32791D01*
X26441D02*
Y78695D01*
X28266D02*
X31441D01*
X28266D02*
Y85045D01*
X31441D01*
Y88220D01*
X37791D01*
Y85045D02*
Y88220D01*
Y85045D02*
X40966D01*
Y78695D02*
Y85045D01*
X37791Y78695D02*
X40966D01*
X37791Y75520D02*
Y78695D01*
X31441Y75520D02*
X37791D01*
X31441D02*
Y78695D01*
X53255Y144475D02*
X56430D01*
X53255D02*
Y150825D01*
X56430D01*
Y154000D01*
X62780D01*
Y150825D02*
Y154000D01*
Y150825D02*
X65955D01*
Y144475D02*
Y150825D01*
X62780Y144475D02*
X65955D01*
X62780Y141300D02*
Y144475D01*
X56430Y141300D02*
X62780D01*
X56430D02*
Y144475D01*
X45720Y142875D02*
X48895D01*
X45720D02*
Y149225D01*
X48895D01*
Y152400D01*
X55245D01*
Y149225D02*
Y152400D01*
Y149225D02*
X58420D01*
Y142875D02*
Y149225D01*
X55245Y142875D02*
X58420D01*
X55245Y139700D02*
Y142875D01*
X48895Y139700D02*
X55245D01*
X48895D02*
Y142875D01*
X255950Y242824D02*
X259125D01*
X255950D02*
Y249174D01*
X259125D01*
Y252349D01*
X265475D01*
Y249174D02*
Y252349D01*
Y249174D02*
X268650D01*
Y242824D02*
Y249174D01*
X265475Y242824D02*
X268650D01*
X265475Y239650D02*
Y242824D01*
X259125Y239650D02*
X265475D01*
X259125D02*
Y242824D01*
X85090Y249605D02*
X88265D01*
X85090D02*
Y255955D01*
X88265D01*
Y259130D01*
X94615D01*
Y255955D02*
Y259130D01*
Y255955D02*
X97790D01*
Y249605D02*
Y255955D01*
X94615Y249605D02*
X97790D01*
X94615Y246430D02*
Y249605D01*
X88265Y246430D02*
X94615D01*
X88265D02*
Y249605D01*
X71475Y74655D02*
X74650D01*
X71475D02*
Y81005D01*
X74650D01*
Y84180D01*
X81000D01*
Y81005D02*
Y84180D01*
Y81005D02*
X84175D01*
Y74655D02*
Y81005D01*
X81000Y74655D02*
X84175D01*
X81000Y71480D02*
Y74655D01*
X74650Y71480D02*
X81000D01*
X74650D02*
Y74655D01*
X78100Y74718D02*
X81275D01*
X78100D02*
Y81068D01*
X81275D01*
Y84243D01*
X87625D01*
Y81068D02*
Y84243D01*
Y81068D02*
X90800D01*
Y74718D02*
Y81068D01*
X87625Y74718D02*
X90800D01*
X87625Y71543D02*
Y74718D01*
X81275Y71543D02*
X87625D01*
X81275D02*
Y74718D01*
X34896Y92915D02*
X38071D01*
X34896D02*
Y99265D01*
X38071D01*
Y102440D01*
X44421D01*
Y99265D02*
Y102440D01*
Y99265D02*
X47596D01*
Y92915D02*
Y99265D01*
X44421Y92915D02*
X47596D01*
X44421Y89740D02*
Y92915D01*
X38071Y89740D02*
X44421D01*
X38071D02*
Y92915D01*
X34896Y120412D02*
X38071D01*
X34896D02*
Y126762D01*
X38071D01*
Y129937D01*
X44421D01*
Y126762D02*
Y129937D01*
Y126762D02*
X47596D01*
Y120412D02*
Y126762D01*
X44421Y120412D02*
X47596D01*
X44421Y117237D02*
Y120412D01*
X38071Y117237D02*
X44421D01*
X38071D02*
Y120412D01*
X34896Y141828D02*
X38071D01*
X34896D02*
Y148178D01*
X38071D01*
Y151353D01*
X44421D01*
Y148178D02*
Y151353D01*
Y148178D02*
X47596D01*
Y141828D02*
Y148178D01*
X44421Y141828D02*
X47596D01*
X44421Y138653D02*
Y141828D01*
X38071Y138653D02*
X44421D01*
X38071D02*
Y141828D01*
X218415Y142875D02*
X221590D01*
X218415D02*
Y149225D01*
X221590D01*
Y152400D01*
X227940D01*
Y149225D02*
Y152400D01*
Y149225D02*
X231115D01*
Y142875D02*
Y149225D01*
X227940Y142875D02*
X231115D01*
X227940Y139700D02*
Y142875D01*
X221590Y139700D02*
X227940D01*
X221590D02*
Y142875D01*
X218415Y134560D02*
X221590D01*
X218415D02*
Y140910D01*
X221590D01*
Y144085D01*
X227940D01*
Y140910D02*
Y144085D01*
Y140910D02*
X231115D01*
Y134560D02*
Y140910D01*
X227940Y134560D02*
X231115D01*
X227940Y131385D02*
Y134560D01*
X221590Y131385D02*
X227940D01*
X221590D02*
Y134560D01*
X90864Y133601D02*
X94039D01*
X90864D02*
Y139951D01*
X94039D01*
Y143126D01*
X100389D01*
Y139951D02*
Y143126D01*
Y139951D02*
X103564D01*
Y133601D02*
Y139951D01*
X100389Y133601D02*
X103564D01*
X100389Y130426D02*
Y133601D01*
X94039Y130426D02*
X100389D01*
X94039D02*
Y133601D01*
X84664D02*
X87839D01*
X84664D02*
Y139951D01*
X87839D01*
Y143126D01*
X94189D01*
Y139951D02*
Y143126D01*
Y139951D02*
X97364D01*
Y133601D02*
Y139951D01*
X94189Y133601D02*
X97364D01*
X94189Y130426D02*
Y133601D01*
X87839Y130426D02*
X94189D01*
X87839D02*
Y133601D01*
X77997Y152933D02*
X81172D01*
X77997D02*
Y159283D01*
X81172D01*
Y162458D01*
X87522D01*
Y159283D02*
Y162458D01*
Y159283D02*
X90697D01*
Y152933D02*
Y159283D01*
X87522Y152933D02*
X90697D01*
X87522Y149758D02*
Y152933D01*
X81172Y149758D02*
X87522D01*
X81172D02*
Y152933D01*
X90752Y170426D02*
X93927D01*
X90752D02*
Y176776D01*
X93927D01*
Y179951D01*
X100277D01*
Y176776D02*
Y179951D01*
Y176776D02*
X103452D01*
Y170426D02*
Y176776D01*
X100277Y170426D02*
X103452D01*
X100277Y167251D02*
Y170426D01*
X93927Y167251D02*
X100277D01*
X93927D02*
Y170426D01*
X84265Y170465D02*
X87441D01*
X84265D02*
Y176815D01*
X87441D01*
Y179990D01*
X93791D01*
Y176815D02*
Y179990D01*
Y176815D02*
X96966D01*
Y170465D02*
Y176815D01*
X93791Y170465D02*
X96966D01*
X93791Y167290D02*
Y170465D01*
X87441Y167290D02*
X93791D01*
X87441D02*
Y170465D01*
D160*
X-891240Y802957D02*
X1022768D01*
X-891240Y780251D02*
X1022768D01*
X-891240Y757544D02*
X1022768D01*
Y825664D01*
X-891240D02*
X1022768D01*
X-891240Y757544D02*
Y825664D01*
X807160Y757544D02*
Y825664D01*
X672819Y757544D02*
Y825664D01*
X467656Y757544D02*
Y825664D01*
X262493Y757544D02*
Y825664D01*
X129968Y757544D02*
Y825664D01*
X28314Y757544D02*
Y825664D01*
X-87868Y757544D02*
Y825664D01*
X-180442Y757544D02*
Y825664D01*
X-368635Y757544D02*
Y825664D01*
X-483000Y757544D02*
Y825664D01*
X-562863Y757544D02*
Y825664D01*
X-720790Y757544D02*
Y825664D01*
X-804566Y757544D02*
Y825664D01*
D166*
X813972Y809769D02*
Y820665D01*
X819420D01*
X821236Y818849D01*
Y815217D01*
X819420Y813401D01*
X813972D01*
X817604D02*
X821236Y809769D01*
X826684D02*
X830316D01*
X832132Y811585D01*
Y815217D01*
X830316Y817033D01*
X826684D01*
X824868Y815217D01*
Y811585D01*
X826684Y809769D01*
X835764Y817033D02*
Y811585D01*
X837580Y809769D01*
X843028D01*
Y817033D01*
X848476Y818849D02*
Y817033D01*
X846660D01*
X850292D01*
X848476D01*
Y811585D01*
X850292Y809769D01*
X861187D02*
X857555D01*
X855739Y811585D01*
Y815217D01*
X857555Y817033D01*
X861187D01*
X863003Y815217D01*
Y813401D01*
X855739D01*
X873899Y820665D02*
Y809769D01*
X868451D01*
X866635Y811585D01*
Y815217D01*
X868451Y817033D01*
X873899D01*
X888427Y809769D02*
Y820665D01*
X893874D01*
X895690Y818849D01*
Y815217D01*
X893874Y813401D01*
X888427D01*
X901138Y817033D02*
X904770D01*
X906586Y815217D01*
Y809769D01*
X901138D01*
X899322Y811585D01*
X901138Y813401D01*
X906586D01*
X912034Y818849D02*
Y817033D01*
X910218D01*
X913850D01*
X912034D01*
Y811585D01*
X913850Y809769D01*
X919298Y820665D02*
Y809769D01*
Y815217D01*
X921114Y817033D01*
X924746D01*
X926562Y815217D01*
Y809769D01*
X941089Y820665D02*
Y809769D01*
X948353D01*
X957433D02*
X953801D01*
X951985Y811585D01*
Y815217D01*
X953801Y817033D01*
X957433D01*
X959249Y815217D01*
Y813401D01*
X951985D01*
X962880Y809769D02*
Y817033D01*
X968328D01*
X970144Y815217D01*
Y809769D01*
X977408Y806137D02*
X979224D01*
X981040Y807953D01*
Y817033D01*
X975592D01*
X973776Y815217D01*
Y811585D01*
X975592Y809769D01*
X981040D01*
X986488Y818849D02*
Y817033D01*
X984672D01*
X988304D01*
X986488D01*
Y811585D01*
X988304Y809769D01*
X993752Y820665D02*
Y809769D01*
Y815217D01*
X995568Y817033D01*
X999200D01*
X1001015Y815217D01*
Y809769D01*
X679631Y820665D02*
Y809769D01*
Y815217D01*
X686895D01*
Y820665D01*
Y809769D01*
X692343D02*
X695975D01*
X697791Y811585D01*
Y815217D01*
X695975Y817033D01*
X692343D01*
X690527Y815217D01*
Y811585D01*
X692343Y809769D01*
X701423D02*
X705055D01*
X703239D01*
Y820665D01*
X701423D01*
X715950Y809769D02*
X712318D01*
X710503Y811585D01*
Y815217D01*
X712318Y817033D01*
X715950D01*
X717766Y815217D01*
Y813401D01*
X710503D01*
X732294Y820665D02*
Y809769D01*
X739558D01*
X748638D02*
X745006D01*
X743190Y811585D01*
Y815217D01*
X745006Y817033D01*
X748638D01*
X750453Y815217D01*
Y813401D01*
X743190D01*
X754085Y809769D02*
Y817033D01*
X759533D01*
X761349Y815217D01*
Y809769D01*
X768613Y806137D02*
X770429D01*
X772245Y807953D01*
Y817033D01*
X766797D01*
X764981Y815217D01*
Y811585D01*
X766797Y809769D01*
X772245D01*
X777693Y818849D02*
Y817033D01*
X775877D01*
X779509D01*
X777693D01*
Y811585D01*
X779509Y809769D01*
X784957Y820665D02*
Y809769D01*
Y815217D01*
X786773Y817033D01*
X790405D01*
X792220Y815217D01*
Y809769D01*
X474468Y820665D02*
Y809769D01*
Y815217D01*
X481732D01*
Y820665D01*
Y809769D01*
X487180D02*
X490812D01*
X492628Y811585D01*
Y815217D01*
X490812Y817033D01*
X487180D01*
X485364Y815217D01*
Y811585D01*
X487180Y809769D01*
X496260D02*
X499892D01*
X498076D01*
Y820665D01*
X496260D01*
X510787Y809769D02*
X507155D01*
X505339Y811585D01*
Y815217D01*
X507155Y817033D01*
X510787D01*
X512603Y815217D01*
Y813401D01*
X505339D01*
X527131Y820665D02*
X534395D01*
X530763D01*
Y809769D01*
X539842D02*
X543474D01*
X545290Y811585D01*
Y815217D01*
X543474Y817033D01*
X539842D01*
X538027Y815217D01*
Y811585D01*
X539842Y809769D01*
X548922D02*
X552554D01*
X550738D01*
Y820665D01*
X548922D01*
X563450Y809769D02*
X559818D01*
X558002Y811585D01*
Y815217D01*
X559818Y817033D01*
X563450D01*
X565266Y815217D01*
Y813401D01*
X558002D01*
X568898Y817033D02*
Y809769D01*
Y813401D01*
X570714Y815217D01*
X572530Y817033D01*
X574346D01*
X581609D02*
X585241D01*
X587057Y815217D01*
Y809769D01*
X581609D01*
X579793Y811585D01*
X581609Y813401D01*
X587057D01*
X590689Y809769D02*
Y817033D01*
X596137D01*
X597953Y815217D01*
Y809769D01*
X608849Y817033D02*
X603401D01*
X601585Y815217D01*
Y811585D01*
X603401Y809769D01*
X608849D01*
X617928D02*
X614296D01*
X612481Y811585D01*
Y815217D01*
X614296Y817033D01*
X617928D01*
X619744Y815217D01*
Y813401D01*
X612481D01*
X637904Y809769D02*
X634272Y813401D01*
Y817033D01*
X637904Y820665D01*
X643352Y815217D02*
X650616D01*
X654248Y809769D02*
X657879Y813401D01*
Y817033D01*
X654248Y820665D01*
X269305D02*
Y809769D01*
Y815217D01*
X276569D01*
Y820665D01*
Y809769D01*
X282017D02*
X285649D01*
X287465Y811585D01*
Y815217D01*
X285649Y817033D01*
X282017D01*
X280201Y815217D01*
Y811585D01*
X282017Y809769D01*
X291096D02*
X294728D01*
X292912D01*
Y820665D01*
X291096D01*
X305624Y809769D02*
X301992D01*
X300176Y811585D01*
Y815217D01*
X301992Y817033D01*
X305624D01*
X307440Y815217D01*
Y813401D01*
X300176D01*
X321968Y820665D02*
X329231D01*
X325600D01*
Y809769D01*
X334679D02*
X338311D01*
X340127Y811585D01*
Y815217D01*
X338311Y817033D01*
X334679D01*
X332863Y815217D01*
Y811585D01*
X334679Y809769D01*
X343759D02*
X347391D01*
X345575D01*
Y820665D01*
X343759D01*
X358287Y809769D02*
X354655D01*
X352839Y811585D01*
Y815217D01*
X354655Y817033D01*
X358287D01*
X360103Y815217D01*
Y813401D01*
X352839D01*
X363735Y817033D02*
Y809769D01*
Y813401D01*
X365550Y815217D01*
X367366Y817033D01*
X369182D01*
X376446D02*
X380078D01*
X381894Y815217D01*
Y809769D01*
X376446D01*
X374630Y811585D01*
X376446Y813401D01*
X381894D01*
X385526Y809769D02*
Y817033D01*
X390974D01*
X392790Y815217D01*
Y809769D01*
X403685Y817033D02*
X398238D01*
X396422Y815217D01*
Y811585D01*
X398238Y809769D01*
X403685D01*
X412765D02*
X409133D01*
X407317Y811585D01*
Y815217D01*
X409133Y817033D01*
X412765D01*
X414581Y815217D01*
Y813401D01*
X407317D01*
X432741Y809769D02*
X429109Y813401D01*
Y817033D01*
X432741Y820665D01*
X438189Y815217D02*
X445452D01*
X441820Y818849D02*
Y811585D01*
X449084Y809769D02*
X452716Y813401D01*
Y817033D01*
X449084Y820665D01*
X136780D02*
Y809769D01*
X142228D01*
X144044Y811585D01*
Y818849D01*
X142228Y820665D01*
X136780D01*
X153124Y809769D02*
X149492D01*
X147676Y811585D01*
Y815217D01*
X149492Y817033D01*
X153124D01*
X154939Y815217D01*
Y813401D01*
X147676D01*
X158571Y809769D02*
X164019D01*
X165835Y811585D01*
X164019Y813401D01*
X160387D01*
X158571Y815217D01*
X160387Y817033D01*
X165835D01*
X176731D02*
X171283D01*
X169467Y815217D01*
Y811585D01*
X171283Y809769D01*
X176731D01*
X180363Y817033D02*
Y809769D01*
Y813401D01*
X182179Y815217D01*
X183995Y817033D01*
X185811D01*
X191258Y809769D02*
X194890D01*
X193074D01*
Y817033D01*
X191258D01*
X200338Y806137D02*
Y817033D01*
X205786D01*
X207602Y815217D01*
Y811585D01*
X205786Y809769D01*
X200338D01*
X213050Y818849D02*
Y817033D01*
X211234D01*
X214866D01*
X213050D01*
Y811585D01*
X214866Y809769D01*
X220314D02*
X223946D01*
X222130D01*
Y817033D01*
X220314D01*
X231209Y809769D02*
X234841D01*
X236657Y811585D01*
Y815217D01*
X234841Y817033D01*
X231209D01*
X229393Y815217D01*
Y811585D01*
X231209Y809769D01*
X240289D02*
Y817033D01*
X245737D01*
X247553Y815217D01*
Y809769D01*
X35126Y820665D02*
X42390D01*
X38758D01*
Y809769D01*
X51469D02*
X47838D01*
X46022Y811585D01*
Y815217D01*
X47838Y817033D01*
X51469D01*
X53285Y815217D01*
Y813401D01*
X46022D01*
X56917Y809769D02*
Y817033D01*
X58733D01*
X60549Y815217D01*
Y809769D01*
Y815217D01*
X62365Y817033D01*
X64181Y815217D01*
Y809769D01*
X67813Y806137D02*
Y817033D01*
X73261D01*
X75077Y815217D01*
Y811585D01*
X73261Y809769D01*
X67813D01*
X78709D02*
X82341D01*
X80525D01*
Y820665D01*
X78709D01*
X89605Y817033D02*
X93236D01*
X95052Y815217D01*
Y809769D01*
X89605D01*
X87788Y811585D01*
X89605Y813401D01*
X95052D01*
X100500Y818849D02*
Y817033D01*
X98684D01*
X102316D01*
X100500D01*
Y811585D01*
X102316Y809769D01*
X113212D02*
X109580D01*
X107764Y811585D01*
Y815217D01*
X109580Y817033D01*
X113212D01*
X115028Y815217D01*
Y813401D01*
X107764D01*
X-81056Y809769D02*
Y820665D01*
X-75608D01*
X-73792Y818849D01*
Y815217D01*
X-75608Y813401D01*
X-81056D01*
X-68344Y817033D02*
X-64712D01*
X-62896Y815217D01*
Y809769D01*
X-68344D01*
X-70160Y811585D01*
X-68344Y813401D01*
X-62896D01*
X-52000Y820665D02*
Y809769D01*
X-57448D01*
X-59264Y811585D01*
Y815217D01*
X-57448Y817033D01*
X-52000D01*
X-30209Y818849D02*
X-32025Y820665D01*
X-35657D01*
X-37473Y818849D01*
Y817033D01*
X-35657Y815217D01*
X-32025D01*
X-30209Y813401D01*
Y811585D01*
X-32025Y809769D01*
X-35657D01*
X-37473Y811585D01*
X-26577Y820665D02*
Y809769D01*
Y815217D01*
X-24761Y817033D01*
X-21129D01*
X-19313Y815217D01*
Y809769D01*
X-13865Y817033D02*
X-10234D01*
X-8418Y815217D01*
Y809769D01*
X-13865D01*
X-15681Y811585D01*
X-13865Y813401D01*
X-8418D01*
X-4786Y806137D02*
Y817033D01*
X662D01*
X2478Y815217D01*
Y811585D01*
X662Y809769D01*
X-4786D01*
X11558D02*
X7926D01*
X6110Y811585D01*
Y815217D01*
X7926Y817033D01*
X11558D01*
X13374Y815217D01*
Y813401D01*
X6110D01*
X-173630Y820665D02*
Y813401D01*
X-169998Y809769D01*
X-166366Y813401D01*
Y820665D01*
X-162734Y809769D02*
X-159102D01*
X-160918D01*
Y817033D01*
X-162734D01*
X-151838D02*
X-148207D01*
X-146390Y815217D01*
Y809769D01*
X-151838D01*
X-153654Y811585D01*
X-151838Y813401D01*
X-146390D01*
X-142759Y809769D02*
X-135495Y817033D01*
X-131863Y809769D02*
Y820665D01*
X-126415D01*
X-124599Y818849D01*
Y815217D01*
X-126415Y813401D01*
X-131863D01*
X-119151Y817033D02*
X-115519D01*
X-113703Y815217D01*
Y809769D01*
X-119151D01*
X-120967Y811585D01*
X-119151Y813401D01*
X-113703D01*
X-102808Y820665D02*
Y809769D01*
X-108256D01*
X-110071Y811585D01*
Y815217D01*
X-108256Y817033D01*
X-102808D01*
X-361823Y820665D02*
Y809769D01*
X-356375D01*
X-354559Y811585D01*
Y818849D01*
X-356375Y820665D01*
X-361823D01*
X-350927Y817033D02*
Y809769D01*
Y813401D01*
X-349111Y815217D01*
X-347295Y817033D01*
X-345479D01*
X-340031Y809769D02*
X-336399D01*
X-338215D01*
Y817033D01*
X-340031D01*
X-330952Y809769D02*
X-327320D01*
X-329136D01*
Y820665D01*
X-330952D01*
X-321872Y809769D02*
X-318240D01*
X-320056D01*
Y820665D01*
X-321872D01*
X-301896D02*
Y809769D01*
X-294632D01*
X-289185Y817033D02*
X-285553D01*
X-283737Y815217D01*
Y809769D01*
X-289185D01*
X-291001Y811585D01*
X-289185Y813401D01*
X-283737D01*
X-280105Y817033D02*
Y811585D01*
X-278289Y809769D01*
X-272841D01*
Y807953D01*
X-274657Y806137D01*
X-276473D01*
X-272841Y809769D02*
Y817033D01*
X-263761Y809769D02*
X-267393D01*
X-269209Y811585D01*
Y815217D01*
X-267393Y817033D01*
X-263761D01*
X-261945Y815217D01*
Y813401D01*
X-269209D01*
X-258314Y817033D02*
Y809769D01*
Y813401D01*
X-256498Y815217D01*
X-254682Y817033D01*
X-252866D01*
X-236522Y809769D02*
Y820665D01*
X-231074D01*
X-229258Y818849D01*
Y815217D01*
X-231074Y813401D01*
X-236522D01*
X-223810Y817033D02*
X-220179D01*
X-218363Y815217D01*
Y809769D01*
X-223810D01*
X-225626Y811585D01*
X-223810Y813401D01*
X-218363D01*
X-214731Y809769D02*
X-211099D01*
X-212915D01*
Y817033D01*
X-214731D01*
X-205651D02*
Y809769D01*
Y813401D01*
X-203835Y815217D01*
X-202019Y817033D01*
X-200203D01*
X-476188Y820665D02*
Y809769D01*
Y815217D01*
X-468925D01*
Y820665D01*
Y809769D01*
X-463477D02*
X-459845D01*
X-458029Y811585D01*
Y815217D01*
X-459845Y817033D01*
X-463477D01*
X-465293Y815217D01*
Y811585D01*
X-463477Y809769D01*
X-454397D02*
X-450765D01*
X-452581D01*
Y820665D01*
X-454397D01*
X-439869Y809769D02*
X-443501D01*
X-445317Y811585D01*
Y815217D01*
X-443501Y817033D01*
X-439869D01*
X-438053Y815217D01*
Y813401D01*
X-445317D01*
X-423526Y820665D02*
X-416262D01*
X-419894D01*
Y809769D01*
X-412630Y817033D02*
Y811585D01*
X-410814Y809769D01*
X-405366D01*
Y807953D01*
X-407182Y806137D01*
X-408998D01*
X-405366Y809769D02*
Y817033D01*
X-401734Y806137D02*
Y817033D01*
X-396287D01*
X-394470Y815217D01*
Y811585D01*
X-396287Y809769D01*
X-401734D01*
X-385391D02*
X-389023D01*
X-390839Y811585D01*
Y815217D01*
X-389023Y817033D01*
X-385391D01*
X-383575Y815217D01*
Y813401D01*
X-390839D01*
X-556051Y809769D02*
Y820665D01*
X-550603D01*
X-548787Y818849D01*
Y815217D01*
X-550603Y813401D01*
X-556051D01*
X-545155Y809769D02*
X-541523D01*
X-543339D01*
Y820665D01*
X-545155D01*
X-534259Y817033D02*
X-530628D01*
X-528812Y815217D01*
Y809769D01*
X-534259D01*
X-536075Y811585D01*
X-534259Y813401D01*
X-528812D01*
X-523364Y818849D02*
Y817033D01*
X-525180D01*
X-521548D01*
X-523364D01*
Y811585D01*
X-521548Y809769D01*
X-510652D02*
X-514284D01*
X-516100Y811585D01*
Y815217D01*
X-514284Y817033D01*
X-510652D01*
X-508836Y815217D01*
Y813401D01*
X-516100D01*
X-497940Y820665D02*
Y809769D01*
X-503388D01*
X-505204Y811585D01*
Y815217D01*
X-503388Y817033D01*
X-497940D01*
X-713978Y820665D02*
Y809769D01*
Y815217D01*
X-706714D01*
Y820665D01*
Y809769D01*
X-701266D02*
X-697635D01*
X-695818Y811585D01*
Y815217D01*
X-697635Y817033D01*
X-701266D01*
X-703082Y815217D01*
Y811585D01*
X-701266Y809769D01*
X-692187D02*
X-688555D01*
X-690371D01*
Y820665D01*
X-692187D01*
X-677659Y809769D02*
X-681291D01*
X-683107Y811585D01*
Y815217D01*
X-681291Y817033D01*
X-677659D01*
X-675843Y815217D01*
Y813401D01*
X-683107D01*
X-654052Y818849D02*
X-655868Y820665D01*
X-659500D01*
X-661316Y818849D01*
Y817033D01*
X-659500Y815217D01*
X-655868D01*
X-654052Y813401D01*
Y811585D01*
X-655868Y809769D01*
X-659500D01*
X-661316Y811585D01*
X-650420Y809769D02*
X-646788D01*
X-648604D01*
Y817033D01*
X-650420D01*
X-641340D02*
X-634076D01*
X-641340Y809769D01*
X-634076D01*
X-624996D02*
X-628628D01*
X-630444Y811585D01*
Y815217D01*
X-628628Y817033D01*
X-624996D01*
X-623181Y815217D01*
Y813401D01*
X-630444D01*
X-790490Y818849D02*
X-792306Y820665D01*
X-795938D01*
X-797754Y818849D01*
Y811585D01*
X-795938Y809769D01*
X-792306D01*
X-790490Y811585D01*
X-785042Y809769D02*
X-781410D01*
X-779594Y811585D01*
Y815217D01*
X-781410Y817033D01*
X-785042D01*
X-786858Y815217D01*
Y811585D01*
X-785042Y809769D01*
X-775962Y817033D02*
Y811585D01*
X-774146Y809769D01*
X-768699D01*
Y817033D01*
X-765067Y809769D02*
Y817033D01*
X-759619D01*
X-757803Y815217D01*
Y809769D01*
X-752355Y818849D02*
Y817033D01*
X-754171D01*
X-750539D01*
X-752355D01*
Y811585D01*
X-750539Y809769D01*
X-870352Y818849D02*
X-872168Y820665D01*
X-875800D01*
X-877616Y818849D01*
Y817033D01*
X-875800Y815217D01*
X-872168D01*
X-870352Y813401D01*
Y811585D01*
X-872168Y809769D01*
X-875800D01*
X-877616Y811585D01*
X-866721Y817033D02*
Y811585D01*
X-864905Y809769D01*
X-859457D01*
Y807953D01*
X-861273Y806137D01*
X-863089D01*
X-859457Y809769D02*
Y817033D01*
X-855825Y809769D02*
Y817033D01*
X-854009D01*
X-852193Y815217D01*
Y809769D01*
Y815217D01*
X-850377Y817033D01*
X-848561Y815217D01*
Y809769D01*
X-844929Y820665D02*
Y809769D01*
X-839481D01*
X-837665Y811585D01*
Y813401D01*
Y815217D01*
X-839481Y817033D01*
X-844929D01*
X-832217Y809769D02*
X-828586D01*
X-826770Y811585D01*
Y815217D01*
X-828586Y817033D01*
X-832217D01*
X-834033Y815217D01*
Y811585D01*
X-832217Y809769D01*
X-823138D02*
X-819506D01*
X-821322D01*
Y820665D01*
X-823138D01*
M02*
