G04*
G04 #@! TF.GenerationSoftware,Altium Limited,Altium Designer,24.9.1 (31)*
G04*
G04 Layer_Color=65535*
%FSLAX44Y44*%
%MOMM*%
G71*
G04*
G04 #@! TF.SameCoordinates,7AD2B3B8-D285-4593-8982-C88D0E3F9F4F*
G04*
G04*
G04 #@! TF.FilePolarity,Positive*
G04*
G01*
G75*
%ADD10C,0.2000*%
%ADD11C,0.1000*%
%ADD12C,0.1500*%
%ADD13C,0.2500*%
%ADD14C,0.2540*%
G36*
X280000Y232000D02*
X275000Y234000D01*
X280000Y236000D01*
Y232000D01*
D02*
G37*
G36*
X161849Y391731D02*
X161997Y391713D01*
X162145Y391694D01*
X162182D01*
X162256Y391676D01*
X162349Y391638D01*
X162423Y391601D01*
X162441Y391583D01*
X162478Y391564D01*
X162515Y391509D01*
X162534Y391453D01*
Y391435D01*
Y391398D01*
X162534Y391342D01*
X162515Y391268D01*
Y391250D01*
X162478Y391194D01*
X162441Y391120D01*
X162404Y391009D01*
X162348Y390861D01*
X162274Y390694D01*
X162200Y390490D01*
X162126Y390287D01*
X162052Y390046D01*
X161959Y389805D01*
X161792Y389250D01*
X161644Y388658D01*
X161496Y388047D01*
Y388028D01*
X161477Y387973D01*
X161459Y387880D01*
X161440Y387769D01*
X161422Y387602D01*
X161384Y387436D01*
X161366Y387232D01*
X161329Y387010D01*
X161292Y386750D01*
X161273Y386491D01*
X161217Y385917D01*
X161180Y385288D01*
X161161Y384640D01*
Y384621D01*
X161161Y384566D01*
X161161Y384473D01*
X161161Y384343D01*
X161180Y384195D01*
X161180Y384010D01*
X161198Y383788D01*
X161198Y383566D01*
X161216Y383306D01*
X161235Y383047D01*
X161308Y382473D01*
X161382Y381862D01*
X161493Y381251D01*
X161493Y381232D01*
X161512Y381177D01*
X161530Y381084D01*
X161567Y380973D01*
X161604Y380825D01*
X161641Y380640D01*
X161697Y380455D01*
X161752Y380233D01*
X161900Y379733D01*
X162066Y379196D01*
X162270Y378621D01*
X162511Y378029D01*
Y378010D01*
X162529Y377955D01*
X162547Y377807D01*
Y377788D01*
X162529Y377751D01*
X162510Y377714D01*
X162455Y377659D01*
X162436Y377640D01*
X162399Y377621D01*
X162307Y377584D01*
X162195Y377547D01*
X162159Y377547D01*
X162066Y377529D01*
X161899Y377510D01*
X161436Y377511D01*
X161307Y377529D01*
X161288D01*
X161214Y377548D01*
X161140Y377566D01*
X161047Y377585D01*
X161029D01*
X160992Y377603D01*
X160936Y377622D01*
X160881Y377659D01*
X160844Y377677D01*
X160807Y377752D01*
Y377770D01*
X160788Y377789D01*
X160733Y377900D01*
X160640Y378066D01*
X160548Y378270D01*
X160418Y378530D01*
X160289Y378807D01*
X160159Y379122D01*
X160030Y379437D01*
Y379455D01*
X160011Y379474D01*
X159974Y379585D01*
X159919Y379752D01*
X159845Y379955D01*
X159752Y380215D01*
X159678Y380493D01*
X159586Y380807D01*
X159493Y381122D01*
Y381141D01*
Y381159D01*
X159456Y381270D01*
X159419Y381437D01*
X159382Y381659D01*
X159327Y381918D01*
X159272Y382215D01*
X159216Y382529D01*
X159179Y382844D01*
X159179Y382863D01*
Y382881D01*
X159161Y382992D01*
X159142Y383178D01*
X159142Y383400D01*
X159124Y383677D01*
X159106Y383974D01*
X159087Y384307D01*
X159087Y384640D01*
Y384659D01*
Y384677D01*
X159087Y384789D01*
X159087Y384974D01*
X159106Y385196D01*
X159106Y385455D01*
X159125Y385751D01*
X159143Y386066D01*
X159180Y386399D01*
Y386418D01*
Y386437D01*
X159199Y386548D01*
X159236Y386733D01*
X159255Y386955D01*
X159310Y387214D01*
X159366Y387510D01*
X159496Y388140D01*
X159496Y388158D01*
X159515Y388177D01*
X159533Y388288D01*
X159589Y388455D01*
X159644Y388677D01*
X159718Y388936D01*
X159811Y389232D01*
X160033Y389843D01*
Y389862D01*
X160052Y389880D01*
X160089Y389991D01*
X160163Y390158D01*
X160256Y390380D01*
X160367Y390639D01*
X160497Y390917D01*
X160645Y391232D01*
X160793Y391547D01*
Y391565D01*
X160812Y391584D01*
X160849Y391602D01*
X160867D01*
X160886Y391620D01*
X160997Y391657D01*
X161016D01*
X161071Y391676D01*
X161145Y391694D01*
X161256Y391713D01*
X161293Y391713D01*
X161367Y391731D01*
X161849Y391731D01*
D02*
G37*
G36*
X191920Y391721D02*
X192049Y391702D01*
X192086Y391702D01*
X192142Y391683D01*
X192235Y391665D01*
X192309Y391646D01*
X192327D01*
X192364Y391628D01*
X192420Y391609D01*
X192457Y391591D01*
X192475D01*
X192494Y391572D01*
X192549Y391535D01*
X192568Y391516D01*
X192586Y391461D01*
X192623Y391368D01*
X192679Y391239D01*
X192753Y391091D01*
X192827Y390905D01*
X192919Y390702D01*
X193012Y390479D01*
X193123Y390220D01*
X193215Y389961D01*
X193437Y389387D01*
X193641Y388776D01*
X193807Y388128D01*
Y388109D01*
X193826Y388054D01*
X193844Y387961D01*
X193881Y387831D01*
X193918Y387683D01*
X193955Y387498D01*
X193992Y387276D01*
X194029Y387053D01*
X194066Y386794D01*
X194103Y386516D01*
X194177Y385924D01*
X194232Y385294D01*
X194250Y384628D01*
X194250Y384609D01*
Y384591D01*
X194250Y384535D01*
Y384480D01*
X194250Y384295D01*
X194232Y384072D01*
X194231Y383795D01*
X194213Y383480D01*
X194176Y383165D01*
X194139Y382832D01*
Y382813D01*
Y382795D01*
X194120Y382683D01*
X194101Y382517D01*
X194064Y382295D01*
X194009Y382035D01*
X193953Y381739D01*
X193879Y381424D01*
X193805Y381110D01*
X193805Y381073D01*
X193768Y380962D01*
X193731Y380795D01*
X193656Y380573D01*
X193582Y380332D01*
X193508Y380036D01*
X193397Y379740D01*
X193286Y379425D01*
X193267Y379388D01*
X193230Y379277D01*
X193156Y379110D01*
X193082Y378888D01*
X192971Y378647D01*
X192841Y378351D01*
X192693Y378055D01*
X192544Y377740D01*
X192526Y377703D01*
X192452Y377648D01*
X192433D01*
X192415Y377611D01*
X192359Y377592D01*
X192285Y377574D01*
X192267Y377574D01*
X192211Y377555D01*
X192118Y377537D01*
X192007Y377518D01*
X191915Y377518D01*
X191785Y377500D01*
X191452Y377500D01*
X191285Y377518D01*
X191119Y377537D01*
X191081Y377537D01*
X191007Y377574D01*
X190915Y377593D01*
X190841Y377648D01*
X190822Y377667D01*
X190804Y377685D01*
X190785Y377741D01*
X190767Y377796D01*
Y377815D01*
X190767Y377852D01*
X190785Y377926D01*
X190822Y378018D01*
Y378037D01*
X190859Y378093D01*
X190878Y378167D01*
X190934Y378296D01*
X190989Y378426D01*
X191045Y378592D01*
X191119Y378796D01*
X191193Y379000D01*
X191286Y379240D01*
X191360Y379481D01*
X191527Y380018D01*
X191694Y380611D01*
X191842Y381222D01*
X191842Y381240D01*
X191861Y381296D01*
X191879Y381388D01*
X191898Y381518D01*
X191916Y381666D01*
X191953Y381833D01*
X191990Y382055D01*
X192027Y382277D01*
X192046Y382518D01*
X192083Y382795D01*
X192139Y383369D01*
X192176Y383980D01*
X192195Y384628D01*
Y384647D01*
X192195Y384703D01*
X192195Y384795D01*
X192195Y384925D01*
X192177Y385091D01*
X192177Y385277D01*
X192158Y385480D01*
X192158Y385721D01*
X192140Y385962D01*
X192103Y386240D01*
X192048Y386814D01*
X191955Y387425D01*
X191844Y388036D01*
Y388054D01*
X191826Y388110D01*
X191807Y388202D01*
X191789Y388313D01*
X191752Y388462D01*
X191696Y388647D01*
X191641Y388851D01*
X191586Y389073D01*
X191438Y389554D01*
X191271Y390091D01*
X191068Y390665D01*
X190827Y391258D01*
Y391276D01*
X190809Y391332D01*
X190790Y391388D01*
Y391443D01*
X190790Y391462D01*
X190809Y391499D01*
X190846Y391554D01*
X190901Y391591D01*
X190920Y391610D01*
X190975Y391628D01*
X191049Y391647D01*
X191179Y391684D01*
X191216D01*
X191309Y391702D01*
X191457Y391721D01*
X191920Y391721D01*
D02*
G37*
G36*
X112872Y390897D02*
X113057Y390879D01*
X113261Y390860D01*
X113483Y390823D01*
X113927Y390712D01*
X113946D01*
X114020Y390675D01*
X114131Y390638D01*
X114279Y390582D01*
X114594Y390434D01*
X114761Y390322D01*
X114909Y390211D01*
X114927Y390193D01*
X114983Y390156D01*
X115057Y390082D01*
X115131Y389989D01*
X115242Y389859D01*
X115334Y389711D01*
X115427Y389563D01*
X115520Y389378D01*
X115538Y389359D01*
X115556Y389285D01*
X115593Y389193D01*
X115630Y389063D01*
X115667Y388896D01*
X115686Y388730D01*
X115723Y388526D01*
X115723Y388304D01*
X115723Y388285D01*
Y388230D01*
X115723Y388137D01*
X115704Y388008D01*
X115686Y387878D01*
X115667Y387730D01*
X115593Y387415D01*
Y387397D01*
X115574Y387341D01*
X115537Y387267D01*
X115500Y387174D01*
X115389Y386934D01*
X115241Y386674D01*
X115222Y386656D01*
X115204Y386619D01*
X115148Y386563D01*
X115074Y386489D01*
X114889Y386323D01*
X114648Y386138D01*
X114629D01*
X114592Y386101D01*
X114518Y386064D01*
X114426Y386008D01*
X114315Y385953D01*
X114166Y385897D01*
X113852Y385805D01*
Y385786D01*
X113870D01*
X113944Y385768D01*
X114055Y385749D01*
X114185Y385731D01*
X114333Y385694D01*
X114500Y385638D01*
X114833Y385508D01*
X114852D01*
X114907Y385471D01*
X114981Y385434D01*
X115092Y385360D01*
X115333Y385193D01*
X115573Y384971D01*
X115592Y384952D01*
X115629Y384915D01*
X115684Y384841D01*
X115740Y384767D01*
X115814Y384656D01*
X115888Y384526D01*
X116036Y384249D01*
Y384230D01*
X116055Y384174D01*
X116092Y384100D01*
X116129Y383989D01*
X116147Y383860D01*
X116184Y383712D01*
X116202Y383378D01*
X116202Y383341D01*
X116202Y383249D01*
X116184Y383101D01*
X116165Y382915D01*
X116128Y382712D01*
X116073Y382471D01*
X115998Y382230D01*
X115906Y382008D01*
X115887Y381990D01*
X115850Y381916D01*
X115776Y381805D01*
X115683Y381656D01*
X115572Y381508D01*
X115424Y381323D01*
X115257Y381157D01*
X115072Y380990D01*
X115054Y380971D01*
X114979Y380916D01*
X114868Y380842D01*
X114720Y380768D01*
X114516Y380657D01*
X114313Y380564D01*
X114053Y380472D01*
X113794Y380379D01*
X113757D01*
X113665Y380342D01*
X113516Y380324D01*
X113331Y380287D01*
X113090Y380250D01*
X112813Y380213D01*
X112516Y380195D01*
X112202Y380176D01*
X112016Y380176D01*
X111868Y380195D01*
X111720Y380195D01*
X111554Y380214D01*
X111202Y380269D01*
X111183D01*
X111128Y380288D01*
X111035Y380306D01*
X110924Y380325D01*
X110665Y380381D01*
X110387Y380436D01*
X110369Y380436D01*
X110332Y380455D01*
X110258Y380473D01*
X110183Y380510D01*
X109998Y380584D01*
X109795Y380677D01*
X109758Y380696D01*
X109684Y380751D01*
X109572Y380807D01*
X109499Y380862D01*
X109480Y380881D01*
X109461Y380899D01*
X109387Y380992D01*
Y381011D01*
X109369Y381048D01*
X109351Y381122D01*
X109313Y381196D01*
Y381214D01*
X109295Y381270D01*
X109295Y381344D01*
X109277Y381455D01*
X109277Y381492D01*
X109277Y381566D01*
X109277Y381696D01*
X109277Y381862D01*
X109277Y381881D01*
Y381918D01*
X109277Y381992D01*
X109277Y382085D01*
X109295Y382251D01*
X109314Y382325D01*
X109332Y382399D01*
X109351Y382418D01*
X109369Y382473D01*
X109444Y382529D01*
X109518Y382547D01*
X109536Y382547D01*
X109592Y382529D01*
X109666Y382510D01*
X109795Y382436D01*
X109814Y382436D01*
X109832Y382418D01*
X109943Y382362D01*
X110091Y382288D01*
X110295Y382195D01*
X110314Y382195D01*
X110351Y382177D01*
X110425Y382158D01*
X110499Y382121D01*
X110610Y382084D01*
X110739Y382047D01*
X111017Y381954D01*
X111036D01*
X111091Y381936D01*
X111165Y381917D01*
X111295Y381917D01*
X111425Y381899D01*
X111573Y381880D01*
X111943Y381861D01*
X112110Y381861D01*
X112202Y381880D01*
X112462Y381898D01*
X112721Y381954D01*
X112739D01*
X112776Y381972D01*
X112832Y381991D01*
X112924Y382028D01*
X113110Y382120D01*
X113295Y382250D01*
X113313D01*
X113332Y382287D01*
X113425Y382379D01*
X113554Y382509D01*
X113647Y382694D01*
Y382713D01*
X113665Y382750D01*
X113684Y382805D01*
X113721Y382879D01*
X113758Y383064D01*
X113777Y383305D01*
Y383324D01*
X113777Y383361D01*
X113777Y383435D01*
X113758Y383509D01*
X113721Y383712D01*
X113629Y383935D01*
Y383953D01*
X113610Y383990D01*
X113573Y384046D01*
X113518Y384101D01*
X113388Y384268D01*
X113203Y384435D01*
X113185Y384453D01*
X113148Y384472D01*
X113092Y384509D01*
X113018Y384546D01*
X112907Y384602D01*
X112796Y384657D01*
X112500Y384750D01*
X112481Y384750D01*
X112425Y384768D01*
X112333Y384787D01*
X112222Y384824D01*
X112074Y384842D01*
X111907Y384861D01*
X111722Y384880D01*
X110555Y384880D01*
X110444Y384899D01*
X110426Y384899D01*
X110407Y384936D01*
X110315Y385010D01*
Y385028D01*
X110296Y385084D01*
X110278Y385158D01*
X110259Y385251D01*
X110259Y385288D01*
X110259Y385362D01*
X110241Y385491D01*
X110241Y385658D01*
Y385676D01*
X110241Y385695D01*
X110241Y385788D01*
X110241Y385917D01*
X110260Y386028D01*
X110260Y386047D01*
X110278Y386121D01*
X110297Y386176D01*
X110315Y386250D01*
Y386269D01*
X110352Y386306D01*
X110371Y386343D01*
X110426Y386380D01*
X110445Y386380D01*
X110482Y386399D01*
X110593Y386417D01*
X111667Y386417D01*
X111778Y386435D01*
X112037Y386454D01*
X112315Y386509D01*
X112334D01*
X112371Y386527D01*
X112445Y386564D01*
X112519Y386583D01*
X112723Y386694D01*
X112908Y386824D01*
X112926Y386842D01*
X112945Y386861D01*
X113056Y386953D01*
X113186Y387120D01*
X113297Y387305D01*
X113297Y387323D01*
X113315Y387360D01*
X113334Y387416D01*
X113371Y387490D01*
X113408Y387694D01*
X113427Y387934D01*
X113427Y387953D01*
Y387990D01*
X113408Y388101D01*
X113390Y388268D01*
X113334Y388434D01*
Y388453D01*
X113316Y388471D01*
X113260Y388582D01*
X113186Y388712D01*
X113075Y388842D01*
X113038Y388879D01*
X112964Y388953D01*
X112816Y389045D01*
X112631Y389120D01*
X112612Y389120D01*
X112575Y389138D01*
X112520Y389157D01*
X112446Y389175D01*
X112242Y389212D01*
X112001Y389231D01*
X111853Y389231D01*
X111742Y389213D01*
X111483Y389176D01*
X111205Y389102D01*
X111187D01*
X111149Y389083D01*
X111075Y389046D01*
X111001Y389028D01*
X110779Y388935D01*
X110557Y388824D01*
X110538D01*
X110501Y388806D01*
X110446Y388769D01*
X110390Y388732D01*
X110223Y388639D01*
X110057Y388547D01*
X110020Y388528D01*
X109946Y388491D01*
X109853Y388454D01*
X109761Y388436D01*
X109723Y388436D01*
X109649Y388454D01*
X109631Y388491D01*
X109575Y388565D01*
X109575Y388584D01*
X109557Y388621D01*
X109538Y388695D01*
X109520Y388787D01*
Y388825D01*
X109520Y388899D01*
X109520Y389028D01*
X109520Y389195D01*
X109520Y389213D01*
Y389232D01*
X109520Y389306D01*
X109520Y389417D01*
X109520Y389528D01*
Y389547D01*
X109520Y389602D01*
X109520Y389676D01*
X109539Y389732D01*
Y389750D01*
X109557Y389787D01*
X109613Y389880D01*
Y389898D01*
X109650Y389935D01*
X109724Y390028D01*
X109742Y390047D01*
X109798Y390102D01*
X109891Y390176D01*
X110039Y390269D01*
X110057D01*
X110094Y390287D01*
X110150Y390324D01*
X110224Y390361D01*
X110409Y390454D01*
X110668Y390546D01*
X110687D01*
X110743Y390565D01*
X110817Y390602D01*
X110928Y390639D01*
X111057Y390676D01*
X111206Y390713D01*
X111539Y390787D01*
X111557D01*
X111631Y390805D01*
X111724Y390824D01*
X111854Y390842D01*
X112020Y390860D01*
X112205Y390879D01*
X112613Y390897D01*
X112872Y390897D01*
D02*
G37*
G36*
X133870Y390890D02*
X134055Y390871D01*
X134259Y390852D01*
X134481Y390815D01*
X134925Y390704D01*
X134944D01*
X135018Y390667D01*
X135129Y390630D01*
X135277Y390574D01*
X135592Y390426D01*
X135758Y390315D01*
X135906Y390204D01*
X135925Y390185D01*
X135981Y390148D01*
X136055Y390074D01*
X136129Y389981D01*
X136240Y389852D01*
X136332Y389704D01*
X136425Y389556D01*
X136517Y389370D01*
X136536Y389352D01*
X136554Y389278D01*
X136591Y389185D01*
X136628Y389055D01*
X136665Y388889D01*
X136684Y388722D01*
X136721Y388518D01*
X136721Y388296D01*
X136721Y388278D01*
Y388222D01*
X136721Y388130D01*
X136702Y388000D01*
X136683Y387870D01*
X136665Y387722D01*
X136591Y387407D01*
Y387389D01*
X136572Y387333D01*
X136535Y387259D01*
X136498Y387167D01*
X136387Y386926D01*
X136239Y386667D01*
X136220Y386648D01*
X136201Y386611D01*
X136146Y386556D01*
X136072Y386482D01*
X135887Y386315D01*
X135646Y386130D01*
X135627D01*
X135590Y386093D01*
X135516Y386056D01*
X135424Y386001D01*
X135312Y385945D01*
X135164Y385890D01*
X134850Y385797D01*
Y385779D01*
X134868D01*
X134942Y385760D01*
X135053Y385742D01*
X135183Y385723D01*
X135331Y385686D01*
X135498Y385630D01*
X135831Y385500D01*
X135849D01*
X135905Y385463D01*
X135979Y385426D01*
X136090Y385352D01*
X136331Y385186D01*
X136571Y384963D01*
X136590Y384945D01*
X136627Y384908D01*
X136682Y384834D01*
X136738Y384760D01*
X136812Y384648D01*
X136886Y384519D01*
X137034Y384241D01*
Y384222D01*
X137052Y384167D01*
X137089Y384093D01*
X137126Y383982D01*
X137145Y383852D01*
X137182Y383704D01*
X137200Y383371D01*
X137200Y383334D01*
X137200Y383241D01*
X137182Y383093D01*
X137163Y382908D01*
X137126Y382704D01*
X137070Y382463D01*
X136996Y382223D01*
X136903Y382001D01*
X136885Y381982D01*
X136848Y381908D01*
X136774Y381797D01*
X136681Y381649D01*
X136570Y381501D01*
X136422Y381316D01*
X136255Y381149D01*
X136070Y380982D01*
X136051Y380964D01*
X135977Y380908D01*
X135866Y380834D01*
X135718Y380760D01*
X135514Y380649D01*
X135310Y380557D01*
X135051Y380464D01*
X134792Y380372D01*
X134755Y380372D01*
X134662Y380335D01*
X134514Y380316D01*
X134329Y380279D01*
X134088Y380243D01*
X133811Y380205D01*
X133514Y380187D01*
X133200Y380169D01*
X133014Y380169D01*
X132866Y380187D01*
X132718Y380187D01*
X132551Y380206D01*
X132200Y380262D01*
X132181D01*
X132126Y380280D01*
X132033Y380299D01*
X131922Y380317D01*
X131663Y380373D01*
X131385Y380429D01*
X131366Y380429D01*
X131329Y380447D01*
X131255Y380466D01*
X131181Y380503D01*
X130996Y380577D01*
X130793Y380670D01*
X130756Y380688D01*
X130681Y380744D01*
X130570Y380799D01*
X130496Y380855D01*
X130478Y380873D01*
X130459Y380892D01*
X130385Y380984D01*
Y381003D01*
X130367Y381040D01*
X130348Y381114D01*
X130311Y381188D01*
Y381207D01*
X130293Y381262D01*
X130293Y381336D01*
X130274Y381447D01*
X130274Y381484D01*
X130274Y381558D01*
X130274Y381688D01*
X130274Y381855D01*
Y381873D01*
X130274Y381910D01*
X130274Y381984D01*
X130274Y382077D01*
X130293Y382244D01*
X130312Y382318D01*
X130330Y382392D01*
X130349Y382410D01*
X130367Y382466D01*
X130441Y382521D01*
X130515Y382540D01*
X130534Y382540D01*
X130590Y382521D01*
X130663Y382503D01*
X130793Y382429D01*
X130812D01*
X130830Y382410D01*
X130941Y382355D01*
X131089Y382280D01*
X131293Y382188D01*
X131312Y382188D01*
X131349Y382169D01*
X131423Y382151D01*
X131497Y382114D01*
X131608Y382076D01*
X131737Y382039D01*
X132015Y381947D01*
X132034D01*
X132089Y381928D01*
X132163Y381910D01*
X132293Y381910D01*
X132422Y381891D01*
X132570Y381872D01*
X132941Y381854D01*
X133108Y381854D01*
X133200Y381872D01*
X133459Y381891D01*
X133719Y381946D01*
X133737D01*
X133774Y381965D01*
X133830Y381983D01*
X133922Y382020D01*
X134108Y382113D01*
X134293Y382242D01*
X134311D01*
X134330Y382279D01*
X134422Y382372D01*
X134552Y382501D01*
X134645Y382687D01*
Y382705D01*
X134663Y382742D01*
X134682Y382798D01*
X134719Y382872D01*
X134756Y383057D01*
X134775Y383298D01*
Y383316D01*
Y383353D01*
X134775Y383427D01*
X134756Y383501D01*
X134719Y383705D01*
X134627Y383927D01*
Y383946D01*
X134608Y383983D01*
X134571Y384038D01*
X134516Y384094D01*
X134386Y384260D01*
X134201Y384427D01*
X134182Y384446D01*
X134145Y384464D01*
X134090Y384501D01*
X134016Y384538D01*
X133905Y384594D01*
X133794Y384650D01*
X133497Y384742D01*
X133479Y384742D01*
X133423Y384761D01*
X133331Y384779D01*
X133220Y384816D01*
X133072Y384835D01*
X132905Y384854D01*
X132720Y384872D01*
X131553Y384873D01*
X131442Y384891D01*
X131424D01*
X131405Y384928D01*
X131313Y385002D01*
Y385021D01*
X131294Y385076D01*
X131276Y385150D01*
X131257Y385243D01*
X131257Y385280D01*
X131257Y385354D01*
X131239Y385484D01*
X131239Y385650D01*
Y385669D01*
X131239Y385687D01*
X131239Y385780D01*
X131239Y385910D01*
X131257Y386021D01*
X131257Y386039D01*
X131276Y386113D01*
X131294Y386169D01*
X131313Y386243D01*
X131313Y386261D01*
X131350Y386298D01*
X131369Y386335D01*
X131424Y386372D01*
X131443D01*
X131480Y386391D01*
X131591Y386409D01*
X132665Y386409D01*
X132776Y386427D01*
X133035Y386446D01*
X133313Y386501D01*
X133331D01*
X133368Y386520D01*
X133442Y386557D01*
X133517Y386575D01*
X133720Y386686D01*
X133905Y386816D01*
X133924Y386834D01*
X133943Y386853D01*
X134054Y386945D01*
X134183Y387112D01*
X134295Y387297D01*
X134295Y387316D01*
X134313Y387353D01*
X134332Y387408D01*
X134369Y387482D01*
X134406Y387686D01*
X134424Y387927D01*
X134424Y387945D01*
Y387982D01*
X134406Y388093D01*
X134388Y388260D01*
X134332Y388427D01*
X134332Y388445D01*
X134313Y388464D01*
X134258Y388575D01*
X134184Y388704D01*
X134073Y388834D01*
X134036Y388871D01*
X133962Y388945D01*
X133814Y389038D01*
X133629Y389112D01*
X133610D01*
X133573Y389131D01*
X133518Y389149D01*
X133443Y389168D01*
X133240Y389205D01*
X132999Y389223D01*
X132851Y389224D01*
X132740Y389205D01*
X132481Y389168D01*
X132203Y389094D01*
X132184D01*
X132147Y389076D01*
X132073Y389039D01*
X131999Y389020D01*
X131777Y388928D01*
X131555Y388817D01*
X131536D01*
X131499Y388798D01*
X131444Y388761D01*
X131388Y388724D01*
X131221Y388632D01*
X131055Y388539D01*
X131018Y388521D01*
X130943Y388484D01*
X130851Y388447D01*
X130758Y388428D01*
X130721Y388428D01*
X130647Y388447D01*
X130629Y388484D01*
X130573Y388558D01*
X130573Y388576D01*
X130555Y388613D01*
X130536Y388687D01*
X130518Y388780D01*
X130518Y388817D01*
X130518Y388891D01*
X130518Y389021D01*
X130518Y389187D01*
X130518Y389206D01*
Y389224D01*
X130518Y389298D01*
X130518Y389409D01*
X130518Y389521D01*
Y389539D01*
X130518Y389595D01*
X130518Y389669D01*
X130536Y389724D01*
Y389743D01*
X130555Y389780D01*
X130611Y389872D01*
Y389891D01*
X130648Y389928D01*
X130722Y390020D01*
X130740Y390039D01*
X130796Y390094D01*
X130889Y390168D01*
X131037Y390261D01*
X131055D01*
X131092Y390280D01*
X131148Y390317D01*
X131222Y390354D01*
X131407Y390446D01*
X131666Y390539D01*
X131685D01*
X131740Y390557D01*
X131814Y390594D01*
X131926Y390631D01*
X132055Y390668D01*
X132203Y390705D01*
X132537Y390779D01*
X132555D01*
X132629Y390798D01*
X132722Y390816D01*
X132851Y390834D01*
X133018Y390853D01*
X133203Y390871D01*
X133611Y390890D01*
X133870Y390890D01*
D02*
G37*
G36*
X150498Y390884D02*
X150683Y390865D01*
X150887Y390846D01*
X151109Y390809D01*
X151553Y390698D01*
X151572D01*
X151646Y390661D01*
X151757Y390624D01*
X151905Y390568D01*
X152220Y390420D01*
X152386Y390309D01*
X152534Y390198D01*
X152553Y390179D01*
X152608Y390142D01*
X152683Y390068D01*
X152757Y389976D01*
X152868Y389846D01*
X152960Y389698D01*
X153053Y389549D01*
X153145Y389364D01*
X153164Y389346D01*
X153182Y389272D01*
X153219Y389179D01*
X153256Y389049D01*
X153293Y388883D01*
X153312Y388716D01*
X153349Y388512D01*
X153349Y388290D01*
X153349Y388272D01*
Y388216D01*
X153348Y388124D01*
X153330Y387994D01*
X153311Y387864D01*
X153293Y387716D01*
X153218Y387402D01*
Y387383D01*
X153200Y387327D01*
X153163Y387253D01*
X153126Y387161D01*
X153015Y386920D01*
X152866Y386661D01*
X152848Y386642D01*
X152829Y386605D01*
X152774Y386550D01*
X152700Y386476D01*
X152514Y386309D01*
X152274Y386124D01*
X152255D01*
X152218Y386087D01*
X152144Y386050D01*
X152051Y385995D01*
X151940Y385939D01*
X151792Y385884D01*
X151477Y385791D01*
Y385773D01*
X151496D01*
X151570Y385754D01*
X151681Y385736D01*
X151811Y385717D01*
X151959Y385680D01*
X152125Y385624D01*
X152459Y385495D01*
X152477D01*
X152533Y385457D01*
X152607Y385420D01*
X152718Y385346D01*
X152958Y385180D01*
X153199Y384957D01*
X153218Y384939D01*
X153255Y384902D01*
X153310Y384828D01*
X153366Y384754D01*
X153440Y384642D01*
X153514Y384513D01*
X153662Y384235D01*
Y384216D01*
X153680Y384161D01*
X153717Y384087D01*
X153754Y383976D01*
X153773Y383846D01*
X153810Y383698D01*
X153828Y383365D01*
X153828Y383328D01*
X153828Y383235D01*
X153809Y383087D01*
X153791Y382902D01*
X153754Y382698D01*
X153698Y382457D01*
X153624Y382217D01*
X153531Y381995D01*
X153513Y381976D01*
X153476Y381902D01*
X153402Y381791D01*
X153309Y381643D01*
X153198Y381495D01*
X153050Y381310D01*
X152883Y381143D01*
X152698Y380976D01*
X152679Y380958D01*
X152605Y380902D01*
X152494Y380828D01*
X152346Y380754D01*
X152142Y380643D01*
X151938Y380551D01*
X151679Y380458D01*
X151420Y380366D01*
X151383Y380366D01*
X151290Y380329D01*
X151142Y380310D01*
X150957Y380273D01*
X150716Y380237D01*
X150438Y380200D01*
X150142Y380181D01*
X149827Y380163D01*
X149642Y380163D01*
X149494Y380181D01*
X149346Y380181D01*
X149179Y380200D01*
X148827Y380256D01*
X148809D01*
X148753Y380274D01*
X148661Y380293D01*
X148550Y380311D01*
X148291Y380367D01*
X148013Y380423D01*
X147994Y380423D01*
X147957Y380441D01*
X147883Y380460D01*
X147809Y380497D01*
X147624Y380571D01*
X147420Y380664D01*
X147383Y380682D01*
X147309Y380738D01*
X147198Y380793D01*
X147124Y380849D01*
X147106Y380867D01*
X147087Y380886D01*
X147013Y380979D01*
Y380997D01*
X146995Y381034D01*
X146976Y381108D01*
X146939Y381182D01*
Y381201D01*
X146921Y381256D01*
X146921Y381330D01*
X146902Y381441D01*
X146902Y381479D01*
X146902Y381553D01*
X146902Y381682D01*
X146902Y381849D01*
Y381867D01*
X146902Y381904D01*
X146902Y381978D01*
X146902Y382071D01*
X146921Y382238D01*
X146940Y382312D01*
X146958Y382386D01*
X146977Y382404D01*
X146995Y382460D01*
X147069Y382515D01*
X147143Y382534D01*
X147162D01*
X147217Y382515D01*
X147291Y382497D01*
X147421Y382423D01*
X147440D01*
X147458Y382404D01*
X147569Y382349D01*
X147717Y382274D01*
X147921Y382182D01*
X147939D01*
X147977Y382163D01*
X148050Y382145D01*
X148125Y382108D01*
X148236Y382071D01*
X148365Y382033D01*
X148643Y381941D01*
X148661Y381941D01*
X148717Y381922D01*
X148791Y381904D01*
X148921Y381904D01*
X149050Y381885D01*
X149198Y381866D01*
X149569Y381848D01*
X149735Y381848D01*
X149828Y381866D01*
X150087Y381885D01*
X150346Y381940D01*
X150365D01*
X150402Y381959D01*
X150458Y381977D01*
X150550Y382014D01*
X150735Y382107D01*
X150921Y382236D01*
X150939D01*
X150958Y382273D01*
X151050Y382366D01*
X151180Y382495D01*
X151273Y382681D01*
Y382699D01*
X151291Y382736D01*
X151310Y382792D01*
X151347Y382866D01*
X151384Y383051D01*
X151402Y383292D01*
Y383310D01*
Y383347D01*
X151403Y383421D01*
X151384Y383495D01*
X151347Y383699D01*
X151255Y383921D01*
Y383940D01*
X151236Y383977D01*
X151199Y384032D01*
X151144Y384088D01*
X151014Y384254D01*
X150829Y384421D01*
X150810Y384440D01*
X150773Y384458D01*
X150718Y384495D01*
X150644Y384532D01*
X150533Y384588D01*
X150421Y384644D01*
X150125Y384736D01*
X150107D01*
X150051Y384755D01*
X149959Y384773D01*
X149848Y384810D01*
X149699Y384829D01*
X149533Y384847D01*
X149348Y384866D01*
X148181Y384866D01*
X148070Y384885D01*
X148052D01*
X148033Y384922D01*
X147940Y384996D01*
Y385015D01*
X147922Y385070D01*
X147903Y385144D01*
X147885Y385237D01*
X147885Y385274D01*
X147885Y385348D01*
X147867Y385478D01*
X147867Y385644D01*
Y385663D01*
X147867Y385681D01*
X147867Y385774D01*
X147867Y385904D01*
X147885Y386015D01*
X147885Y386033D01*
X147904Y386107D01*
X147922Y386163D01*
X147941Y386237D01*
X147941Y386255D01*
X147978Y386292D01*
X147997Y386329D01*
X148052Y386366D01*
X148070D01*
X148108Y386385D01*
X148219Y386403D01*
X149293Y386403D01*
X149404Y386422D01*
X149663Y386440D01*
X149941Y386495D01*
X149959D01*
X149996Y386514D01*
X150070Y386551D01*
X150145Y386569D01*
X150348Y386680D01*
X150533Y386810D01*
X150552Y386828D01*
X150570Y386847D01*
X150682Y386940D01*
X150811Y387106D01*
X150922Y387291D01*
X150922Y387310D01*
X150941Y387347D01*
X150960Y387402D01*
X150997Y387476D01*
X151034Y387680D01*
X151052Y387921D01*
X151052Y387939D01*
Y387976D01*
X151034Y388087D01*
X151015Y388254D01*
X150960Y388421D01*
X150960Y388439D01*
X150941Y388458D01*
X150886Y388569D01*
X150812Y388699D01*
X150701Y388828D01*
X150664Y388865D01*
X150590Y388939D01*
X150442Y389032D01*
X150257Y389106D01*
X150238D01*
X150201Y389125D01*
X150145Y389143D01*
X150071Y389162D01*
X149868Y389199D01*
X149627Y389217D01*
X149479Y389217D01*
X149368Y389199D01*
X149108Y389162D01*
X148831Y389088D01*
X148812D01*
X148775Y389070D01*
X148701Y389033D01*
X148627Y389014D01*
X148405Y388922D01*
X148182Y388811D01*
X148164D01*
X148127Y388792D01*
X148071Y388755D01*
X148016Y388718D01*
X147849Y388625D01*
X147683Y388533D01*
X147646Y388515D01*
X147571Y388478D01*
X147479Y388441D01*
X147386Y388422D01*
X147349Y388422D01*
X147275Y388441D01*
X147257Y388478D01*
X147201Y388552D01*
X147201Y388570D01*
X147183Y388607D01*
X147164Y388681D01*
X147146Y388774D01*
X147146Y388811D01*
X147146Y388885D01*
X147146Y389015D01*
X147146Y389181D01*
Y389200D01*
X147146Y389218D01*
X147146Y389292D01*
X147146Y389403D01*
X147146Y389515D01*
Y389533D01*
X147146Y389589D01*
X147146Y389663D01*
X147164Y389718D01*
Y389737D01*
X147183Y389774D01*
X147239Y389866D01*
Y389885D01*
X147276Y389922D01*
X147350Y390014D01*
X147368Y390033D01*
X147424Y390089D01*
X147516Y390163D01*
X147665Y390255D01*
X147683D01*
X147720Y390274D01*
X147776Y390311D01*
X147850Y390348D01*
X148035Y390440D01*
X148294Y390533D01*
X148313Y390533D01*
X148368Y390551D01*
X148442Y390588D01*
X148553Y390625D01*
X148683Y390662D01*
X148831Y390699D01*
X149165Y390773D01*
X149183D01*
X149257Y390792D01*
X149350Y390810D01*
X149479Y390828D01*
X149646Y390847D01*
X149831Y390865D01*
X150239Y390884D01*
X150498Y390884D01*
D02*
G37*
G36*
X144517Y390701D02*
X144572Y390682D01*
X144609Y390645D01*
X144628Y390626D01*
X144647Y390608D01*
X144684Y390552D01*
X144720Y390478D01*
X144720Y390460D01*
X144739Y390404D01*
X144757Y390330D01*
X144776Y390219D01*
X144776Y390182D01*
X144795Y390108D01*
X144813Y389978D01*
X144813Y389812D01*
Y389793D01*
X144813Y389738D01*
X144813Y389645D01*
X144794Y389552D01*
X144776Y389312D01*
X144757Y389201D01*
X144720Y389108D01*
X144701Y389071D01*
X144664Y389016D01*
X144572Y388941D01*
X144535Y388923D01*
X144479Y388904D01*
X140813Y388906D01*
X140812Y386684D01*
X140868Y386684D01*
X140923Y386702D01*
X140979Y386702D01*
X141164Y386721D01*
X141460Y386721D01*
X141534Y386739D01*
X142090Y386739D01*
X142238Y386720D01*
X142442Y386720D01*
X142664Y386683D01*
X142923Y386646D01*
X143182Y386609D01*
X143423Y386535D01*
X143460Y386535D01*
X143534Y386498D01*
X143664Y386442D01*
X143812Y386386D01*
X143978Y386294D01*
X144164Y386201D01*
X144349Y386072D01*
X144515Y385942D01*
X144534Y385923D01*
X144589Y385868D01*
X144663Y385794D01*
X144774Y385682D01*
X144885Y385553D01*
X144996Y385386D01*
X145107Y385201D01*
X145200Y384997D01*
X145218Y384979D01*
X145237Y384905D01*
X145274Y384775D01*
X145330Y384627D01*
X145366Y384442D01*
X145403Y384220D01*
X145422Y383979D01*
X145440Y383701D01*
Y383664D01*
X145440Y383553D01*
X145422Y383405D01*
X145403Y383201D01*
X145366Y382960D01*
X145310Y382720D01*
X145236Y382460D01*
X145143Y382201D01*
X145125Y382164D01*
X145088Y382090D01*
X145014Y381961D01*
X144921Y381813D01*
X144810Y381627D01*
X144662Y381442D01*
X144495Y381257D01*
X144310Y381072D01*
X144291Y381054D01*
X144217Y380998D01*
X144106Y380924D01*
X143958Y380813D01*
X143773Y380702D01*
X143550Y380591D01*
X143310Y380480D01*
X143032Y380387D01*
X142995Y380387D01*
X142902Y380350D01*
X142754Y380313D01*
X142550Y380276D01*
X142310Y380239D01*
X142032Y380203D01*
X141717Y380184D01*
X141384Y380166D01*
X141217Y380166D01*
X141088Y380184D01*
X140939Y380185D01*
X140791Y380203D01*
X140458Y380240D01*
X140440D01*
X140384Y380259D01*
X140310Y380259D01*
X140199Y380277D01*
X139958Y380314D01*
X139680Y380370D01*
X139662D01*
X139625Y380389D01*
X139569Y380407D01*
X139495Y380426D01*
X139310Y380481D01*
X139125Y380555D01*
X139088Y380574D01*
X139014Y380611D01*
X138903Y380667D01*
X138829Y380722D01*
Y380741D01*
X138792Y380759D01*
X138736Y380852D01*
Y380870D01*
X138718Y380907D01*
X138681Y381018D01*
X138681Y381037D01*
Y381093D01*
X138662Y381167D01*
X138662Y381259D01*
Y381296D01*
X138662Y381370D01*
X138662Y381481D01*
X138662Y381630D01*
Y381648D01*
X138662Y381667D01*
X138663Y381759D01*
X138663Y381889D01*
X138663Y382000D01*
X138663Y382037D01*
X138681Y382093D01*
X138700Y382185D01*
X138718Y382259D01*
Y382278D01*
X138737Y382315D01*
X138774Y382352D01*
X138792Y382389D01*
X138811Y382407D01*
X138829Y382426D01*
X138866Y382444D01*
X138940Y382444D01*
X138977Y382426D01*
X139052Y382407D01*
X139163Y382351D01*
X139200Y382333D01*
X139274Y382296D01*
X139422Y382222D01*
X139588Y382129D01*
X139607D01*
X139644Y382111D01*
X139699Y382092D01*
X139774Y382055D01*
X139977Y381999D01*
X140236Y381925D01*
X140255D01*
X140310Y381907D01*
X140385Y381907D01*
X140496Y381888D01*
X140625Y381870D01*
X140792Y381870D01*
X140977Y381851D01*
X141329Y381851D01*
X141440Y381869D01*
X141718Y381888D01*
X141995Y381943D01*
X142014D01*
X142070Y381962D01*
X142125Y381980D01*
X142218Y382017D01*
X142440Y382110D01*
X142644Y382239D01*
X142662Y382258D01*
X142681Y382276D01*
X142792Y382387D01*
X142922Y382554D01*
X143051Y382776D01*
X143051Y382794D01*
X143070Y382832D01*
X143107Y382906D01*
X143125Y382998D01*
X143162Y383109D01*
X143181Y383239D01*
X143200Y383554D01*
X143200Y383572D01*
Y383609D01*
X143200Y383683D01*
X143181Y383776D01*
X143144Y383998D01*
X143070Y384220D01*
Y384239D01*
X143052Y384276D01*
X143015Y384331D01*
X142978Y384406D01*
X142867Y384572D01*
X142700Y384739D01*
X142682Y384757D01*
X142663Y384776D01*
X142589Y384813D01*
X142515Y384850D01*
X142423Y384906D01*
X142311Y384961D01*
X142034Y385054D01*
X142015Y385054D01*
X141960Y385073D01*
X141867Y385091D01*
X141756Y385110D01*
X141608Y385128D01*
X141441Y385147D01*
X141256Y385165D01*
X140775Y385165D01*
X140497Y385147D01*
X140201Y385110D01*
X140145Y385110D01*
X140071Y385092D01*
X139978Y385092D01*
X139756Y385073D01*
X139497Y385055D01*
X139460Y385055D01*
X139367Y385073D01*
X139256Y385111D01*
X139164Y385166D01*
X139145Y385185D01*
X139127Y385277D01*
X139090Y385407D01*
X139071Y385611D01*
X139073Y390092D01*
Y390110D01*
X139073Y390147D01*
X139091Y390277D01*
X139129Y390425D01*
X139184Y390554D01*
X139203Y390573D01*
X139277Y390628D01*
X139406Y390684D01*
X139592Y390702D01*
X144517Y390701D01*
D02*
G37*
G36*
X168625Y388211D02*
X168736Y388192D01*
X168976Y388173D01*
X169254Y388099D01*
X169273D01*
X169310Y388081D01*
X169384Y388062D01*
X169458Y388025D01*
X169662Y387951D01*
X169884Y387840D01*
X169902D01*
X169939Y387803D01*
X170050Y387729D01*
X170198Y387599D01*
X170365Y387432D01*
X170383Y387414D01*
X170402Y387395D01*
X170439Y387340D01*
X170476Y387266D01*
X170587Y387099D01*
X170698Y386877D01*
X170716Y386895D01*
X170754Y386932D01*
X170828Y387006D01*
X170902Y387080D01*
X171105Y387284D01*
X171328Y387469D01*
X171346Y387488D01*
X171383Y387506D01*
X171439Y387562D01*
X171532Y387617D01*
X171717Y387747D01*
X171939Y387876D01*
X171957D01*
X171995Y387913D01*
X172050Y387932D01*
X172124Y387969D01*
X172309Y388043D01*
X172532Y388117D01*
X172550Y388117D01*
X172587Y388135D01*
X172643Y388154D01*
X172717Y388172D01*
X172920Y388191D01*
X173143Y388209D01*
X173272Y388209D01*
X173402Y388190D01*
X173569Y388172D01*
X173754Y388153D01*
X173957Y388116D01*
X174161Y388042D01*
X174346Y387968D01*
X174365Y387949D01*
X174420Y387931D01*
X174513Y387875D01*
X174624Y387801D01*
X174753Y387709D01*
X174883Y387579D01*
X175013Y387449D01*
X175124Y387301D01*
X175142Y387282D01*
X175179Y387227D01*
X175235Y387134D01*
X175290Y387023D01*
X175364Y386894D01*
X175438Y386727D01*
X175512Y386542D01*
X175568Y386338D01*
Y386320D01*
X175586Y386245D01*
X175605Y386134D01*
X175642Y385986D01*
X175660Y385801D01*
X175679Y385616D01*
X175697Y385171D01*
X175695Y380598D01*
X175695Y380579D01*
Y380542D01*
X175677Y380505D01*
X175640Y380450D01*
X175621D01*
X175603Y380413D01*
X175547Y380394D01*
X175473Y380357D01*
X175454D01*
X175399Y380339D01*
X175306Y380339D01*
X175177Y380320D01*
X175140Y380320D01*
X175047Y380302D01*
X174899Y380283D01*
X174510Y380284D01*
X174343Y380302D01*
X174195Y380321D01*
X174158Y380321D01*
X174084Y380339D01*
X173992Y380339D01*
X173881Y380358D01*
X173862D01*
X173825Y380376D01*
X173769Y380413D01*
X173732Y380450D01*
X173732Y380469D01*
X173714Y380487D01*
X173696Y380598D01*
X173697Y384839D01*
Y384857D01*
Y384894D01*
X173697Y384968D01*
X173697Y385061D01*
X173660Y385265D01*
X173623Y385487D01*
Y385505D01*
X173605Y385542D01*
X173586Y385598D01*
X173568Y385654D01*
X173494Y385820D01*
X173401Y385987D01*
Y386006D01*
X173383Y386024D01*
X173309Y386117D01*
X173197Y386228D01*
X173049Y386320D01*
X173012Y386339D01*
X172920Y386395D01*
X172753Y386432D01*
X172549Y386450D01*
X172494Y386450D01*
X172420Y386432D01*
X172327Y386413D01*
X172216Y386376D01*
X172105Y386321D01*
X171957Y386247D01*
X171827Y386154D01*
X171809Y386136D01*
X171772Y386099D01*
X171679Y386043D01*
X171586Y385951D01*
X171475Y385840D01*
X171327Y385691D01*
X171179Y385525D01*
X171031Y385340D01*
X171029Y380600D01*
X171029Y380581D01*
Y380544D01*
X171010Y380507D01*
X170973Y380451D01*
X170955D01*
X170936Y380414D01*
X170881Y380396D01*
X170807Y380359D01*
X170788D01*
X170733Y380340D01*
X170622Y380340D01*
X170492Y380322D01*
X170455D01*
X170362Y380303D01*
X170214Y380285D01*
X169862Y380285D01*
X169696Y380304D01*
X169529Y380322D01*
X169492Y380322D01*
X169418Y380341D01*
X169325Y380341D01*
X169233Y380359D01*
X169214Y380359D01*
X169177Y380378D01*
X169122Y380415D01*
X169066Y380452D01*
X169066Y380471D01*
X169048Y380489D01*
X169029Y380600D01*
X169031Y384841D01*
Y384859D01*
Y384896D01*
X169031Y384970D01*
X169031Y385063D01*
X168994Y385266D01*
X168957Y385489D01*
Y385507D01*
X168939Y385544D01*
X168920Y385600D01*
X168902Y385655D01*
X168827Y385822D01*
X168735Y385989D01*
Y386007D01*
X168716Y386026D01*
X168642Y386118D01*
X168531Y386229D01*
X168383Y386322D01*
X168346Y386341D01*
X168254Y386396D01*
X168087Y386433D01*
X167883Y386452D01*
X167828D01*
X167754Y386433D01*
X167661Y386415D01*
X167532Y386378D01*
X167420Y386322D01*
X167272Y386248D01*
X167143Y386156D01*
X167124Y386137D01*
X167087Y386100D01*
X167013Y386045D01*
X166902Y385952D01*
X166791Y385841D01*
X166661Y385693D01*
X166513Y385527D01*
X166365Y385341D01*
X166363Y380601D01*
X166363Y380583D01*
Y380546D01*
X166344Y380509D01*
X166307Y380453D01*
X166289D01*
X166270Y380416D01*
X166215Y380397D01*
X166141Y380360D01*
X166122Y380361D01*
X166066Y380342D01*
X165955Y380342D01*
X165826Y380324D01*
X165789D01*
X165696Y380305D01*
X165548Y380287D01*
X165178Y380287D01*
X165011Y380305D01*
X164844Y380324D01*
X164807D01*
X164733Y380342D01*
X164641Y380343D01*
X164548Y380361D01*
X164530D01*
X164493Y380380D01*
X164437Y380417D01*
X164382Y380454D01*
X164382Y380472D01*
X164363Y380491D01*
X164345Y380602D01*
X164347Y387731D01*
Y387749D01*
Y387786D01*
X164384Y387879D01*
Y387897D01*
X164421Y387916D01*
X164458Y387934D01*
X164514Y387971D01*
X164532D01*
X164588Y387990D01*
X164681Y388008D01*
X164792Y388027D01*
X164829Y388027D01*
X164903Y388045D01*
X165032Y388064D01*
X165347Y388064D01*
X165495Y388045D01*
X165625Y388027D01*
X165662Y388027D01*
X165718Y388008D01*
X165810Y387990D01*
X165884Y387971D01*
X165903D01*
X165940Y387952D01*
X165977Y387915D01*
X166014Y387878D01*
X166032Y387860D01*
X166051Y387841D01*
X166069Y387786D01*
Y387730D01*
X166069Y386915D01*
X166087Y386953D01*
X166180Y387026D01*
X166291Y387138D01*
X166439Y387286D01*
X166606Y387434D01*
X166810Y387600D01*
X167013Y387748D01*
X167236Y387878D01*
X167254Y387896D01*
X167347Y387933D01*
X167458Y387989D01*
X167606Y388044D01*
X167791Y388100D01*
X168014Y388155D01*
X168236Y388192D01*
X168477Y388211D01*
X168625Y388211D01*
D02*
G37*
G36*
X181957Y388206D02*
X182068Y388187D01*
X182308Y388169D01*
X182586Y388095D01*
X182605D01*
X182642Y388076D01*
X182716Y388058D01*
X182790Y388020D01*
X182993Y387946D01*
X183216Y387835D01*
X183234D01*
X183271Y387798D01*
X183382Y387724D01*
X183530Y387594D01*
X183697Y387427D01*
X183715Y387409D01*
X183734Y387391D01*
X183771Y387335D01*
X183808Y387261D01*
X183919Y387094D01*
X184030Y386872D01*
X184049Y386890D01*
X184086Y386927D01*
X184160Y387001D01*
X184234Y387076D01*
X184438Y387279D01*
X184660Y387464D01*
X184678Y387483D01*
X184715Y387501D01*
X184771Y387557D01*
X184863Y387612D01*
X185049Y387742D01*
X185271Y387871D01*
X185289D01*
X185326Y387908D01*
X185382Y387927D01*
X185456Y387964D01*
X185641Y388038D01*
X185864Y388112D01*
X185882Y388112D01*
X185919Y388130D01*
X185975Y388149D01*
X186049Y388167D01*
X186252Y388186D01*
X186475Y388204D01*
X186604Y388204D01*
X186734Y388186D01*
X186901Y388167D01*
X187086Y388148D01*
X187289Y388111D01*
X187493Y388037D01*
X187678Y387963D01*
X187697Y387945D01*
X187752Y387926D01*
X187845Y387870D01*
X187956Y387796D01*
X188085Y387704D01*
X188215Y387574D01*
X188345Y387444D01*
X188456Y387296D01*
X188474Y387278D01*
X188511Y387222D01*
X188567Y387130D01*
X188622Y387018D01*
X188696Y386889D01*
X188770Y386722D01*
X188844Y386537D01*
X188900Y386333D01*
Y386315D01*
X188918Y386241D01*
X188937Y386129D01*
X188974Y385981D01*
X188992Y385796D01*
X189011Y385611D01*
X189029Y385167D01*
X189027Y380593D01*
Y380574D01*
Y380537D01*
X189009Y380500D01*
X188972Y380445D01*
X188953Y380445D01*
X188934Y380408D01*
X188879Y380389D01*
X188805Y380352D01*
X188786D01*
X188731Y380334D01*
X188638Y380334D01*
X188509Y380315D01*
X188472Y380316D01*
X188379Y380297D01*
X188231Y380279D01*
X187842Y380279D01*
X187675Y380297D01*
X187527Y380316D01*
X187490D01*
X187416Y380334D01*
X187324Y380334D01*
X187213Y380353D01*
X187194Y380353D01*
X187157Y380372D01*
X187101Y380409D01*
X187064Y380446D01*
X187064Y380464D01*
X187046Y380483D01*
X187027Y380594D01*
X187029Y384834D01*
Y384852D01*
Y384890D01*
X187029Y384964D01*
X187029Y385056D01*
X186992Y385260D01*
X186955Y385482D01*
Y385501D01*
X186937Y385538D01*
X186918Y385593D01*
X186900Y385649D01*
X186826Y385816D01*
X186733Y385982D01*
Y386001D01*
X186715Y386019D01*
X186640Y386112D01*
X186530Y386223D01*
X186381Y386316D01*
X186344Y386334D01*
X186252Y386390D01*
X186085Y386427D01*
X185882Y386445D01*
X185826Y386445D01*
X185752Y386427D01*
X185659Y386408D01*
X185548Y386371D01*
X185437Y386316D01*
X185289Y386242D01*
X185159Y386149D01*
X185141Y386131D01*
X185104Y386094D01*
X185011Y386038D01*
X184918Y385946D01*
X184807Y385835D01*
X184659Y385687D01*
X184511Y385520D01*
X184363Y385335D01*
X184361Y380595D01*
X184361Y380576D01*
Y380539D01*
X184342Y380502D01*
X184305Y380447D01*
X184287D01*
X184268Y380410D01*
X184213Y380391D01*
X184139Y380354D01*
X184120D01*
X184065Y380336D01*
X183954Y380336D01*
X183824Y380317D01*
X183787Y380317D01*
X183694Y380299D01*
X183546Y380280D01*
X183194Y380280D01*
X183028Y380299D01*
X182861Y380317D01*
X182824Y380317D01*
X182750Y380336D01*
X182657Y380336D01*
X182565Y380355D01*
X182546Y380355D01*
X182509Y380373D01*
X182454Y380410D01*
X182398Y380447D01*
X182398Y380466D01*
X182380Y380484D01*
X182361Y380595D01*
X182363Y384836D01*
Y384854D01*
Y384891D01*
X182363Y384965D01*
X182363Y385058D01*
X182326Y385262D01*
X182289Y385484D01*
Y385502D01*
X182270Y385539D01*
X182252Y385595D01*
X182233Y385650D01*
X182159Y385817D01*
X182067Y385984D01*
Y386002D01*
X182048Y386021D01*
X181974Y386114D01*
X181863Y386225D01*
X181715Y386317D01*
X181678Y386336D01*
X181586Y386391D01*
X181419Y386428D01*
X181215Y386447D01*
X181160D01*
X181086Y386429D01*
X180993Y386410D01*
X180863Y386373D01*
X180752Y386318D01*
X180604Y386244D01*
X180474Y386151D01*
X180456Y386133D01*
X180419Y386096D01*
X180345Y386040D01*
X180234Y385947D01*
X180123Y385836D01*
X179993Y385688D01*
X179845Y385522D01*
X179697Y385337D01*
X179695Y380596D01*
X179695Y380578D01*
Y380541D01*
X179676Y380504D01*
X179639Y380448D01*
X179621D01*
X179602Y380411D01*
X179547Y380393D01*
X179473Y380356D01*
X179454D01*
X179398Y380337D01*
X179287Y380337D01*
X179158Y380319D01*
X179121D01*
X179028Y380300D01*
X178880Y380282D01*
X178510Y380282D01*
X178343Y380301D01*
X178176Y380319D01*
X178139D01*
X178065Y380338D01*
X177973Y380338D01*
X177880Y380356D01*
X177862D01*
X177825Y380375D01*
X177769Y380412D01*
X177714Y380449D01*
X177714Y380467D01*
X177695Y380486D01*
X177677Y380597D01*
X177679Y387726D01*
Y387744D01*
Y387781D01*
X177716Y387874D01*
Y387893D01*
X177753Y387911D01*
X177790Y387930D01*
X177846Y387967D01*
X177864D01*
X177920Y387985D01*
X178013Y388004D01*
X178124Y388022D01*
X178161D01*
X178235Y388041D01*
X178364Y388059D01*
X178679Y388059D01*
X178827Y388040D01*
X178957Y388022D01*
X178994Y388022D01*
X179049Y388003D01*
X179142Y387985D01*
X179216Y387966D01*
X179235D01*
X179272Y387948D01*
X179309Y387911D01*
X179346Y387873D01*
X179364Y387855D01*
X179383Y387836D01*
X179401Y387781D01*
Y387725D01*
X179401Y386911D01*
X179419Y386948D01*
X179512Y387022D01*
X179623Y387133D01*
X179771Y387281D01*
X179938Y387429D01*
X180142Y387595D01*
X180345Y387743D01*
X180568Y387873D01*
X180586Y387892D01*
X180679Y387929D01*
X180790Y387984D01*
X180938Y388040D01*
X181123Y388095D01*
X181346Y388151D01*
X181568Y388187D01*
X181808Y388206D01*
X181957Y388206D01*
D02*
G37*
G36*
X127516Y382726D02*
X127627Y382707D01*
X127775Y382689D01*
X128071Y382615D01*
X128219Y382559D01*
X128330Y382467D01*
X128349Y382448D01*
X128368Y382411D01*
X128405Y382355D01*
X128460Y382244D01*
X128516Y382115D01*
X128553Y381948D01*
X128571Y381744D01*
X128589Y381504D01*
Y381466D01*
X128589Y381374D01*
X128571Y381244D01*
X128552Y381096D01*
X128478Y380763D01*
X128422Y380596D01*
X128330Y380485D01*
X128311Y380467D01*
X128274Y380448D01*
X128219Y380411D01*
X128108Y380374D01*
X127978Y380319D01*
X127830Y380282D01*
X127626Y380263D01*
X127385Y380245D01*
X127274Y380245D01*
X127163Y380263D01*
X127015Y380282D01*
X126719Y380356D01*
X126571Y380412D01*
X126460Y380486D01*
X126441Y380504D01*
X126423Y380541D01*
X126385Y380597D01*
X126348Y380708D01*
X126293Y380838D01*
X126256Y381004D01*
X126238Y381208D01*
X126219Y381449D01*
X126219Y381486D01*
X126219Y381578D01*
X126238Y381708D01*
X126256Y381856D01*
X126331Y382208D01*
X126386Y382356D01*
X126479Y382467D01*
X126497Y382486D01*
X126534Y382504D01*
X126590Y382541D01*
X126701Y382597D01*
X126812Y382652D01*
X126979Y382689D01*
X127183Y382708D01*
X127405Y382726D01*
X127516Y382726D01*
D02*
G37*
G36*
X121353Y390894D02*
X121538Y390876D01*
X121779Y390857D01*
X122056Y390801D01*
X122353Y390746D01*
X122649Y390653D01*
X122927Y390523D01*
X122963Y390505D01*
X123038Y390449D01*
X123167Y390375D01*
X123334Y390245D01*
X123500Y390097D01*
X123686Y389930D01*
X123871Y389708D01*
X124037Y389467D01*
X124056Y389430D01*
X124111Y389338D01*
X124167Y389208D01*
X124259Y389004D01*
X124352Y388764D01*
X124444Y388467D01*
X124537Y388153D01*
X124611Y387801D01*
X124611Y387782D01*
Y387764D01*
X124629Y387708D01*
X124629Y387634D01*
X124648Y387541D01*
X124666Y387430D01*
X124703Y387152D01*
X124721Y386819D01*
X124758Y386449D01*
X124776Y386023D01*
X124776Y385560D01*
Y385542D01*
X124776Y385504D01*
X124776Y385430D01*
X124776Y385356D01*
X124776Y385245D01*
X124758Y385116D01*
X124758Y384819D01*
X124720Y384468D01*
X124683Y384097D01*
X124646Y383708D01*
X124572Y383320D01*
Y383301D01*
X124572Y383283D01*
X124553Y383227D01*
X124535Y383153D01*
X124479Y382968D01*
X124405Y382727D01*
X124312Y382468D01*
X124201Y382172D01*
X124071Y381894D01*
X123905Y381616D01*
X123886Y381579D01*
X123831Y381505D01*
X123719Y381376D01*
X123590Y381228D01*
X123423Y381043D01*
X123219Y380876D01*
X122997Y380691D01*
X122738Y380543D01*
X122701Y380524D01*
X122608Y380487D01*
X122460Y380432D01*
X122238Y380358D01*
X121979Y380284D01*
X121682Y380228D01*
X121349Y380191D01*
X120960Y380173D01*
X120793Y380173D01*
X120590Y380192D01*
X120349Y380210D01*
X120071Y380266D01*
X119775Y380322D01*
X119479Y380414D01*
X119201Y380526D01*
X119164Y380544D01*
X119090Y380600D01*
X118960Y380674D01*
X118794Y380803D01*
X118627Y380952D01*
X118442Y381137D01*
X118257Y381341D01*
X118090Y381581D01*
X118072Y381618D01*
X118016Y381711D01*
X117961Y381859D01*
X117868Y382044D01*
X117776Y382285D01*
X117683Y382581D01*
X117591Y382896D01*
X117517Y383248D01*
Y383267D01*
Y383285D01*
X117499Y383341D01*
X117499Y383415D01*
X117480Y383507D01*
X117480Y383619D01*
X117443Y383896D01*
X117425Y384230D01*
X117388Y384600D01*
X117369Y385026D01*
X117370Y385489D01*
Y385507D01*
X117370Y385544D01*
Y385600D01*
X117370Y385692D01*
X117370Y385803D01*
X117388Y385933D01*
X117388Y386229D01*
X117426Y386563D01*
X117463Y386951D01*
X117500Y387322D01*
X117574Y387711D01*
X117574Y387729D01*
X117593Y387748D01*
X117593Y387803D01*
X117611Y387877D01*
X117667Y388062D01*
X117741Y388303D01*
X117815Y388581D01*
X117926Y388858D01*
X118075Y389155D01*
X118223Y389432D01*
X118241Y389469D01*
X118297Y389543D01*
X118408Y389673D01*
X118538Y389840D01*
X118705Y390006D01*
X118908Y390191D01*
X119130Y390358D01*
X119390Y390506D01*
X119427Y390524D01*
X119520Y390561D01*
X119686Y390635D01*
X119890Y390709D01*
X120149Y390765D01*
X120445Y390839D01*
X120797Y390876D01*
X121168Y390894D01*
X121353Y390894D01*
D02*
G37*
G36*
X-21978Y225086D02*
X-21960Y225086D01*
X-21904Y225086D01*
X-21849Y225085D01*
X-21663Y225084D01*
X-21441Y225063D01*
X-21164Y225061D01*
X-20849Y225040D01*
X-20535Y225000D01*
X-20202Y224961D01*
X-20183Y224960D01*
X-20165Y224960D01*
X-20054Y224941D01*
X-19887Y224921D01*
X-19665Y224882D01*
X-19406Y224824D01*
X-19111Y224766D01*
X-18797Y224690D01*
X-18482Y224613D01*
X-18445Y224613D01*
X-18335Y224575D01*
X-18168Y224536D01*
X-17947Y224461D01*
X-17707Y224384D01*
X-17411Y224308D01*
X-17116Y224194D01*
X-16802Y224081D01*
X-16765Y224062D01*
X-16654Y224024D01*
X-16488Y223948D01*
X-16266Y223873D01*
X-16027Y223759D01*
X-15732Y223627D01*
X-15436Y223477D01*
X-15123Y223326D01*
X-15086Y223307D01*
X-15031Y223233D01*
X-15031Y223214D01*
X-14994Y223195D01*
X-14976Y223140D01*
X-14958Y223065D01*
X-14958Y223047D01*
X-14941Y222991D01*
X-14923Y222899D01*
X-14905Y222787D01*
X-14906Y222695D01*
X-14888Y222565D01*
X-14891Y222232D01*
X-14911Y222065D01*
X-14931Y221899D01*
X-14931Y221862D01*
X-14969Y221788D01*
X-14988Y221695D01*
X-15044Y221622D01*
X-15063Y221604D01*
X-15082Y221585D01*
X-15137Y221567D01*
X-15193Y221549D01*
X-15212Y221549D01*
X-15249Y221549D01*
X-15323Y221569D01*
X-15415Y221606D01*
X-15433Y221607D01*
X-15489Y221644D01*
X-15562Y221663D01*
X-15692Y221720D01*
X-15821Y221776D01*
X-15987Y221833D01*
X-16190Y221909D01*
X-16393Y221985D01*
X-16633Y222079D01*
X-16873Y222155D01*
X-17409Y222327D01*
X-18000Y222498D01*
X-18610Y222651D01*
X-18628Y222651D01*
X-18684Y222670D01*
X-18776Y222690D01*
X-18906Y222709D01*
X-19053Y222729D01*
X-19220Y222767D01*
X-19442Y222806D01*
X-19664Y222845D01*
X-19904Y222866D01*
X-20182Y222905D01*
X-20755Y222965D01*
X-21366Y223007D01*
X-22014Y223031D01*
X-22032Y223031D01*
X-22088Y223032D01*
X-22180Y223033D01*
X-22310Y223034D01*
X-22477Y223016D01*
X-22662Y223018D01*
X-22866Y223001D01*
X-23107Y223003D01*
X-23347Y222987D01*
X-23625Y222952D01*
X-24200Y222901D01*
X-24812Y222814D01*
X-25424Y222708D01*
X-25442Y222708D01*
X-25498Y222690D01*
X-25591Y222672D01*
X-25702Y222654D01*
X-25850Y222619D01*
X-26036Y222565D01*
X-26240Y222511D01*
X-26463Y222457D01*
X-26945Y222313D01*
X-27484Y222150D01*
X-28059Y221952D01*
X-28654Y221716D01*
X-28672Y221716D01*
X-28728Y221698D01*
X-28784Y221680D01*
X-28839Y221680D01*
X-28858Y221680D01*
X-28895Y221699D01*
X-28950Y221737D01*
X-28986Y221793D01*
X-29005Y221811D01*
X-29023Y221867D01*
X-29041Y221941D01*
X-29077Y222071D01*
X-29076Y222108D01*
X-29094Y222201D01*
X-29111Y222349D01*
X-29108Y222812D01*
X-29088Y222941D01*
X-29088Y222978D01*
X-29069Y223034D01*
X-29049Y223126D01*
X-29030Y223200D01*
X-29030Y223219D01*
X-29011Y223256D01*
X-28992Y223311D01*
X-28974Y223348D01*
X-28973Y223366D01*
X-28955Y223385D01*
X-28917Y223440D01*
X-28899Y223458D01*
X-28843Y223477D01*
X-28750Y223513D01*
X-28620Y223567D01*
X-28471Y223640D01*
X-28285Y223713D01*
X-28081Y223804D01*
X-27858Y223894D01*
X-27598Y224003D01*
X-27338Y224094D01*
X-26762Y224311D01*
X-26149Y224510D01*
X-25500Y224671D01*
X-25481Y224671D01*
X-25426Y224689D01*
X-25333Y224707D01*
X-25203Y224743D01*
X-25055Y224778D01*
X-24869Y224814D01*
X-24647Y224849D01*
X-24424Y224884D01*
X-24165Y224919D01*
X-23887Y224954D01*
X-23293Y225023D01*
X-22664Y225074D01*
X-21997Y225086D01*
X-21978Y225086D01*
D02*
G37*
G36*
X-18003Y219832D02*
X-17985Y219832D01*
X-17948Y219831D01*
X-17911Y219812D01*
X-17856Y219775D01*
X-17856Y219756D01*
X-17819Y219737D01*
X-17801Y219682D01*
X-17765Y219608D01*
X-17765Y219589D01*
X-17747Y219533D01*
X-17747Y219441D01*
X-17730Y219311D01*
X-17730Y219274D01*
X-17713Y219181D01*
X-17695Y219033D01*
X-17698Y218644D01*
X-17718Y218477D01*
X-17738Y218330D01*
X-17738Y218293D01*
X-17758Y218219D01*
X-17758Y218126D01*
X-17778Y218015D01*
X-17778Y217997D01*
X-17797Y217960D01*
X-17834Y217904D01*
X-17872Y217868D01*
X-17890Y217868D01*
X-17909Y217850D01*
X-18020Y217832D01*
X-22260Y217867D01*
X-22279Y217867D01*
X-22316Y217867D01*
X-22390Y217868D01*
X-22482Y217869D01*
X-22686Y217833D01*
X-22909Y217798D01*
X-22927Y217798D01*
X-22964Y217780D01*
X-23020Y217762D01*
X-23076Y217744D01*
X-23243Y217671D01*
X-23410Y217580D01*
X-23429Y217580D01*
X-23448Y217562D01*
X-23541Y217489D01*
X-23653Y217379D01*
X-23747Y217231D01*
X-23765Y217194D01*
X-23822Y217102D01*
X-23860Y216936D01*
X-23880Y216732D01*
X-23881Y216677D01*
X-23863Y216602D01*
X-23845Y216510D01*
X-23809Y216398D01*
X-23754Y216287D01*
X-23682Y216138D01*
X-23590Y216008D01*
X-23572Y215989D01*
X-23535Y215952D01*
X-23480Y215859D01*
X-23388Y215765D01*
X-23278Y215653D01*
X-23131Y215504D01*
X-22966Y215354D01*
X-22782Y215205D01*
X-18042Y215166D01*
X-18023Y215166D01*
X-17986Y215165D01*
X-17950Y215146D01*
X-17894Y215109D01*
X-17894Y215090D01*
X-17858Y215072D01*
X-17839Y215016D01*
X-17803Y214942D01*
X-17803Y214923D01*
X-17785Y214867D01*
X-17786Y214756D01*
X-17769Y214626D01*
X-17769Y214589D01*
X-17751Y214497D01*
X-17734Y214348D01*
X-17737Y213997D01*
X-17757Y213830D01*
X-17777Y213664D01*
X-17777Y213626D01*
X-17796Y213553D01*
X-17797Y213460D01*
X-17816Y213368D01*
X-17816Y213349D01*
X-17835Y213312D01*
X-17873Y213257D01*
X-17910Y213202D01*
X-17929Y213202D01*
X-17947Y213183D01*
X-18058Y213166D01*
X-22299Y213201D01*
X-22317Y213201D01*
X-22354Y213201D01*
X-22428Y213202D01*
X-22521Y213203D01*
X-22725Y213167D01*
X-22947Y213132D01*
X-22966Y213132D01*
X-23003Y213114D01*
X-23059Y213096D01*
X-23114Y213078D01*
X-23282Y213005D01*
X-23449Y212914D01*
X-23468Y212914D01*
X-23486Y212896D01*
X-23579Y212823D01*
X-23691Y212712D01*
X-23785Y212565D01*
X-23804Y212528D01*
X-23860Y212436D01*
X-23899Y212270D01*
X-23919Y212066D01*
X-23919Y212011D01*
X-23902Y211936D01*
X-23884Y211844D01*
X-23848Y211714D01*
X-23793Y211602D01*
X-23720Y211453D01*
X-23629Y211323D01*
X-23610Y211304D01*
X-23574Y211267D01*
X-23519Y211193D01*
X-23427Y211081D01*
X-23317Y210969D01*
X-23170Y210838D01*
X-23005Y210688D01*
X-22821Y210539D01*
X-18081Y210500D01*
X-18062Y210499D01*
X-18025Y210499D01*
X-17988Y210480D01*
X-17933Y210443D01*
X-17933Y210424D01*
X-17896Y210406D01*
X-17878Y210350D01*
X-17842Y210275D01*
X-17842Y210257D01*
X-17824Y210201D01*
X-17825Y210090D01*
X-17807Y209960D01*
X-17808Y209923D01*
X-17790Y209831D01*
X-17772Y209682D01*
X-17775Y209312D01*
X-17795Y209146D01*
X-17815Y208979D01*
X-17816Y208942D01*
X-17835Y208868D01*
X-17835Y208776D01*
X-17855Y208683D01*
X-17855Y208664D01*
X-17874Y208628D01*
X-17911Y208572D01*
X-17949Y208517D01*
X-17967Y208517D01*
X-17986Y208499D01*
X-18097Y208481D01*
X-25226Y208540D01*
X-25244Y208540D01*
X-25281Y208541D01*
X-25374Y208578D01*
X-25392Y208579D01*
X-25410Y208616D01*
X-25429Y208653D01*
X-25465Y208709D01*
X-25465Y208727D01*
X-25483Y208783D01*
X-25501Y208876D01*
X-25518Y208987D01*
X-25518Y209024D01*
X-25536Y209098D01*
X-25553Y209228D01*
X-25551Y209543D01*
X-25531Y209691D01*
X-25512Y209820D01*
X-25511Y209857D01*
X-25492Y209913D01*
X-25473Y210005D01*
X-25454Y210079D01*
X-25454Y210098D01*
X-25435Y210134D01*
X-25398Y210171D01*
X-25360Y210208D01*
X-25341Y210226D01*
X-25323Y210245D01*
X-25267Y210263D01*
X-25212Y210262D01*
X-24397Y210256D01*
X-24434Y210274D01*
X-24507Y210368D01*
X-24617Y210480D01*
X-24764Y210629D01*
X-24911Y210797D01*
X-25076Y211002D01*
X-25222Y211207D01*
X-25350Y211430D01*
X-25368Y211449D01*
X-25405Y211542D01*
X-25459Y211653D01*
X-25514Y211802D01*
X-25568Y211987D01*
X-25621Y212210D01*
X-25657Y212432D01*
X-25673Y212673D01*
X-25672Y212821D01*
X-25652Y212932D01*
X-25632Y213173D01*
X-25556Y213450D01*
X-25555Y213468D01*
X-25537Y213505D01*
X-25517Y213579D01*
X-25480Y213653D01*
X-25404Y213856D01*
X-25291Y214077D01*
X-25291Y214096D01*
X-25254Y214133D01*
X-25179Y214243D01*
X-25048Y214390D01*
X-24880Y214555D01*
X-24861Y214574D01*
X-24843Y214592D01*
X-24787Y214629D01*
X-24712Y214665D01*
X-24545Y214775D01*
X-24322Y214884D01*
X-24340Y214903D01*
X-24377Y214940D01*
X-24450Y215015D01*
X-24524Y215089D01*
X-24726Y215295D01*
X-24909Y215519D01*
X-24927Y215537D01*
X-24945Y215574D01*
X-25001Y215630D01*
X-25055Y215723D01*
X-25183Y215910D01*
X-25311Y216133D01*
X-25311Y216152D01*
X-25348Y216189D01*
X-25366Y216245D01*
X-25402Y216319D01*
X-25475Y216505D01*
X-25547Y216728D01*
X-25547Y216746D01*
X-25565Y216783D01*
X-25583Y216839D01*
X-25601Y216913D01*
X-25618Y217117D01*
X-25635Y217339D01*
X-25633Y217469D01*
X-25614Y217598D01*
X-25594Y217765D01*
X-25574Y217950D01*
X-25535Y218153D01*
X-25459Y218356D01*
X-25384Y218541D01*
X-25365Y218559D01*
X-25346Y218615D01*
X-25290Y218707D01*
X-25215Y218817D01*
X-25121Y218946D01*
X-24991Y219075D01*
X-24860Y219203D01*
X-24711Y219313D01*
X-24692Y219331D01*
X-24636Y219368D01*
X-24543Y219423D01*
X-24432Y219477D01*
X-24302Y219550D01*
X-24134Y219623D01*
X-23949Y219696D01*
X-23744Y219749D01*
X-23726Y219749D01*
X-23652Y219767D01*
X-23540Y219785D01*
X-23392Y219821D01*
X-23207Y219838D01*
X-23021Y219855D01*
X-22577Y219869D01*
X-18003Y219832D01*
D02*
G37*
G36*
X-18113Y206500D02*
X-18095Y206500D01*
X-18058Y206500D01*
X-18021Y206481D01*
X-17966Y206443D01*
X-17966Y206425D01*
X-17929Y206406D01*
X-17911Y206350D01*
X-17875Y206276D01*
X-17875Y206257D01*
X-17857Y206202D01*
X-17858Y206109D01*
X-17840Y205979D01*
X-17840Y205942D01*
X-17823Y205850D01*
X-17805Y205701D01*
X-17809Y205312D01*
X-17828Y205146D01*
X-17848Y204998D01*
X-17848Y204961D01*
X-17868Y204887D01*
X-17868Y204795D01*
X-17888Y204684D01*
X-17888Y204665D01*
X-17907Y204628D01*
X-17944Y204573D01*
X-17981Y204536D01*
X-18000Y204536D01*
X-18019Y204518D01*
X-18130Y204500D01*
X-22370Y204535D01*
X-22389Y204536D01*
X-22426Y204536D01*
X-22500Y204536D01*
X-22592Y204537D01*
X-22796Y204502D01*
X-23019Y204467D01*
X-23037Y204467D01*
X-23075Y204449D01*
X-23130Y204431D01*
X-23186Y204412D01*
X-23353Y204340D01*
X-23521Y204249D01*
X-23539Y204249D01*
X-23558Y204230D01*
X-23651Y204157D01*
X-23763Y204047D01*
X-23857Y203900D01*
X-23876Y203863D01*
X-23932Y203771D01*
X-23970Y203604D01*
X-23990Y203401D01*
X-23991Y203345D01*
X-23973Y203271D01*
X-23955Y203178D01*
X-23919Y203067D01*
X-23865Y202955D01*
X-23792Y202807D01*
X-23700Y202676D01*
X-23682Y202658D01*
X-23645Y202620D01*
X-23590Y202527D01*
X-23498Y202434D01*
X-23388Y202322D01*
X-23242Y202172D01*
X-23076Y202023D01*
X-22892Y201873D01*
X-18152Y201834D01*
X-18133Y201834D01*
X-18096Y201834D01*
X-18060Y201815D01*
X-18004Y201777D01*
X-18004Y201759D01*
X-17968Y201740D01*
X-17950Y201684D01*
X-17913Y201610D01*
X-17913Y201591D01*
X-17895Y201536D01*
X-17896Y201425D01*
X-17879Y201295D01*
X-17879Y201258D01*
X-17861Y201165D01*
X-17844Y201017D01*
X-17847Y200665D01*
X-17867Y200499D01*
X-17887Y200332D01*
X-17887Y200295D01*
X-17906Y200221D01*
X-17907Y200128D01*
X-17926Y200036D01*
X-17926Y200018D01*
X-17945Y199981D01*
X-17983Y199925D01*
X-18020Y199870D01*
X-18039Y199870D01*
X-18057Y199852D01*
X-18168Y199834D01*
X-22409Y199869D01*
X-22427Y199870D01*
X-22464Y199870D01*
X-22538Y199870D01*
X-22631Y199871D01*
X-22835Y199836D01*
X-23057Y199801D01*
X-23076Y199801D01*
X-23113Y199783D01*
X-23169Y199765D01*
X-23224Y199746D01*
X-23392Y199674D01*
X-23559Y199583D01*
X-23578Y199583D01*
X-23596Y199564D01*
X-23689Y199491D01*
X-23802Y199381D01*
X-23895Y199234D01*
X-23914Y199197D01*
X-23970Y199105D01*
X-24009Y198938D01*
X-24029Y198735D01*
X-24030Y198679D01*
X-24012Y198605D01*
X-23994Y198512D01*
X-23958Y198382D01*
X-23903Y198271D01*
X-23830Y198122D01*
X-23739Y197992D01*
X-23721Y197973D01*
X-23684Y197936D01*
X-23629Y197861D01*
X-23537Y197749D01*
X-23427Y197637D01*
X-23280Y197506D01*
X-23115Y197357D01*
X-22931Y197207D01*
X-18190Y197168D01*
X-18172Y197168D01*
X-18135Y197168D01*
X-18098Y197149D01*
X-18043Y197111D01*
X-18043Y197093D01*
X-18006Y197074D01*
X-17988Y197018D01*
X-17952Y196944D01*
X-17952Y196925D01*
X-17934Y196870D01*
X-17935Y196759D01*
X-17917Y196629D01*
X-17917Y196592D01*
X-17900Y196499D01*
X-17882Y196351D01*
X-17886Y195980D01*
X-17905Y195814D01*
X-17925Y195648D01*
X-17926Y195611D01*
X-17945Y195537D01*
X-17945Y195444D01*
X-17965Y195352D01*
X-17965Y195333D01*
X-17984Y195296D01*
X-18021Y195241D01*
X-18059Y195186D01*
X-18077Y195186D01*
X-18096Y195168D01*
X-18207Y195150D01*
X-25336Y195209D01*
X-25354Y195209D01*
X-25391Y195209D01*
X-25484Y195247D01*
X-25502Y195247D01*
X-25520Y195284D01*
X-25539Y195322D01*
X-25575Y195377D01*
X-25575Y195396D01*
X-25593Y195452D01*
X-25611Y195544D01*
X-25628Y195656D01*
X-25628Y195693D01*
X-25646Y195767D01*
X-25663Y195897D01*
X-25661Y196211D01*
X-25641Y196359D01*
X-25622Y196489D01*
X-25621Y196526D01*
X-25602Y196581D01*
X-25583Y196674D01*
X-25564Y196747D01*
X-25564Y196766D01*
X-25545Y196803D01*
X-25508Y196840D01*
X-25470Y196876D01*
X-25452Y196895D01*
X-25433Y196913D01*
X-25377Y196931D01*
X-25322Y196931D01*
X-24507Y196924D01*
X-24544Y196943D01*
X-24617Y197036D01*
X-24727Y197148D01*
X-24874Y197297D01*
X-25021Y197465D01*
X-25186Y197670D01*
X-25332Y197875D01*
X-25460Y198098D01*
X-25478Y198117D01*
X-25515Y198210D01*
X-25569Y198321D01*
X-25624Y198470D01*
X-25678Y198656D01*
X-25731Y198878D01*
X-25767Y199101D01*
X-25783Y199342D01*
X-25782Y199490D01*
X-25763Y199601D01*
X-25742Y199841D01*
X-25666Y200119D01*
X-25666Y200137D01*
X-25647Y200174D01*
X-25628Y200248D01*
X-25590Y200322D01*
X-25514Y200525D01*
X-25401Y200746D01*
X-25401Y200764D01*
X-25364Y200801D01*
X-25289Y200912D01*
X-25158Y201059D01*
X-24990Y201224D01*
X-24971Y201242D01*
X-24953Y201261D01*
X-24897Y201297D01*
X-24822Y201334D01*
X-24655Y201443D01*
X-24432Y201553D01*
X-24450Y201571D01*
X-24487Y201609D01*
X-24560Y201683D01*
X-24634Y201758D01*
X-24836Y201963D01*
X-25019Y202187D01*
X-25037Y202206D01*
X-25056Y202243D01*
X-25111Y202299D01*
X-25165Y202392D01*
X-25294Y202578D01*
X-25421Y202801D01*
X-25421Y202820D01*
X-25458Y202857D01*
X-25476Y202913D01*
X-25512Y202987D01*
X-25585Y203173D01*
X-25657Y203396D01*
X-25657Y203414D01*
X-25675Y203452D01*
X-25693Y203507D01*
X-25711Y203582D01*
X-25728Y203785D01*
X-25745Y204008D01*
X-25744Y204137D01*
X-25724Y204267D01*
X-25704Y204433D01*
X-25684Y204618D01*
X-25645Y204822D01*
X-25570Y205025D01*
X-25494Y205209D01*
X-25475Y205228D01*
X-25456Y205283D01*
X-25400Y205375D01*
X-25325Y205486D01*
X-25231Y205614D01*
X-25101Y205743D01*
X-24970Y205872D01*
X-24821Y205982D01*
X-24802Y206000D01*
X-24746Y206036D01*
X-24653Y206091D01*
X-24542Y206146D01*
X-24412Y206219D01*
X-24244Y206292D01*
X-24059Y206364D01*
X-23854Y206418D01*
X-23836Y206418D01*
X-23762Y206436D01*
X-23651Y206453D01*
X-23502Y206489D01*
X-23317Y206506D01*
X-23131Y206523D01*
X-22687Y206538D01*
X-18113Y206500D01*
D02*
G37*
G36*
X-29054Y193425D02*
X-29017Y193424D01*
X-28962Y193424D01*
X-28888Y193405D01*
X-28869Y193405D01*
X-28814Y193367D01*
X-28740Y193330D01*
X-28629Y193292D01*
X-28482Y193235D01*
X-28315Y193159D01*
X-28112Y193084D01*
X-27909Y193008D01*
X-27669Y192932D01*
X-27429Y192837D01*
X-26875Y192666D01*
X-26284Y192513D01*
X-25674Y192360D01*
X-25656Y192360D01*
X-25600Y192341D01*
X-25508Y192321D01*
X-25397Y192302D01*
X-25230Y192282D01*
X-25064Y192244D01*
X-24860Y192223D01*
X-24639Y192185D01*
X-24380Y192146D01*
X-24121Y192125D01*
X-23547Y192064D01*
X-22918Y192022D01*
X-22270Y191998D01*
X-22252Y191998D01*
X-22196Y191998D01*
X-22103Y191997D01*
X-21974Y191996D01*
X-21825Y192013D01*
X-21640Y192012D01*
X-21418Y192028D01*
X-21196Y192027D01*
X-20936Y192043D01*
X-20677Y192059D01*
X-20102Y192129D01*
X-19491Y192198D01*
X-18879Y192304D01*
X-18860Y192304D01*
X-18805Y192322D01*
X-18712Y192339D01*
X-18600Y192376D01*
X-18452Y192411D01*
X-18267Y192447D01*
X-18081Y192501D01*
X-17858Y192555D01*
X-17357Y192699D01*
X-16819Y192861D01*
X-16243Y193060D01*
X-15649Y193295D01*
X-15630Y193295D01*
X-15574Y193313D01*
X-15426Y193331D01*
X-15408Y193331D01*
X-15371Y193312D01*
X-15334Y193293D01*
X-15279Y193237D01*
X-15260Y193218D01*
X-15242Y193181D01*
X-15206Y193088D01*
X-15170Y192977D01*
X-15170Y192940D01*
X-15152Y192847D01*
X-15135Y192680D01*
X-15139Y192217D01*
X-15159Y192088D01*
X-15159Y192069D01*
X-15178Y191995D01*
X-15197Y191922D01*
X-15216Y191829D01*
X-15216Y191811D01*
X-15235Y191774D01*
X-15254Y191718D01*
X-15292Y191663D01*
X-15311Y191626D01*
X-15385Y191590D01*
X-15403Y191590D01*
X-15422Y191572D01*
X-15534Y191517D01*
X-15701Y191426D01*
X-15905Y191335D01*
X-16166Y191207D01*
X-16445Y191080D01*
X-16760Y190953D01*
X-17076Y190826D01*
X-17095Y190826D01*
X-17113Y190808D01*
X-17225Y190772D01*
X-17392Y190718D01*
X-17596Y190645D01*
X-17856Y190555D01*
X-18135Y190483D01*
X-18450Y190393D01*
X-18766Y190303D01*
X-18784Y190303D01*
X-18803Y190303D01*
X-18914Y190267D01*
X-19081Y190231D01*
X-19304Y190196D01*
X-19563Y190143D01*
X-19860Y190090D01*
X-20175Y190037D01*
X-20490Y190002D01*
X-20509Y190003D01*
X-20527Y190003D01*
X-20639Y189985D01*
X-20824Y189968D01*
X-21046Y189970D01*
X-21324Y189954D01*
X-21620Y189938D01*
X-21954Y189922D01*
X-22287Y189925D01*
X-22306Y189925D01*
X-22324Y189925D01*
X-22435Y189926D01*
X-22620Y189927D01*
X-22842Y189948D01*
X-23102Y189950D01*
X-23398Y189971D01*
X-23712Y189992D01*
X-24045Y190032D01*
X-24064Y190032D01*
X-24082Y190032D01*
X-24193Y190051D01*
X-24378Y190090D01*
X-24600Y190110D01*
X-24859Y190168D01*
X-25155Y190226D01*
X-25783Y190361D01*
X-25802Y190361D01*
X-25820Y190380D01*
X-25931Y190399D01*
X-26097Y190456D01*
X-26319Y190513D01*
X-26578Y190590D01*
X-26873Y190685D01*
X-27482Y190912D01*
X-27501Y190912D01*
X-27519Y190931D01*
X-27630Y190969D01*
X-27796Y191044D01*
X-28017Y191139D01*
X-28276Y191252D01*
X-28552Y191384D01*
X-28866Y191534D01*
X-29179Y191685D01*
X-29198Y191685D01*
X-29216Y191704D01*
X-29235Y191741D01*
X-29234Y191760D01*
X-29253Y191778D01*
X-29289Y191890D01*
X-29289Y191908D01*
X-29307Y191964D01*
X-29325Y192038D01*
X-29342Y192149D01*
X-29342Y192187D01*
X-29360Y192261D01*
X-29356Y192742D01*
X-29336Y192890D01*
X-29316Y193038D01*
X-29316Y193075D01*
X-29297Y193149D01*
X-29259Y193241D01*
X-29222Y193315D01*
X-29203Y193333D01*
X-29184Y193370D01*
X-29128Y193407D01*
X-29072Y193425D01*
X-29054Y193425D01*
D02*
G37*
G36*
X-21477Y184844D02*
X-21440Y184844D01*
X-21348Y184843D01*
X-21200Y184823D01*
X-21015Y184803D01*
X-20793Y184783D01*
X-20534Y184744D01*
X-20294Y184668D01*
X-20035Y184592D01*
X-19998Y184573D01*
X-19924Y184554D01*
X-19795Y184497D01*
X-19648Y184403D01*
X-19463Y184309D01*
X-19260Y184196D01*
X-19058Y184046D01*
X-18874Y183878D01*
X-18856Y183860D01*
X-18801Y183804D01*
X-18709Y183692D01*
X-18599Y183561D01*
X-18489Y183394D01*
X-18362Y183189D01*
X-18234Y182966D01*
X-18125Y182724D01*
X-18106Y182687D01*
X-18089Y182613D01*
X-18053Y182464D01*
X-17999Y182279D01*
X-17945Y182038D01*
X-17910Y181778D01*
X-17894Y181463D01*
X-17878Y181148D01*
X-17880Y181019D01*
X-17899Y180889D01*
X-17900Y180722D01*
X-17921Y180519D01*
X-17959Y180315D01*
X-18055Y179890D01*
X-18056Y179872D01*
X-18093Y179798D01*
X-18112Y179706D01*
X-18169Y179577D01*
X-18244Y179447D01*
X-18320Y179282D01*
X-18526Y178968D01*
X-18545Y178950D01*
X-18582Y178913D01*
X-18657Y178840D01*
X-18731Y178748D01*
X-18843Y178656D01*
X-18974Y178546D01*
X-19272Y178345D01*
X-19290Y178327D01*
X-19346Y178309D01*
X-19439Y178254D01*
X-19569Y178218D01*
X-19718Y178145D01*
X-19885Y178091D01*
X-20275Y177964D01*
X-20293Y177965D01*
X-20368Y177947D01*
X-20479Y177911D01*
X-20627Y177893D01*
X-20813Y177858D01*
X-21017Y177822D01*
X-21239Y177787D01*
X-21480Y177771D01*
X-21517Y177771D01*
X-21591Y177772D01*
X-21721Y177754D01*
X-21888Y177756D01*
X-22091Y177739D01*
X-22332Y177741D01*
X-22592Y177724D01*
X-22851Y177726D01*
X-22888Y177727D01*
X-22962Y177727D01*
X-23073Y177728D01*
X-23240Y177730D01*
X-23425Y177750D01*
X-23647Y177752D01*
X-24128Y177793D01*
X-24165Y177793D01*
X-24239Y177812D01*
X-24369Y177813D01*
X-24535Y177852D01*
X-24738Y177872D01*
X-24960Y177910D01*
X-25422Y178025D01*
X-25459Y178026D01*
X-25533Y178063D01*
X-25662Y178102D01*
X-25810Y178158D01*
X-26013Y178234D01*
X-26216Y178310D01*
X-26640Y178517D01*
X-26659Y178536D01*
X-26732Y178573D01*
X-26843Y178648D01*
X-26990Y178742D01*
X-27156Y178855D01*
X-27322Y178986D01*
X-27487Y179153D01*
X-27652Y179321D01*
X-27670Y179340D01*
X-27725Y179415D01*
X-27799Y179526D01*
X-27909Y179657D01*
X-28018Y179843D01*
X-28128Y180048D01*
X-28237Y180271D01*
X-28346Y180531D01*
X-28364Y180568D01*
X-28382Y180661D01*
X-28417Y180809D01*
X-28471Y181013D01*
X-28525Y181255D01*
X-28560Y181533D01*
X-28576Y181847D01*
X-28591Y182199D01*
X-28590Y182385D01*
X-28570Y182570D01*
X-28549Y182792D01*
X-28549Y182847D01*
X-28530Y182903D01*
X-28529Y182977D01*
X-28491Y183162D01*
X-28452Y183365D01*
X-28451Y183421D01*
X-28414Y183531D01*
X-28375Y183679D01*
X-28319Y183827D01*
X-28300Y183864D01*
X-28281Y183919D01*
X-28224Y184011D01*
X-28187Y184066D01*
X-28187Y184085D01*
X-28150Y184103D01*
X-28057Y184139D01*
X-28019Y184158D01*
X-27927Y184194D01*
X-27908Y184194D01*
X-27871Y184212D01*
X-27815Y184230D01*
X-27741Y184229D01*
X-27723Y184229D01*
X-27667Y184247D01*
X-27574Y184247D01*
X-27463Y184246D01*
X-27445Y184245D01*
X-27426Y184245D01*
X-27315Y184244D01*
X-27185Y184243D01*
X-27056Y184224D01*
X-27038Y184223D01*
X-26964Y184204D01*
X-26871Y184185D01*
X-26797Y184166D01*
X-26779Y184166D01*
X-26742Y184147D01*
X-26705Y184128D01*
X-26668Y184091D01*
X-26669Y184072D01*
X-26650Y184054D01*
X-26632Y183942D01*
X-26633Y183887D01*
X-26652Y183794D01*
X-26672Y183702D01*
X-26690Y183684D01*
X-26709Y183610D01*
X-26747Y183480D01*
X-26786Y183333D01*
X-26786Y183314D01*
X-26804Y183296D01*
X-26824Y183185D01*
X-26881Y183019D01*
X-26920Y182815D01*
X-26920Y182797D01*
X-26939Y182760D01*
X-26939Y182704D01*
X-26958Y182630D01*
X-26978Y182427D01*
X-26981Y182038D01*
X-26964Y181927D01*
X-26947Y181779D01*
X-26930Y181593D01*
X-26894Y181408D01*
X-26822Y181222D01*
X-26749Y181055D01*
X-26731Y181036D01*
X-26713Y180980D01*
X-26658Y180906D01*
X-26584Y180794D01*
X-26493Y180682D01*
X-26364Y180552D01*
X-26235Y180439D01*
X-26088Y180327D01*
X-26070Y180308D01*
X-26015Y180289D01*
X-25923Y180233D01*
X-25812Y180177D01*
X-25683Y180102D01*
X-25517Y180026D01*
X-25332Y179969D01*
X-25129Y179912D01*
X-25110Y179912D01*
X-25036Y179893D01*
X-24925Y179873D01*
X-24778Y179835D01*
X-24611Y179815D01*
X-24426Y179795D01*
X-23982Y179754D01*
X-24000Y179791D01*
X-24055Y179884D01*
X-24128Y180015D01*
X-24201Y180163D01*
X-24201Y180182D01*
X-24219Y180201D01*
X-24274Y180312D01*
X-24328Y180461D01*
X-24382Y180646D01*
X-24382Y180665D01*
X-24400Y180702D01*
X-24418Y180758D01*
X-24436Y180832D01*
X-24490Y181017D01*
X-24525Y181240D01*
X-24525Y181259D01*
X-24543Y181296D01*
X-24543Y181351D01*
X-24561Y181444D01*
X-24578Y181648D01*
X-24574Y182037D01*
X-24555Y182185D01*
X-24553Y182370D01*
X-24514Y182573D01*
X-24476Y182795D01*
X-24418Y183017D01*
X-24342Y183238D01*
X-24323Y183257D01*
X-24304Y183331D01*
X-24248Y183441D01*
X-24173Y183570D01*
X-24079Y183718D01*
X-23985Y183865D01*
X-23854Y184012D01*
X-23705Y184159D01*
X-23686Y184177D01*
X-23630Y184214D01*
X-23556Y184287D01*
X-23444Y184361D01*
X-23295Y184433D01*
X-23128Y184525D01*
X-22942Y184597D01*
X-22738Y184669D01*
X-22719Y184669D01*
X-22645Y184706D01*
X-22534Y184723D01*
X-22367Y184759D01*
X-22181Y184795D01*
X-21978Y184811D01*
X-21737Y184846D01*
X-21477Y184844D01*
D02*
G37*
G36*
X-18955Y176361D02*
X-18936Y176361D01*
X-18918Y176361D01*
X-18807Y176360D01*
X-18677Y176340D01*
X-18548Y176321D01*
X-18529Y176320D01*
X-18455Y176301D01*
X-18363Y176282D01*
X-18271Y176263D01*
X-18252Y176263D01*
X-18215Y176244D01*
X-18178Y176206D01*
X-18142Y176151D01*
X-18124Y176113D01*
X-18106Y176021D01*
X-18157Y169855D01*
X-18176Y169762D01*
X-18176Y169744D01*
X-18214Y169689D01*
X-18251Y169615D01*
X-18308Y169541D01*
X-18326Y169523D01*
X-18382Y169505D01*
X-18456Y169468D01*
X-18568Y169432D01*
X-18605Y169433D01*
X-18697Y169433D01*
X-18846Y169416D01*
X-19031Y169418D01*
X-19049Y169418D01*
X-19068Y169418D01*
X-19179Y169419D01*
X-19327Y169420D01*
X-19475Y169440D01*
X-19493Y169440D01*
X-19512Y169440D01*
X-19604Y169459D01*
X-19715Y169479D01*
X-19826Y169517D01*
X-19844Y169536D01*
X-19918Y169573D01*
X-20010Y169629D01*
X-20103Y169686D01*
X-20121Y169704D01*
X-20194Y169761D01*
X-20305Y169854D01*
X-20415Y169966D01*
X-22326Y171778D01*
X-22344Y171797D01*
X-22418Y171871D01*
X-22528Y171965D01*
X-22657Y172096D01*
X-22822Y172227D01*
X-22987Y172376D01*
X-23153Y172507D01*
X-23337Y172638D01*
X-23356Y172657D01*
X-23411Y172694D01*
X-23503Y172751D01*
X-23613Y172826D01*
X-23890Y172995D01*
X-24166Y173164D01*
X-24185Y173164D01*
X-24240Y173201D01*
X-24314Y173220D01*
X-24406Y173277D01*
X-24627Y173353D01*
X-24868Y173429D01*
X-24886Y173429D01*
X-24923Y173448D01*
X-24978Y173448D01*
X-25071Y173467D01*
X-25256Y173487D01*
X-25478Y173508D01*
X-25496Y173508D01*
X-25515Y173508D01*
X-25645Y173491D01*
X-25793Y173473D01*
X-25979Y173419D01*
X-25997Y173419D01*
X-26016Y173401D01*
X-26128Y173346D01*
X-26258Y173273D01*
X-26388Y173163D01*
X-26425Y173145D01*
X-26500Y173053D01*
X-26594Y172924D01*
X-26669Y172758D01*
X-26669Y172740D01*
X-26688Y172721D01*
X-26707Y172666D01*
X-26726Y172592D01*
X-26765Y172407D01*
X-26785Y172167D01*
X-26787Y172000D01*
X-26769Y171889D01*
X-26734Y171629D01*
X-26663Y171332D01*
X-26663Y171314D01*
X-26644Y171277D01*
X-26627Y171203D01*
X-26590Y171110D01*
X-26518Y170905D01*
X-26409Y170682D01*
X-26409Y170664D01*
X-26391Y170645D01*
X-26318Y170515D01*
X-26226Y170366D01*
X-26135Y170217D01*
X-26117Y170180D01*
X-26080Y170105D01*
X-26044Y170013D01*
X-26026Y169938D01*
X-26026Y169901D01*
X-26064Y169809D01*
X-26083Y169809D01*
X-26101Y169772D01*
X-26157Y169754D01*
X-26232Y169718D01*
X-26250Y169718D01*
X-26306Y169700D01*
X-26398Y169701D01*
X-26528Y169683D01*
X-26565Y169684D01*
X-26658Y169684D01*
X-26806Y169667D01*
X-26991Y169669D01*
X-27028Y169669D01*
X-27102Y169669D01*
X-27195Y169670D01*
X-27287Y169671D01*
X-27306Y169671D01*
X-27361Y169690D01*
X-27509Y169710D01*
X-27528Y169710D01*
X-27565Y169729D01*
X-27657Y169767D01*
X-27675Y169785D01*
X-27712Y169804D01*
X-27822Y169916D01*
X-27841Y169935D01*
X-27896Y170009D01*
X-27969Y170121D01*
X-28060Y170289D01*
X-28060Y170307D01*
X-28078Y170344D01*
X-28115Y170400D01*
X-28151Y170474D01*
X-28242Y170697D01*
X-28332Y170957D01*
X-28332Y170976D01*
X-28350Y171032D01*
X-28386Y171106D01*
X-28423Y171217D01*
X-28459Y171329D01*
X-28495Y171477D01*
X-28566Y171811D01*
X-28566Y171830D01*
X-28584Y171904D01*
X-28601Y171997D01*
X-28619Y172126D01*
X-28636Y172275D01*
X-28653Y172441D01*
X-28669Y172812D01*
X-28668Y172941D01*
X-28648Y173108D01*
X-28646Y173293D01*
X-28607Y173515D01*
X-28568Y173755D01*
X-28511Y173996D01*
X-28435Y174217D01*
X-28435Y174236D01*
X-28397Y174328D01*
X-28340Y174439D01*
X-28284Y174568D01*
X-28096Y174900D01*
X-27984Y175065D01*
X-27853Y175212D01*
X-27834Y175231D01*
X-27796Y175286D01*
X-27722Y175359D01*
X-27610Y175433D01*
X-27480Y175543D01*
X-27349Y175634D01*
X-27182Y175725D01*
X-26996Y175816D01*
X-26977Y175835D01*
X-26903Y175853D01*
X-26810Y175889D01*
X-26680Y175925D01*
X-26513Y175961D01*
X-26328Y175977D01*
X-26124Y176013D01*
X-25920Y176011D01*
X-25902Y176011D01*
X-25828Y176010D01*
X-25735Y176010D01*
X-25606Y175990D01*
X-25457Y175989D01*
X-25291Y175969D01*
X-24921Y175892D01*
X-24903Y175892D01*
X-24829Y175872D01*
X-24736Y175853D01*
X-24607Y175797D01*
X-24460Y175740D01*
X-24275Y175683D01*
X-24072Y175588D01*
X-23869Y175476D01*
X-23851Y175457D01*
X-23777Y175420D01*
X-23667Y175345D01*
X-23501Y175250D01*
X-23317Y175138D01*
X-23114Y174988D01*
X-22893Y174820D01*
X-22636Y174614D01*
X-22599Y174595D01*
X-22525Y174520D01*
X-22378Y174389D01*
X-22195Y174221D01*
X-21955Y174016D01*
X-21699Y173754D01*
X-21386Y173455D01*
X-21074Y173138D01*
X-19843Y171924D01*
X-19809Y176053D01*
X-19790Y176090D01*
X-19753Y176145D01*
X-19734Y176164D01*
X-19716Y176182D01*
X-19604Y176255D01*
X-19585Y176274D01*
X-19530Y176292D01*
X-19455Y176310D01*
X-19344Y176327D01*
X-19307Y176327D01*
X-19233Y176345D01*
X-19103Y176362D01*
X-18955Y176361D01*
D02*
G37*
G36*
X-21487Y167957D02*
X-21376Y167956D01*
X-21228Y167936D01*
X-21024Y167916D01*
X-20784Y167877D01*
X-20544Y167819D01*
X-20285Y167743D01*
X-20027Y167648D01*
X-19990Y167630D01*
X-19916Y167592D01*
X-19787Y167517D01*
X-19640Y167423D01*
X-19455Y167310D01*
X-19272Y167161D01*
X-19088Y166992D01*
X-18904Y166806D01*
X-18886Y166787D01*
X-18831Y166712D01*
X-18758Y166601D01*
X-18648Y166452D01*
X-18538Y166266D01*
X-18429Y166043D01*
X-18320Y165801D01*
X-18230Y165522D01*
X-18230Y165485D01*
X-18194Y165393D01*
X-18158Y165244D01*
X-18123Y165040D01*
X-18088Y164799D01*
X-18053Y164521D01*
X-18037Y164206D01*
X-18021Y163873D01*
X-18022Y163706D01*
X-18042Y163577D01*
X-18043Y163428D01*
X-18063Y163281D01*
X-18103Y162948D01*
X-18103Y162929D01*
X-18122Y162874D01*
X-18123Y162799D01*
X-18142Y162689D01*
X-18181Y162448D01*
X-18239Y162171D01*
X-18239Y162152D01*
X-18258Y162115D01*
X-18277Y162060D01*
X-18296Y161986D01*
X-18353Y161801D01*
X-18428Y161617D01*
X-18447Y161580D01*
X-18485Y161506D01*
X-18542Y161396D01*
X-18598Y161322D01*
X-18616Y161322D01*
X-18635Y161285D01*
X-18728Y161231D01*
X-18747Y161231D01*
X-18784Y161213D01*
X-18895Y161176D01*
X-18914Y161177D01*
X-18969Y161177D01*
X-19043Y161159D01*
X-19136Y161160D01*
X-19173Y161160D01*
X-19247Y161161D01*
X-19358Y161162D01*
X-19506Y161163D01*
X-19525Y161163D01*
X-19543Y161163D01*
X-19636Y161164D01*
X-19765Y161165D01*
X-19877Y161166D01*
X-19914Y161166D01*
X-19969Y161185D01*
X-20062Y161205D01*
X-20135Y161224D01*
X-20154Y161224D01*
X-20191Y161243D01*
X-20227Y161280D01*
X-20264Y161299D01*
X-20283Y161318D01*
X-20301Y161336D01*
X-20319Y161373D01*
X-20319Y161447D01*
X-20300Y161484D01*
X-20281Y161558D01*
X-20224Y161669D01*
X-20206Y161706D01*
X-20168Y161779D01*
X-20092Y161927D01*
X-19999Y162093D01*
X-19998Y162111D01*
X-19980Y162148D01*
X-19961Y162204D01*
X-19923Y162277D01*
X-19866Y162481D01*
X-19790Y162739D01*
X-19789Y162758D01*
X-19770Y162813D01*
X-19770Y162887D01*
X-19750Y162998D01*
X-19731Y163128D01*
X-19729Y163294D01*
X-19709Y163479D01*
X-19706Y163831D01*
X-19724Y163942D01*
X-19740Y164220D01*
X-19793Y164498D01*
X-19793Y164517D01*
X-19811Y164573D01*
X-19829Y164628D01*
X-19866Y164721D01*
X-19957Y164944D01*
X-20084Y165149D01*
X-20103Y165168D01*
X-20121Y165186D01*
X-20231Y165298D01*
X-20397Y165429D01*
X-20618Y165561D01*
X-20637Y165561D01*
X-20673Y165580D01*
X-20747Y165617D01*
X-20840Y165637D01*
X-20950Y165675D01*
X-21080Y165694D01*
X-21395Y165715D01*
X-21413Y165715D01*
X-21450Y165716D01*
X-21524Y165716D01*
X-21617Y165699D01*
X-21839Y165663D01*
X-22062Y165591D01*
X-22081Y165591D01*
X-22118Y165573D01*
X-22174Y165536D01*
X-22248Y165500D01*
X-22416Y165390D01*
X-22584Y165225D01*
X-22602Y165207D01*
X-22621Y165188D01*
X-22659Y165115D01*
X-22696Y165041D01*
X-22753Y164949D01*
X-22809Y164838D01*
X-22904Y164561D01*
X-22904Y164543D01*
X-22923Y164487D01*
X-22942Y164395D01*
X-22962Y164284D01*
X-22982Y164136D01*
X-23001Y163969D01*
X-23021Y163784D01*
X-23025Y163303D01*
X-23009Y163025D01*
X-22975Y162729D01*
X-22975Y162673D01*
X-22957Y162599D01*
X-22958Y162506D01*
X-22941Y162284D01*
X-22925Y162024D01*
X-22925Y161987D01*
X-22945Y161895D01*
X-22982Y161784D01*
X-23039Y161692D01*
X-23057Y161674D01*
X-23150Y161656D01*
X-23280Y161620D01*
X-23484Y161603D01*
X-27965Y161640D01*
X-27983Y161640D01*
X-28020Y161641D01*
X-28150Y161660D01*
X-28298Y161698D01*
X-28427Y161755D01*
X-28445Y161774D01*
X-28500Y161848D01*
X-28554Y161978D01*
X-28572Y162164D01*
X-28531Y167089D01*
X-28512Y167144D01*
X-28475Y167181D01*
X-28456Y167199D01*
X-28437Y167218D01*
X-28381Y167254D01*
X-28307Y167291D01*
X-28288Y167291D01*
X-28233Y167309D01*
X-28159Y167327D01*
X-28047Y167344D01*
X-28010Y167344D01*
X-27936Y167362D01*
X-27806Y167379D01*
X-27640Y167378D01*
X-27621Y167378D01*
X-27566Y167377D01*
X-27473Y167376D01*
X-27380Y167357D01*
X-27140Y167337D01*
X-27029Y167317D01*
X-26937Y167279D01*
X-26900Y167261D01*
X-26845Y167223D01*
X-26771Y167130D01*
X-26753Y167093D01*
X-26735Y167037D01*
X-26765Y163371D01*
X-24543Y163353D01*
X-24543Y163408D01*
X-24561Y163464D01*
X-24561Y163519D01*
X-24578Y163705D01*
X-24575Y164001D01*
X-24593Y164075D01*
X-24588Y164631D01*
X-24569Y164779D01*
X-24567Y164982D01*
X-24528Y165204D01*
X-24489Y165463D01*
X-24450Y165722D01*
X-24374Y165962D01*
X-24373Y165999D01*
X-24336Y166073D01*
X-24279Y166202D01*
X-24222Y166350D01*
X-24128Y166516D01*
X-24034Y166700D01*
X-23903Y166884D01*
X-23772Y167050D01*
X-23753Y167068D01*
X-23698Y167123D01*
X-23623Y167197D01*
X-23511Y167307D01*
X-23380Y167417D01*
X-23213Y167526D01*
X-23027Y167636D01*
X-22822Y167727D01*
X-22804Y167745D01*
X-22729Y167763D01*
X-22599Y167799D01*
X-22451Y167854D01*
X-22265Y167889D01*
X-22043Y167924D01*
X-21802Y167941D01*
X-21524Y167957D01*
X-21487Y167957D01*
D02*
G37*
G36*
X-19354Y159403D02*
X-19262Y159402D01*
X-19132Y159382D01*
X-18984Y159362D01*
X-18651Y159286D01*
X-18485Y159229D01*
X-18375Y159135D01*
X-18357Y159117D01*
X-18338Y159079D01*
X-18302Y159024D01*
X-18266Y158912D01*
X-18211Y158782D01*
X-18175Y158634D01*
X-18159Y158430D01*
X-18142Y158189D01*
X-18143Y158078D01*
X-18162Y157967D01*
X-18182Y157819D01*
X-18259Y157523D01*
X-18315Y157376D01*
X-18390Y157265D01*
X-18409Y157247D01*
X-18446Y157228D01*
X-18502Y157192D01*
X-18614Y157156D01*
X-18744Y157101D01*
X-18910Y157066D01*
X-19114Y157049D01*
X-19355Y157032D01*
X-19392Y157033D01*
X-19485Y157033D01*
X-19614Y157053D01*
X-19762Y157073D01*
X-20113Y157150D01*
X-20261Y157206D01*
X-20371Y157300D01*
X-20390Y157319D01*
X-20408Y157356D01*
X-20445Y157412D01*
X-20499Y157523D01*
X-20554Y157635D01*
X-20589Y157802D01*
X-20606Y158006D01*
X-20623Y158228D01*
X-20622Y158339D01*
X-20603Y158450D01*
X-20583Y158598D01*
X-20506Y158894D01*
X-20450Y159041D01*
X-20356Y159152D01*
X-20338Y159170D01*
X-20300Y159188D01*
X-20245Y159225D01*
X-20133Y159279D01*
X-20003Y159334D01*
X-19836Y159369D01*
X-19632Y159386D01*
X-19391Y159403D01*
X-19354Y159403D01*
D02*
G37*
G36*
X-21719Y155534D02*
X-21682Y155533D01*
X-21590Y155532D01*
X-21442Y155513D01*
X-21257Y155493D01*
X-21035Y155472D01*
X-20776Y155433D01*
X-20536Y155357D01*
X-20277Y155281D01*
X-20240Y155262D01*
X-20166Y155243D01*
X-20037Y155186D01*
X-19890Y155092D01*
X-19705Y154998D01*
X-19503Y154886D01*
X-19300Y154736D01*
X-19116Y154568D01*
X-19098Y154549D01*
X-19043Y154493D01*
X-18951Y154381D01*
X-18841Y154250D01*
X-18731Y154083D01*
X-18604Y153878D01*
X-18476Y153655D01*
X-18367Y153413D01*
X-18348Y153376D01*
X-18331Y153302D01*
X-18295Y153153D01*
X-18241Y152968D01*
X-18187Y152727D01*
X-18152Y152467D01*
X-18136Y152152D01*
X-18120Y151837D01*
X-18122Y151708D01*
X-18141Y151578D01*
X-18142Y151412D01*
X-18163Y151208D01*
X-18201Y151005D01*
X-18297Y150580D01*
X-18298Y150561D01*
X-18335Y150487D01*
X-18355Y150395D01*
X-18411Y150266D01*
X-18486Y150137D01*
X-18562Y149971D01*
X-18768Y149658D01*
X-18787Y149639D01*
X-18824Y149603D01*
X-18899Y149529D01*
X-18973Y149437D01*
X-19085Y149346D01*
X-19216Y149235D01*
X-19514Y149034D01*
X-19533Y149016D01*
X-19588Y148998D01*
X-19681Y148943D01*
X-19811Y148907D01*
X-19960Y148834D01*
X-20127Y148780D01*
X-20517Y148654D01*
X-20535Y148654D01*
X-20610Y148636D01*
X-20721Y148600D01*
X-20869Y148582D01*
X-21055Y148547D01*
X-21259Y148512D01*
X-21481Y148476D01*
X-21722Y148460D01*
X-21759Y148460D01*
X-21833Y148461D01*
X-21963Y148443D01*
X-22130Y148445D01*
X-22334Y148428D01*
X-22574Y148430D01*
X-22834Y148413D01*
X-23093Y148416D01*
X-23130Y148416D01*
X-23204Y148417D01*
X-23315Y148418D01*
X-23482Y148419D01*
X-23667Y148439D01*
X-23889Y148441D01*
X-24370Y148482D01*
X-24407Y148482D01*
X-24481Y148501D01*
X-24611Y148502D01*
X-24777Y148541D01*
X-24980Y148561D01*
X-25202Y148600D01*
X-25664Y148715D01*
X-25701Y148715D01*
X-25775Y148753D01*
X-25904Y148791D01*
X-26052Y148848D01*
X-26255Y148923D01*
X-26458Y148999D01*
X-26882Y149206D01*
X-26901Y149225D01*
X-26974Y149263D01*
X-27085Y149338D01*
X-27232Y149431D01*
X-27398Y149544D01*
X-27564Y149675D01*
X-27729Y149843D01*
X-27894Y150011D01*
X-27912Y150029D01*
X-27967Y150104D01*
X-28040Y150216D01*
X-28151Y150346D01*
X-28260Y150532D01*
X-28370Y150737D01*
X-28479Y150960D01*
X-28588Y151220D01*
X-28606Y151257D01*
X-28624Y151350D01*
X-28660Y151498D01*
X-28713Y151703D01*
X-28767Y151944D01*
X-28802Y152222D01*
X-28818Y152537D01*
X-28833Y152889D01*
X-28832Y153074D01*
X-28812Y153259D01*
X-28791Y153481D01*
X-28791Y153536D01*
X-28772Y153592D01*
X-28771Y153666D01*
X-28733Y153851D01*
X-28694Y154054D01*
X-28693Y154110D01*
X-28656Y154221D01*
X-28617Y154368D01*
X-28561Y154516D01*
X-28542Y154553D01*
X-28523Y154608D01*
X-28466Y154700D01*
X-28429Y154756D01*
X-28429Y154774D01*
X-28392Y154792D01*
X-28299Y154829D01*
X-28261Y154847D01*
X-28169Y154883D01*
X-28150Y154883D01*
X-28113Y154901D01*
X-28057Y154919D01*
X-27983Y154919D01*
X-27965Y154918D01*
X-27909Y154937D01*
X-27816Y154936D01*
X-27705Y154935D01*
X-27687Y154935D01*
X-27668Y154935D01*
X-27557Y154934D01*
X-27428Y154932D01*
X-27298Y154913D01*
X-27280Y154913D01*
X-27206Y154894D01*
X-27113Y154874D01*
X-27039Y154855D01*
X-27021Y154855D01*
X-26984Y154836D01*
X-26947Y154817D01*
X-26910Y154780D01*
X-26911Y154762D01*
X-26892Y154743D01*
X-26874Y154632D01*
X-26875Y154576D01*
X-26894Y154484D01*
X-26914Y154391D01*
X-26932Y154373D01*
X-26951Y154299D01*
X-26990Y154170D01*
X-27028Y154022D01*
X-27028Y154003D01*
X-27046Y153985D01*
X-27066Y153874D01*
X-27123Y153708D01*
X-27162Y153504D01*
X-27162Y153486D01*
X-27181Y153449D01*
X-27181Y153393D01*
X-27200Y153320D01*
X-27220Y153116D01*
X-27224Y152727D01*
X-27206Y152616D01*
X-27189Y152468D01*
X-27172Y152282D01*
X-27136Y152097D01*
X-27064Y151911D01*
X-26991Y151744D01*
X-26973Y151725D01*
X-26955Y151670D01*
X-26900Y151595D01*
X-26827Y151483D01*
X-26735Y151371D01*
X-26606Y151241D01*
X-26478Y151129D01*
X-26330Y151016D01*
X-26312Y150998D01*
X-26257Y150979D01*
X-26165Y150922D01*
X-26054Y150866D01*
X-25925Y150791D01*
X-25759Y150715D01*
X-25574Y150658D01*
X-25371Y150601D01*
X-25352Y150601D01*
X-25278Y150582D01*
X-25168Y150562D01*
X-25020Y150524D01*
X-24853Y150504D01*
X-24668Y150484D01*
X-24224Y150443D01*
X-24242Y150481D01*
X-24297Y150574D01*
X-24370Y150704D01*
X-24443Y150853D01*
X-24443Y150871D01*
X-24461Y150890D01*
X-24516Y151001D01*
X-24570Y151150D01*
X-24624Y151335D01*
X-24624Y151354D01*
X-24642Y151391D01*
X-24660Y151447D01*
X-24678Y151521D01*
X-24732Y151707D01*
X-24767Y151929D01*
X-24767Y151948D01*
X-24785Y151985D01*
X-24785Y152041D01*
X-24803Y152133D01*
X-24820Y152337D01*
X-24816Y152726D01*
X-24797Y152874D01*
X-24795Y153059D01*
X-24756Y153262D01*
X-24718Y153484D01*
X-24660Y153706D01*
X-24584Y153928D01*
X-24565Y153946D01*
X-24546Y154020D01*
X-24490Y154130D01*
X-24415Y154260D01*
X-24321Y154407D01*
X-24227Y154554D01*
X-24096Y154701D01*
X-23947Y154848D01*
X-23928Y154867D01*
X-23872Y154903D01*
X-23798Y154977D01*
X-23686Y155050D01*
X-23537Y155123D01*
X-23370Y155214D01*
X-23184Y155286D01*
X-22980Y155359D01*
X-22961Y155358D01*
X-22887Y155395D01*
X-22776Y155413D01*
X-22609Y155448D01*
X-22423Y155484D01*
X-22220Y155501D01*
X-21978Y155536D01*
X-21719Y155534D01*
D02*
G37*
G36*
X-21327Y147031D02*
X-21234Y147030D01*
X-21086Y147010D01*
X-20901Y146990D01*
X-20698Y146952D01*
X-20457Y146894D01*
X-20217Y146818D01*
X-19996Y146724D01*
X-19978Y146705D01*
X-19904Y146667D01*
X-19793Y146592D01*
X-19646Y146498D01*
X-19499Y146386D01*
X-19315Y146236D01*
X-19150Y146068D01*
X-18984Y145882D01*
X-18966Y145863D01*
X-18911Y145789D01*
X-18838Y145677D01*
X-18765Y145528D01*
X-18656Y145324D01*
X-18565Y145119D01*
X-18474Y144859D01*
X-18384Y144599D01*
X-18384Y144562D01*
X-18348Y144469D01*
X-18331Y144321D01*
X-18295Y144136D01*
X-18260Y143895D01*
X-18225Y143617D01*
X-18209Y143320D01*
X-18193Y143005D01*
X-18195Y142820D01*
X-18215Y142672D01*
X-18216Y142524D01*
X-18236Y142358D01*
X-18294Y142006D01*
X-18294Y141988D01*
X-18313Y141932D01*
X-18333Y141840D01*
X-18352Y141729D01*
X-18410Y141470D01*
X-18468Y141193D01*
X-18468Y141174D01*
X-18487Y141137D01*
X-18506Y141063D01*
X-18543Y140990D01*
X-18619Y140805D01*
X-18713Y140602D01*
X-18732Y140565D01*
X-18788Y140492D01*
X-18845Y140381D01*
X-18901Y140308D01*
X-18919Y140289D01*
X-18938Y140271D01*
X-19031Y140197D01*
X-19050Y140198D01*
X-19087Y140180D01*
X-19161Y140162D01*
X-19236Y140125D01*
X-19254Y140125D01*
X-19310Y140107D01*
X-19384Y140108D01*
X-19495Y140090D01*
X-19532Y140091D01*
X-19606Y140091D01*
X-19736Y140092D01*
X-19902Y140094D01*
X-19921Y140094D01*
X-19958Y140094D01*
X-20032Y140095D01*
X-20125Y140096D01*
X-20291Y140115D01*
X-20365Y140134D01*
X-20439Y140154D01*
X-20457Y140172D01*
X-20513Y140191D01*
X-20568Y140266D01*
X-20586Y140340D01*
X-20585Y140358D01*
X-20566Y140414D01*
X-20547Y140488D01*
X-20472Y140617D01*
X-20472Y140635D01*
X-20453Y140654D01*
X-20397Y140764D01*
X-20322Y140912D01*
X-20227Y141115D01*
X-20227Y141133D01*
X-20208Y141170D01*
X-20189Y141244D01*
X-20152Y141318D01*
X-20114Y141429D01*
X-20076Y141558D01*
X-19981Y141835D01*
X-19980Y141853D01*
X-19962Y141909D01*
X-19942Y141983D01*
X-19941Y142112D01*
X-19922Y142242D01*
X-19902Y142390D01*
X-19880Y142760D01*
X-19879Y142927D01*
X-19897Y143019D01*
X-19913Y143279D01*
X-19967Y143538D01*
X-19966Y143557D01*
X-19985Y143594D01*
X-20003Y143650D01*
X-20039Y143743D01*
X-20130Y143929D01*
X-20258Y144115D01*
X-20258Y144133D01*
X-20295Y144152D01*
X-20387Y144246D01*
X-20515Y144376D01*
X-20700Y144470D01*
X-20718Y144470D01*
X-20755Y144489D01*
X-20810Y144508D01*
X-20884Y144546D01*
X-21069Y144584D01*
X-21310Y144605D01*
X-21328Y144605D01*
X-21365Y144605D01*
X-21439Y144606D01*
X-21513Y144588D01*
X-21717Y144553D01*
X-21940Y144462D01*
X-21959Y144462D01*
X-21996Y144444D01*
X-22052Y144407D01*
X-22108Y144352D01*
X-22276Y144224D01*
X-22444Y144040D01*
X-22462Y144022D01*
X-22481Y143985D01*
X-22519Y143930D01*
X-22556Y143856D01*
X-22613Y143745D01*
X-22669Y143635D01*
X-22764Y143339D01*
X-22764Y143321D01*
X-22784Y143265D01*
X-22803Y143173D01*
X-22841Y143062D01*
X-22861Y142914D01*
X-22880Y142748D01*
X-22900Y142563D01*
X-22910Y141396D01*
X-22929Y141285D01*
X-22930Y141267D01*
X-22967Y141249D01*
X-23042Y141157D01*
X-23060Y141157D01*
X-23116Y141139D01*
X-23190Y141121D01*
X-23283Y141103D01*
X-23320Y141103D01*
X-23394Y141104D01*
X-23524Y141086D01*
X-23690Y141088D01*
X-23709Y141088D01*
X-23727Y141088D01*
X-23820Y141089D01*
X-23949Y141090D01*
X-24060Y141109D01*
X-24079Y141110D01*
X-24153Y141129D01*
X-24208Y141148D01*
X-24282Y141167D01*
X-24301Y141167D01*
X-24337Y141204D01*
X-24374Y141223D01*
X-24411Y141279D01*
X-24411Y141297D01*
X-24429Y141335D01*
X-24446Y141446D01*
X-24438Y142520D01*
X-24455Y142631D01*
X-24472Y142890D01*
X-24525Y143169D01*
X-24525Y143187D01*
X-24543Y143224D01*
X-24579Y143299D01*
X-24597Y143373D01*
X-24707Y143577D01*
X-24835Y143764D01*
X-24853Y143782D01*
X-24871Y143801D01*
X-24963Y143913D01*
X-25129Y144044D01*
X-25313Y144157D01*
X-25331Y144157D01*
X-25368Y144176D01*
X-25424Y144194D01*
X-25498Y144232D01*
X-25701Y144271D01*
X-25942Y144291D01*
X-25960Y144291D01*
X-25997Y144292D01*
X-26108Y144274D01*
X-26275Y144257D01*
X-26442Y144203D01*
X-26461Y144203D01*
X-26479Y144185D01*
X-26591Y144130D01*
X-26721Y144057D01*
X-26852Y143947D01*
X-26889Y143910D01*
X-26964Y143837D01*
X-27057Y143689D01*
X-27133Y143505D01*
X-27133Y143486D01*
X-27152Y143449D01*
X-27171Y143394D01*
X-27190Y143320D01*
X-27229Y143117D01*
X-27249Y142876D01*
X-27251Y142728D01*
X-27233Y142617D01*
X-27198Y142357D01*
X-27126Y142079D01*
X-27127Y142060D01*
X-27108Y142023D01*
X-27072Y141949D01*
X-27054Y141875D01*
X-26963Y141652D01*
X-26854Y141429D01*
X-26854Y141410D01*
X-26836Y141373D01*
X-26799Y141317D01*
X-26763Y141261D01*
X-26672Y141094D01*
X-26580Y140927D01*
X-26562Y140889D01*
X-26526Y140815D01*
X-26489Y140722D01*
X-26472Y140629D01*
X-26472Y140592D01*
X-26491Y140518D01*
X-26528Y140500D01*
X-26603Y140445D01*
X-26621Y140445D01*
X-26658Y140427D01*
X-26733Y140409D01*
X-26825Y140392D01*
X-26862Y140392D01*
X-26937Y140392D01*
X-27066Y140393D01*
X-27233Y140395D01*
X-27251Y140395D01*
X-27270Y140395D01*
X-27344Y140396D01*
X-27455Y140397D01*
X-27566Y140398D01*
X-27585Y140398D01*
X-27640Y140398D01*
X-27714Y140399D01*
X-27770Y140418D01*
X-27788Y140418D01*
X-27825Y140437D01*
X-27917Y140493D01*
X-27936Y140493D01*
X-27972Y140531D01*
X-28064Y140605D01*
X-28083Y140624D01*
X-28138Y140680D01*
X-28211Y140773D01*
X-28303Y140922D01*
X-28302Y140941D01*
X-28321Y140978D01*
X-28357Y141034D01*
X-28393Y141108D01*
X-28485Y141294D01*
X-28575Y141554D01*
X-28575Y141573D01*
X-28593Y141628D01*
X-28629Y141703D01*
X-28665Y141814D01*
X-28701Y141944D01*
X-28737Y142092D01*
X-28809Y142426D01*
X-28808Y142445D01*
X-28826Y142519D01*
X-28844Y142612D01*
X-28861Y142741D01*
X-28879Y142908D01*
X-28896Y143094D01*
X-28911Y143501D01*
X-28909Y143760D01*
X-28889Y143945D01*
X-28868Y144149D01*
X-28830Y144371D01*
X-28715Y144814D01*
X-28715Y144833D01*
X-28677Y144907D01*
X-28639Y145017D01*
X-28582Y145165D01*
X-28431Y145478D01*
X-28319Y145644D01*
X-28207Y145791D01*
X-28188Y145810D01*
X-28150Y145865D01*
X-28076Y145939D01*
X-27983Y146012D01*
X-27852Y146122D01*
X-27703Y146213D01*
X-27554Y146305D01*
X-27368Y146396D01*
X-27350Y146414D01*
X-27276Y146432D01*
X-27183Y146468D01*
X-27053Y146504D01*
X-26886Y146540D01*
X-26719Y146557D01*
X-26515Y146592D01*
X-26293Y146590D01*
X-26274Y146590D01*
X-26219Y146590D01*
X-26126Y146589D01*
X-25997Y146569D01*
X-25867Y146550D01*
X-25719Y146530D01*
X-25405Y146453D01*
X-25387Y146453D01*
X-25331Y146434D01*
X-25257Y146397D01*
X-25165Y146359D01*
X-24925Y146246D01*
X-24667Y146096D01*
X-24649Y146077D01*
X-24612Y146058D01*
X-24557Y146002D01*
X-24484Y145927D01*
X-24318Y145741D01*
X-24135Y145499D01*
X-24135Y145480D01*
X-24099Y145443D01*
X-24062Y145368D01*
X-24007Y145275D01*
X-23953Y145164D01*
X-23899Y145015D01*
X-23809Y144700D01*
X-23790Y144699D01*
X-23790Y144718D01*
X-23771Y144792D01*
X-23751Y144903D01*
X-23732Y145032D01*
X-23694Y145180D01*
X-23637Y145346D01*
X-23504Y145679D01*
X-23504Y145697D01*
X-23467Y145752D01*
X-23429Y145826D01*
X-23354Y145936D01*
X-23185Y146176D01*
X-22961Y146415D01*
X-22943Y146433D01*
X-22905Y146470D01*
X-22831Y146525D01*
X-22756Y146580D01*
X-22644Y146653D01*
X-22514Y146726D01*
X-22235Y146872D01*
X-22217Y146872D01*
X-22161Y146890D01*
X-22087Y146926D01*
X-21975Y146962D01*
X-21846Y146980D01*
X-21697Y147015D01*
X-21364Y147031D01*
X-21327Y147031D01*
D02*
G37*
%LPC*%
G36*
X121000Y389228D02*
X120908Y389209D01*
X120797Y389191D01*
X120556Y389135D01*
X120426Y389061D01*
X120297Y388987D01*
X120278Y388969D01*
X120241Y388950D01*
X120185Y388895D01*
X120130Y388821D01*
X120056Y388728D01*
X119963Y388599D01*
X119889Y388469D01*
X119815Y388302D01*
X119815Y388284D01*
X119778Y388228D01*
X119759Y388117D01*
X119722Y387988D01*
X119667Y387840D01*
X119629Y387636D01*
X119592Y387414D01*
X119555Y387173D01*
X119555Y387136D01*
X119555Y387043D01*
X119537Y386914D01*
X119537Y386710D01*
X119518Y386488D01*
X119518Y386210D01*
X119499Y385914D01*
X119499Y385580D01*
Y385562D01*
X119499Y385525D01*
X119499Y385469D01*
X119499Y385395D01*
X119499Y385192D01*
X119517Y384951D01*
X119517Y384655D01*
X119536Y384340D01*
X119554Y384044D01*
X119573Y383747D01*
Y383710D01*
X119591Y383636D01*
X119609Y383488D01*
X119647Y383340D01*
X119684Y383155D01*
X119720Y382951D01*
X119794Y382766D01*
X119850Y382599D01*
X119850Y382581D01*
X119887Y382525D01*
X119924Y382451D01*
X119979Y382358D01*
X120127Y382173D01*
X120220Y382081D01*
X120331Y382006D01*
X120350D01*
X120387Y381988D01*
X120442Y381951D01*
X120535Y381932D01*
X120627Y381895D01*
X120757Y381858D01*
X121035Y381840D01*
X121146Y381840D01*
X121220Y381858D01*
X121405Y381876D01*
X121590Y381932D01*
X121609D01*
X121627Y381950D01*
X121738Y382006D01*
X121868Y382099D01*
X121998Y382228D01*
X121998Y382247D01*
X122035Y382265D01*
X122109Y382376D01*
X122201Y382524D01*
X122294Y382728D01*
Y382747D01*
X122313Y382784D01*
X122331Y382858D01*
X122368Y382932D01*
X122442Y383154D01*
X122498Y383432D01*
Y383450D01*
X122517Y383506D01*
X122517Y383580D01*
X122535Y383691D01*
X122554Y383839D01*
X122572Y383987D01*
X122610Y384339D01*
X122610Y384357D01*
X122610Y384431D01*
X122628Y384524D01*
X122628Y384672D01*
X122628Y384839D01*
X122647Y385024D01*
X122647Y385228D01*
X122647Y385450D01*
X122647Y385487D01*
X122647Y385579D01*
X122647Y385709D01*
X122647Y385894D01*
X122629Y386098D01*
X122629Y386301D01*
X122592Y386746D01*
Y386764D01*
X122592Y386838D01*
X122573Y386950D01*
X122555Y387079D01*
X122536Y387246D01*
X122518Y387394D01*
X122463Y387727D01*
Y387746D01*
X122444Y387801D01*
X122426Y387876D01*
X122407Y387968D01*
X122352Y388209D01*
X122259Y388431D01*
X122259Y388450D01*
X122241Y388487D01*
X122185Y388598D01*
X122093Y388746D01*
X121963Y388894D01*
X121926Y388931D01*
X121852Y389005D01*
X121722Y389079D01*
X121574Y389154D01*
X121556D01*
X121537Y389172D01*
X121426Y389191D01*
X121278Y389209D01*
X121074Y389228D01*
X121000Y389228D01*
D02*
G37*
G36*
X-21531Y182771D02*
X-21772Y182736D01*
X-22013Y182701D01*
X-22032Y182701D01*
X-22069Y182683D01*
X-22125Y182665D01*
X-22199Y182647D01*
X-22366Y182574D01*
X-22534Y182464D01*
X-22552Y182464D01*
X-22571Y182446D01*
X-22664Y182354D01*
X-22777Y182225D01*
X-22871Y182041D01*
X-22871Y182023D01*
X-22889Y182004D01*
X-22908Y181949D01*
X-22928Y181875D01*
X-22966Y181672D01*
X-22987Y181413D01*
X-22988Y181283D01*
X-22971Y181135D01*
X-22935Y180968D01*
X-22935Y180931D01*
X-22918Y180838D01*
X-22882Y180708D01*
X-22827Y180541D01*
X-22809Y180504D01*
X-22773Y180411D01*
X-22737Y180299D01*
X-22664Y180151D01*
X-22646Y180114D01*
X-22610Y180039D01*
X-22536Y179927D01*
X-22445Y179797D01*
X-22408Y179797D01*
X-22297Y179796D01*
X-22148Y179795D01*
X-21945Y179811D01*
X-21723Y179810D01*
X-21482Y179826D01*
X-21241Y179843D01*
X-21018Y179878D01*
X-21000Y179878D01*
X-20926Y179896D01*
X-20814Y179913D01*
X-20684Y179949D01*
X-20387Y180021D01*
X-20239Y180094D01*
X-20109Y180148D01*
X-20090Y180148D01*
X-20053Y180185D01*
X-19997Y180221D01*
X-19922Y180276D01*
X-19755Y180423D01*
X-19624Y180607D01*
X-19623Y180625D01*
X-19605Y180662D01*
X-19585Y180718D01*
X-19566Y180810D01*
X-19509Y181014D01*
X-19488Y181273D01*
X-19487Y181402D01*
X-19505Y181495D01*
X-19540Y181699D01*
X-19613Y181903D01*
X-19613Y181922D01*
X-19631Y181959D01*
X-19704Y182071D01*
X-19814Y182220D01*
X-19979Y182369D01*
X-19998Y182369D01*
X-20034Y182407D01*
X-20071Y182425D01*
X-20145Y182482D01*
X-20329Y182576D01*
X-20570Y182652D01*
X-20588Y182652D01*
X-20625Y182671D01*
X-20699Y182690D01*
X-20791Y182709D01*
X-21013Y182748D01*
X-21291Y182769D01*
X-21309Y182769D01*
X-21365Y182769D01*
X-21439Y182770D01*
X-21531Y182771D01*
D02*
G37*
G36*
X-21773Y153460D02*
X-22015Y153425D01*
X-22255Y153390D01*
X-22274Y153390D01*
X-22311Y153372D01*
X-22367Y153354D01*
X-22441Y153336D01*
X-22608Y153263D01*
X-22776Y153153D01*
X-22794Y153154D01*
X-22813Y153135D01*
X-22906Y153043D01*
X-23019Y152915D01*
X-23113Y152730D01*
X-23113Y152712D01*
X-23131Y152694D01*
X-23150Y152638D01*
X-23170Y152564D01*
X-23208Y152361D01*
X-23229Y152102D01*
X-23230Y151972D01*
X-23213Y151824D01*
X-23177Y151657D01*
X-23177Y151620D01*
X-23160Y151527D01*
X-23124Y151397D01*
X-23070Y151230D01*
X-23051Y151193D01*
X-23015Y151100D01*
X-22979Y150989D01*
X-22906Y150840D01*
X-22888Y150803D01*
X-22852Y150728D01*
X-22778Y150617D01*
X-22687Y150486D01*
X-22650Y150486D01*
X-22539Y150485D01*
X-22391Y150484D01*
X-22187Y150501D01*
X-21964Y150499D01*
X-21724Y150515D01*
X-21483Y150532D01*
X-21260Y150567D01*
X-21242Y150567D01*
X-21168Y150585D01*
X-21056Y150602D01*
X-20926Y150638D01*
X-20630Y150710D01*
X-20481Y150783D01*
X-20351Y150837D01*
X-20332Y150837D01*
X-20295Y150874D01*
X-20239Y150910D01*
X-20164Y150965D01*
X-19997Y151112D01*
X-19865Y151296D01*
X-19865Y151315D01*
X-19847Y151352D01*
X-19828Y151407D01*
X-19808Y151499D01*
X-19751Y151703D01*
X-19730Y151962D01*
X-19729Y152091D01*
X-19747Y152184D01*
X-19782Y152388D01*
X-19855Y152592D01*
X-19855Y152611D01*
X-19873Y152648D01*
X-19946Y152760D01*
X-20056Y152909D01*
X-20221Y153058D01*
X-20240Y153059D01*
X-20277Y153096D01*
X-20313Y153115D01*
X-20387Y153171D01*
X-20571Y153265D01*
X-20812Y153341D01*
X-20830Y153341D01*
X-20867Y153360D01*
X-20941Y153379D01*
X-21033Y153398D01*
X-21255Y153437D01*
X-21533Y153458D01*
X-21551Y153458D01*
X-21607Y153459D01*
X-21681Y153459D01*
X-21773Y153460D01*
D02*
G37*
%LPD*%
D10*
X176562Y242045D02*
G03*
X176562Y242045I-1000J0D01*
G01*
X94980Y292615D02*
G03*
X94980Y292615I-1000J0D01*
G01*
X65540Y88590D02*
G03*
X65540Y88590I-1000J0D01*
G01*
X276430Y106480D02*
G03*
X276430Y106480I-1000J0D01*
G01*
X212850Y196700D02*
X218570D01*
X230210Y205469D02*
Y209700D01*
X201210D02*
X209070D01*
X222350D02*
X230210D01*
X201210Y205469D02*
Y209700D01*
X263800Y355710D02*
X282300D01*
X263800Y337710D02*
X282300D01*
X251921Y231868D02*
X262081D01*
Y280128D01*
X251921D02*
X262081D01*
X251921Y231868D02*
Y280128D01*
X253988Y219170D02*
X260013D01*
X253988Y292829D02*
X260013D01*
D11*
X170697Y190226D02*
G03*
X170697Y191226I0J500D01*
G01*
D02*
G03*
X170697Y190226I0J-500D01*
G01*
X47076Y77085D02*
G03*
X48076Y77085I500J0D01*
G01*
D02*
G03*
X47076Y77085I-500J0D01*
G01*
X99614Y170660D02*
G03*
X100614Y170660I500J0D01*
G01*
D02*
G03*
X99614Y170660I-500J0D01*
G01*
X109844Y108318D02*
G03*
X108844Y108318I-500J0D01*
G01*
D02*
G03*
X109844Y108318I500J0D01*
G01*
X123815Y243520D02*
G03*
X123108Y242813I-353J-353D01*
G01*
D02*
G03*
X123815Y243520I353J353D01*
G01*
X275000Y234000D02*
X280000Y232000D01*
X275000Y234000D02*
X280000Y236000D01*
Y232000D02*
Y236000D01*
D12*
X23331Y40647D02*
G03*
X23331Y40647I-600J0D01*
G01*
X234925Y124424D02*
G03*
X234925Y124424I-700J0D01*
G01*
X269760Y140970D02*
G03*
X269760Y140970I-600J0D01*
G01*
D13*
X38748Y195788D02*
G03*
X38748Y195788I-1250J0D01*
G01*
Y141147D02*
G03*
X38748Y141147I-1250J0D01*
G01*
X161430Y176258D02*
G03*
X161430Y176258I-1250J0D01*
G01*
X268972Y198628D02*
G03*
X268972Y198628I-1250J0D01*
G01*
D14*
X303529Y384863D02*
X303531Y389943D01*
X-1Y384972D02*
X1Y390052D01*
X283528Y380743D02*
X303530Y387403D01*
X283532Y394077D02*
X303530Y387403D01*
X0Y387512D02*
X19998Y380838D01*
X0Y387512D02*
X20002Y394172D01*
X196791Y387441D02*
X303530Y387403D01*
X0Y387512D02*
X106739Y387474D01*
X303530Y365760D02*
Y389869D01*
X0Y365229D02*
Y389338D01*
X-21114Y365229D02*
X2995D01*
X-24130Y-21D02*
X0D01*
X-26194Y365271D02*
X-21114Y365229D01*
X-29210Y21D02*
X-24130Y-21D01*
X-23654Y365250D02*
X-17153Y345195D01*
X-30486Y345305D02*
X-23654Y365250D01*
X-26670Y0D02*
X-19838Y19944D01*
X-33171Y20054D02*
X-26670Y0D01*
X-24790Y227650D02*
X-23654Y365250D01*
X-26670Y0D02*
X-25534Y137600D01*
X238021Y299720D02*
Y363817D01*
Y299720D02*
X302119D01*
M02*
