G04*
G04 #@! TF.GenerationSoftware,Altium Limited,Altium Designer,24.9.1 (31)*
G04*
G04 Layer_Physical_Order=4*
G04 Layer_Color=128*
%FSLAX44Y44*%
%MOMM*%
G71*
G04*
G04 #@! TF.SameCoordinates,7AD2B3B8-D285-4593-8982-C88D0E3F9F4F*
G04*
G04*
G04 #@! TF.FilePolarity,Negative*
G04*
G01*
G75*
%ADD102C,1.4670*%
%ADD103C,2.8510*%
%ADD104C,1.0500*%
%ADD105O,1.0000X1.6000*%
%ADD106O,1.6000X1.0000*%
%ADD107O,1.0000X2.0000*%
%ADD108C,0.5000*%
%ADD109C,0.6000*%
%ADD110C,0.9500*%
%ADD111C,1.0160*%
D102*
X50800Y279400D02*
D03*
X40640Y330200D02*
D03*
X60960D02*
D03*
D103*
X25400Y279400D02*
D03*
X76200D02*
D03*
X25400Y311150D02*
D03*
X76200D02*
D03*
D104*
X63600Y194120D02*
D03*
X81180Y194500D02*
D03*
D105*
X98470Y19290D02*
D03*
X208870D02*
D03*
D106*
X193870Y62790D02*
D03*
X113470D02*
D03*
D107*
X110470Y67790D02*
D03*
X196870D02*
D03*
D108*
X192110Y186726D02*
D03*
X179789Y167659D02*
D03*
Y171659D02*
D03*
X90616Y173640D02*
D03*
X97102Y173601D02*
D03*
X84347Y156108D02*
D03*
X91014Y136776D02*
D03*
X97214D02*
D03*
X224765Y137735D02*
D03*
Y146050D02*
D03*
X41246Y145003D02*
D03*
Y123587D02*
D03*
Y96090D02*
D03*
X84450Y77893D02*
D03*
X77825Y77830D02*
D03*
X91440Y252780D02*
D03*
X262300Y246000D02*
D03*
X52070Y146050D02*
D03*
X59605Y147650D02*
D03*
X34616Y81870D02*
D03*
X29616D02*
D03*
X23989Y87085D02*
D03*
X206139Y205527D02*
D03*
D109*
X164742Y168678D02*
D03*
X165017Y146559D02*
D03*
X142817Y146639D02*
D03*
Y168759D02*
D03*
X154400D02*
D03*
Y146559D02*
D03*
X164742Y157659D02*
D03*
X142817D02*
D03*
X153917D02*
D03*
X55837Y166028D02*
D03*
D110*
X13360Y191765D02*
D03*
Y228766D02*
D03*
Y174125D02*
D03*
Y137126D02*
D03*
X291860Y165650D02*
D03*
Y202650D02*
D03*
D111*
X6350Y365760D02*
G03*
X0Y360680I-635J-5715D01*
G01*
X303530Y360680D02*
G03*
X295910Y365760I-6350J-1270D01*
G01*
X295910Y1270D02*
G03*
X303530Y7620I635J6985D01*
G01*
X0Y7620D02*
G03*
X6350Y1270I6350J0D01*
G01*
X0Y7620D02*
X0Y360680D01*
X6350Y365760D02*
X295910Y365760D01*
X303530Y360680D02*
X303530Y7620D01*
X198120Y1270D02*
X295910D01*
X198120D02*
Y52070D01*
X106680D02*
X198120D01*
X106680Y1270D02*
Y52070D01*
X6350Y1270D02*
X106680D01*
M02*
