G04*
G04 #@! TF.GenerationSoftware,Altium Limited,Altium Designer,24.9.1 (31)*
G04*
G04 Layer_Color=32768*
%FSLAX44Y44*%
%MOMM*%
G71*
G04*
G04 #@! TF.SameCoordinates,7AD2B3B8-D285-4593-8982-C88D0E3F9F4F*
G04*
G04*
G04 #@! TF.FilePolarity,Positive*
G04*
G01*
G75*
%ADD10C,0.2000*%
%ADD11C,0.1000*%
D10*
X174117Y195026D02*
Y205126D01*
X179417D01*
Y195026D02*
Y205126D01*
X174117Y195026D02*
X179417D01*
X182517D02*
Y205126D01*
X187817D01*
Y195026D02*
Y205126D01*
X182517Y195026D02*
X187817D01*
X56700Y59120D02*
X92700D01*
Y90120D01*
X56700Y59120D02*
Y90120D01*
X92700D01*
X131747Y293368D02*
X139247D01*
Y308093D01*
X131747D02*
X139247D01*
X131747Y293368D02*
Y308093D01*
X140395Y293368D02*
X147895D01*
Y308093D01*
X140395D02*
X147895D01*
X140395Y293368D02*
Y308093D01*
X32186Y99715D02*
Y105015D01*
Y99715D02*
X42286D01*
Y105015D01*
X32186D02*
X42286D01*
X15311Y99700D02*
Y105000D01*
Y99700D02*
X25411D01*
Y105000D01*
X15311D02*
X25411D01*
X45822Y32549D02*
Y47274D01*
X38322Y32549D02*
X45822D01*
X38322D02*
Y47274D01*
X45822D01*
X23117Y39609D02*
X37842D01*
Y32109D02*
Y39609D01*
X23117Y32109D02*
X37842D01*
X23117D02*
Y39609D01*
X61200Y59912D02*
X68700D01*
X61200Y45188D02*
Y59912D01*
Y45188D02*
X68700D01*
Y59912D01*
X80100Y48431D02*
Y58531D01*
X74800Y48431D02*
X80100D01*
X74800D02*
Y58531D01*
X80100D01*
X104304Y167240D02*
X114404D01*
Y161940D02*
Y167240D01*
X104304Y161940D02*
X114404D01*
X104304D02*
Y167240D01*
Y158840D02*
X114404D01*
Y153540D02*
Y158840D01*
X104304Y153540D02*
X114404D01*
X104304D02*
Y158840D01*
X144212Y203090D02*
X154312D01*
X144212D02*
Y208390D01*
X154312D01*
Y203090D02*
Y208390D01*
X261595Y158806D02*
Y168906D01*
X266895D01*
Y158806D02*
Y168906D01*
X261595Y158806D02*
X266895D01*
X-3140Y182066D02*
X36860D01*
X-3140D02*
Y238465D01*
X36860D01*
Y182066D02*
Y238465D01*
X44560Y225156D02*
Y235256D01*
X39260Y225156D02*
X44560D01*
X39260D02*
Y235256D01*
X44560D01*
X205398Y171908D02*
Y182732D01*
Y171908D02*
X226022D01*
Y182732D01*
X205398D02*
X226022D01*
X55880Y185420D02*
X88900D01*
Y203200D01*
X55880Y185420D02*
Y203200D01*
X88900D01*
X192400Y343480D02*
Y352480D01*
X178400D02*
X192400D01*
X178400Y343480D02*
Y352480D01*
Y343480D02*
X192400D01*
X36860Y127425D02*
Y183825D01*
X-3140D02*
X36860D01*
X-3140Y127425D02*
Y183825D01*
Y127425D02*
X36860D01*
X127531Y251107D02*
Y290169D01*
X106469Y251107D02*
X127531D01*
X106469D02*
Y290169D01*
X127531D01*
X145049Y238645D02*
X169049D01*
Y222645D02*
Y238645D01*
X145049Y222645D02*
X169049D01*
X145049D02*
Y238645D01*
X198710Y183977D02*
X232710D01*
Y222423D01*
X198710D02*
X232710D01*
X198710Y183977D02*
Y222423D01*
X251050Y356710D02*
X295050D01*
Y336710D02*
Y356710D01*
X251050Y336710D02*
X295050D01*
X251050D02*
Y356710D01*
X155680Y169508D02*
Y190508D01*
X121680D02*
X155680D01*
X121680Y169508D02*
Y190508D01*
Y169508D02*
X155680D01*
X228450Y349480D02*
X233750D01*
X228450Y339380D02*
Y349480D01*
Y339380D02*
X233750D01*
Y349480D01*
X193392D02*
X198692D01*
X193392Y339380D02*
Y349480D01*
Y339380D02*
X198692D01*
Y349480D01*
X116503Y225992D02*
X120251Y222245D01*
X127393Y229386D01*
X123645Y233134D02*
X127393Y229386D01*
X116503Y225992D02*
X123645Y233134D01*
X100310Y256055D02*
X104058Y252307D01*
X93169Y248913D02*
X100310Y256055D01*
X93169Y248913D02*
X96916Y245166D01*
X104058Y252307D01*
X101581Y262600D02*
Y277325D01*
X109081D01*
Y262600D02*
Y277325D01*
X101581Y262600D02*
X109081D01*
X268360Y155950D02*
Y212350D01*
Y155950D02*
X308360D01*
Y212350D01*
X268360D02*
X308360D01*
X298390Y265637D02*
Y280362D01*
X290890Y265637D02*
X298390D01*
X290890D02*
Y280362D01*
X298390D01*
X290770Y265637D02*
Y280362D01*
X283270Y265637D02*
X290770D01*
X283270D02*
Y280362D01*
X290770D01*
X283150Y265637D02*
Y280362D01*
X275650Y265637D02*
X283150D01*
X275650D02*
Y280362D01*
X283150D01*
X223322Y267507D02*
X238046D01*
X223322D02*
Y275007D01*
X238046D01*
Y267507D02*
Y275007D01*
X223322Y259887D02*
X238046D01*
X223322D02*
Y267387D01*
X238046D01*
Y259887D02*
Y267387D01*
X171625Y349780D02*
X176925D01*
X171625Y339680D02*
Y349780D01*
Y339680D02*
X176925D01*
Y349780D01*
X146862Y215770D02*
Y221070D01*
Y215770D02*
X156962D01*
Y221070D01*
X146862D02*
X156962D01*
X167462Y215770D02*
Y221070D01*
X157362D02*
X167462D01*
X157362Y215770D02*
Y221070D01*
Y215770D02*
X167462D01*
X212700Y343480D02*
Y352480D01*
X198700D02*
X212700D01*
X198700Y343480D02*
Y352480D01*
Y343480D02*
X212700D01*
X175518Y279945D02*
X190242D01*
Y272445D02*
Y279945D01*
X175518Y272445D02*
X190242D01*
X175518D02*
Y279945D01*
X270800Y128692D02*
Y143417D01*
X278300D01*
Y128692D02*
Y143417D01*
X270800Y128692D02*
X278300D01*
X251400D02*
Y143417D01*
X243900Y128692D02*
X251400D01*
X243900D02*
Y143417D01*
X251400D01*
X227655Y112410D02*
Y117711D01*
X217555D02*
X227655D01*
X217555Y112410D02*
Y117711D01*
Y112410D02*
X227655D01*
X105582Y95620D02*
Y100920D01*
X95482D02*
X105582D01*
X95482Y95620D02*
Y100920D01*
Y95620D02*
X105582D01*
X39260Y157490D02*
X44560D01*
Y167590D01*
X39260D02*
X44560D01*
X39260Y157490D02*
Y167590D01*
X213210Y349480D02*
X218510D01*
X213210Y339380D02*
Y349480D01*
Y339380D02*
X218510D01*
Y349480D01*
D11*
X267000Y216000D02*
X277000D01*
Y296000D01*
X237000D02*
X277000D01*
X237000D02*
X237000Y216000D01*
X267000D01*
M02*
