M48
;Layer_Color=9474304
;FILE_FORMAT=4:4
METRIC,LZ
;TYPE=PLATED
T01F00S00C0.1000
T02F00S00C0.2000
T03F00S00C0.5500
T05F00S00C0.6500
;TYPE=NON_PLATED
T06F00S00C1.0670
T07F00S00C2.4510
%
T01
X00179789Y00167659
Y00171659
X0019211Y00186726
T02
X00055837Y00166028
X00142817Y00168759
Y00157659
Y00146639
X001544Y00146559
X00165017
X00164742Y00157659
X00153917
X001544Y00168759
X00164742Y00168678
T03
X0029186Y0016565
Y0020265
X0001336Y00191765
Y00174125
Y00137126
Y00228766
T05
X000636Y0019412
X0008118Y001945
T06
X000508Y002794
X0004064Y003302
X0006096
T07
X000254Y002794
Y0031115
X000762
Y002794
M30
