M48
;Layer_Color=9474304
;FILE_FORMAT=4:4
METRIC,LZ
;TYPE=PLATED
T01F00S00C0.1000
;TYPE=NON_PLATED
%
T01
X00023989Y00087085
X00029616Y0008187
X00034616
X00077825Y0007783
X0008445Y00077893
X00041246Y0009609
Y00123587
Y00145003
X0005207Y0014605
X00059605Y0014765
X00084347Y00156108
X00090616Y0017364
X00097102Y00173601
X00097214Y00136776
X00091014
X0009144Y0025278
X00206139Y00205527
X00224765Y0014605
Y00137735
X002623Y00246
M30
